G04 #@! TF.GenerationSoftware,KiCad,Pcbnew,(5.1.5)-3*
G04 #@! TF.CreationDate,2020-04-14T19:59:01+09:00*
G04 #@! TF.ProjectId,APA102_MENZUKE5_base,41504131-3032-45f4-9d45-4e5a554b4535,rev?*
G04 #@! TF.SameCoordinates,Original*
G04 #@! TF.FileFunction,Other,User*
%FSLAX46Y46*%
G04 Gerber Fmt 4.6, Leading zero omitted, Abs format (unit mm)*
G04 Created by KiCad (PCBNEW (5.1.5)-3) date 2020-04-14 19:59:01*
%MOMM*%
%LPD*%
G04 APERTURE LIST*
%ADD10C,0.150000*%
%ADD11C,0.050000*%
G04 APERTURE END LIST*
D10*
X201333333Y-202652380D02*
X201952380Y-202652380D01*
X201619047Y-203033333D01*
X201761904Y-203033333D01*
X201857142Y-203080952D01*
X201904761Y-203128571D01*
X201952380Y-203223809D01*
X201952380Y-203461904D01*
X201904761Y-203557142D01*
X201857142Y-203604761D01*
X201761904Y-203652380D01*
X201476190Y-203652380D01*
X201380952Y-203604761D01*
X201333333Y-203557142D01*
X202904761Y-203652380D02*
X202333333Y-203652380D01*
X202619047Y-203652380D02*
X202619047Y-202652380D01*
X202523809Y-202795238D01*
X202428571Y-202890476D01*
X202333333Y-202938095D01*
X203285714Y-202747619D02*
X203333333Y-202700000D01*
X203428571Y-202652380D01*
X203666666Y-202652380D01*
X203761904Y-202700000D01*
X203809523Y-202747619D01*
X203857142Y-202842857D01*
X203857142Y-202938095D01*
X203809523Y-203080952D01*
X203238095Y-203652380D01*
X203857142Y-203652380D01*
X204285714Y-203557142D02*
X204333333Y-203604761D01*
X204285714Y-203652380D01*
X204238095Y-203604761D01*
X204285714Y-203557142D01*
X204285714Y-203652380D01*
X204952380Y-202652380D02*
X205047619Y-202652380D01*
X205142857Y-202700000D01*
X205190476Y-202747619D01*
X205238095Y-202842857D01*
X205285714Y-203033333D01*
X205285714Y-203271428D01*
X205238095Y-203461904D01*
X205190476Y-203557142D01*
X205142857Y-203604761D01*
X205047619Y-203652380D01*
X204952380Y-203652380D01*
X204857142Y-203604761D01*
X204809523Y-203557142D01*
X204761904Y-203461904D01*
X204714285Y-203271428D01*
X204714285Y-203033333D01*
X204761904Y-202842857D01*
X204809523Y-202747619D01*
X204857142Y-202700000D01*
X204952380Y-202652380D01*
X205904761Y-202652380D02*
X206000000Y-202652380D01*
X206095238Y-202700000D01*
X206142857Y-202747619D01*
X206190476Y-202842857D01*
X206238095Y-203033333D01*
X206238095Y-203271428D01*
X206190476Y-203461904D01*
X206142857Y-203557142D01*
X206095238Y-203604761D01*
X206000000Y-203652380D01*
X205904761Y-203652380D01*
X205809523Y-203604761D01*
X205761904Y-203557142D01*
X205714285Y-203461904D01*
X205666666Y-203271428D01*
X205666666Y-203033333D01*
X205714285Y-202842857D01*
X205761904Y-202747619D01*
X205809523Y-202700000D01*
X205904761Y-202652380D01*
X206857142Y-202652380D02*
X206952380Y-202652380D01*
X207047619Y-202700000D01*
X207095238Y-202747619D01*
X207142857Y-202842857D01*
X207190476Y-203033333D01*
X207190476Y-203271428D01*
X207142857Y-203461904D01*
X207095238Y-203557142D01*
X207047619Y-203604761D01*
X206952380Y-203652380D01*
X206857142Y-203652380D01*
X206761904Y-203604761D01*
X206714285Y-203557142D01*
X206666666Y-203461904D01*
X206619047Y-203271428D01*
X206619047Y-203033333D01*
X206666666Y-202842857D01*
X206714285Y-202747619D01*
X206761904Y-202700000D01*
X206857142Y-202652380D01*
X208380952Y-203652380D02*
X208380952Y-202985714D01*
X208380952Y-203080952D02*
X208428571Y-203033333D01*
X208523809Y-202985714D01*
X208666666Y-202985714D01*
X208761904Y-203033333D01*
X208809523Y-203128571D01*
X208809523Y-203652380D01*
X208809523Y-203128571D02*
X208857142Y-203033333D01*
X208952380Y-202985714D01*
X209095238Y-202985714D01*
X209190476Y-203033333D01*
X209238095Y-203128571D01*
X209238095Y-203652380D01*
X209714285Y-203652380D02*
X209714285Y-202985714D01*
X209714285Y-203080952D02*
X209761904Y-203033333D01*
X209857142Y-202985714D01*
X210000000Y-202985714D01*
X210095238Y-203033333D01*
X210142857Y-203128571D01*
X210142857Y-203652380D01*
X210142857Y-203128571D02*
X210190476Y-203033333D01*
X210285714Y-202985714D01*
X210428571Y-202985714D01*
X210523809Y-203033333D01*
X210571428Y-203128571D01*
X210571428Y-203652380D01*
D11*
X362000000Y-202000000D02*
X50000000Y-202000000D01*
X362000000Y-198000000D02*
X362000000Y-202586421D01*
X50000000Y-198000000D02*
X50000000Y-202586421D01*
X50000000Y-202000000D02*
X51126504Y-201413579D01*
X50000000Y-202000000D02*
X51126504Y-202586421D01*
X362000000Y-202000000D02*
X360873496Y-201413579D01*
X362000000Y-202000000D02*
X360873496Y-202586421D01*
D10*
X201333333Y-170652380D02*
X201952380Y-170652380D01*
X201619047Y-171033333D01*
X201761904Y-171033333D01*
X201857142Y-171080952D01*
X201904761Y-171128571D01*
X201952380Y-171223809D01*
X201952380Y-171461904D01*
X201904761Y-171557142D01*
X201857142Y-171604761D01*
X201761904Y-171652380D01*
X201476190Y-171652380D01*
X201380952Y-171604761D01*
X201333333Y-171557142D01*
X202904761Y-171652380D02*
X202333333Y-171652380D01*
X202619047Y-171652380D02*
X202619047Y-170652380D01*
X202523809Y-170795238D01*
X202428571Y-170890476D01*
X202333333Y-170938095D01*
X203285714Y-170747619D02*
X203333333Y-170700000D01*
X203428571Y-170652380D01*
X203666666Y-170652380D01*
X203761904Y-170700000D01*
X203809523Y-170747619D01*
X203857142Y-170842857D01*
X203857142Y-170938095D01*
X203809523Y-171080952D01*
X203238095Y-171652380D01*
X203857142Y-171652380D01*
X204285714Y-171557142D02*
X204333333Y-171604761D01*
X204285714Y-171652380D01*
X204238095Y-171604761D01*
X204285714Y-171557142D01*
X204285714Y-171652380D01*
X204952380Y-170652380D02*
X205047619Y-170652380D01*
X205142857Y-170700000D01*
X205190476Y-170747619D01*
X205238095Y-170842857D01*
X205285714Y-171033333D01*
X205285714Y-171271428D01*
X205238095Y-171461904D01*
X205190476Y-171557142D01*
X205142857Y-171604761D01*
X205047619Y-171652380D01*
X204952380Y-171652380D01*
X204857142Y-171604761D01*
X204809523Y-171557142D01*
X204761904Y-171461904D01*
X204714285Y-171271428D01*
X204714285Y-171033333D01*
X204761904Y-170842857D01*
X204809523Y-170747619D01*
X204857142Y-170700000D01*
X204952380Y-170652380D01*
X205904761Y-170652380D02*
X206000000Y-170652380D01*
X206095238Y-170700000D01*
X206142857Y-170747619D01*
X206190476Y-170842857D01*
X206238095Y-171033333D01*
X206238095Y-171271428D01*
X206190476Y-171461904D01*
X206142857Y-171557142D01*
X206095238Y-171604761D01*
X206000000Y-171652380D01*
X205904761Y-171652380D01*
X205809523Y-171604761D01*
X205761904Y-171557142D01*
X205714285Y-171461904D01*
X205666666Y-171271428D01*
X205666666Y-171033333D01*
X205714285Y-170842857D01*
X205761904Y-170747619D01*
X205809523Y-170700000D01*
X205904761Y-170652380D01*
X206857142Y-170652380D02*
X206952380Y-170652380D01*
X207047619Y-170700000D01*
X207095238Y-170747619D01*
X207142857Y-170842857D01*
X207190476Y-171033333D01*
X207190476Y-171271428D01*
X207142857Y-171461904D01*
X207095238Y-171557142D01*
X207047619Y-171604761D01*
X206952380Y-171652380D01*
X206857142Y-171652380D01*
X206761904Y-171604761D01*
X206714285Y-171557142D01*
X206666666Y-171461904D01*
X206619047Y-171271428D01*
X206619047Y-171033333D01*
X206666666Y-170842857D01*
X206714285Y-170747619D01*
X206761904Y-170700000D01*
X206857142Y-170652380D01*
X208380952Y-171652380D02*
X208380952Y-170985714D01*
X208380952Y-171080952D02*
X208428571Y-171033333D01*
X208523809Y-170985714D01*
X208666666Y-170985714D01*
X208761904Y-171033333D01*
X208809523Y-171128571D01*
X208809523Y-171652380D01*
X208809523Y-171128571D02*
X208857142Y-171033333D01*
X208952380Y-170985714D01*
X209095238Y-170985714D01*
X209190476Y-171033333D01*
X209238095Y-171128571D01*
X209238095Y-171652380D01*
X209714285Y-171652380D02*
X209714285Y-170985714D01*
X209714285Y-171080952D02*
X209761904Y-171033333D01*
X209857142Y-170985714D01*
X210000000Y-170985714D01*
X210095238Y-171033333D01*
X210142857Y-171128571D01*
X210142857Y-171652380D01*
X210142857Y-171128571D02*
X210190476Y-171033333D01*
X210285714Y-170985714D01*
X210428571Y-170985714D01*
X210523809Y-171033333D01*
X210571428Y-171128571D01*
X210571428Y-171652380D01*
D11*
X362000000Y-170000000D02*
X50000000Y-170000000D01*
X362000000Y-166000000D02*
X362000000Y-170586421D01*
X50000000Y-166000000D02*
X50000000Y-170586421D01*
X50000000Y-170000000D02*
X51126504Y-169413579D01*
X50000000Y-170000000D02*
X51126504Y-170586421D01*
X362000000Y-170000000D02*
X360873496Y-169413579D01*
X362000000Y-170000000D02*
X360873496Y-170586421D01*
D10*
X201333333Y-138652380D02*
X201952380Y-138652380D01*
X201619047Y-139033333D01*
X201761904Y-139033333D01*
X201857142Y-139080952D01*
X201904761Y-139128571D01*
X201952380Y-139223809D01*
X201952380Y-139461904D01*
X201904761Y-139557142D01*
X201857142Y-139604761D01*
X201761904Y-139652380D01*
X201476190Y-139652380D01*
X201380952Y-139604761D01*
X201333333Y-139557142D01*
X202904761Y-139652380D02*
X202333333Y-139652380D01*
X202619047Y-139652380D02*
X202619047Y-138652380D01*
X202523809Y-138795238D01*
X202428571Y-138890476D01*
X202333333Y-138938095D01*
X203285714Y-138747619D02*
X203333333Y-138700000D01*
X203428571Y-138652380D01*
X203666666Y-138652380D01*
X203761904Y-138700000D01*
X203809523Y-138747619D01*
X203857142Y-138842857D01*
X203857142Y-138938095D01*
X203809523Y-139080952D01*
X203238095Y-139652380D01*
X203857142Y-139652380D01*
X204285714Y-139557142D02*
X204333333Y-139604761D01*
X204285714Y-139652380D01*
X204238095Y-139604761D01*
X204285714Y-139557142D01*
X204285714Y-139652380D01*
X204952380Y-138652380D02*
X205047619Y-138652380D01*
X205142857Y-138700000D01*
X205190476Y-138747619D01*
X205238095Y-138842857D01*
X205285714Y-139033333D01*
X205285714Y-139271428D01*
X205238095Y-139461904D01*
X205190476Y-139557142D01*
X205142857Y-139604761D01*
X205047619Y-139652380D01*
X204952380Y-139652380D01*
X204857142Y-139604761D01*
X204809523Y-139557142D01*
X204761904Y-139461904D01*
X204714285Y-139271428D01*
X204714285Y-139033333D01*
X204761904Y-138842857D01*
X204809523Y-138747619D01*
X204857142Y-138700000D01*
X204952380Y-138652380D01*
X205904761Y-138652380D02*
X206000000Y-138652380D01*
X206095238Y-138700000D01*
X206142857Y-138747619D01*
X206190476Y-138842857D01*
X206238095Y-139033333D01*
X206238095Y-139271428D01*
X206190476Y-139461904D01*
X206142857Y-139557142D01*
X206095238Y-139604761D01*
X206000000Y-139652380D01*
X205904761Y-139652380D01*
X205809523Y-139604761D01*
X205761904Y-139557142D01*
X205714285Y-139461904D01*
X205666666Y-139271428D01*
X205666666Y-139033333D01*
X205714285Y-138842857D01*
X205761904Y-138747619D01*
X205809523Y-138700000D01*
X205904761Y-138652380D01*
X206857142Y-138652380D02*
X206952380Y-138652380D01*
X207047619Y-138700000D01*
X207095238Y-138747619D01*
X207142857Y-138842857D01*
X207190476Y-139033333D01*
X207190476Y-139271428D01*
X207142857Y-139461904D01*
X207095238Y-139557142D01*
X207047619Y-139604761D01*
X206952380Y-139652380D01*
X206857142Y-139652380D01*
X206761904Y-139604761D01*
X206714285Y-139557142D01*
X206666666Y-139461904D01*
X206619047Y-139271428D01*
X206619047Y-139033333D01*
X206666666Y-138842857D01*
X206714285Y-138747619D01*
X206761904Y-138700000D01*
X206857142Y-138652380D01*
X208380952Y-139652380D02*
X208380952Y-138985714D01*
X208380952Y-139080952D02*
X208428571Y-139033333D01*
X208523809Y-138985714D01*
X208666666Y-138985714D01*
X208761904Y-139033333D01*
X208809523Y-139128571D01*
X208809523Y-139652380D01*
X208809523Y-139128571D02*
X208857142Y-139033333D01*
X208952380Y-138985714D01*
X209095238Y-138985714D01*
X209190476Y-139033333D01*
X209238095Y-139128571D01*
X209238095Y-139652380D01*
X209714285Y-139652380D02*
X209714285Y-138985714D01*
X209714285Y-139080952D02*
X209761904Y-139033333D01*
X209857142Y-138985714D01*
X210000000Y-138985714D01*
X210095238Y-139033333D01*
X210142857Y-139128571D01*
X210142857Y-139652380D01*
X210142857Y-139128571D02*
X210190476Y-139033333D01*
X210285714Y-138985714D01*
X210428571Y-138985714D01*
X210523809Y-139033333D01*
X210571428Y-139128571D01*
X210571428Y-139652380D01*
D11*
X362000000Y-138000000D02*
X50000000Y-138000000D01*
X362000000Y-134000000D02*
X362000000Y-138586421D01*
X50000000Y-134000000D02*
X50000000Y-138586421D01*
X50000000Y-138000000D02*
X51126504Y-137413579D01*
X50000000Y-138000000D02*
X51126504Y-138586421D01*
X362000000Y-138000000D02*
X360873496Y-137413579D01*
X362000000Y-138000000D02*
X360873496Y-138586421D01*
D10*
X201333333Y-106652380D02*
X201952380Y-106652380D01*
X201619047Y-107033333D01*
X201761904Y-107033333D01*
X201857142Y-107080952D01*
X201904761Y-107128571D01*
X201952380Y-107223809D01*
X201952380Y-107461904D01*
X201904761Y-107557142D01*
X201857142Y-107604761D01*
X201761904Y-107652380D01*
X201476190Y-107652380D01*
X201380952Y-107604761D01*
X201333333Y-107557142D01*
X202904761Y-107652380D02*
X202333333Y-107652380D01*
X202619047Y-107652380D02*
X202619047Y-106652380D01*
X202523809Y-106795238D01*
X202428571Y-106890476D01*
X202333333Y-106938095D01*
X203285714Y-106747619D02*
X203333333Y-106700000D01*
X203428571Y-106652380D01*
X203666666Y-106652380D01*
X203761904Y-106700000D01*
X203809523Y-106747619D01*
X203857142Y-106842857D01*
X203857142Y-106938095D01*
X203809523Y-107080952D01*
X203238095Y-107652380D01*
X203857142Y-107652380D01*
X204285714Y-107557142D02*
X204333333Y-107604761D01*
X204285714Y-107652380D01*
X204238095Y-107604761D01*
X204285714Y-107557142D01*
X204285714Y-107652380D01*
X204952380Y-106652380D02*
X205047619Y-106652380D01*
X205142857Y-106700000D01*
X205190476Y-106747619D01*
X205238095Y-106842857D01*
X205285714Y-107033333D01*
X205285714Y-107271428D01*
X205238095Y-107461904D01*
X205190476Y-107557142D01*
X205142857Y-107604761D01*
X205047619Y-107652380D01*
X204952380Y-107652380D01*
X204857142Y-107604761D01*
X204809523Y-107557142D01*
X204761904Y-107461904D01*
X204714285Y-107271428D01*
X204714285Y-107033333D01*
X204761904Y-106842857D01*
X204809523Y-106747619D01*
X204857142Y-106700000D01*
X204952380Y-106652380D01*
X205904761Y-106652380D02*
X206000000Y-106652380D01*
X206095238Y-106700000D01*
X206142857Y-106747619D01*
X206190476Y-106842857D01*
X206238095Y-107033333D01*
X206238095Y-107271428D01*
X206190476Y-107461904D01*
X206142857Y-107557142D01*
X206095238Y-107604761D01*
X206000000Y-107652380D01*
X205904761Y-107652380D01*
X205809523Y-107604761D01*
X205761904Y-107557142D01*
X205714285Y-107461904D01*
X205666666Y-107271428D01*
X205666666Y-107033333D01*
X205714285Y-106842857D01*
X205761904Y-106747619D01*
X205809523Y-106700000D01*
X205904761Y-106652380D01*
X206857142Y-106652380D02*
X206952380Y-106652380D01*
X207047619Y-106700000D01*
X207095238Y-106747619D01*
X207142857Y-106842857D01*
X207190476Y-107033333D01*
X207190476Y-107271428D01*
X207142857Y-107461904D01*
X207095238Y-107557142D01*
X207047619Y-107604761D01*
X206952380Y-107652380D01*
X206857142Y-107652380D01*
X206761904Y-107604761D01*
X206714285Y-107557142D01*
X206666666Y-107461904D01*
X206619047Y-107271428D01*
X206619047Y-107033333D01*
X206666666Y-106842857D01*
X206714285Y-106747619D01*
X206761904Y-106700000D01*
X206857142Y-106652380D01*
X208380952Y-107652380D02*
X208380952Y-106985714D01*
X208380952Y-107080952D02*
X208428571Y-107033333D01*
X208523809Y-106985714D01*
X208666666Y-106985714D01*
X208761904Y-107033333D01*
X208809523Y-107128571D01*
X208809523Y-107652380D01*
X208809523Y-107128571D02*
X208857142Y-107033333D01*
X208952380Y-106985714D01*
X209095238Y-106985714D01*
X209190476Y-107033333D01*
X209238095Y-107128571D01*
X209238095Y-107652380D01*
X209714285Y-107652380D02*
X209714285Y-106985714D01*
X209714285Y-107080952D02*
X209761904Y-107033333D01*
X209857142Y-106985714D01*
X210000000Y-106985714D01*
X210095238Y-107033333D01*
X210142857Y-107128571D01*
X210142857Y-107652380D01*
X210142857Y-107128571D02*
X210190476Y-107033333D01*
X210285714Y-106985714D01*
X210428571Y-106985714D01*
X210523809Y-107033333D01*
X210571428Y-107128571D01*
X210571428Y-107652380D01*
D11*
X362000000Y-106000000D02*
X50000000Y-106000000D01*
X362000000Y-102000000D02*
X362000000Y-106586421D01*
X50000000Y-102000000D02*
X50000000Y-106586421D01*
X50000000Y-106000000D02*
X51126504Y-105413579D01*
X50000000Y-106000000D02*
X51126504Y-106586421D01*
X362000000Y-106000000D02*
X360873496Y-105413579D01*
X362000000Y-106000000D02*
X360873496Y-106586421D01*
D10*
X201333333Y-74652380D02*
X201952380Y-74652380D01*
X201619047Y-75033333D01*
X201761904Y-75033333D01*
X201857142Y-75080952D01*
X201904761Y-75128571D01*
X201952380Y-75223809D01*
X201952380Y-75461904D01*
X201904761Y-75557142D01*
X201857142Y-75604761D01*
X201761904Y-75652380D01*
X201476190Y-75652380D01*
X201380952Y-75604761D01*
X201333333Y-75557142D01*
X202904761Y-75652380D02*
X202333333Y-75652380D01*
X202619047Y-75652380D02*
X202619047Y-74652380D01*
X202523809Y-74795238D01*
X202428571Y-74890476D01*
X202333333Y-74938095D01*
X203285714Y-74747619D02*
X203333333Y-74700000D01*
X203428571Y-74652380D01*
X203666666Y-74652380D01*
X203761904Y-74700000D01*
X203809523Y-74747619D01*
X203857142Y-74842857D01*
X203857142Y-74938095D01*
X203809523Y-75080952D01*
X203238095Y-75652380D01*
X203857142Y-75652380D01*
X204285714Y-75557142D02*
X204333333Y-75604761D01*
X204285714Y-75652380D01*
X204238095Y-75604761D01*
X204285714Y-75557142D01*
X204285714Y-75652380D01*
X204952380Y-74652380D02*
X205047619Y-74652380D01*
X205142857Y-74700000D01*
X205190476Y-74747619D01*
X205238095Y-74842857D01*
X205285714Y-75033333D01*
X205285714Y-75271428D01*
X205238095Y-75461904D01*
X205190476Y-75557142D01*
X205142857Y-75604761D01*
X205047619Y-75652380D01*
X204952380Y-75652380D01*
X204857142Y-75604761D01*
X204809523Y-75557142D01*
X204761904Y-75461904D01*
X204714285Y-75271428D01*
X204714285Y-75033333D01*
X204761904Y-74842857D01*
X204809523Y-74747619D01*
X204857142Y-74700000D01*
X204952380Y-74652380D01*
X205904761Y-74652380D02*
X206000000Y-74652380D01*
X206095238Y-74700000D01*
X206142857Y-74747619D01*
X206190476Y-74842857D01*
X206238095Y-75033333D01*
X206238095Y-75271428D01*
X206190476Y-75461904D01*
X206142857Y-75557142D01*
X206095238Y-75604761D01*
X206000000Y-75652380D01*
X205904761Y-75652380D01*
X205809523Y-75604761D01*
X205761904Y-75557142D01*
X205714285Y-75461904D01*
X205666666Y-75271428D01*
X205666666Y-75033333D01*
X205714285Y-74842857D01*
X205761904Y-74747619D01*
X205809523Y-74700000D01*
X205904761Y-74652380D01*
X206857142Y-74652380D02*
X206952380Y-74652380D01*
X207047619Y-74700000D01*
X207095238Y-74747619D01*
X207142857Y-74842857D01*
X207190476Y-75033333D01*
X207190476Y-75271428D01*
X207142857Y-75461904D01*
X207095238Y-75557142D01*
X207047619Y-75604761D01*
X206952380Y-75652380D01*
X206857142Y-75652380D01*
X206761904Y-75604761D01*
X206714285Y-75557142D01*
X206666666Y-75461904D01*
X206619047Y-75271428D01*
X206619047Y-75033333D01*
X206666666Y-74842857D01*
X206714285Y-74747619D01*
X206761904Y-74700000D01*
X206857142Y-74652380D01*
X208380952Y-75652380D02*
X208380952Y-74985714D01*
X208380952Y-75080952D02*
X208428571Y-75033333D01*
X208523809Y-74985714D01*
X208666666Y-74985714D01*
X208761904Y-75033333D01*
X208809523Y-75128571D01*
X208809523Y-75652380D01*
X208809523Y-75128571D02*
X208857142Y-75033333D01*
X208952380Y-74985714D01*
X209095238Y-74985714D01*
X209190476Y-75033333D01*
X209238095Y-75128571D01*
X209238095Y-75652380D01*
X209714285Y-75652380D02*
X209714285Y-74985714D01*
X209714285Y-75080952D02*
X209761904Y-75033333D01*
X209857142Y-74985714D01*
X210000000Y-74985714D01*
X210095238Y-75033333D01*
X210142857Y-75128571D01*
X210142857Y-75652380D01*
X210142857Y-75128571D02*
X210190476Y-75033333D01*
X210285714Y-74985714D01*
X210428571Y-74985714D01*
X210523809Y-75033333D01*
X210571428Y-75128571D01*
X210571428Y-75652380D01*
D11*
X362000000Y-74000000D02*
X50000000Y-74000000D01*
X362000000Y-70000000D02*
X362000000Y-74586421D01*
X50000000Y-70000000D02*
X50000000Y-74586421D01*
X50000000Y-74000000D02*
X51126504Y-73413579D01*
X50000000Y-74000000D02*
X51126504Y-74586421D01*
X362000000Y-74000000D02*
X360873496Y-73413579D01*
X362000000Y-74000000D02*
X360873496Y-74586421D01*
X134250000Y-189850000D02*
X134250000Y-197150000D01*
X139750000Y-189850000D02*
X134250000Y-189850000D01*
X139750000Y-197150000D02*
X139750000Y-189850000D01*
X134250000Y-197150000D02*
X139750000Y-197150000D01*
X50250000Y-197150000D02*
X55750000Y-197150000D01*
X55750000Y-197150000D02*
X55750000Y-189850000D01*
X55750000Y-189850000D02*
X50250000Y-189850000D01*
X50250000Y-189850000D02*
X50250000Y-197150000D01*
X50250000Y-165150000D02*
X55750000Y-165150000D01*
X55750000Y-165150000D02*
X55750000Y-157850000D01*
X55750000Y-157850000D02*
X50250000Y-157850000D01*
X50250000Y-157850000D02*
X50250000Y-165150000D01*
X50250000Y-133150000D02*
X55750000Y-133150000D01*
X55750000Y-133150000D02*
X55750000Y-125850000D01*
X55750000Y-125850000D02*
X50250000Y-125850000D01*
X50250000Y-125850000D02*
X50250000Y-133150000D01*
X50250000Y-101150000D02*
X55750000Y-101150000D01*
X55750000Y-101150000D02*
X55750000Y-93850000D01*
X55750000Y-93850000D02*
X50250000Y-93850000D01*
X50250000Y-93850000D02*
X50250000Y-101150000D01*
X56250000Y-197150000D02*
X61750000Y-197150000D01*
X61750000Y-197150000D02*
X61750000Y-189850000D01*
X61750000Y-189850000D02*
X56250000Y-189850000D01*
X56250000Y-189850000D02*
X56250000Y-197150000D01*
X56250000Y-165150000D02*
X61750000Y-165150000D01*
X61750000Y-165150000D02*
X61750000Y-157850000D01*
X61750000Y-157850000D02*
X56250000Y-157850000D01*
X56250000Y-157850000D02*
X56250000Y-165150000D01*
X56250000Y-133150000D02*
X61750000Y-133150000D01*
X61750000Y-133150000D02*
X61750000Y-125850000D01*
X61750000Y-125850000D02*
X56250000Y-125850000D01*
X56250000Y-125850000D02*
X56250000Y-133150000D01*
X56250000Y-101150000D02*
X61750000Y-101150000D01*
X61750000Y-101150000D02*
X61750000Y-93850000D01*
X61750000Y-93850000D02*
X56250000Y-93850000D01*
X56250000Y-93850000D02*
X56250000Y-101150000D01*
X65250000Y-178900000D02*
X70750000Y-178900000D01*
X70750000Y-178900000D02*
X70750000Y-171600000D01*
X70750000Y-171600000D02*
X65250000Y-171600000D01*
X65250000Y-171600000D02*
X65250000Y-178900000D01*
X65250000Y-146900000D02*
X70750000Y-146900000D01*
X70750000Y-146900000D02*
X70750000Y-139600000D01*
X70750000Y-139600000D02*
X65250000Y-139600000D01*
X65250000Y-139600000D02*
X65250000Y-146900000D01*
X65250000Y-114900000D02*
X70750000Y-114900000D01*
X70750000Y-114900000D02*
X70750000Y-107600000D01*
X70750000Y-107600000D02*
X65250000Y-107600000D01*
X65250000Y-107600000D02*
X65250000Y-114900000D01*
X65250000Y-82900000D02*
X70750000Y-82900000D01*
X70750000Y-82900000D02*
X70750000Y-75600000D01*
X70750000Y-75600000D02*
X65250000Y-75600000D01*
X65250000Y-75600000D02*
X65250000Y-82900000D01*
X80250000Y-197150000D02*
X85750000Y-197150000D01*
X85750000Y-197150000D02*
X85750000Y-189850000D01*
X85750000Y-189850000D02*
X80250000Y-189850000D01*
X80250000Y-189850000D02*
X80250000Y-197150000D01*
X80250000Y-165150000D02*
X85750000Y-165150000D01*
X85750000Y-165150000D02*
X85750000Y-157850000D01*
X85750000Y-157850000D02*
X80250000Y-157850000D01*
X80250000Y-157850000D02*
X80250000Y-165150000D01*
X80250000Y-133150000D02*
X85750000Y-133150000D01*
X85750000Y-133150000D02*
X85750000Y-125850000D01*
X85750000Y-125850000D02*
X80250000Y-125850000D01*
X80250000Y-125850000D02*
X80250000Y-133150000D01*
X80250000Y-101150000D02*
X85750000Y-101150000D01*
X85750000Y-101150000D02*
X85750000Y-93850000D01*
X85750000Y-93850000D02*
X80250000Y-93850000D01*
X80250000Y-93850000D02*
X80250000Y-101150000D01*
X95250000Y-171600000D02*
X95250000Y-178900000D01*
X100750000Y-171600000D02*
X95250000Y-171600000D01*
X100750000Y-178900000D02*
X100750000Y-171600000D01*
X95250000Y-178900000D02*
X100750000Y-178900000D01*
X95250000Y-139600000D02*
X95250000Y-146900000D01*
X100750000Y-139600000D02*
X95250000Y-139600000D01*
X100750000Y-146900000D02*
X100750000Y-139600000D01*
X95250000Y-146900000D02*
X100750000Y-146900000D01*
X95250000Y-107600000D02*
X95250000Y-114900000D01*
X100750000Y-107600000D02*
X95250000Y-107600000D01*
X100750000Y-114900000D02*
X100750000Y-107600000D01*
X95250000Y-114900000D02*
X100750000Y-114900000D01*
X95250000Y-75600000D02*
X95250000Y-82900000D01*
X100750000Y-75600000D02*
X95250000Y-75600000D01*
X100750000Y-82900000D02*
X100750000Y-75600000D01*
X95250000Y-82900000D02*
X100750000Y-82900000D01*
X110250000Y-189850000D02*
X110250000Y-197150000D01*
X115750000Y-189850000D02*
X110250000Y-189850000D01*
X115750000Y-197150000D02*
X115750000Y-189850000D01*
X110250000Y-197150000D02*
X115750000Y-197150000D01*
X110250000Y-157850000D02*
X110250000Y-165150000D01*
X115750000Y-157850000D02*
X110250000Y-157850000D01*
X115750000Y-165150000D02*
X115750000Y-157850000D01*
X110250000Y-165150000D02*
X115750000Y-165150000D01*
X110250000Y-125850000D02*
X110250000Y-133150000D01*
X115750000Y-125850000D02*
X110250000Y-125850000D01*
X115750000Y-133150000D02*
X115750000Y-125850000D01*
X110250000Y-133150000D02*
X115750000Y-133150000D01*
X110250000Y-93850000D02*
X110250000Y-101150000D01*
X115750000Y-93850000D02*
X110250000Y-93850000D01*
X115750000Y-101150000D02*
X115750000Y-93850000D01*
X110250000Y-101150000D02*
X115750000Y-101150000D01*
X137250000Y-178900000D02*
X142750000Y-178900000D01*
X142750000Y-178900000D02*
X142750000Y-171600000D01*
X142750000Y-171600000D02*
X137250000Y-171600000D01*
X137250000Y-171600000D02*
X137250000Y-178900000D01*
X137250000Y-146900000D02*
X142750000Y-146900000D01*
X142750000Y-146900000D02*
X142750000Y-139600000D01*
X142750000Y-139600000D02*
X137250000Y-139600000D01*
X137250000Y-139600000D02*
X137250000Y-146900000D01*
X137250000Y-114900000D02*
X142750000Y-114900000D01*
X142750000Y-114900000D02*
X142750000Y-107600000D01*
X142750000Y-107600000D02*
X137250000Y-107600000D01*
X137250000Y-107600000D02*
X137250000Y-114900000D01*
X137250000Y-82900000D02*
X142750000Y-82900000D01*
X142750000Y-82900000D02*
X142750000Y-75600000D01*
X142750000Y-75600000D02*
X137250000Y-75600000D01*
X137250000Y-75600000D02*
X137250000Y-82900000D01*
X167250000Y-178900000D02*
X172750000Y-178900000D01*
X172750000Y-178900000D02*
X172750000Y-171600000D01*
X172750000Y-171600000D02*
X167250000Y-171600000D01*
X167250000Y-171600000D02*
X167250000Y-178900000D01*
X167250000Y-146900000D02*
X172750000Y-146900000D01*
X172750000Y-146900000D02*
X172750000Y-139600000D01*
X172750000Y-139600000D02*
X167250000Y-139600000D01*
X167250000Y-139600000D02*
X167250000Y-146900000D01*
X167250000Y-114900000D02*
X172750000Y-114900000D01*
X172750000Y-114900000D02*
X172750000Y-107600000D01*
X172750000Y-107600000D02*
X167250000Y-107600000D01*
X167250000Y-107600000D02*
X167250000Y-114900000D01*
X167250000Y-82900000D02*
X172750000Y-82900000D01*
X172750000Y-82900000D02*
X172750000Y-75600000D01*
X172750000Y-75600000D02*
X167250000Y-75600000D01*
X167250000Y-75600000D02*
X167250000Y-82900000D01*
X176250000Y-189850000D02*
X176250000Y-197150000D01*
X181750000Y-189850000D02*
X176250000Y-189850000D01*
X181750000Y-197150000D02*
X181750000Y-189850000D01*
X176250000Y-197150000D02*
X181750000Y-197150000D01*
X176250000Y-157850000D02*
X176250000Y-165150000D01*
X181750000Y-157850000D02*
X176250000Y-157850000D01*
X181750000Y-165150000D02*
X181750000Y-157850000D01*
X176250000Y-165150000D02*
X181750000Y-165150000D01*
X176250000Y-125850000D02*
X176250000Y-133150000D01*
X181750000Y-125850000D02*
X176250000Y-125850000D01*
X181750000Y-133150000D02*
X181750000Y-125850000D01*
X176250000Y-133150000D02*
X181750000Y-133150000D01*
X176250000Y-93850000D02*
X176250000Y-101150000D01*
X181750000Y-93850000D02*
X176250000Y-93850000D01*
X181750000Y-101150000D02*
X181750000Y-93850000D01*
X176250000Y-101150000D02*
X181750000Y-101150000D01*
X149250000Y-171600000D02*
X149250000Y-178900000D01*
X154750000Y-171600000D02*
X149250000Y-171600000D01*
X154750000Y-178900000D02*
X154750000Y-171600000D01*
X149250000Y-178900000D02*
X154750000Y-178900000D01*
X149250000Y-139600000D02*
X149250000Y-146900000D01*
X154750000Y-139600000D02*
X149250000Y-139600000D01*
X154750000Y-146900000D02*
X154750000Y-139600000D01*
X149250000Y-146900000D02*
X154750000Y-146900000D01*
X149250000Y-107600000D02*
X149250000Y-114900000D01*
X154750000Y-107600000D02*
X149250000Y-107600000D01*
X154750000Y-114900000D02*
X154750000Y-107600000D01*
X149250000Y-114900000D02*
X154750000Y-114900000D01*
X149250000Y-75600000D02*
X149250000Y-82900000D01*
X154750000Y-75600000D02*
X149250000Y-75600000D01*
X154750000Y-82900000D02*
X154750000Y-75600000D01*
X149250000Y-82900000D02*
X154750000Y-82900000D01*
X155250000Y-171600000D02*
X155250000Y-178900000D01*
X160750000Y-171600000D02*
X155250000Y-171600000D01*
X160750000Y-178900000D02*
X160750000Y-171600000D01*
X155250000Y-178900000D02*
X160750000Y-178900000D01*
X155250000Y-139600000D02*
X155250000Y-146900000D01*
X160750000Y-139600000D02*
X155250000Y-139600000D01*
X160750000Y-146900000D02*
X160750000Y-139600000D01*
X155250000Y-146900000D02*
X160750000Y-146900000D01*
X155250000Y-107600000D02*
X155250000Y-114900000D01*
X160750000Y-107600000D02*
X155250000Y-107600000D01*
X160750000Y-114900000D02*
X160750000Y-107600000D01*
X155250000Y-114900000D02*
X160750000Y-114900000D01*
X155250000Y-75600000D02*
X155250000Y-82900000D01*
X160750000Y-75600000D02*
X155250000Y-75600000D01*
X160750000Y-82900000D02*
X160750000Y-75600000D01*
X155250000Y-82900000D02*
X160750000Y-82900000D01*
X53250000Y-171600000D02*
X53250000Y-178900000D01*
X58750000Y-171600000D02*
X53250000Y-171600000D01*
X58750000Y-178900000D02*
X58750000Y-171600000D01*
X53250000Y-178900000D02*
X58750000Y-178900000D01*
X53250000Y-139600000D02*
X53250000Y-146900000D01*
X58750000Y-139600000D02*
X53250000Y-139600000D01*
X58750000Y-146900000D02*
X58750000Y-139600000D01*
X53250000Y-146900000D02*
X58750000Y-146900000D01*
X53250000Y-107600000D02*
X53250000Y-114900000D01*
X58750000Y-107600000D02*
X53250000Y-107600000D01*
X58750000Y-114900000D02*
X58750000Y-107600000D01*
X53250000Y-114900000D02*
X58750000Y-114900000D01*
X53250000Y-75600000D02*
X53250000Y-82900000D01*
X58750000Y-75600000D02*
X53250000Y-75600000D01*
X58750000Y-82900000D02*
X58750000Y-75600000D01*
X53250000Y-82900000D02*
X58750000Y-82900000D01*
X62250000Y-189850000D02*
X62250000Y-197150000D01*
X67750000Y-189850000D02*
X62250000Y-189850000D01*
X67750000Y-197150000D02*
X67750000Y-189850000D01*
X62250000Y-197150000D02*
X67750000Y-197150000D01*
X62250000Y-157850000D02*
X62250000Y-165150000D01*
X67750000Y-157850000D02*
X62250000Y-157850000D01*
X67750000Y-165150000D02*
X67750000Y-157850000D01*
X62250000Y-165150000D02*
X67750000Y-165150000D01*
X62250000Y-125850000D02*
X62250000Y-133150000D01*
X67750000Y-125850000D02*
X62250000Y-125850000D01*
X67750000Y-133150000D02*
X67750000Y-125850000D01*
X62250000Y-133150000D02*
X67750000Y-133150000D01*
X62250000Y-93850000D02*
X62250000Y-101150000D01*
X67750000Y-93850000D02*
X62250000Y-93850000D01*
X67750000Y-101150000D02*
X67750000Y-93850000D01*
X62250000Y-101150000D02*
X67750000Y-101150000D01*
X86250000Y-189850000D02*
X86250000Y-197150000D01*
X91750000Y-189850000D02*
X86250000Y-189850000D01*
X91750000Y-197150000D02*
X91750000Y-189850000D01*
X86250000Y-197150000D02*
X91750000Y-197150000D01*
X86250000Y-157850000D02*
X86250000Y-165150000D01*
X91750000Y-157850000D02*
X86250000Y-157850000D01*
X91750000Y-165150000D02*
X91750000Y-157850000D01*
X86250000Y-165150000D02*
X91750000Y-165150000D01*
X86250000Y-125850000D02*
X86250000Y-133150000D01*
X91750000Y-125850000D02*
X86250000Y-125850000D01*
X91750000Y-133150000D02*
X91750000Y-125850000D01*
X86250000Y-133150000D02*
X91750000Y-133150000D01*
X86250000Y-93850000D02*
X86250000Y-101150000D01*
X91750000Y-93850000D02*
X86250000Y-93850000D01*
X91750000Y-101150000D02*
X91750000Y-93850000D01*
X86250000Y-101150000D02*
X91750000Y-101150000D01*
X107250000Y-178900000D02*
X112750000Y-178900000D01*
X112750000Y-178900000D02*
X112750000Y-171600000D01*
X112750000Y-171600000D02*
X107250000Y-171600000D01*
X107250000Y-171600000D02*
X107250000Y-178900000D01*
X107250000Y-146900000D02*
X112750000Y-146900000D01*
X112750000Y-146900000D02*
X112750000Y-139600000D01*
X112750000Y-139600000D02*
X107250000Y-139600000D01*
X107250000Y-139600000D02*
X107250000Y-146900000D01*
X107250000Y-114900000D02*
X112750000Y-114900000D01*
X112750000Y-114900000D02*
X112750000Y-107600000D01*
X112750000Y-107600000D02*
X107250000Y-107600000D01*
X107250000Y-107600000D02*
X107250000Y-114900000D01*
X107250000Y-82900000D02*
X112750000Y-82900000D01*
X112750000Y-82900000D02*
X112750000Y-75600000D01*
X112750000Y-75600000D02*
X107250000Y-75600000D01*
X107250000Y-75600000D02*
X107250000Y-82900000D01*
X146250000Y-197150000D02*
X151750000Y-197150000D01*
X151750000Y-197150000D02*
X151750000Y-189850000D01*
X151750000Y-189850000D02*
X146250000Y-189850000D01*
X146250000Y-189850000D02*
X146250000Y-197150000D01*
X146250000Y-165150000D02*
X151750000Y-165150000D01*
X151750000Y-165150000D02*
X151750000Y-157850000D01*
X151750000Y-157850000D02*
X146250000Y-157850000D01*
X146250000Y-157850000D02*
X146250000Y-165150000D01*
X146250000Y-133150000D02*
X151750000Y-133150000D01*
X151750000Y-133150000D02*
X151750000Y-125850000D01*
X151750000Y-125850000D02*
X146250000Y-125850000D01*
X146250000Y-125850000D02*
X146250000Y-133150000D01*
X146250000Y-101150000D02*
X151750000Y-101150000D01*
X151750000Y-101150000D02*
X151750000Y-93850000D01*
X151750000Y-93850000D02*
X146250000Y-93850000D01*
X146250000Y-93850000D02*
X146250000Y-101150000D01*
X170250000Y-189850000D02*
X170250000Y-197150000D01*
X175750000Y-189850000D02*
X170250000Y-189850000D01*
X175750000Y-197150000D02*
X175750000Y-189850000D01*
X170250000Y-197150000D02*
X175750000Y-197150000D01*
X170250000Y-157850000D02*
X170250000Y-165150000D01*
X175750000Y-157850000D02*
X170250000Y-157850000D01*
X175750000Y-165150000D02*
X175750000Y-157850000D01*
X170250000Y-165150000D02*
X175750000Y-165150000D01*
X170250000Y-125850000D02*
X170250000Y-133150000D01*
X175750000Y-125850000D02*
X170250000Y-125850000D01*
X175750000Y-133150000D02*
X175750000Y-125850000D01*
X170250000Y-133150000D02*
X175750000Y-133150000D01*
X170250000Y-93850000D02*
X170250000Y-101150000D01*
X175750000Y-93850000D02*
X170250000Y-93850000D01*
X175750000Y-101150000D02*
X175750000Y-93850000D01*
X170250000Y-101150000D02*
X175750000Y-101150000D01*
X125250000Y-178900000D02*
X130750000Y-178900000D01*
X130750000Y-178900000D02*
X130750000Y-171600000D01*
X130750000Y-171600000D02*
X125250000Y-171600000D01*
X125250000Y-171600000D02*
X125250000Y-178900000D01*
X125250000Y-146900000D02*
X130750000Y-146900000D01*
X130750000Y-146900000D02*
X130750000Y-139600000D01*
X130750000Y-139600000D02*
X125250000Y-139600000D01*
X125250000Y-139600000D02*
X125250000Y-146900000D01*
X125250000Y-114900000D02*
X130750000Y-114900000D01*
X130750000Y-114900000D02*
X130750000Y-107600000D01*
X130750000Y-107600000D02*
X125250000Y-107600000D01*
X125250000Y-107600000D02*
X125250000Y-114900000D01*
X125250000Y-82900000D02*
X130750000Y-82900000D01*
X130750000Y-82900000D02*
X130750000Y-75600000D01*
X130750000Y-75600000D02*
X125250000Y-75600000D01*
X125250000Y-75600000D02*
X125250000Y-82900000D01*
X140250000Y-189850000D02*
X140250000Y-197150000D01*
X145750000Y-189850000D02*
X140250000Y-189850000D01*
X145750000Y-197150000D02*
X145750000Y-189850000D01*
X140250000Y-197150000D02*
X145750000Y-197150000D01*
X140250000Y-157850000D02*
X140250000Y-165150000D01*
X145750000Y-157850000D02*
X140250000Y-157850000D01*
X145750000Y-165150000D02*
X145750000Y-157850000D01*
X140250000Y-165150000D02*
X145750000Y-165150000D01*
X140250000Y-125850000D02*
X140250000Y-133150000D01*
X145750000Y-125850000D02*
X140250000Y-125850000D01*
X145750000Y-133150000D02*
X145750000Y-125850000D01*
X140250000Y-133150000D02*
X145750000Y-133150000D01*
X140250000Y-93850000D02*
X140250000Y-101150000D01*
X145750000Y-93850000D02*
X140250000Y-93850000D01*
X145750000Y-101150000D02*
X145750000Y-93850000D01*
X140250000Y-101150000D02*
X145750000Y-101150000D01*
X104250000Y-189850000D02*
X104250000Y-197150000D01*
X109750000Y-189850000D02*
X104250000Y-189850000D01*
X109750000Y-197150000D02*
X109750000Y-189850000D01*
X104250000Y-197150000D02*
X109750000Y-197150000D01*
X104250000Y-157850000D02*
X104250000Y-165150000D01*
X109750000Y-157850000D02*
X104250000Y-157850000D01*
X109750000Y-165150000D02*
X109750000Y-157850000D01*
X104250000Y-165150000D02*
X109750000Y-165150000D01*
X104250000Y-125850000D02*
X104250000Y-133150000D01*
X109750000Y-125850000D02*
X104250000Y-125850000D01*
X109750000Y-133150000D02*
X109750000Y-125850000D01*
X104250000Y-133150000D02*
X109750000Y-133150000D01*
X104250000Y-93850000D02*
X104250000Y-101150000D01*
X109750000Y-93850000D02*
X104250000Y-93850000D01*
X109750000Y-101150000D02*
X109750000Y-93850000D01*
X104250000Y-101150000D02*
X109750000Y-101150000D01*
X128250000Y-189850000D02*
X128250000Y-197150000D01*
X133750000Y-189850000D02*
X128250000Y-189850000D01*
X133750000Y-197150000D02*
X133750000Y-189850000D01*
X128250000Y-197150000D02*
X133750000Y-197150000D01*
X128250000Y-157850000D02*
X128250000Y-165150000D01*
X133750000Y-157850000D02*
X128250000Y-157850000D01*
X133750000Y-165150000D02*
X133750000Y-157850000D01*
X128250000Y-165150000D02*
X133750000Y-165150000D01*
X128250000Y-125850000D02*
X128250000Y-133150000D01*
X133750000Y-125850000D02*
X128250000Y-125850000D01*
X133750000Y-133150000D02*
X133750000Y-125850000D01*
X128250000Y-133150000D02*
X133750000Y-133150000D01*
X128250000Y-93850000D02*
X128250000Y-101150000D01*
X133750000Y-93850000D02*
X128250000Y-93850000D01*
X133750000Y-101150000D02*
X133750000Y-93850000D01*
X128250000Y-101150000D02*
X133750000Y-101150000D01*
X74250000Y-189850000D02*
X74250000Y-197150000D01*
X79750000Y-189850000D02*
X74250000Y-189850000D01*
X79750000Y-197150000D02*
X79750000Y-189850000D01*
X74250000Y-197150000D02*
X79750000Y-197150000D01*
X74250000Y-157850000D02*
X74250000Y-165150000D01*
X79750000Y-157850000D02*
X74250000Y-157850000D01*
X79750000Y-165150000D02*
X79750000Y-157850000D01*
X74250000Y-165150000D02*
X79750000Y-165150000D01*
X74250000Y-125850000D02*
X74250000Y-133150000D01*
X79750000Y-125850000D02*
X74250000Y-125850000D01*
X79750000Y-133150000D02*
X79750000Y-125850000D01*
X74250000Y-133150000D02*
X79750000Y-133150000D01*
X74250000Y-93850000D02*
X74250000Y-101150000D01*
X79750000Y-93850000D02*
X74250000Y-93850000D01*
X79750000Y-101150000D02*
X79750000Y-93850000D01*
X74250000Y-101150000D02*
X79750000Y-101150000D01*
X92250000Y-197150000D02*
X97750000Y-197150000D01*
X97750000Y-197150000D02*
X97750000Y-189850000D01*
X97750000Y-189850000D02*
X92250000Y-189850000D01*
X92250000Y-189850000D02*
X92250000Y-197150000D01*
X92250000Y-165150000D02*
X97750000Y-165150000D01*
X97750000Y-165150000D02*
X97750000Y-157850000D01*
X97750000Y-157850000D02*
X92250000Y-157850000D01*
X92250000Y-157850000D02*
X92250000Y-165150000D01*
X92250000Y-133150000D02*
X97750000Y-133150000D01*
X97750000Y-133150000D02*
X97750000Y-125850000D01*
X97750000Y-125850000D02*
X92250000Y-125850000D01*
X92250000Y-125850000D02*
X92250000Y-133150000D01*
X92250000Y-101150000D02*
X97750000Y-101150000D01*
X97750000Y-101150000D02*
X97750000Y-93850000D01*
X97750000Y-93850000D02*
X92250000Y-93850000D01*
X92250000Y-93850000D02*
X92250000Y-101150000D01*
X182250000Y-189850000D02*
X182250000Y-197150000D01*
X187750000Y-189850000D02*
X182250000Y-189850000D01*
X187750000Y-197150000D02*
X187750000Y-189850000D01*
X182250000Y-197150000D02*
X187750000Y-197150000D01*
X182250000Y-157850000D02*
X182250000Y-165150000D01*
X187750000Y-157850000D02*
X182250000Y-157850000D01*
X187750000Y-165150000D02*
X187750000Y-157850000D01*
X182250000Y-165150000D02*
X187750000Y-165150000D01*
X182250000Y-125850000D02*
X182250000Y-133150000D01*
X187750000Y-125850000D02*
X182250000Y-125850000D01*
X187750000Y-133150000D02*
X187750000Y-125850000D01*
X182250000Y-133150000D02*
X187750000Y-133150000D01*
X182250000Y-93850000D02*
X182250000Y-101150000D01*
X187750000Y-93850000D02*
X182250000Y-93850000D01*
X187750000Y-101150000D02*
X187750000Y-93850000D01*
X182250000Y-101150000D02*
X187750000Y-101150000D01*
X134250000Y-157850000D02*
X134250000Y-165150000D01*
X139750000Y-157850000D02*
X134250000Y-157850000D01*
X139750000Y-165150000D02*
X139750000Y-157850000D01*
X134250000Y-165150000D02*
X139750000Y-165150000D01*
X134250000Y-125850000D02*
X134250000Y-133150000D01*
X139750000Y-125850000D02*
X134250000Y-125850000D01*
X139750000Y-133150000D02*
X139750000Y-125850000D01*
X134250000Y-133150000D02*
X139750000Y-133150000D01*
X134250000Y-93850000D02*
X134250000Y-101150000D01*
X139750000Y-93850000D02*
X134250000Y-93850000D01*
X139750000Y-101150000D02*
X139750000Y-93850000D01*
X134250000Y-101150000D02*
X139750000Y-101150000D01*
X158250000Y-197150000D02*
X163750000Y-197150000D01*
X163750000Y-197150000D02*
X163750000Y-189850000D01*
X163750000Y-189850000D02*
X158250000Y-189850000D01*
X158250000Y-189850000D02*
X158250000Y-197150000D01*
X158250000Y-165150000D02*
X163750000Y-165150000D01*
X163750000Y-165150000D02*
X163750000Y-157850000D01*
X163750000Y-157850000D02*
X158250000Y-157850000D01*
X158250000Y-157850000D02*
X158250000Y-165150000D01*
X158250000Y-133150000D02*
X163750000Y-133150000D01*
X163750000Y-133150000D02*
X163750000Y-125850000D01*
X163750000Y-125850000D02*
X158250000Y-125850000D01*
X158250000Y-125850000D02*
X158250000Y-133150000D01*
X158250000Y-101150000D02*
X163750000Y-101150000D01*
X163750000Y-101150000D02*
X163750000Y-93850000D01*
X163750000Y-93850000D02*
X158250000Y-93850000D01*
X158250000Y-93850000D02*
X158250000Y-101150000D01*
X164250000Y-189850000D02*
X164250000Y-197150000D01*
X169750000Y-189850000D02*
X164250000Y-189850000D01*
X169750000Y-197150000D02*
X169750000Y-189850000D01*
X164250000Y-197150000D02*
X169750000Y-197150000D01*
X164250000Y-157850000D02*
X164250000Y-165150000D01*
X169750000Y-157850000D02*
X164250000Y-157850000D01*
X169750000Y-165150000D02*
X169750000Y-157850000D01*
X164250000Y-165150000D02*
X169750000Y-165150000D01*
X164250000Y-125850000D02*
X164250000Y-133150000D01*
X169750000Y-125850000D02*
X164250000Y-125850000D01*
X169750000Y-133150000D02*
X169750000Y-125850000D01*
X164250000Y-133150000D02*
X169750000Y-133150000D01*
X164250000Y-93850000D02*
X164250000Y-101150000D01*
X169750000Y-93850000D02*
X164250000Y-93850000D01*
X169750000Y-101150000D02*
X169750000Y-93850000D01*
X164250000Y-101150000D02*
X169750000Y-101150000D01*
X173250000Y-178900000D02*
X178750000Y-178900000D01*
X178750000Y-178900000D02*
X178750000Y-171600000D01*
X178750000Y-171600000D02*
X173250000Y-171600000D01*
X173250000Y-171600000D02*
X173250000Y-178900000D01*
X173250000Y-146900000D02*
X178750000Y-146900000D01*
X178750000Y-146900000D02*
X178750000Y-139600000D01*
X178750000Y-139600000D02*
X173250000Y-139600000D01*
X173250000Y-139600000D02*
X173250000Y-146900000D01*
X173250000Y-114900000D02*
X178750000Y-114900000D01*
X178750000Y-114900000D02*
X178750000Y-107600000D01*
X178750000Y-107600000D02*
X173250000Y-107600000D01*
X173250000Y-107600000D02*
X173250000Y-114900000D01*
X173250000Y-82900000D02*
X178750000Y-82900000D01*
X178750000Y-82900000D02*
X178750000Y-75600000D01*
X178750000Y-75600000D02*
X173250000Y-75600000D01*
X173250000Y-75600000D02*
X173250000Y-82900000D01*
X113250000Y-178900000D02*
X118750000Y-178900000D01*
X118750000Y-178900000D02*
X118750000Y-171600000D01*
X118750000Y-171600000D02*
X113250000Y-171600000D01*
X113250000Y-171600000D02*
X113250000Y-178900000D01*
X113250000Y-146900000D02*
X118750000Y-146900000D01*
X118750000Y-146900000D02*
X118750000Y-139600000D01*
X118750000Y-139600000D02*
X113250000Y-139600000D01*
X113250000Y-139600000D02*
X113250000Y-146900000D01*
X113250000Y-114900000D02*
X118750000Y-114900000D01*
X118750000Y-114900000D02*
X118750000Y-107600000D01*
X118750000Y-107600000D02*
X113250000Y-107600000D01*
X113250000Y-107600000D02*
X113250000Y-114900000D01*
X113250000Y-82900000D02*
X118750000Y-82900000D01*
X118750000Y-82900000D02*
X118750000Y-75600000D01*
X118750000Y-75600000D02*
X113250000Y-75600000D01*
X113250000Y-75600000D02*
X113250000Y-82900000D01*
X179250000Y-178900000D02*
X184750000Y-178900000D01*
X184750000Y-178900000D02*
X184750000Y-171600000D01*
X184750000Y-171600000D02*
X179250000Y-171600000D01*
X179250000Y-171600000D02*
X179250000Y-178900000D01*
X179250000Y-146900000D02*
X184750000Y-146900000D01*
X184750000Y-146900000D02*
X184750000Y-139600000D01*
X184750000Y-139600000D02*
X179250000Y-139600000D01*
X179250000Y-139600000D02*
X179250000Y-146900000D01*
X179250000Y-114900000D02*
X184750000Y-114900000D01*
X184750000Y-114900000D02*
X184750000Y-107600000D01*
X184750000Y-107600000D02*
X179250000Y-107600000D01*
X179250000Y-107600000D02*
X179250000Y-114900000D01*
X179250000Y-82900000D02*
X184750000Y-82900000D01*
X184750000Y-82900000D02*
X184750000Y-75600000D01*
X184750000Y-75600000D02*
X179250000Y-75600000D01*
X179250000Y-75600000D02*
X179250000Y-82900000D01*
X71250000Y-178900000D02*
X76750000Y-178900000D01*
X76750000Y-178900000D02*
X76750000Y-171600000D01*
X76750000Y-171600000D02*
X71250000Y-171600000D01*
X71250000Y-171600000D02*
X71250000Y-178900000D01*
X71250000Y-146900000D02*
X76750000Y-146900000D01*
X76750000Y-146900000D02*
X76750000Y-139600000D01*
X76750000Y-139600000D02*
X71250000Y-139600000D01*
X71250000Y-139600000D02*
X71250000Y-146900000D01*
X71250000Y-114900000D02*
X76750000Y-114900000D01*
X76750000Y-114900000D02*
X76750000Y-107600000D01*
X76750000Y-107600000D02*
X71250000Y-107600000D01*
X71250000Y-107600000D02*
X71250000Y-114900000D01*
X71250000Y-82900000D02*
X76750000Y-82900000D01*
X76750000Y-82900000D02*
X76750000Y-75600000D01*
X76750000Y-75600000D02*
X71250000Y-75600000D01*
X71250000Y-75600000D02*
X71250000Y-82900000D01*
X83250000Y-171600000D02*
X83250000Y-178900000D01*
X88750000Y-171600000D02*
X83250000Y-171600000D01*
X88750000Y-178900000D02*
X88750000Y-171600000D01*
X83250000Y-178900000D02*
X88750000Y-178900000D01*
X83250000Y-139600000D02*
X83250000Y-146900000D01*
X88750000Y-139600000D02*
X83250000Y-139600000D01*
X88750000Y-146900000D02*
X88750000Y-139600000D01*
X83250000Y-146900000D02*
X88750000Y-146900000D01*
X83250000Y-107600000D02*
X83250000Y-114900000D01*
X88750000Y-107600000D02*
X83250000Y-107600000D01*
X88750000Y-114900000D02*
X88750000Y-107600000D01*
X83250000Y-114900000D02*
X88750000Y-114900000D01*
X83250000Y-75600000D02*
X83250000Y-82900000D01*
X88750000Y-75600000D02*
X83250000Y-75600000D01*
X88750000Y-82900000D02*
X88750000Y-75600000D01*
X83250000Y-82900000D02*
X88750000Y-82900000D01*
X89250000Y-171600000D02*
X89250000Y-178900000D01*
X94750000Y-171600000D02*
X89250000Y-171600000D01*
X94750000Y-178900000D02*
X94750000Y-171600000D01*
X89250000Y-178900000D02*
X94750000Y-178900000D01*
X89250000Y-139600000D02*
X89250000Y-146900000D01*
X94750000Y-139600000D02*
X89250000Y-139600000D01*
X94750000Y-146900000D02*
X94750000Y-139600000D01*
X89250000Y-146900000D02*
X94750000Y-146900000D01*
X89250000Y-107600000D02*
X89250000Y-114900000D01*
X94750000Y-107600000D02*
X89250000Y-107600000D01*
X94750000Y-114900000D02*
X94750000Y-107600000D01*
X89250000Y-114900000D02*
X94750000Y-114900000D01*
X89250000Y-75600000D02*
X89250000Y-82900000D01*
X94750000Y-75600000D02*
X89250000Y-75600000D01*
X94750000Y-82900000D02*
X94750000Y-75600000D01*
X89250000Y-82900000D02*
X94750000Y-82900000D01*
X131250000Y-178900000D02*
X136750000Y-178900000D01*
X136750000Y-178900000D02*
X136750000Y-171600000D01*
X136750000Y-171600000D02*
X131250000Y-171600000D01*
X131250000Y-171600000D02*
X131250000Y-178900000D01*
X131250000Y-146900000D02*
X136750000Y-146900000D01*
X136750000Y-146900000D02*
X136750000Y-139600000D01*
X136750000Y-139600000D02*
X131250000Y-139600000D01*
X131250000Y-139600000D02*
X131250000Y-146900000D01*
X131250000Y-114900000D02*
X136750000Y-114900000D01*
X136750000Y-114900000D02*
X136750000Y-107600000D01*
X136750000Y-107600000D02*
X131250000Y-107600000D01*
X131250000Y-107600000D02*
X131250000Y-114900000D01*
X131250000Y-82900000D02*
X136750000Y-82900000D01*
X136750000Y-82900000D02*
X136750000Y-75600000D01*
X136750000Y-75600000D02*
X131250000Y-75600000D01*
X131250000Y-75600000D02*
X131250000Y-82900000D01*
X152250000Y-197150000D02*
X157750000Y-197150000D01*
X157750000Y-197150000D02*
X157750000Y-189850000D01*
X157750000Y-189850000D02*
X152250000Y-189850000D01*
X152250000Y-189850000D02*
X152250000Y-197150000D01*
X152250000Y-165150000D02*
X157750000Y-165150000D01*
X157750000Y-165150000D02*
X157750000Y-157850000D01*
X157750000Y-157850000D02*
X152250000Y-157850000D01*
X152250000Y-157850000D02*
X152250000Y-165150000D01*
X152250000Y-133150000D02*
X157750000Y-133150000D01*
X157750000Y-133150000D02*
X157750000Y-125850000D01*
X157750000Y-125850000D02*
X152250000Y-125850000D01*
X152250000Y-125850000D02*
X152250000Y-133150000D01*
X152250000Y-101150000D02*
X157750000Y-101150000D01*
X157750000Y-101150000D02*
X157750000Y-93850000D01*
X157750000Y-93850000D02*
X152250000Y-93850000D01*
X152250000Y-93850000D02*
X152250000Y-101150000D01*
X98250000Y-197150000D02*
X103750000Y-197150000D01*
X103750000Y-197150000D02*
X103750000Y-189850000D01*
X103750000Y-189850000D02*
X98250000Y-189850000D01*
X98250000Y-189850000D02*
X98250000Y-197150000D01*
X98250000Y-165150000D02*
X103750000Y-165150000D01*
X103750000Y-165150000D02*
X103750000Y-157850000D01*
X103750000Y-157850000D02*
X98250000Y-157850000D01*
X98250000Y-157850000D02*
X98250000Y-165150000D01*
X98250000Y-133150000D02*
X103750000Y-133150000D01*
X103750000Y-133150000D02*
X103750000Y-125850000D01*
X103750000Y-125850000D02*
X98250000Y-125850000D01*
X98250000Y-125850000D02*
X98250000Y-133150000D01*
X98250000Y-101150000D02*
X103750000Y-101150000D01*
X103750000Y-101150000D02*
X103750000Y-93850000D01*
X103750000Y-93850000D02*
X98250000Y-93850000D01*
X98250000Y-93850000D02*
X98250000Y-101150000D01*
X68250000Y-189850000D02*
X68250000Y-197150000D01*
X73750000Y-189850000D02*
X68250000Y-189850000D01*
X73750000Y-197150000D02*
X73750000Y-189850000D01*
X68250000Y-197150000D02*
X73750000Y-197150000D01*
X68250000Y-157850000D02*
X68250000Y-165150000D01*
X73750000Y-157850000D02*
X68250000Y-157850000D01*
X73750000Y-165150000D02*
X73750000Y-157850000D01*
X68250000Y-165150000D02*
X73750000Y-165150000D01*
X68250000Y-125850000D02*
X68250000Y-133150000D01*
X73750000Y-125850000D02*
X68250000Y-125850000D01*
X73750000Y-133150000D02*
X73750000Y-125850000D01*
X68250000Y-133150000D02*
X73750000Y-133150000D01*
X68250000Y-93850000D02*
X68250000Y-101150000D01*
X73750000Y-93850000D02*
X68250000Y-93850000D01*
X73750000Y-101150000D02*
X73750000Y-93850000D01*
X68250000Y-101150000D02*
X73750000Y-101150000D01*
X122250000Y-197150000D02*
X127750000Y-197150000D01*
X127750000Y-197150000D02*
X127750000Y-189850000D01*
X127750000Y-189850000D02*
X122250000Y-189850000D01*
X122250000Y-189850000D02*
X122250000Y-197150000D01*
X122250000Y-165150000D02*
X127750000Y-165150000D01*
X127750000Y-165150000D02*
X127750000Y-157850000D01*
X127750000Y-157850000D02*
X122250000Y-157850000D01*
X122250000Y-157850000D02*
X122250000Y-165150000D01*
X122250000Y-133150000D02*
X127750000Y-133150000D01*
X127750000Y-133150000D02*
X127750000Y-125850000D01*
X127750000Y-125850000D02*
X122250000Y-125850000D01*
X122250000Y-125850000D02*
X122250000Y-133150000D01*
X122250000Y-101150000D02*
X127750000Y-101150000D01*
X127750000Y-101150000D02*
X127750000Y-93850000D01*
X127750000Y-93850000D02*
X122250000Y-93850000D01*
X122250000Y-93850000D02*
X122250000Y-101150000D01*
X116250000Y-189850000D02*
X116250000Y-197150000D01*
X121750000Y-189850000D02*
X116250000Y-189850000D01*
X121750000Y-197150000D02*
X121750000Y-189850000D01*
X116250000Y-197150000D02*
X121750000Y-197150000D01*
X116250000Y-157850000D02*
X116250000Y-165150000D01*
X121750000Y-157850000D02*
X116250000Y-157850000D01*
X121750000Y-165150000D02*
X121750000Y-157850000D01*
X116250000Y-165150000D02*
X121750000Y-165150000D01*
X116250000Y-125850000D02*
X116250000Y-133150000D01*
X121750000Y-125850000D02*
X116250000Y-125850000D01*
X121750000Y-133150000D02*
X121750000Y-125850000D01*
X116250000Y-133150000D02*
X121750000Y-133150000D01*
X116250000Y-93850000D02*
X116250000Y-101150000D01*
X121750000Y-93850000D02*
X116250000Y-93850000D01*
X121750000Y-101150000D02*
X121750000Y-93850000D01*
X116250000Y-101150000D02*
X121750000Y-101150000D01*
X188250000Y-197150000D02*
X193750000Y-197150000D01*
X193750000Y-197150000D02*
X193750000Y-189850000D01*
X193750000Y-189850000D02*
X188250000Y-189850000D01*
X188250000Y-189850000D02*
X188250000Y-197150000D01*
X188250000Y-165150000D02*
X193750000Y-165150000D01*
X193750000Y-165150000D02*
X193750000Y-157850000D01*
X193750000Y-157850000D02*
X188250000Y-157850000D01*
X188250000Y-157850000D02*
X188250000Y-165150000D01*
X188250000Y-133150000D02*
X193750000Y-133150000D01*
X193750000Y-133150000D02*
X193750000Y-125850000D01*
X193750000Y-125850000D02*
X188250000Y-125850000D01*
X188250000Y-125850000D02*
X188250000Y-133150000D01*
X188250000Y-101150000D02*
X193750000Y-101150000D01*
X193750000Y-101150000D02*
X193750000Y-93850000D01*
X193750000Y-93850000D02*
X188250000Y-93850000D01*
X188250000Y-93850000D02*
X188250000Y-101150000D01*
X230250000Y-197150000D02*
X235750000Y-197150000D01*
X235750000Y-197150000D02*
X235750000Y-189850000D01*
X235750000Y-189850000D02*
X230250000Y-189850000D01*
X230250000Y-189850000D02*
X230250000Y-197150000D01*
X230250000Y-165150000D02*
X235750000Y-165150000D01*
X235750000Y-165150000D02*
X235750000Y-157850000D01*
X235750000Y-157850000D02*
X230250000Y-157850000D01*
X230250000Y-157850000D02*
X230250000Y-165150000D01*
X230250000Y-133150000D02*
X235750000Y-133150000D01*
X235750000Y-133150000D02*
X235750000Y-125850000D01*
X235750000Y-125850000D02*
X230250000Y-125850000D01*
X230250000Y-125850000D02*
X230250000Y-133150000D01*
X230250000Y-101150000D02*
X235750000Y-101150000D01*
X235750000Y-101150000D02*
X235750000Y-93850000D01*
X235750000Y-93850000D02*
X230250000Y-93850000D01*
X230250000Y-93850000D02*
X230250000Y-101150000D01*
X191250000Y-171600000D02*
X191250000Y-178900000D01*
X196750000Y-171600000D02*
X191250000Y-171600000D01*
X196750000Y-178900000D02*
X196750000Y-171600000D01*
X191250000Y-178900000D02*
X196750000Y-178900000D01*
X191250000Y-139600000D02*
X191250000Y-146900000D01*
X196750000Y-139600000D02*
X191250000Y-139600000D01*
X196750000Y-146900000D02*
X196750000Y-139600000D01*
X191250000Y-146900000D02*
X196750000Y-146900000D01*
X191250000Y-107600000D02*
X191250000Y-114900000D01*
X196750000Y-107600000D02*
X191250000Y-107600000D01*
X196750000Y-114900000D02*
X196750000Y-107600000D01*
X191250000Y-114900000D02*
X196750000Y-114900000D01*
X191250000Y-75600000D02*
X191250000Y-82900000D01*
X196750000Y-75600000D02*
X191250000Y-75600000D01*
X196750000Y-82900000D02*
X196750000Y-75600000D01*
X191250000Y-82900000D02*
X196750000Y-82900000D01*
X236250000Y-197150000D02*
X241750000Y-197150000D01*
X241750000Y-197150000D02*
X241750000Y-189850000D01*
X241750000Y-189850000D02*
X236250000Y-189850000D01*
X236250000Y-189850000D02*
X236250000Y-197150000D01*
X236250000Y-165150000D02*
X241750000Y-165150000D01*
X241750000Y-165150000D02*
X241750000Y-157850000D01*
X241750000Y-157850000D02*
X236250000Y-157850000D01*
X236250000Y-157850000D02*
X236250000Y-165150000D01*
X236250000Y-133150000D02*
X241750000Y-133150000D01*
X241750000Y-133150000D02*
X241750000Y-125850000D01*
X241750000Y-125850000D02*
X236250000Y-125850000D01*
X236250000Y-125850000D02*
X236250000Y-133150000D01*
X236250000Y-101150000D02*
X241750000Y-101150000D01*
X241750000Y-101150000D02*
X241750000Y-93850000D01*
X241750000Y-93850000D02*
X236250000Y-93850000D01*
X236250000Y-93850000D02*
X236250000Y-101150000D01*
X194250000Y-197150000D02*
X199750000Y-197150000D01*
X199750000Y-197150000D02*
X199750000Y-189850000D01*
X199750000Y-189850000D02*
X194250000Y-189850000D01*
X194250000Y-189850000D02*
X194250000Y-197150000D01*
X194250000Y-165150000D02*
X199750000Y-165150000D01*
X199750000Y-165150000D02*
X199750000Y-157850000D01*
X199750000Y-157850000D02*
X194250000Y-157850000D01*
X194250000Y-157850000D02*
X194250000Y-165150000D01*
X194250000Y-133150000D02*
X199750000Y-133150000D01*
X199750000Y-133150000D02*
X199750000Y-125850000D01*
X199750000Y-125850000D02*
X194250000Y-125850000D01*
X194250000Y-125850000D02*
X194250000Y-133150000D01*
X194250000Y-101150000D02*
X199750000Y-101150000D01*
X199750000Y-101150000D02*
X199750000Y-93850000D01*
X199750000Y-93850000D02*
X194250000Y-93850000D01*
X194250000Y-93850000D02*
X194250000Y-101150000D01*
X197250000Y-171600000D02*
X197250000Y-178900000D01*
X202750000Y-171600000D02*
X197250000Y-171600000D01*
X202750000Y-178900000D02*
X202750000Y-171600000D01*
X197250000Y-178900000D02*
X202750000Y-178900000D01*
X197250000Y-139600000D02*
X197250000Y-146900000D01*
X202750000Y-139600000D02*
X197250000Y-139600000D01*
X202750000Y-146900000D02*
X202750000Y-139600000D01*
X197250000Y-146900000D02*
X202750000Y-146900000D01*
X197250000Y-107600000D02*
X197250000Y-114900000D01*
X202750000Y-107600000D02*
X197250000Y-107600000D01*
X202750000Y-114900000D02*
X202750000Y-107600000D01*
X197250000Y-114900000D02*
X202750000Y-114900000D01*
X197250000Y-75600000D02*
X197250000Y-82900000D01*
X202750000Y-75600000D02*
X197250000Y-75600000D01*
X202750000Y-82900000D02*
X202750000Y-75600000D01*
X197250000Y-82900000D02*
X202750000Y-82900000D01*
X200250000Y-197150000D02*
X205750000Y-197150000D01*
X205750000Y-197150000D02*
X205750000Y-189850000D01*
X205750000Y-189850000D02*
X200250000Y-189850000D01*
X200250000Y-189850000D02*
X200250000Y-197150000D01*
X200250000Y-165150000D02*
X205750000Y-165150000D01*
X205750000Y-165150000D02*
X205750000Y-157850000D01*
X205750000Y-157850000D02*
X200250000Y-157850000D01*
X200250000Y-157850000D02*
X200250000Y-165150000D01*
X200250000Y-133150000D02*
X205750000Y-133150000D01*
X205750000Y-133150000D02*
X205750000Y-125850000D01*
X205750000Y-125850000D02*
X200250000Y-125850000D01*
X200250000Y-125850000D02*
X200250000Y-133150000D01*
X200250000Y-101150000D02*
X205750000Y-101150000D01*
X205750000Y-101150000D02*
X205750000Y-93850000D01*
X205750000Y-93850000D02*
X200250000Y-93850000D01*
X200250000Y-93850000D02*
X200250000Y-101150000D01*
X206250000Y-197150000D02*
X211750000Y-197150000D01*
X211750000Y-197150000D02*
X211750000Y-189850000D01*
X211750000Y-189850000D02*
X206250000Y-189850000D01*
X206250000Y-189850000D02*
X206250000Y-197150000D01*
X206250000Y-165150000D02*
X211750000Y-165150000D01*
X211750000Y-165150000D02*
X211750000Y-157850000D01*
X211750000Y-157850000D02*
X206250000Y-157850000D01*
X206250000Y-157850000D02*
X206250000Y-165150000D01*
X206250000Y-133150000D02*
X211750000Y-133150000D01*
X211750000Y-133150000D02*
X211750000Y-125850000D01*
X211750000Y-125850000D02*
X206250000Y-125850000D01*
X206250000Y-125850000D02*
X206250000Y-133150000D01*
X206250000Y-101150000D02*
X211750000Y-101150000D01*
X211750000Y-101150000D02*
X211750000Y-93850000D01*
X211750000Y-93850000D02*
X206250000Y-93850000D01*
X206250000Y-93850000D02*
X206250000Y-101150000D01*
X209250000Y-178900000D02*
X214750000Y-178900000D01*
X214750000Y-178900000D02*
X214750000Y-171600000D01*
X214750000Y-171600000D02*
X209250000Y-171600000D01*
X209250000Y-171600000D02*
X209250000Y-178900000D01*
X209250000Y-146900000D02*
X214750000Y-146900000D01*
X214750000Y-146900000D02*
X214750000Y-139600000D01*
X214750000Y-139600000D02*
X209250000Y-139600000D01*
X209250000Y-139600000D02*
X209250000Y-146900000D01*
X209250000Y-114900000D02*
X214750000Y-114900000D01*
X214750000Y-114900000D02*
X214750000Y-107600000D01*
X214750000Y-107600000D02*
X209250000Y-107600000D01*
X209250000Y-107600000D02*
X209250000Y-114900000D01*
X209250000Y-82900000D02*
X214750000Y-82900000D01*
X214750000Y-82900000D02*
X214750000Y-75600000D01*
X214750000Y-75600000D02*
X209250000Y-75600000D01*
X209250000Y-75600000D02*
X209250000Y-82900000D01*
X239250000Y-171600000D02*
X239250000Y-178900000D01*
X244750000Y-171600000D02*
X239250000Y-171600000D01*
X244750000Y-178900000D02*
X244750000Y-171600000D01*
X239250000Y-178900000D02*
X244750000Y-178900000D01*
X239250000Y-139600000D02*
X239250000Y-146900000D01*
X244750000Y-139600000D02*
X239250000Y-139600000D01*
X244750000Y-146900000D02*
X244750000Y-139600000D01*
X239250000Y-146900000D02*
X244750000Y-146900000D01*
X239250000Y-107600000D02*
X239250000Y-114900000D01*
X244750000Y-107600000D02*
X239250000Y-107600000D01*
X244750000Y-114900000D02*
X244750000Y-107600000D01*
X239250000Y-114900000D02*
X244750000Y-114900000D01*
X239250000Y-75600000D02*
X239250000Y-82900000D01*
X244750000Y-75600000D02*
X239250000Y-75600000D01*
X244750000Y-82900000D02*
X244750000Y-75600000D01*
X239250000Y-82900000D02*
X244750000Y-82900000D01*
X212250000Y-189850000D02*
X212250000Y-197150000D01*
X217750000Y-189850000D02*
X212250000Y-189850000D01*
X217750000Y-197150000D02*
X217750000Y-189850000D01*
X212250000Y-197150000D02*
X217750000Y-197150000D01*
X212250000Y-157850000D02*
X212250000Y-165150000D01*
X217750000Y-157850000D02*
X212250000Y-157850000D01*
X217750000Y-165150000D02*
X217750000Y-157850000D01*
X212250000Y-165150000D02*
X217750000Y-165150000D01*
X212250000Y-125850000D02*
X212250000Y-133150000D01*
X217750000Y-125850000D02*
X212250000Y-125850000D01*
X217750000Y-133150000D02*
X217750000Y-125850000D01*
X212250000Y-133150000D02*
X217750000Y-133150000D01*
X212250000Y-93850000D02*
X212250000Y-101150000D01*
X217750000Y-93850000D02*
X212250000Y-93850000D01*
X217750000Y-101150000D02*
X217750000Y-93850000D01*
X212250000Y-101150000D02*
X217750000Y-101150000D01*
X248250000Y-189850000D02*
X248250000Y-197150000D01*
X253750000Y-189850000D02*
X248250000Y-189850000D01*
X253750000Y-197150000D02*
X253750000Y-189850000D01*
X248250000Y-197150000D02*
X253750000Y-197150000D01*
X248250000Y-157850000D02*
X248250000Y-165150000D01*
X253750000Y-157850000D02*
X248250000Y-157850000D01*
X253750000Y-165150000D02*
X253750000Y-157850000D01*
X248250000Y-165150000D02*
X253750000Y-165150000D01*
X248250000Y-125850000D02*
X248250000Y-133150000D01*
X253750000Y-125850000D02*
X248250000Y-125850000D01*
X253750000Y-133150000D02*
X253750000Y-125850000D01*
X248250000Y-133150000D02*
X253750000Y-133150000D01*
X248250000Y-93850000D02*
X248250000Y-101150000D01*
X253750000Y-93850000D02*
X248250000Y-93850000D01*
X253750000Y-101150000D02*
X253750000Y-93850000D01*
X248250000Y-101150000D02*
X253750000Y-101150000D01*
X215250000Y-178900000D02*
X220750000Y-178900000D01*
X220750000Y-178900000D02*
X220750000Y-171600000D01*
X220750000Y-171600000D02*
X215250000Y-171600000D01*
X215250000Y-171600000D02*
X215250000Y-178900000D01*
X215250000Y-146900000D02*
X220750000Y-146900000D01*
X220750000Y-146900000D02*
X220750000Y-139600000D01*
X220750000Y-139600000D02*
X215250000Y-139600000D01*
X215250000Y-139600000D02*
X215250000Y-146900000D01*
X215250000Y-114900000D02*
X220750000Y-114900000D01*
X220750000Y-114900000D02*
X220750000Y-107600000D01*
X220750000Y-107600000D02*
X215250000Y-107600000D01*
X215250000Y-107600000D02*
X215250000Y-114900000D01*
X215250000Y-82900000D02*
X220750000Y-82900000D01*
X220750000Y-82900000D02*
X220750000Y-75600000D01*
X220750000Y-75600000D02*
X215250000Y-75600000D01*
X215250000Y-75600000D02*
X215250000Y-82900000D01*
X224250000Y-189850000D02*
X224250000Y-197150000D01*
X229750000Y-189850000D02*
X224250000Y-189850000D01*
X229750000Y-197150000D02*
X229750000Y-189850000D01*
X224250000Y-197150000D02*
X229750000Y-197150000D01*
X224250000Y-157850000D02*
X224250000Y-165150000D01*
X229750000Y-157850000D02*
X224250000Y-157850000D01*
X229750000Y-165150000D02*
X229750000Y-157850000D01*
X224250000Y-165150000D02*
X229750000Y-165150000D01*
X224250000Y-125850000D02*
X224250000Y-133150000D01*
X229750000Y-125850000D02*
X224250000Y-125850000D01*
X229750000Y-133150000D02*
X229750000Y-125850000D01*
X224250000Y-133150000D02*
X229750000Y-133150000D01*
X224250000Y-93850000D02*
X224250000Y-101150000D01*
X229750000Y-93850000D02*
X224250000Y-93850000D01*
X229750000Y-101150000D02*
X229750000Y-93850000D01*
X224250000Y-101150000D02*
X229750000Y-101150000D01*
X218250000Y-189850000D02*
X218250000Y-197150000D01*
X223750000Y-189850000D02*
X218250000Y-189850000D01*
X223750000Y-197150000D02*
X223750000Y-189850000D01*
X218250000Y-197150000D02*
X223750000Y-197150000D01*
X218250000Y-157850000D02*
X218250000Y-165150000D01*
X223750000Y-157850000D02*
X218250000Y-157850000D01*
X223750000Y-165150000D02*
X223750000Y-157850000D01*
X218250000Y-165150000D02*
X223750000Y-165150000D01*
X218250000Y-125850000D02*
X218250000Y-133150000D01*
X223750000Y-125850000D02*
X218250000Y-125850000D01*
X223750000Y-133150000D02*
X223750000Y-125850000D01*
X218250000Y-133150000D02*
X223750000Y-133150000D01*
X218250000Y-93850000D02*
X218250000Y-101150000D01*
X223750000Y-93850000D02*
X218250000Y-93850000D01*
X223750000Y-101150000D02*
X223750000Y-93850000D01*
X218250000Y-101150000D02*
X223750000Y-101150000D01*
X221250000Y-178900000D02*
X226750000Y-178900000D01*
X226750000Y-178900000D02*
X226750000Y-171600000D01*
X226750000Y-171600000D02*
X221250000Y-171600000D01*
X221250000Y-171600000D02*
X221250000Y-178900000D01*
X221250000Y-146900000D02*
X226750000Y-146900000D01*
X226750000Y-146900000D02*
X226750000Y-139600000D01*
X226750000Y-139600000D02*
X221250000Y-139600000D01*
X221250000Y-139600000D02*
X221250000Y-146900000D01*
X221250000Y-114900000D02*
X226750000Y-114900000D01*
X226750000Y-114900000D02*
X226750000Y-107600000D01*
X226750000Y-107600000D02*
X221250000Y-107600000D01*
X221250000Y-107600000D02*
X221250000Y-114900000D01*
X221250000Y-82900000D02*
X226750000Y-82900000D01*
X226750000Y-82900000D02*
X226750000Y-75600000D01*
X226750000Y-75600000D02*
X221250000Y-75600000D01*
X221250000Y-75600000D02*
X221250000Y-82900000D01*
X233250000Y-171600000D02*
X233250000Y-178900000D01*
X238750000Y-171600000D02*
X233250000Y-171600000D01*
X238750000Y-178900000D02*
X238750000Y-171600000D01*
X233250000Y-178900000D02*
X238750000Y-178900000D01*
X233250000Y-139600000D02*
X233250000Y-146900000D01*
X238750000Y-139600000D02*
X233250000Y-139600000D01*
X238750000Y-146900000D02*
X238750000Y-139600000D01*
X233250000Y-146900000D02*
X238750000Y-146900000D01*
X233250000Y-107600000D02*
X233250000Y-114900000D01*
X238750000Y-107600000D02*
X233250000Y-107600000D01*
X238750000Y-114900000D02*
X238750000Y-107600000D01*
X233250000Y-114900000D02*
X238750000Y-114900000D01*
X233250000Y-75600000D02*
X233250000Y-82900000D01*
X238750000Y-75600000D02*
X233250000Y-75600000D01*
X238750000Y-82900000D02*
X238750000Y-75600000D01*
X233250000Y-82900000D02*
X238750000Y-82900000D01*
X251250000Y-178900000D02*
X256750000Y-178900000D01*
X256750000Y-178900000D02*
X256750000Y-171600000D01*
X256750000Y-171600000D02*
X251250000Y-171600000D01*
X251250000Y-171600000D02*
X251250000Y-178900000D01*
X251250000Y-146900000D02*
X256750000Y-146900000D01*
X256750000Y-146900000D02*
X256750000Y-139600000D01*
X256750000Y-139600000D02*
X251250000Y-139600000D01*
X251250000Y-139600000D02*
X251250000Y-146900000D01*
X251250000Y-114900000D02*
X256750000Y-114900000D01*
X256750000Y-114900000D02*
X256750000Y-107600000D01*
X256750000Y-107600000D02*
X251250000Y-107600000D01*
X251250000Y-107600000D02*
X251250000Y-114900000D01*
X251250000Y-82900000D02*
X256750000Y-82900000D01*
X256750000Y-82900000D02*
X256750000Y-75600000D01*
X256750000Y-75600000D02*
X251250000Y-75600000D01*
X251250000Y-75600000D02*
X251250000Y-82900000D01*
X242250000Y-189850000D02*
X242250000Y-197150000D01*
X247750000Y-189850000D02*
X242250000Y-189850000D01*
X247750000Y-197150000D02*
X247750000Y-189850000D01*
X242250000Y-197150000D02*
X247750000Y-197150000D01*
X242250000Y-157850000D02*
X242250000Y-165150000D01*
X247750000Y-157850000D02*
X242250000Y-157850000D01*
X247750000Y-165150000D02*
X247750000Y-157850000D01*
X242250000Y-165150000D02*
X247750000Y-165150000D01*
X242250000Y-125850000D02*
X242250000Y-133150000D01*
X247750000Y-125850000D02*
X242250000Y-125850000D01*
X247750000Y-133150000D02*
X247750000Y-125850000D01*
X242250000Y-133150000D02*
X247750000Y-133150000D01*
X242250000Y-93850000D02*
X242250000Y-101150000D01*
X247750000Y-93850000D02*
X242250000Y-93850000D01*
X247750000Y-101150000D02*
X247750000Y-93850000D01*
X242250000Y-101150000D02*
X247750000Y-101150000D01*
X260250000Y-189850000D02*
X260250000Y-197150000D01*
X265750000Y-189850000D02*
X260250000Y-189850000D01*
X265750000Y-197150000D02*
X265750000Y-189850000D01*
X260250000Y-197150000D02*
X265750000Y-197150000D01*
X260250000Y-157850000D02*
X260250000Y-165150000D01*
X265750000Y-157850000D02*
X260250000Y-157850000D01*
X265750000Y-165150000D02*
X265750000Y-157850000D01*
X260250000Y-165150000D02*
X265750000Y-165150000D01*
X260250000Y-125850000D02*
X260250000Y-133150000D01*
X265750000Y-125850000D02*
X260250000Y-125850000D01*
X265750000Y-133150000D02*
X265750000Y-125850000D01*
X260250000Y-133150000D02*
X265750000Y-133150000D01*
X260250000Y-93850000D02*
X260250000Y-101150000D01*
X265750000Y-93850000D02*
X260250000Y-93850000D01*
X265750000Y-101150000D02*
X265750000Y-93850000D01*
X260250000Y-101150000D02*
X265750000Y-101150000D01*
X266250000Y-189850000D02*
X266250000Y-197150000D01*
X271750000Y-189850000D02*
X266250000Y-189850000D01*
X271750000Y-197150000D02*
X271750000Y-189850000D01*
X266250000Y-197150000D02*
X271750000Y-197150000D01*
X266250000Y-157850000D02*
X266250000Y-165150000D01*
X271750000Y-157850000D02*
X266250000Y-157850000D01*
X271750000Y-165150000D02*
X271750000Y-157850000D01*
X266250000Y-165150000D02*
X271750000Y-165150000D01*
X266250000Y-125850000D02*
X266250000Y-133150000D01*
X271750000Y-125850000D02*
X266250000Y-125850000D01*
X271750000Y-133150000D02*
X271750000Y-125850000D01*
X266250000Y-133150000D02*
X271750000Y-133150000D01*
X266250000Y-93850000D02*
X266250000Y-101150000D01*
X271750000Y-93850000D02*
X266250000Y-93850000D01*
X271750000Y-101150000D02*
X271750000Y-93850000D01*
X266250000Y-101150000D02*
X271750000Y-101150000D01*
X272250000Y-197150000D02*
X277750000Y-197150000D01*
X277750000Y-197150000D02*
X277750000Y-189850000D01*
X277750000Y-189850000D02*
X272250000Y-189850000D01*
X272250000Y-189850000D02*
X272250000Y-197150000D01*
X272250000Y-165150000D02*
X277750000Y-165150000D01*
X277750000Y-165150000D02*
X277750000Y-157850000D01*
X277750000Y-157850000D02*
X272250000Y-157850000D01*
X272250000Y-157850000D02*
X272250000Y-165150000D01*
X272250000Y-133150000D02*
X277750000Y-133150000D01*
X277750000Y-133150000D02*
X277750000Y-125850000D01*
X277750000Y-125850000D02*
X272250000Y-125850000D01*
X272250000Y-125850000D02*
X272250000Y-133150000D01*
X272250000Y-101150000D02*
X277750000Y-101150000D01*
X277750000Y-101150000D02*
X277750000Y-93850000D01*
X277750000Y-93850000D02*
X272250000Y-93850000D01*
X272250000Y-93850000D02*
X272250000Y-101150000D01*
X278250000Y-197150000D02*
X283750000Y-197150000D01*
X283750000Y-197150000D02*
X283750000Y-189850000D01*
X283750000Y-189850000D02*
X278250000Y-189850000D01*
X278250000Y-189850000D02*
X278250000Y-197150000D01*
X278250000Y-165150000D02*
X283750000Y-165150000D01*
X283750000Y-165150000D02*
X283750000Y-157850000D01*
X283750000Y-157850000D02*
X278250000Y-157850000D01*
X278250000Y-157850000D02*
X278250000Y-165150000D01*
X278250000Y-133150000D02*
X283750000Y-133150000D01*
X283750000Y-133150000D02*
X283750000Y-125850000D01*
X283750000Y-125850000D02*
X278250000Y-125850000D01*
X278250000Y-125850000D02*
X278250000Y-133150000D01*
X278250000Y-101150000D02*
X283750000Y-101150000D01*
X283750000Y-101150000D02*
X283750000Y-93850000D01*
X283750000Y-93850000D02*
X278250000Y-93850000D01*
X278250000Y-93850000D02*
X278250000Y-101150000D01*
X290250000Y-197150000D02*
X295750000Y-197150000D01*
X295750000Y-197150000D02*
X295750000Y-189850000D01*
X295750000Y-189850000D02*
X290250000Y-189850000D01*
X290250000Y-189850000D02*
X290250000Y-197150000D01*
X290250000Y-165150000D02*
X295750000Y-165150000D01*
X295750000Y-165150000D02*
X295750000Y-157850000D01*
X295750000Y-157850000D02*
X290250000Y-157850000D01*
X290250000Y-157850000D02*
X290250000Y-165150000D01*
X290250000Y-133150000D02*
X295750000Y-133150000D01*
X295750000Y-133150000D02*
X295750000Y-125850000D01*
X295750000Y-125850000D02*
X290250000Y-125850000D01*
X290250000Y-125850000D02*
X290250000Y-133150000D01*
X290250000Y-101150000D02*
X295750000Y-101150000D01*
X295750000Y-101150000D02*
X295750000Y-93850000D01*
X295750000Y-93850000D02*
X290250000Y-93850000D01*
X290250000Y-93850000D02*
X290250000Y-101150000D01*
X305250000Y-171850000D02*
X305250000Y-179150000D01*
X310750000Y-171850000D02*
X305250000Y-171850000D01*
X310750000Y-179150000D02*
X310750000Y-171850000D01*
X305250000Y-179150000D02*
X310750000Y-179150000D01*
X305250000Y-139850000D02*
X305250000Y-147150000D01*
X310750000Y-139850000D02*
X305250000Y-139850000D01*
X310750000Y-147150000D02*
X310750000Y-139850000D01*
X305250000Y-147150000D02*
X310750000Y-147150000D01*
X305250000Y-107850000D02*
X305250000Y-115150000D01*
X310750000Y-107850000D02*
X305250000Y-107850000D01*
X310750000Y-115150000D02*
X310750000Y-107850000D01*
X305250000Y-115150000D02*
X310750000Y-115150000D01*
X305250000Y-75850000D02*
X305250000Y-83150000D01*
X310750000Y-75850000D02*
X305250000Y-75850000D01*
X310750000Y-83150000D02*
X310750000Y-75850000D01*
X305250000Y-83150000D02*
X310750000Y-83150000D01*
X341250000Y-171850000D02*
X341250000Y-179150000D01*
X346750000Y-171850000D02*
X341250000Y-171850000D01*
X346750000Y-179150000D02*
X346750000Y-171850000D01*
X341250000Y-179150000D02*
X346750000Y-179150000D01*
X341250000Y-139850000D02*
X341250000Y-147150000D01*
X346750000Y-139850000D02*
X341250000Y-139850000D01*
X346750000Y-147150000D02*
X346750000Y-139850000D01*
X341250000Y-147150000D02*
X346750000Y-147150000D01*
X341250000Y-107850000D02*
X341250000Y-115150000D01*
X346750000Y-107850000D02*
X341250000Y-107850000D01*
X346750000Y-115150000D02*
X346750000Y-107850000D01*
X341250000Y-115150000D02*
X346750000Y-115150000D01*
X341250000Y-75850000D02*
X341250000Y-83150000D01*
X346750000Y-75850000D02*
X341250000Y-75850000D01*
X346750000Y-83150000D02*
X346750000Y-75850000D01*
X341250000Y-83150000D02*
X346750000Y-83150000D01*
X314250000Y-189850000D02*
X314250000Y-197150000D01*
X319750000Y-189850000D02*
X314250000Y-189850000D01*
X319750000Y-197150000D02*
X319750000Y-189850000D01*
X314250000Y-197150000D02*
X319750000Y-197150000D01*
X314250000Y-157850000D02*
X314250000Y-165150000D01*
X319750000Y-157850000D02*
X314250000Y-157850000D01*
X319750000Y-165150000D02*
X319750000Y-157850000D01*
X314250000Y-165150000D02*
X319750000Y-165150000D01*
X314250000Y-125850000D02*
X314250000Y-133150000D01*
X319750000Y-125850000D02*
X314250000Y-125850000D01*
X319750000Y-133150000D02*
X319750000Y-125850000D01*
X314250000Y-133150000D02*
X319750000Y-133150000D01*
X314250000Y-93850000D02*
X314250000Y-101150000D01*
X319750000Y-93850000D02*
X314250000Y-93850000D01*
X319750000Y-101150000D02*
X319750000Y-93850000D01*
X314250000Y-101150000D02*
X319750000Y-101150000D01*
X335250000Y-171850000D02*
X335250000Y-179150000D01*
X340750000Y-171850000D02*
X335250000Y-171850000D01*
X340750000Y-179150000D02*
X340750000Y-171850000D01*
X335250000Y-179150000D02*
X340750000Y-179150000D01*
X335250000Y-139850000D02*
X335250000Y-147150000D01*
X340750000Y-139850000D02*
X335250000Y-139850000D01*
X340750000Y-147150000D02*
X340750000Y-139850000D01*
X335250000Y-147150000D02*
X340750000Y-147150000D01*
X335250000Y-107850000D02*
X335250000Y-115150000D01*
X340750000Y-107850000D02*
X335250000Y-107850000D01*
X340750000Y-115150000D02*
X340750000Y-107850000D01*
X335250000Y-115150000D02*
X340750000Y-115150000D01*
X335250000Y-75850000D02*
X335250000Y-83150000D01*
X340750000Y-75850000D02*
X335250000Y-75850000D01*
X340750000Y-83150000D02*
X340750000Y-75850000D01*
X335250000Y-83150000D02*
X340750000Y-83150000D01*
X257250000Y-178900000D02*
X262750000Y-178900000D01*
X262750000Y-178900000D02*
X262750000Y-171600000D01*
X262750000Y-171600000D02*
X257250000Y-171600000D01*
X257250000Y-171600000D02*
X257250000Y-178900000D01*
X257250000Y-146900000D02*
X262750000Y-146900000D01*
X262750000Y-146900000D02*
X262750000Y-139600000D01*
X262750000Y-139600000D02*
X257250000Y-139600000D01*
X257250000Y-139600000D02*
X257250000Y-146900000D01*
X257250000Y-114900000D02*
X262750000Y-114900000D01*
X262750000Y-114900000D02*
X262750000Y-107600000D01*
X262750000Y-107600000D02*
X257250000Y-107600000D01*
X257250000Y-107600000D02*
X257250000Y-114900000D01*
X257250000Y-82900000D02*
X262750000Y-82900000D01*
X262750000Y-82900000D02*
X262750000Y-75600000D01*
X262750000Y-75600000D02*
X257250000Y-75600000D01*
X257250000Y-75600000D02*
X257250000Y-82900000D01*
X320250000Y-189850000D02*
X320250000Y-197150000D01*
X325750000Y-189850000D02*
X320250000Y-189850000D01*
X325750000Y-197150000D02*
X325750000Y-189850000D01*
X320250000Y-197150000D02*
X325750000Y-197150000D01*
X320250000Y-157850000D02*
X320250000Y-165150000D01*
X325750000Y-157850000D02*
X320250000Y-157850000D01*
X325750000Y-165150000D02*
X325750000Y-157850000D01*
X320250000Y-165150000D02*
X325750000Y-165150000D01*
X320250000Y-125850000D02*
X320250000Y-133150000D01*
X325750000Y-125850000D02*
X320250000Y-125850000D01*
X325750000Y-133150000D02*
X325750000Y-125850000D01*
X320250000Y-133150000D02*
X325750000Y-133150000D01*
X320250000Y-93850000D02*
X320250000Y-101150000D01*
X325750000Y-93850000D02*
X320250000Y-93850000D01*
X325750000Y-101150000D02*
X325750000Y-93850000D01*
X320250000Y-101150000D02*
X325750000Y-101150000D01*
X284250000Y-189850000D02*
X284250000Y-197150000D01*
X289750000Y-189850000D02*
X284250000Y-189850000D01*
X289750000Y-197150000D02*
X289750000Y-189850000D01*
X284250000Y-197150000D02*
X289750000Y-197150000D01*
X284250000Y-157850000D02*
X284250000Y-165150000D01*
X289750000Y-157850000D02*
X284250000Y-157850000D01*
X289750000Y-165150000D02*
X289750000Y-157850000D01*
X284250000Y-165150000D02*
X289750000Y-165150000D01*
X284250000Y-125850000D02*
X284250000Y-133150000D01*
X289750000Y-125850000D02*
X284250000Y-125850000D01*
X289750000Y-133150000D02*
X289750000Y-125850000D01*
X284250000Y-133150000D02*
X289750000Y-133150000D01*
X284250000Y-93850000D02*
X284250000Y-101150000D01*
X289750000Y-93850000D02*
X284250000Y-93850000D01*
X289750000Y-101150000D02*
X289750000Y-93850000D01*
X284250000Y-101150000D02*
X289750000Y-101150000D01*
X293250000Y-171850000D02*
X293250000Y-179150000D01*
X298750000Y-171850000D02*
X293250000Y-171850000D01*
X298750000Y-179150000D02*
X298750000Y-171850000D01*
X293250000Y-179150000D02*
X298750000Y-179150000D01*
X293250000Y-139850000D02*
X293250000Y-147150000D01*
X298750000Y-139850000D02*
X293250000Y-139850000D01*
X298750000Y-147150000D02*
X298750000Y-139850000D01*
X293250000Y-147150000D02*
X298750000Y-147150000D01*
X293250000Y-107850000D02*
X293250000Y-115150000D01*
X298750000Y-107850000D02*
X293250000Y-107850000D01*
X298750000Y-115150000D02*
X298750000Y-107850000D01*
X293250000Y-115150000D02*
X298750000Y-115150000D01*
X293250000Y-75850000D02*
X293250000Y-83150000D01*
X298750000Y-75850000D02*
X293250000Y-75850000D01*
X298750000Y-83150000D02*
X298750000Y-75850000D01*
X293250000Y-83150000D02*
X298750000Y-83150000D01*
X296250000Y-197150000D02*
X301750000Y-197150000D01*
X301750000Y-197150000D02*
X301750000Y-189850000D01*
X301750000Y-189850000D02*
X296250000Y-189850000D01*
X296250000Y-189850000D02*
X296250000Y-197150000D01*
X296250000Y-165150000D02*
X301750000Y-165150000D01*
X301750000Y-165150000D02*
X301750000Y-157850000D01*
X301750000Y-157850000D02*
X296250000Y-157850000D01*
X296250000Y-157850000D02*
X296250000Y-165150000D01*
X296250000Y-133150000D02*
X301750000Y-133150000D01*
X301750000Y-133150000D02*
X301750000Y-125850000D01*
X301750000Y-125850000D02*
X296250000Y-125850000D01*
X296250000Y-125850000D02*
X296250000Y-133150000D01*
X296250000Y-101150000D02*
X301750000Y-101150000D01*
X301750000Y-101150000D02*
X301750000Y-93850000D01*
X301750000Y-93850000D02*
X296250000Y-93850000D01*
X296250000Y-93850000D02*
X296250000Y-101150000D01*
X302000000Y-197150000D02*
X307500000Y-197150000D01*
X307500000Y-197150000D02*
X307500000Y-189850000D01*
X307500000Y-189850000D02*
X302000000Y-189850000D01*
X302000000Y-189850000D02*
X302000000Y-197150000D01*
X302000000Y-165150000D02*
X307500000Y-165150000D01*
X307500000Y-165150000D02*
X307500000Y-157850000D01*
X307500000Y-157850000D02*
X302000000Y-157850000D01*
X302000000Y-157850000D02*
X302000000Y-165150000D01*
X302000000Y-133150000D02*
X307500000Y-133150000D01*
X307500000Y-133150000D02*
X307500000Y-125850000D01*
X307500000Y-125850000D02*
X302000000Y-125850000D01*
X302000000Y-125850000D02*
X302000000Y-133150000D01*
X302000000Y-101150000D02*
X307500000Y-101150000D01*
X307500000Y-101150000D02*
X307500000Y-93850000D01*
X307500000Y-93850000D02*
X302000000Y-93850000D01*
X302000000Y-93850000D02*
X302000000Y-101150000D01*
X308250000Y-197150000D02*
X313750000Y-197150000D01*
X313750000Y-197150000D02*
X313750000Y-189850000D01*
X313750000Y-189850000D02*
X308250000Y-189850000D01*
X308250000Y-189850000D02*
X308250000Y-197150000D01*
X308250000Y-165150000D02*
X313750000Y-165150000D01*
X313750000Y-165150000D02*
X313750000Y-157850000D01*
X313750000Y-157850000D02*
X308250000Y-157850000D01*
X308250000Y-157850000D02*
X308250000Y-165150000D01*
X308250000Y-133150000D02*
X313750000Y-133150000D01*
X313750000Y-133150000D02*
X313750000Y-125850000D01*
X313750000Y-125850000D02*
X308250000Y-125850000D01*
X308250000Y-125850000D02*
X308250000Y-133150000D01*
X308250000Y-101150000D02*
X313750000Y-101150000D01*
X313750000Y-101150000D02*
X313750000Y-93850000D01*
X313750000Y-93850000D02*
X308250000Y-93850000D01*
X308250000Y-93850000D02*
X308250000Y-101150000D01*
X323250000Y-179150000D02*
X328750000Y-179150000D01*
X328750000Y-179150000D02*
X328750000Y-171850000D01*
X328750000Y-171850000D02*
X323250000Y-171850000D01*
X323250000Y-171850000D02*
X323250000Y-179150000D01*
X323250000Y-147150000D02*
X328750000Y-147150000D01*
X328750000Y-147150000D02*
X328750000Y-139850000D01*
X328750000Y-139850000D02*
X323250000Y-139850000D01*
X323250000Y-139850000D02*
X323250000Y-147150000D01*
X323250000Y-115150000D02*
X328750000Y-115150000D01*
X328750000Y-115150000D02*
X328750000Y-107850000D01*
X328750000Y-107850000D02*
X323250000Y-107850000D01*
X323250000Y-107850000D02*
X323250000Y-115150000D01*
X323250000Y-83150000D02*
X328750000Y-83150000D01*
X328750000Y-83150000D02*
X328750000Y-75850000D01*
X328750000Y-75850000D02*
X323250000Y-75850000D01*
X323250000Y-75850000D02*
X323250000Y-83150000D01*
X347250000Y-171850000D02*
X347250000Y-179150000D01*
X352750000Y-171850000D02*
X347250000Y-171850000D01*
X352750000Y-179150000D02*
X352750000Y-171850000D01*
X347250000Y-179150000D02*
X352750000Y-179150000D01*
X347250000Y-139850000D02*
X347250000Y-147150000D01*
X352750000Y-139850000D02*
X347250000Y-139850000D01*
X352750000Y-147150000D02*
X352750000Y-139850000D01*
X347250000Y-147150000D02*
X352750000Y-147150000D01*
X347250000Y-107850000D02*
X347250000Y-115150000D01*
X352750000Y-107850000D02*
X347250000Y-107850000D01*
X352750000Y-115150000D02*
X352750000Y-107850000D01*
X347250000Y-115150000D02*
X352750000Y-115150000D01*
X347250000Y-75850000D02*
X347250000Y-83150000D01*
X352750000Y-75850000D02*
X347250000Y-75850000D01*
X352750000Y-83150000D02*
X352750000Y-75850000D01*
X347250000Y-83150000D02*
X352750000Y-83150000D01*
X344250000Y-197150000D02*
X349750000Y-197150000D01*
X349750000Y-197150000D02*
X349750000Y-189850000D01*
X349750000Y-189850000D02*
X344250000Y-189850000D01*
X344250000Y-189850000D02*
X344250000Y-197150000D01*
X344250000Y-165150000D02*
X349750000Y-165150000D01*
X349750000Y-165150000D02*
X349750000Y-157850000D01*
X349750000Y-157850000D02*
X344250000Y-157850000D01*
X344250000Y-157850000D02*
X344250000Y-165150000D01*
X344250000Y-133150000D02*
X349750000Y-133150000D01*
X349750000Y-133150000D02*
X349750000Y-125850000D01*
X349750000Y-125850000D02*
X344250000Y-125850000D01*
X344250000Y-125850000D02*
X344250000Y-133150000D01*
X344250000Y-101150000D02*
X349750000Y-101150000D01*
X349750000Y-101150000D02*
X349750000Y-93850000D01*
X349750000Y-93850000D02*
X344250000Y-93850000D01*
X344250000Y-93850000D02*
X344250000Y-101150000D01*
X360700000Y-188500000D02*
X360700000Y-177300000D01*
X360700000Y-177300000D02*
X357100000Y-177300000D01*
X357100000Y-177300000D02*
X357100000Y-188500000D01*
X357100000Y-188500000D02*
X360700000Y-188500000D01*
X360700000Y-156500000D02*
X360700000Y-145300000D01*
X360700000Y-145300000D02*
X357100000Y-145300000D01*
X357100000Y-145300000D02*
X357100000Y-156500000D01*
X357100000Y-156500000D02*
X360700000Y-156500000D01*
X360700000Y-124500000D02*
X360700000Y-113300000D01*
X360700000Y-113300000D02*
X357100000Y-113300000D01*
X357100000Y-113300000D02*
X357100000Y-124500000D01*
X357100000Y-124500000D02*
X360700000Y-124500000D01*
X360700000Y-92500000D02*
X360700000Y-81300000D01*
X360700000Y-81300000D02*
X357100000Y-81300000D01*
X357100000Y-81300000D02*
X357100000Y-92500000D01*
X357100000Y-92500000D02*
X360700000Y-92500000D01*
X326250000Y-189850000D02*
X326250000Y-197150000D01*
X331750000Y-189850000D02*
X326250000Y-189850000D01*
X331750000Y-197150000D02*
X331750000Y-189850000D01*
X326250000Y-197150000D02*
X331750000Y-197150000D01*
X326250000Y-157850000D02*
X326250000Y-165150000D01*
X331750000Y-157850000D02*
X326250000Y-157850000D01*
X331750000Y-165150000D02*
X331750000Y-157850000D01*
X326250000Y-165150000D02*
X331750000Y-165150000D01*
X326250000Y-125850000D02*
X326250000Y-133150000D01*
X331750000Y-125850000D02*
X326250000Y-125850000D01*
X331750000Y-133150000D02*
X331750000Y-125850000D01*
X326250000Y-133150000D02*
X331750000Y-133150000D01*
X326250000Y-93850000D02*
X326250000Y-101150000D01*
X331750000Y-93850000D02*
X326250000Y-93850000D01*
X331750000Y-101150000D02*
X331750000Y-93850000D01*
X326250000Y-101150000D02*
X331750000Y-101150000D01*
X332250000Y-197150000D02*
X337750000Y-197150000D01*
X337750000Y-197150000D02*
X337750000Y-189850000D01*
X337750000Y-189850000D02*
X332250000Y-189850000D01*
X332250000Y-189850000D02*
X332250000Y-197150000D01*
X332250000Y-165150000D02*
X337750000Y-165150000D01*
X337750000Y-165150000D02*
X337750000Y-157850000D01*
X337750000Y-157850000D02*
X332250000Y-157850000D01*
X332250000Y-157850000D02*
X332250000Y-165150000D01*
X332250000Y-133150000D02*
X337750000Y-133150000D01*
X337750000Y-133150000D02*
X337750000Y-125850000D01*
X337750000Y-125850000D02*
X332250000Y-125850000D01*
X332250000Y-125850000D02*
X332250000Y-133150000D01*
X332250000Y-101150000D02*
X337750000Y-101150000D01*
X337750000Y-101150000D02*
X337750000Y-93850000D01*
X337750000Y-93850000D02*
X332250000Y-93850000D01*
X332250000Y-93850000D02*
X332250000Y-101150000D01*
X254250000Y-189850000D02*
X254250000Y-197150000D01*
X259750000Y-189850000D02*
X254250000Y-189850000D01*
X259750000Y-197150000D02*
X259750000Y-189850000D01*
X254250000Y-197150000D02*
X259750000Y-197150000D01*
X254250000Y-157850000D02*
X254250000Y-165150000D01*
X259750000Y-157850000D02*
X254250000Y-157850000D01*
X259750000Y-165150000D02*
X259750000Y-157850000D01*
X254250000Y-165150000D02*
X259750000Y-165150000D01*
X254250000Y-125850000D02*
X254250000Y-133150000D01*
X259750000Y-125850000D02*
X254250000Y-125850000D01*
X259750000Y-133150000D02*
X259750000Y-125850000D01*
X254250000Y-133150000D02*
X259750000Y-133150000D01*
X254250000Y-93850000D02*
X254250000Y-101150000D01*
X259750000Y-93850000D02*
X254250000Y-93850000D01*
X259750000Y-101150000D02*
X259750000Y-93850000D01*
X254250000Y-101150000D02*
X259750000Y-101150000D01*
X263250000Y-178900000D02*
X268750000Y-178900000D01*
X268750000Y-178900000D02*
X268750000Y-171600000D01*
X268750000Y-171600000D02*
X263250000Y-171600000D01*
X263250000Y-171600000D02*
X263250000Y-178900000D01*
X263250000Y-146900000D02*
X268750000Y-146900000D01*
X268750000Y-146900000D02*
X268750000Y-139600000D01*
X268750000Y-139600000D02*
X263250000Y-139600000D01*
X263250000Y-139600000D02*
X263250000Y-146900000D01*
X263250000Y-114900000D02*
X268750000Y-114900000D01*
X268750000Y-114900000D02*
X268750000Y-107600000D01*
X268750000Y-107600000D02*
X263250000Y-107600000D01*
X263250000Y-107600000D02*
X263250000Y-114900000D01*
X263250000Y-82900000D02*
X268750000Y-82900000D01*
X268750000Y-82900000D02*
X268750000Y-75600000D01*
X268750000Y-75600000D02*
X263250000Y-75600000D01*
X263250000Y-75600000D02*
X263250000Y-82900000D01*
X338250000Y-197150000D02*
X343750000Y-197150000D01*
X343750000Y-197150000D02*
X343750000Y-189850000D01*
X343750000Y-189850000D02*
X338250000Y-189850000D01*
X338250000Y-189850000D02*
X338250000Y-197150000D01*
X338250000Y-165150000D02*
X343750000Y-165150000D01*
X343750000Y-165150000D02*
X343750000Y-157850000D01*
X343750000Y-157850000D02*
X338250000Y-157850000D01*
X338250000Y-157850000D02*
X338250000Y-165150000D01*
X338250000Y-133150000D02*
X343750000Y-133150000D01*
X343750000Y-133150000D02*
X343750000Y-125850000D01*
X343750000Y-125850000D02*
X338250000Y-125850000D01*
X338250000Y-125850000D02*
X338250000Y-133150000D01*
X338250000Y-101150000D02*
X343750000Y-101150000D01*
X343750000Y-101150000D02*
X343750000Y-93850000D01*
X343750000Y-93850000D02*
X338250000Y-93850000D01*
X338250000Y-93850000D02*
X338250000Y-101150000D01*
X275250000Y-171850000D02*
X275250000Y-179150000D01*
X280750000Y-171850000D02*
X275250000Y-171850000D01*
X280750000Y-179150000D02*
X280750000Y-171850000D01*
X275250000Y-179150000D02*
X280750000Y-179150000D01*
X275250000Y-139850000D02*
X275250000Y-147150000D01*
X280750000Y-139850000D02*
X275250000Y-139850000D01*
X280750000Y-147150000D02*
X280750000Y-139850000D01*
X275250000Y-147150000D02*
X280750000Y-147150000D01*
X275250000Y-107850000D02*
X275250000Y-115150000D01*
X280750000Y-107850000D02*
X275250000Y-107850000D01*
X280750000Y-115150000D02*
X280750000Y-107850000D01*
X275250000Y-115150000D02*
X280750000Y-115150000D01*
X275250000Y-75850000D02*
X275250000Y-83150000D01*
X280750000Y-75850000D02*
X275250000Y-75850000D01*
X280750000Y-83150000D02*
X280750000Y-75850000D01*
X275250000Y-83150000D02*
X280750000Y-83150000D01*
X281250000Y-179150000D02*
X286750000Y-179150000D01*
X286750000Y-179150000D02*
X286750000Y-171850000D01*
X286750000Y-171850000D02*
X281250000Y-171850000D01*
X281250000Y-171850000D02*
X281250000Y-179150000D01*
X281250000Y-147150000D02*
X286750000Y-147150000D01*
X286750000Y-147150000D02*
X286750000Y-139850000D01*
X286750000Y-139850000D02*
X281250000Y-139850000D01*
X281250000Y-139850000D02*
X281250000Y-147150000D01*
X281250000Y-115150000D02*
X286750000Y-115150000D01*
X286750000Y-115150000D02*
X286750000Y-107850000D01*
X286750000Y-107850000D02*
X281250000Y-107850000D01*
X281250000Y-107850000D02*
X281250000Y-115150000D01*
X281250000Y-83150000D02*
X286750000Y-83150000D01*
X286750000Y-83150000D02*
X286750000Y-75850000D01*
X286750000Y-75850000D02*
X281250000Y-75850000D01*
X281250000Y-75850000D02*
X281250000Y-83150000D01*
X299250000Y-171850000D02*
X299250000Y-179150000D01*
X304750000Y-171850000D02*
X299250000Y-171850000D01*
X304750000Y-179150000D02*
X304750000Y-171850000D01*
X299250000Y-179150000D02*
X304750000Y-179150000D01*
X299250000Y-139850000D02*
X299250000Y-147150000D01*
X304750000Y-139850000D02*
X299250000Y-139850000D01*
X304750000Y-147150000D02*
X304750000Y-139850000D01*
X299250000Y-147150000D02*
X304750000Y-147150000D01*
X299250000Y-107850000D02*
X299250000Y-115150000D01*
X304750000Y-107850000D02*
X299250000Y-107850000D01*
X304750000Y-115150000D02*
X304750000Y-107850000D01*
X299250000Y-115150000D02*
X304750000Y-115150000D01*
X299250000Y-75850000D02*
X299250000Y-83150000D01*
X304750000Y-75850000D02*
X299250000Y-75850000D01*
X304750000Y-83150000D02*
X304750000Y-75850000D01*
X299250000Y-83150000D02*
X304750000Y-83150000D01*
X317250000Y-171850000D02*
X317250000Y-179150000D01*
X322750000Y-171850000D02*
X317250000Y-171850000D01*
X322750000Y-179150000D02*
X322750000Y-171850000D01*
X317250000Y-179150000D02*
X322750000Y-179150000D01*
X317250000Y-139850000D02*
X317250000Y-147150000D01*
X322750000Y-139850000D02*
X317250000Y-139850000D01*
X322750000Y-147150000D02*
X322750000Y-139850000D01*
X317250000Y-147150000D02*
X322750000Y-147150000D01*
X317250000Y-107850000D02*
X317250000Y-115150000D01*
X322750000Y-107850000D02*
X317250000Y-107850000D01*
X322750000Y-115150000D02*
X322750000Y-107850000D01*
X317250000Y-115150000D02*
X322750000Y-115150000D01*
X317250000Y-75850000D02*
X317250000Y-83150000D01*
X322750000Y-75850000D02*
X317250000Y-75850000D01*
X322750000Y-83150000D02*
X322750000Y-75850000D01*
X317250000Y-83150000D02*
X322750000Y-83150000D01*
X356250000Y-197150000D02*
X361750000Y-197150000D01*
X361750000Y-197150000D02*
X361750000Y-189850000D01*
X361750000Y-189850000D02*
X356250000Y-189850000D01*
X356250000Y-189850000D02*
X356250000Y-197150000D01*
X356250000Y-165150000D02*
X361750000Y-165150000D01*
X361750000Y-165150000D02*
X361750000Y-157850000D01*
X361750000Y-157850000D02*
X356250000Y-157850000D01*
X356250000Y-157850000D02*
X356250000Y-165150000D01*
X356250000Y-133150000D02*
X361750000Y-133150000D01*
X361750000Y-133150000D02*
X361750000Y-125850000D01*
X361750000Y-125850000D02*
X356250000Y-125850000D01*
X356250000Y-125850000D02*
X356250000Y-133150000D01*
X356250000Y-101150000D02*
X361750000Y-101150000D01*
X361750000Y-101150000D02*
X361750000Y-93850000D01*
X361750000Y-93850000D02*
X356250000Y-93850000D01*
X356250000Y-93850000D02*
X356250000Y-101150000D01*
X350250000Y-197150000D02*
X355750000Y-197150000D01*
X355750000Y-197150000D02*
X355750000Y-189850000D01*
X355750000Y-189850000D02*
X350250000Y-189850000D01*
X350250000Y-189850000D02*
X350250000Y-197150000D01*
X350250000Y-165150000D02*
X355750000Y-165150000D01*
X355750000Y-165150000D02*
X355750000Y-157850000D01*
X355750000Y-157850000D02*
X350250000Y-157850000D01*
X350250000Y-157850000D02*
X350250000Y-165150000D01*
X350250000Y-133150000D02*
X355750000Y-133150000D01*
X355750000Y-133150000D02*
X355750000Y-125850000D01*
X355750000Y-125850000D02*
X350250000Y-125850000D01*
X350250000Y-125850000D02*
X350250000Y-133150000D01*
X350250000Y-101150000D02*
X355750000Y-101150000D01*
X355750000Y-101150000D02*
X355750000Y-93850000D01*
X355750000Y-93850000D02*
X350250000Y-93850000D01*
X350250000Y-93850000D02*
X350250000Y-101150000D01*
X84550000Y-205000000D02*
G75*
G03X84550000Y-205000000I-4550000J0D01*
G01*
X84550000Y-33000000D02*
G75*
G03X84550000Y-33000000I-4550000J0D01*
G01*
X335550000Y-33000000D02*
G75*
G03X335550000Y-33000000I-4550000J0D01*
G01*
X336550000Y-205000000D02*
G75*
G03X336550000Y-205000000I-4550000J0D01*
G01*
X353750000Y-205000000D02*
G75*
G03X353750000Y-205000000I-1750000J0D01*
G01*
X352750000Y-33000000D02*
G75*
G03X352750000Y-33000000I-1750000J0D01*
G01*
X61750000Y-33000000D02*
G75*
G03X61750000Y-33000000I-1750000J0D01*
G01*
X357100000Y-60500000D02*
X360700000Y-60500000D01*
X357100000Y-49300000D02*
X357100000Y-60500000D01*
X360700000Y-49300000D02*
X357100000Y-49300000D01*
X360700000Y-60500000D02*
X360700000Y-49300000D01*
X356250000Y-61850000D02*
X356250000Y-69150000D01*
X361750000Y-61850000D02*
X356250000Y-61850000D01*
X361750000Y-69150000D02*
X361750000Y-61850000D01*
X356250000Y-69150000D02*
X361750000Y-69150000D01*
X350250000Y-61850000D02*
X350250000Y-69150000D01*
X355750000Y-61850000D02*
X350250000Y-61850000D01*
X355750000Y-69150000D02*
X355750000Y-61850000D01*
X350250000Y-69150000D02*
X355750000Y-69150000D01*
X347250000Y-51150000D02*
X352750000Y-51150000D01*
X352750000Y-51150000D02*
X352750000Y-43850000D01*
X352750000Y-43850000D02*
X347250000Y-43850000D01*
X347250000Y-43850000D02*
X347250000Y-51150000D01*
X344250000Y-61850000D02*
X344250000Y-69150000D01*
X349750000Y-61850000D02*
X344250000Y-61850000D01*
X349750000Y-69150000D02*
X349750000Y-61850000D01*
X344250000Y-69150000D02*
X349750000Y-69150000D01*
X341250000Y-51150000D02*
X346750000Y-51150000D01*
X346750000Y-51150000D02*
X346750000Y-43850000D01*
X346750000Y-43850000D02*
X341250000Y-43850000D01*
X341250000Y-43850000D02*
X341250000Y-51150000D01*
X338250000Y-61850000D02*
X338250000Y-69150000D01*
X343750000Y-61850000D02*
X338250000Y-61850000D01*
X343750000Y-69150000D02*
X343750000Y-61850000D01*
X338250000Y-69150000D02*
X343750000Y-69150000D01*
X335250000Y-51150000D02*
X340750000Y-51150000D01*
X340750000Y-51150000D02*
X340750000Y-43850000D01*
X340750000Y-43850000D02*
X335250000Y-43850000D01*
X335250000Y-43850000D02*
X335250000Y-51150000D01*
X332250000Y-61850000D02*
X332250000Y-69150000D01*
X337750000Y-61850000D02*
X332250000Y-61850000D01*
X337750000Y-69150000D02*
X337750000Y-61850000D01*
X332250000Y-69150000D02*
X337750000Y-69150000D01*
X326250000Y-69150000D02*
X331750000Y-69150000D01*
X331750000Y-69150000D02*
X331750000Y-61850000D01*
X331750000Y-61850000D02*
X326250000Y-61850000D01*
X326250000Y-61850000D02*
X326250000Y-69150000D01*
X323250000Y-43850000D02*
X323250000Y-51150000D01*
X328750000Y-43850000D02*
X323250000Y-43850000D01*
X328750000Y-51150000D02*
X328750000Y-43850000D01*
X323250000Y-51150000D02*
X328750000Y-51150000D01*
X320250000Y-69150000D02*
X325750000Y-69150000D01*
X325750000Y-69150000D02*
X325750000Y-61850000D01*
X325750000Y-61850000D02*
X320250000Y-61850000D01*
X320250000Y-61850000D02*
X320250000Y-69150000D01*
X317250000Y-51150000D02*
X322750000Y-51150000D01*
X322750000Y-51150000D02*
X322750000Y-43850000D01*
X322750000Y-43850000D02*
X317250000Y-43850000D01*
X317250000Y-43850000D02*
X317250000Y-51150000D01*
X314250000Y-69150000D02*
X319750000Y-69150000D01*
X319750000Y-69150000D02*
X319750000Y-61850000D01*
X319750000Y-61850000D02*
X314250000Y-61850000D01*
X314250000Y-61850000D02*
X314250000Y-69150000D01*
X308250000Y-61850000D02*
X308250000Y-69150000D01*
X313750000Y-61850000D02*
X308250000Y-61850000D01*
X313750000Y-69150000D02*
X313750000Y-61850000D01*
X308250000Y-69150000D02*
X313750000Y-69150000D01*
X305250000Y-51150000D02*
X310750000Y-51150000D01*
X310750000Y-51150000D02*
X310750000Y-43850000D01*
X310750000Y-43850000D02*
X305250000Y-43850000D01*
X305250000Y-43850000D02*
X305250000Y-51150000D01*
X302000000Y-61850000D02*
X302000000Y-69150000D01*
X307500000Y-61850000D02*
X302000000Y-61850000D01*
X307500000Y-69150000D02*
X307500000Y-61850000D01*
X302000000Y-69150000D02*
X307500000Y-69150000D01*
X299250000Y-51150000D02*
X304750000Y-51150000D01*
X304750000Y-51150000D02*
X304750000Y-43850000D01*
X304750000Y-43850000D02*
X299250000Y-43850000D01*
X299250000Y-43850000D02*
X299250000Y-51150000D01*
X296250000Y-61850000D02*
X296250000Y-69150000D01*
X301750000Y-61850000D02*
X296250000Y-61850000D01*
X301750000Y-69150000D02*
X301750000Y-61850000D01*
X296250000Y-69150000D02*
X301750000Y-69150000D01*
X293250000Y-51150000D02*
X298750000Y-51150000D01*
X298750000Y-51150000D02*
X298750000Y-43850000D01*
X298750000Y-43850000D02*
X293250000Y-43850000D01*
X293250000Y-43850000D02*
X293250000Y-51150000D01*
X290250000Y-61850000D02*
X290250000Y-69150000D01*
X295750000Y-61850000D02*
X290250000Y-61850000D01*
X295750000Y-69150000D02*
X295750000Y-61850000D01*
X290250000Y-69150000D02*
X295750000Y-69150000D01*
X284250000Y-69150000D02*
X289750000Y-69150000D01*
X289750000Y-69150000D02*
X289750000Y-61850000D01*
X289750000Y-61850000D02*
X284250000Y-61850000D01*
X284250000Y-61850000D02*
X284250000Y-69150000D01*
X281250000Y-43850000D02*
X281250000Y-51150000D01*
X286750000Y-43850000D02*
X281250000Y-43850000D01*
X286750000Y-51150000D02*
X286750000Y-43850000D01*
X281250000Y-51150000D02*
X286750000Y-51150000D01*
X278250000Y-61850000D02*
X278250000Y-69150000D01*
X283750000Y-61850000D02*
X278250000Y-61850000D01*
X283750000Y-69150000D02*
X283750000Y-61850000D01*
X278250000Y-69150000D02*
X283750000Y-69150000D01*
X275250000Y-51150000D02*
X280750000Y-51150000D01*
X280750000Y-51150000D02*
X280750000Y-43850000D01*
X280750000Y-43850000D02*
X275250000Y-43850000D01*
X275250000Y-43850000D02*
X275250000Y-51150000D01*
X272250000Y-61850000D02*
X272250000Y-69150000D01*
X277750000Y-61850000D02*
X272250000Y-61850000D01*
X277750000Y-69150000D02*
X277750000Y-61850000D01*
X272250000Y-69150000D02*
X277750000Y-69150000D01*
X266250000Y-69150000D02*
X271750000Y-69150000D01*
X271750000Y-69150000D02*
X271750000Y-61850000D01*
X271750000Y-61850000D02*
X266250000Y-61850000D01*
X266250000Y-61850000D02*
X266250000Y-69150000D01*
X263250000Y-43600000D02*
X263250000Y-50900000D01*
X268750000Y-43600000D02*
X263250000Y-43600000D01*
X268750000Y-50900000D02*
X268750000Y-43600000D01*
X263250000Y-50900000D02*
X268750000Y-50900000D01*
X260250000Y-69150000D02*
X265750000Y-69150000D01*
X265750000Y-69150000D02*
X265750000Y-61850000D01*
X265750000Y-61850000D02*
X260250000Y-61850000D01*
X260250000Y-61850000D02*
X260250000Y-69150000D01*
X257250000Y-43600000D02*
X257250000Y-50900000D01*
X262750000Y-43600000D02*
X257250000Y-43600000D01*
X262750000Y-50900000D02*
X262750000Y-43600000D01*
X257250000Y-50900000D02*
X262750000Y-50900000D01*
X254250000Y-69150000D02*
X259750000Y-69150000D01*
X259750000Y-69150000D02*
X259750000Y-61850000D01*
X259750000Y-61850000D02*
X254250000Y-61850000D01*
X254250000Y-61850000D02*
X254250000Y-69150000D01*
X251250000Y-43600000D02*
X251250000Y-50900000D01*
X256750000Y-43600000D02*
X251250000Y-43600000D01*
X256750000Y-50900000D02*
X256750000Y-43600000D01*
X251250000Y-50900000D02*
X256750000Y-50900000D01*
X248250000Y-69150000D02*
X253750000Y-69150000D01*
X253750000Y-69150000D02*
X253750000Y-61850000D01*
X253750000Y-61850000D02*
X248250000Y-61850000D01*
X248250000Y-61850000D02*
X248250000Y-69150000D01*
X242250000Y-69150000D02*
X247750000Y-69150000D01*
X247750000Y-69150000D02*
X247750000Y-61850000D01*
X247750000Y-61850000D02*
X242250000Y-61850000D01*
X242250000Y-61850000D02*
X242250000Y-69150000D01*
X239250000Y-50900000D02*
X244750000Y-50900000D01*
X244750000Y-50900000D02*
X244750000Y-43600000D01*
X244750000Y-43600000D02*
X239250000Y-43600000D01*
X239250000Y-43600000D02*
X239250000Y-50900000D01*
X236250000Y-61850000D02*
X236250000Y-69150000D01*
X241750000Y-61850000D02*
X236250000Y-61850000D01*
X241750000Y-69150000D02*
X241750000Y-61850000D01*
X236250000Y-69150000D02*
X241750000Y-69150000D01*
X233250000Y-50900000D02*
X238750000Y-50900000D01*
X238750000Y-50900000D02*
X238750000Y-43600000D01*
X238750000Y-43600000D02*
X233250000Y-43600000D01*
X233250000Y-43600000D02*
X233250000Y-50900000D01*
X230250000Y-61850000D02*
X230250000Y-69150000D01*
X235750000Y-61850000D02*
X230250000Y-61850000D01*
X235750000Y-69150000D02*
X235750000Y-61850000D01*
X230250000Y-69150000D02*
X235750000Y-69150000D01*
X224250000Y-69150000D02*
X229750000Y-69150000D01*
X229750000Y-69150000D02*
X229750000Y-61850000D01*
X229750000Y-61850000D02*
X224250000Y-61850000D01*
X224250000Y-61850000D02*
X224250000Y-69150000D01*
X221250000Y-43600000D02*
X221250000Y-50900000D01*
X226750000Y-43600000D02*
X221250000Y-43600000D01*
X226750000Y-50900000D02*
X226750000Y-43600000D01*
X221250000Y-50900000D02*
X226750000Y-50900000D01*
X218250000Y-69150000D02*
X223750000Y-69150000D01*
X223750000Y-69150000D02*
X223750000Y-61850000D01*
X223750000Y-61850000D02*
X218250000Y-61850000D01*
X218250000Y-61850000D02*
X218250000Y-69150000D01*
X215250000Y-43600000D02*
X215250000Y-50900000D01*
X220750000Y-43600000D02*
X215250000Y-43600000D01*
X220750000Y-50900000D02*
X220750000Y-43600000D01*
X215250000Y-50900000D02*
X220750000Y-50900000D01*
X212250000Y-69150000D02*
X217750000Y-69150000D01*
X217750000Y-69150000D02*
X217750000Y-61850000D01*
X217750000Y-61850000D02*
X212250000Y-61850000D01*
X212250000Y-61850000D02*
X212250000Y-69150000D01*
X209250000Y-43600000D02*
X209250000Y-50900000D01*
X214750000Y-43600000D02*
X209250000Y-43600000D01*
X214750000Y-50900000D02*
X214750000Y-43600000D01*
X209250000Y-50900000D02*
X214750000Y-50900000D01*
X206250000Y-61850000D02*
X206250000Y-69150000D01*
X211750000Y-61850000D02*
X206250000Y-61850000D01*
X211750000Y-69150000D02*
X211750000Y-61850000D01*
X206250000Y-69150000D02*
X211750000Y-69150000D01*
X200250000Y-61850000D02*
X200250000Y-69150000D01*
X205750000Y-61850000D02*
X200250000Y-61850000D01*
X205750000Y-69150000D02*
X205750000Y-61850000D01*
X200250000Y-69150000D02*
X205750000Y-69150000D01*
X197250000Y-50900000D02*
X202750000Y-50900000D01*
X202750000Y-50900000D02*
X202750000Y-43600000D01*
X202750000Y-43600000D02*
X197250000Y-43600000D01*
X197250000Y-43600000D02*
X197250000Y-50900000D01*
X194250000Y-61850000D02*
X194250000Y-69150000D01*
X199750000Y-61850000D02*
X194250000Y-61850000D01*
X199750000Y-69150000D02*
X199750000Y-61850000D01*
X194250000Y-69150000D02*
X199750000Y-69150000D01*
X191250000Y-50900000D02*
X196750000Y-50900000D01*
X196750000Y-50900000D02*
X196750000Y-43600000D01*
X196750000Y-43600000D02*
X191250000Y-43600000D01*
X191250000Y-43600000D02*
X191250000Y-50900000D01*
X188250000Y-61850000D02*
X188250000Y-69150000D01*
X193750000Y-61850000D02*
X188250000Y-61850000D01*
X193750000Y-69150000D02*
X193750000Y-61850000D01*
X188250000Y-69150000D02*
X193750000Y-69150000D01*
X182250000Y-69150000D02*
X187750000Y-69150000D01*
X187750000Y-69150000D02*
X187750000Y-61850000D01*
X187750000Y-61850000D02*
X182250000Y-61850000D01*
X182250000Y-61850000D02*
X182250000Y-69150000D01*
X179250000Y-43600000D02*
X179250000Y-50900000D01*
X184750000Y-43600000D02*
X179250000Y-43600000D01*
X184750000Y-50900000D02*
X184750000Y-43600000D01*
X179250000Y-50900000D02*
X184750000Y-50900000D01*
X176250000Y-69150000D02*
X181750000Y-69150000D01*
X181750000Y-69150000D02*
X181750000Y-61850000D01*
X181750000Y-61850000D02*
X176250000Y-61850000D01*
X176250000Y-61850000D02*
X176250000Y-69150000D01*
X173250000Y-43600000D02*
X173250000Y-50900000D01*
X178750000Y-43600000D02*
X173250000Y-43600000D01*
X178750000Y-50900000D02*
X178750000Y-43600000D01*
X173250000Y-50900000D02*
X178750000Y-50900000D01*
X170250000Y-69150000D02*
X175750000Y-69150000D01*
X175750000Y-69150000D02*
X175750000Y-61850000D01*
X175750000Y-61850000D02*
X170250000Y-61850000D01*
X170250000Y-61850000D02*
X170250000Y-69150000D01*
X167250000Y-43600000D02*
X167250000Y-50900000D01*
X172750000Y-43600000D02*
X167250000Y-43600000D01*
X172750000Y-50900000D02*
X172750000Y-43600000D01*
X167250000Y-50900000D02*
X172750000Y-50900000D01*
X164250000Y-69150000D02*
X169750000Y-69150000D01*
X169750000Y-69150000D02*
X169750000Y-61850000D01*
X169750000Y-61850000D02*
X164250000Y-61850000D01*
X164250000Y-61850000D02*
X164250000Y-69150000D01*
X158250000Y-61850000D02*
X158250000Y-69150000D01*
X163750000Y-61850000D02*
X158250000Y-61850000D01*
X163750000Y-69150000D02*
X163750000Y-61850000D01*
X158250000Y-69150000D02*
X163750000Y-69150000D01*
X155250000Y-50900000D02*
X160750000Y-50900000D01*
X160750000Y-50900000D02*
X160750000Y-43600000D01*
X160750000Y-43600000D02*
X155250000Y-43600000D01*
X155250000Y-43600000D02*
X155250000Y-50900000D01*
X152250000Y-61850000D02*
X152250000Y-69150000D01*
X157750000Y-61850000D02*
X152250000Y-61850000D01*
X157750000Y-69150000D02*
X157750000Y-61850000D01*
X152250000Y-69150000D02*
X157750000Y-69150000D01*
X149250000Y-50900000D02*
X154750000Y-50900000D01*
X154750000Y-50900000D02*
X154750000Y-43600000D01*
X154750000Y-43600000D02*
X149250000Y-43600000D01*
X149250000Y-43600000D02*
X149250000Y-50900000D01*
X146250000Y-61850000D02*
X146250000Y-69150000D01*
X151750000Y-61850000D02*
X146250000Y-61850000D01*
X151750000Y-69150000D02*
X151750000Y-61850000D01*
X146250000Y-69150000D02*
X151750000Y-69150000D01*
X140250000Y-69150000D02*
X145750000Y-69150000D01*
X145750000Y-69150000D02*
X145750000Y-61850000D01*
X145750000Y-61850000D02*
X140250000Y-61850000D01*
X140250000Y-61850000D02*
X140250000Y-69150000D01*
X137250000Y-43600000D02*
X137250000Y-50900000D01*
X142750000Y-43600000D02*
X137250000Y-43600000D01*
X142750000Y-50900000D02*
X142750000Y-43600000D01*
X137250000Y-50900000D02*
X142750000Y-50900000D01*
X134250000Y-69150000D02*
X139750000Y-69150000D01*
X139750000Y-69150000D02*
X139750000Y-61850000D01*
X139750000Y-61850000D02*
X134250000Y-61850000D01*
X134250000Y-61850000D02*
X134250000Y-69150000D01*
X131250000Y-43600000D02*
X131250000Y-50900000D01*
X136750000Y-43600000D02*
X131250000Y-43600000D01*
X136750000Y-50900000D02*
X136750000Y-43600000D01*
X131250000Y-50900000D02*
X136750000Y-50900000D01*
X128250000Y-69150000D02*
X133750000Y-69150000D01*
X133750000Y-69150000D02*
X133750000Y-61850000D01*
X133750000Y-61850000D02*
X128250000Y-61850000D01*
X128250000Y-61850000D02*
X128250000Y-69150000D01*
X125250000Y-43600000D02*
X125250000Y-50900000D01*
X130750000Y-43600000D02*
X125250000Y-43600000D01*
X130750000Y-50900000D02*
X130750000Y-43600000D01*
X125250000Y-50900000D02*
X130750000Y-50900000D01*
X122250000Y-61850000D02*
X122250000Y-69150000D01*
X127750000Y-61850000D02*
X122250000Y-61850000D01*
X127750000Y-69150000D02*
X127750000Y-61850000D01*
X122250000Y-69150000D02*
X127750000Y-69150000D01*
X116250000Y-69150000D02*
X121750000Y-69150000D01*
X121750000Y-69150000D02*
X121750000Y-61850000D01*
X121750000Y-61850000D02*
X116250000Y-61850000D01*
X116250000Y-61850000D02*
X116250000Y-69150000D01*
X113250000Y-43600000D02*
X113250000Y-50900000D01*
X118750000Y-43600000D02*
X113250000Y-43600000D01*
X118750000Y-50900000D02*
X118750000Y-43600000D01*
X113250000Y-50900000D02*
X118750000Y-50900000D01*
X110250000Y-69150000D02*
X115750000Y-69150000D01*
X115750000Y-69150000D02*
X115750000Y-61850000D01*
X115750000Y-61850000D02*
X110250000Y-61850000D01*
X110250000Y-61850000D02*
X110250000Y-69150000D01*
X107250000Y-43600000D02*
X107250000Y-50900000D01*
X112750000Y-43600000D02*
X107250000Y-43600000D01*
X112750000Y-50900000D02*
X112750000Y-43600000D01*
X107250000Y-50900000D02*
X112750000Y-50900000D01*
X104250000Y-69150000D02*
X109750000Y-69150000D01*
X109750000Y-69150000D02*
X109750000Y-61850000D01*
X109750000Y-61850000D02*
X104250000Y-61850000D01*
X104250000Y-61850000D02*
X104250000Y-69150000D01*
X98250000Y-61850000D02*
X98250000Y-69150000D01*
X103750000Y-61850000D02*
X98250000Y-61850000D01*
X103750000Y-69150000D02*
X103750000Y-61850000D01*
X98250000Y-69150000D02*
X103750000Y-69150000D01*
X95250000Y-50900000D02*
X100750000Y-50900000D01*
X100750000Y-50900000D02*
X100750000Y-43600000D01*
X100750000Y-43600000D02*
X95250000Y-43600000D01*
X95250000Y-43600000D02*
X95250000Y-50900000D01*
X92250000Y-61850000D02*
X92250000Y-69150000D01*
X97750000Y-61850000D02*
X92250000Y-61850000D01*
X97750000Y-69150000D02*
X97750000Y-61850000D01*
X92250000Y-69150000D02*
X97750000Y-69150000D01*
X89250000Y-50900000D02*
X94750000Y-50900000D01*
X94750000Y-50900000D02*
X94750000Y-43600000D01*
X94750000Y-43600000D02*
X89250000Y-43600000D01*
X89250000Y-43600000D02*
X89250000Y-50900000D01*
X86250000Y-69150000D02*
X91750000Y-69150000D01*
X91750000Y-69150000D02*
X91750000Y-61850000D01*
X91750000Y-61850000D02*
X86250000Y-61850000D01*
X86250000Y-61850000D02*
X86250000Y-69150000D01*
X83250000Y-50900000D02*
X88750000Y-50900000D01*
X88750000Y-50900000D02*
X88750000Y-43600000D01*
X88750000Y-43600000D02*
X83250000Y-43600000D01*
X83250000Y-43600000D02*
X83250000Y-50900000D01*
X80250000Y-61850000D02*
X80250000Y-69150000D01*
X85750000Y-61850000D02*
X80250000Y-61850000D01*
X85750000Y-69150000D02*
X85750000Y-61850000D01*
X80250000Y-69150000D02*
X85750000Y-69150000D01*
X74250000Y-69150000D02*
X79750000Y-69150000D01*
X79750000Y-69150000D02*
X79750000Y-61850000D01*
X79750000Y-61850000D02*
X74250000Y-61850000D01*
X74250000Y-61850000D02*
X74250000Y-69150000D01*
X71250000Y-43600000D02*
X71250000Y-50900000D01*
X76750000Y-43600000D02*
X71250000Y-43600000D01*
X76750000Y-50900000D02*
X76750000Y-43600000D01*
X71250000Y-50900000D02*
X76750000Y-50900000D01*
X68250000Y-69150000D02*
X73750000Y-69150000D01*
X73750000Y-69150000D02*
X73750000Y-61850000D01*
X73750000Y-61850000D02*
X68250000Y-61850000D01*
X68250000Y-61850000D02*
X68250000Y-69150000D01*
X65250000Y-43600000D02*
X65250000Y-50900000D01*
X70750000Y-43600000D02*
X65250000Y-43600000D01*
X70750000Y-50900000D02*
X70750000Y-43600000D01*
X65250000Y-50900000D02*
X70750000Y-50900000D01*
X62250000Y-69150000D02*
X67750000Y-69150000D01*
X67750000Y-69150000D02*
X67750000Y-61850000D01*
X67750000Y-61850000D02*
X62250000Y-61850000D01*
X62250000Y-61850000D02*
X62250000Y-69150000D01*
X56250000Y-61850000D02*
X56250000Y-69150000D01*
X61750000Y-61850000D02*
X56250000Y-61850000D01*
X61750000Y-69150000D02*
X61750000Y-61850000D01*
X56250000Y-69150000D02*
X61750000Y-69150000D01*
X53250000Y-50900000D02*
X58750000Y-50900000D01*
X58750000Y-50900000D02*
X58750000Y-43600000D01*
X58750000Y-43600000D02*
X53250000Y-43600000D01*
X53250000Y-43600000D02*
X53250000Y-50900000D01*
X50250000Y-61850000D02*
X50250000Y-69150000D01*
X55750000Y-61850000D02*
X50250000Y-61850000D01*
X55750000Y-69150000D02*
X55750000Y-61850000D01*
X50250000Y-69150000D02*
X55750000Y-69150000D01*
M02*
