G04 #@! TF.GenerationSoftware,KiCad,Pcbnew,(5.1.5)-3*
G04 #@! TF.CreationDate,2020-04-14T19:59:01+09:00*
G04 #@! TF.ProjectId,APA102_MENZUKE5_base,41504131-3032-45f4-9d45-4e5a554b4535,rev?*
G04 #@! TF.SameCoordinates,Original*
G04 #@! TF.FileFunction,Soldermask,Bot*
G04 #@! TF.FilePolarity,Negative*
%FSLAX46Y46*%
G04 Gerber Fmt 4.6, Leading zero omitted, Abs format (unit mm)*
G04 Created by KiCad (PCBNEW (5.1.5)-3) date 2020-04-14 19:59:01*
%MOMM*%
%LPD*%
G04 APERTURE LIST*
%ADD10C,0.100000*%
G04 APERTURE END LIST*
D10*
G36*
X332642007Y-202883582D02*
G01*
X333042563Y-203049498D01*
X333042565Y-203049499D01*
X333403056Y-203290371D01*
X333709629Y-203596944D01*
X333950501Y-203957435D01*
X333950502Y-203957437D01*
X334116418Y-204357993D01*
X334201000Y-204783219D01*
X334201000Y-205216781D01*
X334116418Y-205642007D01*
X333950502Y-206042563D01*
X333950501Y-206042565D01*
X333709629Y-206403056D01*
X333403056Y-206709629D01*
X333042565Y-206950501D01*
X333042564Y-206950502D01*
X333042563Y-206950502D01*
X332642007Y-207116418D01*
X332216781Y-207201000D01*
X331783219Y-207201000D01*
X331357993Y-207116418D01*
X330957437Y-206950502D01*
X330957436Y-206950502D01*
X330957435Y-206950501D01*
X330596944Y-206709629D01*
X330290371Y-206403056D01*
X330049499Y-206042565D01*
X330049498Y-206042563D01*
X329883582Y-205642007D01*
X329799000Y-205216781D01*
X329799000Y-204783219D01*
X329883582Y-204357993D01*
X330049498Y-203957437D01*
X330049499Y-203957435D01*
X330290371Y-203596944D01*
X330596944Y-203290371D01*
X330957435Y-203049499D01*
X330957437Y-203049498D01*
X331357993Y-202883582D01*
X331783219Y-202799000D01*
X332216781Y-202799000D01*
X332642007Y-202883582D01*
G37*
G36*
X80642007Y-202883582D02*
G01*
X81042563Y-203049498D01*
X81042565Y-203049499D01*
X81403056Y-203290371D01*
X81709629Y-203596944D01*
X81950501Y-203957435D01*
X81950502Y-203957437D01*
X82116418Y-204357993D01*
X82201000Y-204783219D01*
X82201000Y-205216781D01*
X82116418Y-205642007D01*
X81950502Y-206042563D01*
X81950501Y-206042565D01*
X81709629Y-206403056D01*
X81403056Y-206709629D01*
X81042565Y-206950501D01*
X81042564Y-206950502D01*
X81042563Y-206950502D01*
X80642007Y-207116418D01*
X80216781Y-207201000D01*
X79783219Y-207201000D01*
X79357993Y-207116418D01*
X78957437Y-206950502D01*
X78957436Y-206950502D01*
X78957435Y-206950501D01*
X78596944Y-206709629D01*
X78290371Y-206403056D01*
X78049499Y-206042565D01*
X78049498Y-206042563D01*
X77883582Y-205642007D01*
X77799000Y-205216781D01*
X77799000Y-204783219D01*
X77883582Y-204357993D01*
X78049498Y-203957437D01*
X78049499Y-203957435D01*
X78290371Y-203596944D01*
X78596944Y-203290371D01*
X78957435Y-203049499D01*
X78957437Y-203049498D01*
X79357993Y-202883582D01*
X79783219Y-202799000D01*
X80216781Y-202799000D01*
X80642007Y-202883582D01*
G37*
G36*
X359801000Y-187601000D02*
G01*
X357999000Y-187601000D01*
X357999000Y-185799000D01*
X359801000Y-185799000D01*
X359801000Y-187601000D01*
G37*
G36*
X359013512Y-183263927D02*
G01*
X359162812Y-183293624D01*
X359326784Y-183361544D01*
X359474354Y-183460147D01*
X359599853Y-183585646D01*
X359698456Y-183733216D01*
X359766376Y-183897188D01*
X359801000Y-184071259D01*
X359801000Y-184248741D01*
X359766376Y-184422812D01*
X359698456Y-184586784D01*
X359599853Y-184734354D01*
X359474354Y-184859853D01*
X359326784Y-184958456D01*
X359162812Y-185026376D01*
X359013512Y-185056073D01*
X358988742Y-185061000D01*
X358811258Y-185061000D01*
X358786488Y-185056073D01*
X358637188Y-185026376D01*
X358473216Y-184958456D01*
X358325646Y-184859853D01*
X358200147Y-184734354D01*
X358101544Y-184586784D01*
X358033624Y-184422812D01*
X357999000Y-184248741D01*
X357999000Y-184071259D01*
X358033624Y-183897188D01*
X358101544Y-183733216D01*
X358200147Y-183585646D01*
X358325646Y-183460147D01*
X358473216Y-183361544D01*
X358637188Y-183293624D01*
X358786488Y-183263927D01*
X358811258Y-183259000D01*
X358988742Y-183259000D01*
X359013512Y-183263927D01*
G37*
G36*
X359013512Y-180723927D02*
G01*
X359162812Y-180753624D01*
X359326784Y-180821544D01*
X359474354Y-180920147D01*
X359599853Y-181045646D01*
X359698456Y-181193216D01*
X359766376Y-181357188D01*
X359801000Y-181531259D01*
X359801000Y-181708741D01*
X359766376Y-181882812D01*
X359698456Y-182046784D01*
X359599853Y-182194354D01*
X359474354Y-182319853D01*
X359326784Y-182418456D01*
X359162812Y-182486376D01*
X359013512Y-182516073D01*
X358988742Y-182521000D01*
X358811258Y-182521000D01*
X358786488Y-182516073D01*
X358637188Y-182486376D01*
X358473216Y-182418456D01*
X358325646Y-182319853D01*
X358200147Y-182194354D01*
X358101544Y-182046784D01*
X358033624Y-181882812D01*
X357999000Y-181708741D01*
X357999000Y-181531259D01*
X358033624Y-181357188D01*
X358101544Y-181193216D01*
X358200147Y-181045646D01*
X358325646Y-180920147D01*
X358473216Y-180821544D01*
X358637188Y-180753624D01*
X358786488Y-180723927D01*
X358811258Y-180719000D01*
X358988742Y-180719000D01*
X359013512Y-180723927D01*
G37*
G36*
X359013512Y-178183927D02*
G01*
X359162812Y-178213624D01*
X359326784Y-178281544D01*
X359474354Y-178380147D01*
X359599853Y-178505646D01*
X359698456Y-178653216D01*
X359766376Y-178817188D01*
X359801000Y-178991259D01*
X359801000Y-179168741D01*
X359766376Y-179342812D01*
X359698456Y-179506784D01*
X359599853Y-179654354D01*
X359474354Y-179779853D01*
X359326784Y-179878456D01*
X359162812Y-179946376D01*
X359013512Y-179976073D01*
X358988742Y-179981000D01*
X358811258Y-179981000D01*
X358786488Y-179976073D01*
X358637188Y-179946376D01*
X358473216Y-179878456D01*
X358325646Y-179779853D01*
X358200147Y-179654354D01*
X358101544Y-179506784D01*
X358033624Y-179342812D01*
X357999000Y-179168741D01*
X357999000Y-178991259D01*
X358033624Y-178817188D01*
X358101544Y-178653216D01*
X358200147Y-178505646D01*
X358325646Y-178380147D01*
X358473216Y-178281544D01*
X358637188Y-178213624D01*
X358786488Y-178183927D01*
X358811258Y-178179000D01*
X358988742Y-178179000D01*
X359013512Y-178183927D01*
G37*
G36*
X359801000Y-155601000D02*
G01*
X357999000Y-155601000D01*
X357999000Y-153799000D01*
X359801000Y-153799000D01*
X359801000Y-155601000D01*
G37*
G36*
X359013512Y-151263927D02*
G01*
X359162812Y-151293624D01*
X359326784Y-151361544D01*
X359474354Y-151460147D01*
X359599853Y-151585646D01*
X359698456Y-151733216D01*
X359766376Y-151897188D01*
X359801000Y-152071259D01*
X359801000Y-152248741D01*
X359766376Y-152422812D01*
X359698456Y-152586784D01*
X359599853Y-152734354D01*
X359474354Y-152859853D01*
X359326784Y-152958456D01*
X359162812Y-153026376D01*
X359013512Y-153056073D01*
X358988742Y-153061000D01*
X358811258Y-153061000D01*
X358786488Y-153056073D01*
X358637188Y-153026376D01*
X358473216Y-152958456D01*
X358325646Y-152859853D01*
X358200147Y-152734354D01*
X358101544Y-152586784D01*
X358033624Y-152422812D01*
X357999000Y-152248741D01*
X357999000Y-152071259D01*
X358033624Y-151897188D01*
X358101544Y-151733216D01*
X358200147Y-151585646D01*
X358325646Y-151460147D01*
X358473216Y-151361544D01*
X358637188Y-151293624D01*
X358786488Y-151263927D01*
X358811258Y-151259000D01*
X358988742Y-151259000D01*
X359013512Y-151263927D01*
G37*
G36*
X359013512Y-148723927D02*
G01*
X359162812Y-148753624D01*
X359326784Y-148821544D01*
X359474354Y-148920147D01*
X359599853Y-149045646D01*
X359698456Y-149193216D01*
X359766376Y-149357188D01*
X359801000Y-149531259D01*
X359801000Y-149708741D01*
X359766376Y-149882812D01*
X359698456Y-150046784D01*
X359599853Y-150194354D01*
X359474354Y-150319853D01*
X359326784Y-150418456D01*
X359162812Y-150486376D01*
X359013512Y-150516073D01*
X358988742Y-150521000D01*
X358811258Y-150521000D01*
X358786488Y-150516073D01*
X358637188Y-150486376D01*
X358473216Y-150418456D01*
X358325646Y-150319853D01*
X358200147Y-150194354D01*
X358101544Y-150046784D01*
X358033624Y-149882812D01*
X357999000Y-149708741D01*
X357999000Y-149531259D01*
X358033624Y-149357188D01*
X358101544Y-149193216D01*
X358200147Y-149045646D01*
X358325646Y-148920147D01*
X358473216Y-148821544D01*
X358637188Y-148753624D01*
X358786488Y-148723927D01*
X358811258Y-148719000D01*
X358988742Y-148719000D01*
X359013512Y-148723927D01*
G37*
G36*
X359013512Y-146183927D02*
G01*
X359162812Y-146213624D01*
X359326784Y-146281544D01*
X359474354Y-146380147D01*
X359599853Y-146505646D01*
X359698456Y-146653216D01*
X359766376Y-146817188D01*
X359801000Y-146991259D01*
X359801000Y-147168741D01*
X359766376Y-147342812D01*
X359698456Y-147506784D01*
X359599853Y-147654354D01*
X359474354Y-147779853D01*
X359326784Y-147878456D01*
X359162812Y-147946376D01*
X359013512Y-147976073D01*
X358988742Y-147981000D01*
X358811258Y-147981000D01*
X358786488Y-147976073D01*
X358637188Y-147946376D01*
X358473216Y-147878456D01*
X358325646Y-147779853D01*
X358200147Y-147654354D01*
X358101544Y-147506784D01*
X358033624Y-147342812D01*
X357999000Y-147168741D01*
X357999000Y-146991259D01*
X358033624Y-146817188D01*
X358101544Y-146653216D01*
X358200147Y-146505646D01*
X358325646Y-146380147D01*
X358473216Y-146281544D01*
X358637188Y-146213624D01*
X358786488Y-146183927D01*
X358811258Y-146179000D01*
X358988742Y-146179000D01*
X359013512Y-146183927D01*
G37*
G36*
X359801000Y-123601000D02*
G01*
X357999000Y-123601000D01*
X357999000Y-121799000D01*
X359801000Y-121799000D01*
X359801000Y-123601000D01*
G37*
G36*
X359013512Y-119263927D02*
G01*
X359162812Y-119293624D01*
X359326784Y-119361544D01*
X359474354Y-119460147D01*
X359599853Y-119585646D01*
X359698456Y-119733216D01*
X359766376Y-119897188D01*
X359801000Y-120071259D01*
X359801000Y-120248741D01*
X359766376Y-120422812D01*
X359698456Y-120586784D01*
X359599853Y-120734354D01*
X359474354Y-120859853D01*
X359326784Y-120958456D01*
X359162812Y-121026376D01*
X359013512Y-121056073D01*
X358988742Y-121061000D01*
X358811258Y-121061000D01*
X358786488Y-121056073D01*
X358637188Y-121026376D01*
X358473216Y-120958456D01*
X358325646Y-120859853D01*
X358200147Y-120734354D01*
X358101544Y-120586784D01*
X358033624Y-120422812D01*
X357999000Y-120248741D01*
X357999000Y-120071259D01*
X358033624Y-119897188D01*
X358101544Y-119733216D01*
X358200147Y-119585646D01*
X358325646Y-119460147D01*
X358473216Y-119361544D01*
X358637188Y-119293624D01*
X358786488Y-119263927D01*
X358811258Y-119259000D01*
X358988742Y-119259000D01*
X359013512Y-119263927D01*
G37*
G36*
X359013512Y-116723927D02*
G01*
X359162812Y-116753624D01*
X359326784Y-116821544D01*
X359474354Y-116920147D01*
X359599853Y-117045646D01*
X359698456Y-117193216D01*
X359766376Y-117357188D01*
X359801000Y-117531259D01*
X359801000Y-117708741D01*
X359766376Y-117882812D01*
X359698456Y-118046784D01*
X359599853Y-118194354D01*
X359474354Y-118319853D01*
X359326784Y-118418456D01*
X359162812Y-118486376D01*
X359013512Y-118516073D01*
X358988742Y-118521000D01*
X358811258Y-118521000D01*
X358786488Y-118516073D01*
X358637188Y-118486376D01*
X358473216Y-118418456D01*
X358325646Y-118319853D01*
X358200147Y-118194354D01*
X358101544Y-118046784D01*
X358033624Y-117882812D01*
X357999000Y-117708741D01*
X357999000Y-117531259D01*
X358033624Y-117357188D01*
X358101544Y-117193216D01*
X358200147Y-117045646D01*
X358325646Y-116920147D01*
X358473216Y-116821544D01*
X358637188Y-116753624D01*
X358786488Y-116723927D01*
X358811258Y-116719000D01*
X358988742Y-116719000D01*
X359013512Y-116723927D01*
G37*
G36*
X359013512Y-114183927D02*
G01*
X359162812Y-114213624D01*
X359326784Y-114281544D01*
X359474354Y-114380147D01*
X359599853Y-114505646D01*
X359698456Y-114653216D01*
X359766376Y-114817188D01*
X359801000Y-114991259D01*
X359801000Y-115168741D01*
X359766376Y-115342812D01*
X359698456Y-115506784D01*
X359599853Y-115654354D01*
X359474354Y-115779853D01*
X359326784Y-115878456D01*
X359162812Y-115946376D01*
X359013512Y-115976073D01*
X358988742Y-115981000D01*
X358811258Y-115981000D01*
X358786488Y-115976073D01*
X358637188Y-115946376D01*
X358473216Y-115878456D01*
X358325646Y-115779853D01*
X358200147Y-115654354D01*
X358101544Y-115506784D01*
X358033624Y-115342812D01*
X357999000Y-115168741D01*
X357999000Y-114991259D01*
X358033624Y-114817188D01*
X358101544Y-114653216D01*
X358200147Y-114505646D01*
X358325646Y-114380147D01*
X358473216Y-114281544D01*
X358637188Y-114213624D01*
X358786488Y-114183927D01*
X358811258Y-114179000D01*
X358988742Y-114179000D01*
X359013512Y-114183927D01*
G37*
G36*
X359801000Y-91601000D02*
G01*
X357999000Y-91601000D01*
X357999000Y-89799000D01*
X359801000Y-89799000D01*
X359801000Y-91601000D01*
G37*
G36*
X359013512Y-87263927D02*
G01*
X359162812Y-87293624D01*
X359326784Y-87361544D01*
X359474354Y-87460147D01*
X359599853Y-87585646D01*
X359698456Y-87733216D01*
X359766376Y-87897188D01*
X359801000Y-88071259D01*
X359801000Y-88248741D01*
X359766376Y-88422812D01*
X359698456Y-88586784D01*
X359599853Y-88734354D01*
X359474354Y-88859853D01*
X359326784Y-88958456D01*
X359162812Y-89026376D01*
X359013512Y-89056073D01*
X358988742Y-89061000D01*
X358811258Y-89061000D01*
X358786488Y-89056073D01*
X358637188Y-89026376D01*
X358473216Y-88958456D01*
X358325646Y-88859853D01*
X358200147Y-88734354D01*
X358101544Y-88586784D01*
X358033624Y-88422812D01*
X357999000Y-88248741D01*
X357999000Y-88071259D01*
X358033624Y-87897188D01*
X358101544Y-87733216D01*
X358200147Y-87585646D01*
X358325646Y-87460147D01*
X358473216Y-87361544D01*
X358637188Y-87293624D01*
X358786488Y-87263927D01*
X358811258Y-87259000D01*
X358988742Y-87259000D01*
X359013512Y-87263927D01*
G37*
G36*
X359013512Y-84723927D02*
G01*
X359162812Y-84753624D01*
X359326784Y-84821544D01*
X359474354Y-84920147D01*
X359599853Y-85045646D01*
X359698456Y-85193216D01*
X359766376Y-85357188D01*
X359801000Y-85531259D01*
X359801000Y-85708741D01*
X359766376Y-85882812D01*
X359698456Y-86046784D01*
X359599853Y-86194354D01*
X359474354Y-86319853D01*
X359326784Y-86418456D01*
X359162812Y-86486376D01*
X359013512Y-86516073D01*
X358988742Y-86521000D01*
X358811258Y-86521000D01*
X358786488Y-86516073D01*
X358637188Y-86486376D01*
X358473216Y-86418456D01*
X358325646Y-86319853D01*
X358200147Y-86194354D01*
X358101544Y-86046784D01*
X358033624Y-85882812D01*
X357999000Y-85708741D01*
X357999000Y-85531259D01*
X358033624Y-85357188D01*
X358101544Y-85193216D01*
X358200147Y-85045646D01*
X358325646Y-84920147D01*
X358473216Y-84821544D01*
X358637188Y-84753624D01*
X358786488Y-84723927D01*
X358811258Y-84719000D01*
X358988742Y-84719000D01*
X359013512Y-84723927D01*
G37*
G36*
X359013512Y-82183927D02*
G01*
X359162812Y-82213624D01*
X359326784Y-82281544D01*
X359474354Y-82380147D01*
X359599853Y-82505646D01*
X359698456Y-82653216D01*
X359766376Y-82817188D01*
X359801000Y-82991259D01*
X359801000Y-83168741D01*
X359766376Y-83342812D01*
X359698456Y-83506784D01*
X359599853Y-83654354D01*
X359474354Y-83779853D01*
X359326784Y-83878456D01*
X359162812Y-83946376D01*
X359013512Y-83976073D01*
X358988742Y-83981000D01*
X358811258Y-83981000D01*
X358786488Y-83976073D01*
X358637188Y-83946376D01*
X358473216Y-83878456D01*
X358325646Y-83779853D01*
X358200147Y-83654354D01*
X358101544Y-83506784D01*
X358033624Y-83342812D01*
X357999000Y-83168741D01*
X357999000Y-82991259D01*
X358033624Y-82817188D01*
X358101544Y-82653216D01*
X358200147Y-82505646D01*
X358325646Y-82380147D01*
X358473216Y-82281544D01*
X358637188Y-82213624D01*
X358786488Y-82183927D01*
X358811258Y-82179000D01*
X358988742Y-82179000D01*
X359013512Y-82183927D01*
G37*
G36*
X359801000Y-59601000D02*
G01*
X357999000Y-59601000D01*
X357999000Y-57799000D01*
X359801000Y-57799000D01*
X359801000Y-59601000D01*
G37*
G36*
X359013512Y-55263927D02*
G01*
X359162812Y-55293624D01*
X359326784Y-55361544D01*
X359474354Y-55460147D01*
X359599853Y-55585646D01*
X359698456Y-55733216D01*
X359766376Y-55897188D01*
X359801000Y-56071259D01*
X359801000Y-56248741D01*
X359766376Y-56422812D01*
X359698456Y-56586784D01*
X359599853Y-56734354D01*
X359474354Y-56859853D01*
X359326784Y-56958456D01*
X359162812Y-57026376D01*
X359013512Y-57056073D01*
X358988742Y-57061000D01*
X358811258Y-57061000D01*
X358786488Y-57056073D01*
X358637188Y-57026376D01*
X358473216Y-56958456D01*
X358325646Y-56859853D01*
X358200147Y-56734354D01*
X358101544Y-56586784D01*
X358033624Y-56422812D01*
X357999000Y-56248741D01*
X357999000Y-56071259D01*
X358033624Y-55897188D01*
X358101544Y-55733216D01*
X358200147Y-55585646D01*
X358325646Y-55460147D01*
X358473216Y-55361544D01*
X358637188Y-55293624D01*
X358786488Y-55263927D01*
X358811258Y-55259000D01*
X358988742Y-55259000D01*
X359013512Y-55263927D01*
G37*
G36*
X359013512Y-52723927D02*
G01*
X359162812Y-52753624D01*
X359326784Y-52821544D01*
X359474354Y-52920147D01*
X359599853Y-53045646D01*
X359698456Y-53193216D01*
X359766376Y-53357188D01*
X359801000Y-53531259D01*
X359801000Y-53708741D01*
X359766376Y-53882812D01*
X359698456Y-54046784D01*
X359599853Y-54194354D01*
X359474354Y-54319853D01*
X359326784Y-54418456D01*
X359162812Y-54486376D01*
X359013512Y-54516073D01*
X358988742Y-54521000D01*
X358811258Y-54521000D01*
X358786488Y-54516073D01*
X358637188Y-54486376D01*
X358473216Y-54418456D01*
X358325646Y-54319853D01*
X358200147Y-54194354D01*
X358101544Y-54046784D01*
X358033624Y-53882812D01*
X357999000Y-53708741D01*
X357999000Y-53531259D01*
X358033624Y-53357188D01*
X358101544Y-53193216D01*
X358200147Y-53045646D01*
X358325646Y-52920147D01*
X358473216Y-52821544D01*
X358637188Y-52753624D01*
X358786488Y-52723927D01*
X358811258Y-52719000D01*
X358988742Y-52719000D01*
X359013512Y-52723927D01*
G37*
G36*
X359013512Y-50183927D02*
G01*
X359162812Y-50213624D01*
X359326784Y-50281544D01*
X359474354Y-50380147D01*
X359599853Y-50505646D01*
X359698456Y-50653216D01*
X359766376Y-50817188D01*
X359801000Y-50991259D01*
X359801000Y-51168741D01*
X359766376Y-51342812D01*
X359698456Y-51506784D01*
X359599853Y-51654354D01*
X359474354Y-51779853D01*
X359326784Y-51878456D01*
X359162812Y-51946376D01*
X359013512Y-51976073D01*
X358988742Y-51981000D01*
X358811258Y-51981000D01*
X358786488Y-51976073D01*
X358637188Y-51946376D01*
X358473216Y-51878456D01*
X358325646Y-51779853D01*
X358200147Y-51654354D01*
X358101544Y-51506784D01*
X358033624Y-51342812D01*
X357999000Y-51168741D01*
X357999000Y-50991259D01*
X358033624Y-50817188D01*
X358101544Y-50653216D01*
X358200147Y-50505646D01*
X358325646Y-50380147D01*
X358473216Y-50281544D01*
X358637188Y-50213624D01*
X358786488Y-50183927D01*
X358811258Y-50179000D01*
X358988742Y-50179000D01*
X359013512Y-50183927D01*
G37*
G36*
X80642007Y-30883582D02*
G01*
X81042563Y-31049498D01*
X81042565Y-31049499D01*
X81403056Y-31290371D01*
X81709629Y-31596944D01*
X81950501Y-31957435D01*
X81950502Y-31957437D01*
X82116418Y-32357993D01*
X82201000Y-32783219D01*
X82201000Y-33216781D01*
X82116418Y-33642007D01*
X81950502Y-34042563D01*
X81950501Y-34042565D01*
X81709629Y-34403056D01*
X81403056Y-34709629D01*
X81042565Y-34950501D01*
X81042564Y-34950502D01*
X81042563Y-34950502D01*
X80642007Y-35116418D01*
X80216781Y-35201000D01*
X79783219Y-35201000D01*
X79357993Y-35116418D01*
X78957437Y-34950502D01*
X78957436Y-34950502D01*
X78957435Y-34950501D01*
X78596944Y-34709629D01*
X78290371Y-34403056D01*
X78049499Y-34042565D01*
X78049498Y-34042563D01*
X77883582Y-33642007D01*
X77799000Y-33216781D01*
X77799000Y-32783219D01*
X77883582Y-32357993D01*
X78049498Y-31957437D01*
X78049499Y-31957435D01*
X78290371Y-31596944D01*
X78596944Y-31290371D01*
X78957435Y-31049499D01*
X78957437Y-31049498D01*
X79357993Y-30883582D01*
X79783219Y-30799000D01*
X80216781Y-30799000D01*
X80642007Y-30883582D01*
G37*
G36*
X331642007Y-30883582D02*
G01*
X332042563Y-31049498D01*
X332042565Y-31049499D01*
X332403056Y-31290371D01*
X332709629Y-31596944D01*
X332950501Y-31957435D01*
X332950502Y-31957437D01*
X333116418Y-32357993D01*
X333201000Y-32783219D01*
X333201000Y-33216781D01*
X333116418Y-33642007D01*
X332950502Y-34042563D01*
X332950501Y-34042565D01*
X332709629Y-34403056D01*
X332403056Y-34709629D01*
X332042565Y-34950501D01*
X332042564Y-34950502D01*
X332042563Y-34950502D01*
X331642007Y-35116418D01*
X331216781Y-35201000D01*
X330783219Y-35201000D01*
X330357993Y-35116418D01*
X329957437Y-34950502D01*
X329957436Y-34950502D01*
X329957435Y-34950501D01*
X329596944Y-34709629D01*
X329290371Y-34403056D01*
X329049499Y-34042565D01*
X329049498Y-34042563D01*
X328883582Y-33642007D01*
X328799000Y-33216781D01*
X328799000Y-32783219D01*
X328883582Y-32357993D01*
X329049498Y-31957437D01*
X329049499Y-31957435D01*
X329290371Y-31596944D01*
X329596944Y-31290371D01*
X329957435Y-31049499D01*
X329957437Y-31049498D01*
X330357993Y-30883582D01*
X330783219Y-30799000D01*
X331216781Y-30799000D01*
X331642007Y-30883582D01*
G37*
M02*
