G04 #@! TF.GenerationSoftware,KiCad,Pcbnew,(5.1.5)-3*
G04 #@! TF.CreationDate,2020-04-14T19:59:01+09:00*
G04 #@! TF.ProjectId,APA102_MENZUKE5_base,41504131-3032-45f4-9d45-4e5a554b4535,rev?*
G04 #@! TF.SameCoordinates,Original*
G04 #@! TF.FileFunction,Paste,Top*
G04 #@! TF.FilePolarity,Positive*
%FSLAX46Y46*%
G04 Gerber Fmt 4.6, Leading zero omitted, Abs format (unit mm)*
G04 Created by KiCad (PCBNEW (5.1.5)-3) date 2020-04-14 19:59:01*
%MOMM*%
%LPD*%
G04 APERTURE LIST*
%ADD10R,1.100000X2.000000*%
G04 APERTURE END LIST*
D10*
X135300000Y-195900000D03*
X137000000Y-195900000D03*
X138700000Y-195900000D03*
X138700000Y-191100000D03*
X137000000Y-191100000D03*
X135300000Y-191100000D03*
X51300000Y-191100000D03*
X53000000Y-191100000D03*
X54700000Y-191100000D03*
X54700000Y-195900000D03*
X53000000Y-195900000D03*
X51300000Y-195900000D03*
X51300000Y-159100000D03*
X53000000Y-159100000D03*
X54700000Y-159100000D03*
X54700000Y-163900000D03*
X53000000Y-163900000D03*
X51300000Y-163900000D03*
X51300000Y-127100000D03*
X53000000Y-127100000D03*
X54700000Y-127100000D03*
X54700000Y-131900000D03*
X53000000Y-131900000D03*
X51300000Y-131900000D03*
X51300000Y-95100000D03*
X53000000Y-95100000D03*
X54700000Y-95100000D03*
X54700000Y-99900000D03*
X53000000Y-99900000D03*
X51300000Y-99900000D03*
X57300000Y-191100000D03*
X59000000Y-191100000D03*
X60700000Y-191100000D03*
X60700000Y-195900000D03*
X59000000Y-195900000D03*
X57300000Y-195900000D03*
X57300000Y-159100000D03*
X59000000Y-159100000D03*
X60700000Y-159100000D03*
X60700000Y-163900000D03*
X59000000Y-163900000D03*
X57300000Y-163900000D03*
X57300000Y-127100000D03*
X59000000Y-127100000D03*
X60700000Y-127100000D03*
X60700000Y-131900000D03*
X59000000Y-131900000D03*
X57300000Y-131900000D03*
X57300000Y-95100000D03*
X59000000Y-95100000D03*
X60700000Y-95100000D03*
X60700000Y-99900000D03*
X59000000Y-99900000D03*
X57300000Y-99900000D03*
X66300000Y-172850000D03*
X68000000Y-172850000D03*
X69700000Y-172850000D03*
X69700000Y-177650000D03*
X68000000Y-177650000D03*
X66300000Y-177650000D03*
X66300000Y-140850000D03*
X68000000Y-140850000D03*
X69700000Y-140850000D03*
X69700000Y-145650000D03*
X68000000Y-145650000D03*
X66300000Y-145650000D03*
X66300000Y-108850000D03*
X68000000Y-108850000D03*
X69700000Y-108850000D03*
X69700000Y-113650000D03*
X68000000Y-113650000D03*
X66300000Y-113650000D03*
X66300000Y-76850000D03*
X68000000Y-76850000D03*
X69700000Y-76850000D03*
X69700000Y-81650000D03*
X68000000Y-81650000D03*
X66300000Y-81650000D03*
X81300000Y-191100000D03*
X83000000Y-191100000D03*
X84700000Y-191100000D03*
X84700000Y-195900000D03*
X83000000Y-195900000D03*
X81300000Y-195900000D03*
X81300000Y-159100000D03*
X83000000Y-159100000D03*
X84700000Y-159100000D03*
X84700000Y-163900000D03*
X83000000Y-163900000D03*
X81300000Y-163900000D03*
X81300000Y-127100000D03*
X83000000Y-127100000D03*
X84700000Y-127100000D03*
X84700000Y-131900000D03*
X83000000Y-131900000D03*
X81300000Y-131900000D03*
X81300000Y-95100000D03*
X83000000Y-95100000D03*
X84700000Y-95100000D03*
X84700000Y-99900000D03*
X83000000Y-99900000D03*
X81300000Y-99900000D03*
X96300000Y-177650000D03*
X98000000Y-177650000D03*
X99700000Y-177650000D03*
X99700000Y-172850000D03*
X98000000Y-172850000D03*
X96300000Y-172850000D03*
X96300000Y-145650000D03*
X98000000Y-145650000D03*
X99700000Y-145650000D03*
X99700000Y-140850000D03*
X98000000Y-140850000D03*
X96300000Y-140850000D03*
X96300000Y-113650000D03*
X98000000Y-113650000D03*
X99700000Y-113650000D03*
X99700000Y-108850000D03*
X98000000Y-108850000D03*
X96300000Y-108850000D03*
X96300000Y-81650000D03*
X98000000Y-81650000D03*
X99700000Y-81650000D03*
X99700000Y-76850000D03*
X98000000Y-76850000D03*
X96300000Y-76850000D03*
X111300000Y-195900000D03*
X113000000Y-195900000D03*
X114700000Y-195900000D03*
X114700000Y-191100000D03*
X113000000Y-191100000D03*
X111300000Y-191100000D03*
X111300000Y-163900000D03*
X113000000Y-163900000D03*
X114700000Y-163900000D03*
X114700000Y-159100000D03*
X113000000Y-159100000D03*
X111300000Y-159100000D03*
X111300000Y-131900000D03*
X113000000Y-131900000D03*
X114700000Y-131900000D03*
X114700000Y-127100000D03*
X113000000Y-127100000D03*
X111300000Y-127100000D03*
X111300000Y-99900000D03*
X113000000Y-99900000D03*
X114700000Y-99900000D03*
X114700000Y-95100000D03*
X113000000Y-95100000D03*
X111300000Y-95100000D03*
X138300000Y-172850000D03*
X140000000Y-172850000D03*
X141700000Y-172850000D03*
X141700000Y-177650000D03*
X140000000Y-177650000D03*
X138300000Y-177650000D03*
X138300000Y-140850000D03*
X140000000Y-140850000D03*
X141700000Y-140850000D03*
X141700000Y-145650000D03*
X140000000Y-145650000D03*
X138300000Y-145650000D03*
X138300000Y-108850000D03*
X140000000Y-108850000D03*
X141700000Y-108850000D03*
X141700000Y-113650000D03*
X140000000Y-113650000D03*
X138300000Y-113650000D03*
X138300000Y-76850000D03*
X140000000Y-76850000D03*
X141700000Y-76850000D03*
X141700000Y-81650000D03*
X140000000Y-81650000D03*
X138300000Y-81650000D03*
X168300000Y-172850000D03*
X170000000Y-172850000D03*
X171700000Y-172850000D03*
X171700000Y-177650000D03*
X170000000Y-177650000D03*
X168300000Y-177650000D03*
X168300000Y-140850000D03*
X170000000Y-140850000D03*
X171700000Y-140850000D03*
X171700000Y-145650000D03*
X170000000Y-145650000D03*
X168300000Y-145650000D03*
X168300000Y-108850000D03*
X170000000Y-108850000D03*
X171700000Y-108850000D03*
X171700000Y-113650000D03*
X170000000Y-113650000D03*
X168300000Y-113650000D03*
X168300000Y-76850000D03*
X170000000Y-76850000D03*
X171700000Y-76850000D03*
X171700000Y-81650000D03*
X170000000Y-81650000D03*
X168300000Y-81650000D03*
X177300000Y-195900000D03*
X179000000Y-195900000D03*
X180700000Y-195900000D03*
X180700000Y-191100000D03*
X179000000Y-191100000D03*
X177300000Y-191100000D03*
X177300000Y-163900000D03*
X179000000Y-163900000D03*
X180700000Y-163900000D03*
X180700000Y-159100000D03*
X179000000Y-159100000D03*
X177300000Y-159100000D03*
X177300000Y-131900000D03*
X179000000Y-131900000D03*
X180700000Y-131900000D03*
X180700000Y-127100000D03*
X179000000Y-127100000D03*
X177300000Y-127100000D03*
X177300000Y-99900000D03*
X179000000Y-99900000D03*
X180700000Y-99900000D03*
X180700000Y-95100000D03*
X179000000Y-95100000D03*
X177300000Y-95100000D03*
X150300000Y-177650000D03*
X152000000Y-177650000D03*
X153700000Y-177650000D03*
X153700000Y-172850000D03*
X152000000Y-172850000D03*
X150300000Y-172850000D03*
X150300000Y-145650000D03*
X152000000Y-145650000D03*
X153700000Y-145650000D03*
X153700000Y-140850000D03*
X152000000Y-140850000D03*
X150300000Y-140850000D03*
X150300000Y-113650000D03*
X152000000Y-113650000D03*
X153700000Y-113650000D03*
X153700000Y-108850000D03*
X152000000Y-108850000D03*
X150300000Y-108850000D03*
X150300000Y-81650000D03*
X152000000Y-81650000D03*
X153700000Y-81650000D03*
X153700000Y-76850000D03*
X152000000Y-76850000D03*
X150300000Y-76850000D03*
X156300000Y-177650000D03*
X158000000Y-177650000D03*
X159700000Y-177650000D03*
X159700000Y-172850000D03*
X158000000Y-172850000D03*
X156300000Y-172850000D03*
X156300000Y-145650000D03*
X158000000Y-145650000D03*
X159700000Y-145650000D03*
X159700000Y-140850000D03*
X158000000Y-140850000D03*
X156300000Y-140850000D03*
X156300000Y-113650000D03*
X158000000Y-113650000D03*
X159700000Y-113650000D03*
X159700000Y-108850000D03*
X158000000Y-108850000D03*
X156300000Y-108850000D03*
X156300000Y-81650000D03*
X158000000Y-81650000D03*
X159700000Y-81650000D03*
X159700000Y-76850000D03*
X158000000Y-76850000D03*
X156300000Y-76850000D03*
X54300000Y-177650000D03*
X56000000Y-177650000D03*
X57700000Y-177650000D03*
X57700000Y-172850000D03*
X56000000Y-172850000D03*
X54300000Y-172850000D03*
X54300000Y-145650000D03*
X56000000Y-145650000D03*
X57700000Y-145650000D03*
X57700000Y-140850000D03*
X56000000Y-140850000D03*
X54300000Y-140850000D03*
X54300000Y-113650000D03*
X56000000Y-113650000D03*
X57700000Y-113650000D03*
X57700000Y-108850000D03*
X56000000Y-108850000D03*
X54300000Y-108850000D03*
X54300000Y-81650000D03*
X56000000Y-81650000D03*
X57700000Y-81650000D03*
X57700000Y-76850000D03*
X56000000Y-76850000D03*
X54300000Y-76850000D03*
X63300000Y-195900000D03*
X65000000Y-195900000D03*
X66700000Y-195900000D03*
X66700000Y-191100000D03*
X65000000Y-191100000D03*
X63300000Y-191100000D03*
X63300000Y-163900000D03*
X65000000Y-163900000D03*
X66700000Y-163900000D03*
X66700000Y-159100000D03*
X65000000Y-159100000D03*
X63300000Y-159100000D03*
X63300000Y-131900000D03*
X65000000Y-131900000D03*
X66700000Y-131900000D03*
X66700000Y-127100000D03*
X65000000Y-127100000D03*
X63300000Y-127100000D03*
X63300000Y-99900000D03*
X65000000Y-99900000D03*
X66700000Y-99900000D03*
X66700000Y-95100000D03*
X65000000Y-95100000D03*
X63300000Y-95100000D03*
X87300000Y-195900000D03*
X89000000Y-195900000D03*
X90700000Y-195900000D03*
X90700000Y-191100000D03*
X89000000Y-191100000D03*
X87300000Y-191100000D03*
X87300000Y-163900000D03*
X89000000Y-163900000D03*
X90700000Y-163900000D03*
X90700000Y-159100000D03*
X89000000Y-159100000D03*
X87300000Y-159100000D03*
X87300000Y-131900000D03*
X89000000Y-131900000D03*
X90700000Y-131900000D03*
X90700000Y-127100000D03*
X89000000Y-127100000D03*
X87300000Y-127100000D03*
X87300000Y-99900000D03*
X89000000Y-99900000D03*
X90700000Y-99900000D03*
X90700000Y-95100000D03*
X89000000Y-95100000D03*
X87300000Y-95100000D03*
X108300000Y-172850000D03*
X110000000Y-172850000D03*
X111700000Y-172850000D03*
X111700000Y-177650000D03*
X110000000Y-177650000D03*
X108300000Y-177650000D03*
X108300000Y-140850000D03*
X110000000Y-140850000D03*
X111700000Y-140850000D03*
X111700000Y-145650000D03*
X110000000Y-145650000D03*
X108300000Y-145650000D03*
X108300000Y-108850000D03*
X110000000Y-108850000D03*
X111700000Y-108850000D03*
X111700000Y-113650000D03*
X110000000Y-113650000D03*
X108300000Y-113650000D03*
X108300000Y-76850000D03*
X110000000Y-76850000D03*
X111700000Y-76850000D03*
X111700000Y-81650000D03*
X110000000Y-81650000D03*
X108300000Y-81650000D03*
X147300000Y-191100000D03*
X149000000Y-191100000D03*
X150700000Y-191100000D03*
X150700000Y-195900000D03*
X149000000Y-195900000D03*
X147300000Y-195900000D03*
X147300000Y-159100000D03*
X149000000Y-159100000D03*
X150700000Y-159100000D03*
X150700000Y-163900000D03*
X149000000Y-163900000D03*
X147300000Y-163900000D03*
X147300000Y-127100000D03*
X149000000Y-127100000D03*
X150700000Y-127100000D03*
X150700000Y-131900000D03*
X149000000Y-131900000D03*
X147300000Y-131900000D03*
X147300000Y-95100000D03*
X149000000Y-95100000D03*
X150700000Y-95100000D03*
X150700000Y-99900000D03*
X149000000Y-99900000D03*
X147300000Y-99900000D03*
X171300000Y-195900000D03*
X173000000Y-195900000D03*
X174700000Y-195900000D03*
X174700000Y-191100000D03*
X173000000Y-191100000D03*
X171300000Y-191100000D03*
X171300000Y-163900000D03*
X173000000Y-163900000D03*
X174700000Y-163900000D03*
X174700000Y-159100000D03*
X173000000Y-159100000D03*
X171300000Y-159100000D03*
X171300000Y-131900000D03*
X173000000Y-131900000D03*
X174700000Y-131900000D03*
X174700000Y-127100000D03*
X173000000Y-127100000D03*
X171300000Y-127100000D03*
X171300000Y-99900000D03*
X173000000Y-99900000D03*
X174700000Y-99900000D03*
X174700000Y-95100000D03*
X173000000Y-95100000D03*
X171300000Y-95100000D03*
X126300000Y-172850000D03*
X128000000Y-172850000D03*
X129700000Y-172850000D03*
X129700000Y-177650000D03*
X128000000Y-177650000D03*
X126300000Y-177650000D03*
X126300000Y-140850000D03*
X128000000Y-140850000D03*
X129700000Y-140850000D03*
X129700000Y-145650000D03*
X128000000Y-145650000D03*
X126300000Y-145650000D03*
X126300000Y-108850000D03*
X128000000Y-108850000D03*
X129700000Y-108850000D03*
X129700000Y-113650000D03*
X128000000Y-113650000D03*
X126300000Y-113650000D03*
X126300000Y-76850000D03*
X128000000Y-76850000D03*
X129700000Y-76850000D03*
X129700000Y-81650000D03*
X128000000Y-81650000D03*
X126300000Y-81650000D03*
X141300000Y-195900000D03*
X143000000Y-195900000D03*
X144700000Y-195900000D03*
X144700000Y-191100000D03*
X143000000Y-191100000D03*
X141300000Y-191100000D03*
X141300000Y-163900000D03*
X143000000Y-163900000D03*
X144700000Y-163900000D03*
X144700000Y-159100000D03*
X143000000Y-159100000D03*
X141300000Y-159100000D03*
X141300000Y-131900000D03*
X143000000Y-131900000D03*
X144700000Y-131900000D03*
X144700000Y-127100000D03*
X143000000Y-127100000D03*
X141300000Y-127100000D03*
X141300000Y-99900000D03*
X143000000Y-99900000D03*
X144700000Y-99900000D03*
X144700000Y-95100000D03*
X143000000Y-95100000D03*
X141300000Y-95100000D03*
X105300000Y-195900000D03*
X107000000Y-195900000D03*
X108700000Y-195900000D03*
X108700000Y-191100000D03*
X107000000Y-191100000D03*
X105300000Y-191100000D03*
X105300000Y-163900000D03*
X107000000Y-163900000D03*
X108700000Y-163900000D03*
X108700000Y-159100000D03*
X107000000Y-159100000D03*
X105300000Y-159100000D03*
X105300000Y-131900000D03*
X107000000Y-131900000D03*
X108700000Y-131900000D03*
X108700000Y-127100000D03*
X107000000Y-127100000D03*
X105300000Y-127100000D03*
X105300000Y-99900000D03*
X107000000Y-99900000D03*
X108700000Y-99900000D03*
X108700000Y-95100000D03*
X107000000Y-95100000D03*
X105300000Y-95100000D03*
X129300000Y-195900000D03*
X131000000Y-195900000D03*
X132700000Y-195900000D03*
X132700000Y-191100000D03*
X131000000Y-191100000D03*
X129300000Y-191100000D03*
X129300000Y-163900000D03*
X131000000Y-163900000D03*
X132700000Y-163900000D03*
X132700000Y-159100000D03*
X131000000Y-159100000D03*
X129300000Y-159100000D03*
X129300000Y-131900000D03*
X131000000Y-131900000D03*
X132700000Y-131900000D03*
X132700000Y-127100000D03*
X131000000Y-127100000D03*
X129300000Y-127100000D03*
X129300000Y-99900000D03*
X131000000Y-99900000D03*
X132700000Y-99900000D03*
X132700000Y-95100000D03*
X131000000Y-95100000D03*
X129300000Y-95100000D03*
X75300000Y-195900000D03*
X77000000Y-195900000D03*
X78700000Y-195900000D03*
X78700000Y-191100000D03*
X77000000Y-191100000D03*
X75300000Y-191100000D03*
X75300000Y-163900000D03*
X77000000Y-163900000D03*
X78700000Y-163900000D03*
X78700000Y-159100000D03*
X77000000Y-159100000D03*
X75300000Y-159100000D03*
X75300000Y-131900000D03*
X77000000Y-131900000D03*
X78700000Y-131900000D03*
X78700000Y-127100000D03*
X77000000Y-127100000D03*
X75300000Y-127100000D03*
X75300000Y-99900000D03*
X77000000Y-99900000D03*
X78700000Y-99900000D03*
X78700000Y-95100000D03*
X77000000Y-95100000D03*
X75300000Y-95100000D03*
X93300000Y-191100000D03*
X95000000Y-191100000D03*
X96700000Y-191100000D03*
X96700000Y-195900000D03*
X95000000Y-195900000D03*
X93300000Y-195900000D03*
X93300000Y-159100000D03*
X95000000Y-159100000D03*
X96700000Y-159100000D03*
X96700000Y-163900000D03*
X95000000Y-163900000D03*
X93300000Y-163900000D03*
X93300000Y-127100000D03*
X95000000Y-127100000D03*
X96700000Y-127100000D03*
X96700000Y-131900000D03*
X95000000Y-131900000D03*
X93300000Y-131900000D03*
X93300000Y-95100000D03*
X95000000Y-95100000D03*
X96700000Y-95100000D03*
X96700000Y-99900000D03*
X95000000Y-99900000D03*
X93300000Y-99900000D03*
X183300000Y-195900000D03*
X185000000Y-195900000D03*
X186700000Y-195900000D03*
X186700000Y-191100000D03*
X185000000Y-191100000D03*
X183300000Y-191100000D03*
X183300000Y-163900000D03*
X185000000Y-163900000D03*
X186700000Y-163900000D03*
X186700000Y-159100000D03*
X185000000Y-159100000D03*
X183300000Y-159100000D03*
X183300000Y-131900000D03*
X185000000Y-131900000D03*
X186700000Y-131900000D03*
X186700000Y-127100000D03*
X185000000Y-127100000D03*
X183300000Y-127100000D03*
X183300000Y-99900000D03*
X185000000Y-99900000D03*
X186700000Y-99900000D03*
X186700000Y-95100000D03*
X185000000Y-95100000D03*
X183300000Y-95100000D03*
X135300000Y-163900000D03*
X137000000Y-163900000D03*
X138700000Y-163900000D03*
X138700000Y-159100000D03*
X137000000Y-159100000D03*
X135300000Y-159100000D03*
X135300000Y-131900000D03*
X137000000Y-131900000D03*
X138700000Y-131900000D03*
X138700000Y-127100000D03*
X137000000Y-127100000D03*
X135300000Y-127100000D03*
X135300000Y-99900000D03*
X137000000Y-99900000D03*
X138700000Y-99900000D03*
X138700000Y-95100000D03*
X137000000Y-95100000D03*
X135300000Y-95100000D03*
X159300000Y-191100000D03*
X161000000Y-191100000D03*
X162700000Y-191100000D03*
X162700000Y-195900000D03*
X161000000Y-195900000D03*
X159300000Y-195900000D03*
X159300000Y-159100000D03*
X161000000Y-159100000D03*
X162700000Y-159100000D03*
X162700000Y-163900000D03*
X161000000Y-163900000D03*
X159300000Y-163900000D03*
X159300000Y-127100000D03*
X161000000Y-127100000D03*
X162700000Y-127100000D03*
X162700000Y-131900000D03*
X161000000Y-131900000D03*
X159300000Y-131900000D03*
X159300000Y-95100000D03*
X161000000Y-95100000D03*
X162700000Y-95100000D03*
X162700000Y-99900000D03*
X161000000Y-99900000D03*
X159300000Y-99900000D03*
X165300000Y-195900000D03*
X167000000Y-195900000D03*
X168700000Y-195900000D03*
X168700000Y-191100000D03*
X167000000Y-191100000D03*
X165300000Y-191100000D03*
X165300000Y-163900000D03*
X167000000Y-163900000D03*
X168700000Y-163900000D03*
X168700000Y-159100000D03*
X167000000Y-159100000D03*
X165300000Y-159100000D03*
X165300000Y-131900000D03*
X167000000Y-131900000D03*
X168700000Y-131900000D03*
X168700000Y-127100000D03*
X167000000Y-127100000D03*
X165300000Y-127100000D03*
X165300000Y-99900000D03*
X167000000Y-99900000D03*
X168700000Y-99900000D03*
X168700000Y-95100000D03*
X167000000Y-95100000D03*
X165300000Y-95100000D03*
X174300000Y-172850000D03*
X176000000Y-172850000D03*
X177700000Y-172850000D03*
X177700000Y-177650000D03*
X176000000Y-177650000D03*
X174300000Y-177650000D03*
X174300000Y-140850000D03*
X176000000Y-140850000D03*
X177700000Y-140850000D03*
X177700000Y-145650000D03*
X176000000Y-145650000D03*
X174300000Y-145650000D03*
X174300000Y-108850000D03*
X176000000Y-108850000D03*
X177700000Y-108850000D03*
X177700000Y-113650000D03*
X176000000Y-113650000D03*
X174300000Y-113650000D03*
X174300000Y-76850000D03*
X176000000Y-76850000D03*
X177700000Y-76850000D03*
X177700000Y-81650000D03*
X176000000Y-81650000D03*
X174300000Y-81650000D03*
X114300000Y-172850000D03*
X116000000Y-172850000D03*
X117700000Y-172850000D03*
X117700000Y-177650000D03*
X116000000Y-177650000D03*
X114300000Y-177650000D03*
X114300000Y-140850000D03*
X116000000Y-140850000D03*
X117700000Y-140850000D03*
X117700000Y-145650000D03*
X116000000Y-145650000D03*
X114300000Y-145650000D03*
X114300000Y-108850000D03*
X116000000Y-108850000D03*
X117700000Y-108850000D03*
X117700000Y-113650000D03*
X116000000Y-113650000D03*
X114300000Y-113650000D03*
X114300000Y-76850000D03*
X116000000Y-76850000D03*
X117700000Y-76850000D03*
X117700000Y-81650000D03*
X116000000Y-81650000D03*
X114300000Y-81650000D03*
X180300000Y-172850000D03*
X182000000Y-172850000D03*
X183700000Y-172850000D03*
X183700000Y-177650000D03*
X182000000Y-177650000D03*
X180300000Y-177650000D03*
X180300000Y-140850000D03*
X182000000Y-140850000D03*
X183700000Y-140850000D03*
X183700000Y-145650000D03*
X182000000Y-145650000D03*
X180300000Y-145650000D03*
X180300000Y-108850000D03*
X182000000Y-108850000D03*
X183700000Y-108850000D03*
X183700000Y-113650000D03*
X182000000Y-113650000D03*
X180300000Y-113650000D03*
X180300000Y-76850000D03*
X182000000Y-76850000D03*
X183700000Y-76850000D03*
X183700000Y-81650000D03*
X182000000Y-81650000D03*
X180300000Y-81650000D03*
X72300000Y-172850000D03*
X74000000Y-172850000D03*
X75700000Y-172850000D03*
X75700000Y-177650000D03*
X74000000Y-177650000D03*
X72300000Y-177650000D03*
X72300000Y-140850000D03*
X74000000Y-140850000D03*
X75700000Y-140850000D03*
X75700000Y-145650000D03*
X74000000Y-145650000D03*
X72300000Y-145650000D03*
X72300000Y-108850000D03*
X74000000Y-108850000D03*
X75700000Y-108850000D03*
X75700000Y-113650000D03*
X74000000Y-113650000D03*
X72300000Y-113650000D03*
X72300000Y-76850000D03*
X74000000Y-76850000D03*
X75700000Y-76850000D03*
X75700000Y-81650000D03*
X74000000Y-81650000D03*
X72300000Y-81650000D03*
X84300000Y-177650000D03*
X86000000Y-177650000D03*
X87700000Y-177650000D03*
X87700000Y-172850000D03*
X86000000Y-172850000D03*
X84300000Y-172850000D03*
X84300000Y-145650000D03*
X86000000Y-145650000D03*
X87700000Y-145650000D03*
X87700000Y-140850000D03*
X86000000Y-140850000D03*
X84300000Y-140850000D03*
X84300000Y-113650000D03*
X86000000Y-113650000D03*
X87700000Y-113650000D03*
X87700000Y-108850000D03*
X86000000Y-108850000D03*
X84300000Y-108850000D03*
X84300000Y-81650000D03*
X86000000Y-81650000D03*
X87700000Y-81650000D03*
X87700000Y-76850000D03*
X86000000Y-76850000D03*
X84300000Y-76850000D03*
X90300000Y-177650000D03*
X92000000Y-177650000D03*
X93700000Y-177650000D03*
X93700000Y-172850000D03*
X92000000Y-172850000D03*
X90300000Y-172850000D03*
X90300000Y-145650000D03*
X92000000Y-145650000D03*
X93700000Y-145650000D03*
X93700000Y-140850000D03*
X92000000Y-140850000D03*
X90300000Y-140850000D03*
X90300000Y-113650000D03*
X92000000Y-113650000D03*
X93700000Y-113650000D03*
X93700000Y-108850000D03*
X92000000Y-108850000D03*
X90300000Y-108850000D03*
X90300000Y-81650000D03*
X92000000Y-81650000D03*
X93700000Y-81650000D03*
X93700000Y-76850000D03*
X92000000Y-76850000D03*
X90300000Y-76850000D03*
X132300000Y-172850000D03*
X134000000Y-172850000D03*
X135700000Y-172850000D03*
X135700000Y-177650000D03*
X134000000Y-177650000D03*
X132300000Y-177650000D03*
X132300000Y-140850000D03*
X134000000Y-140850000D03*
X135700000Y-140850000D03*
X135700000Y-145650000D03*
X134000000Y-145650000D03*
X132300000Y-145650000D03*
X132300000Y-108850000D03*
X134000000Y-108850000D03*
X135700000Y-108850000D03*
X135700000Y-113650000D03*
X134000000Y-113650000D03*
X132300000Y-113650000D03*
X132300000Y-76850000D03*
X134000000Y-76850000D03*
X135700000Y-76850000D03*
X135700000Y-81650000D03*
X134000000Y-81650000D03*
X132300000Y-81650000D03*
X153300000Y-191100000D03*
X155000000Y-191100000D03*
X156700000Y-191100000D03*
X156700000Y-195900000D03*
X155000000Y-195900000D03*
X153300000Y-195900000D03*
X153300000Y-159100000D03*
X155000000Y-159100000D03*
X156700000Y-159100000D03*
X156700000Y-163900000D03*
X155000000Y-163900000D03*
X153300000Y-163900000D03*
X153300000Y-127100000D03*
X155000000Y-127100000D03*
X156700000Y-127100000D03*
X156700000Y-131900000D03*
X155000000Y-131900000D03*
X153300000Y-131900000D03*
X153300000Y-95100000D03*
X155000000Y-95100000D03*
X156700000Y-95100000D03*
X156700000Y-99900000D03*
X155000000Y-99900000D03*
X153300000Y-99900000D03*
X99300000Y-191100000D03*
X101000000Y-191100000D03*
X102700000Y-191100000D03*
X102700000Y-195900000D03*
X101000000Y-195900000D03*
X99300000Y-195900000D03*
X99300000Y-159100000D03*
X101000000Y-159100000D03*
X102700000Y-159100000D03*
X102700000Y-163900000D03*
X101000000Y-163900000D03*
X99300000Y-163900000D03*
X99300000Y-127100000D03*
X101000000Y-127100000D03*
X102700000Y-127100000D03*
X102700000Y-131900000D03*
X101000000Y-131900000D03*
X99300000Y-131900000D03*
X99300000Y-95100000D03*
X101000000Y-95100000D03*
X102700000Y-95100000D03*
X102700000Y-99900000D03*
X101000000Y-99900000D03*
X99300000Y-99900000D03*
X69300000Y-195900000D03*
X71000000Y-195900000D03*
X72700000Y-195900000D03*
X72700000Y-191100000D03*
X71000000Y-191100000D03*
X69300000Y-191100000D03*
X69300000Y-163900000D03*
X71000000Y-163900000D03*
X72700000Y-163900000D03*
X72700000Y-159100000D03*
X71000000Y-159100000D03*
X69300000Y-159100000D03*
X69300000Y-131900000D03*
X71000000Y-131900000D03*
X72700000Y-131900000D03*
X72700000Y-127100000D03*
X71000000Y-127100000D03*
X69300000Y-127100000D03*
X69300000Y-99900000D03*
X71000000Y-99900000D03*
X72700000Y-99900000D03*
X72700000Y-95100000D03*
X71000000Y-95100000D03*
X69300000Y-95100000D03*
X123300000Y-191100000D03*
X125000000Y-191100000D03*
X126700000Y-191100000D03*
X126700000Y-195900000D03*
X125000000Y-195900000D03*
X123300000Y-195900000D03*
X123300000Y-159100000D03*
X125000000Y-159100000D03*
X126700000Y-159100000D03*
X126700000Y-163900000D03*
X125000000Y-163900000D03*
X123300000Y-163900000D03*
X123300000Y-127100000D03*
X125000000Y-127100000D03*
X126700000Y-127100000D03*
X126700000Y-131900000D03*
X125000000Y-131900000D03*
X123300000Y-131900000D03*
X123300000Y-95100000D03*
X125000000Y-95100000D03*
X126700000Y-95100000D03*
X126700000Y-99900000D03*
X125000000Y-99900000D03*
X123300000Y-99900000D03*
X117300000Y-195900000D03*
X119000000Y-195900000D03*
X120700000Y-195900000D03*
X120700000Y-191100000D03*
X119000000Y-191100000D03*
X117300000Y-191100000D03*
X117300000Y-163900000D03*
X119000000Y-163900000D03*
X120700000Y-163900000D03*
X120700000Y-159100000D03*
X119000000Y-159100000D03*
X117300000Y-159100000D03*
X117300000Y-131900000D03*
X119000000Y-131900000D03*
X120700000Y-131900000D03*
X120700000Y-127100000D03*
X119000000Y-127100000D03*
X117300000Y-127100000D03*
X117300000Y-99900000D03*
X119000000Y-99900000D03*
X120700000Y-99900000D03*
X120700000Y-95100000D03*
X119000000Y-95100000D03*
X117300000Y-95100000D03*
X189300000Y-191100000D03*
X191000000Y-191100000D03*
X192700000Y-191100000D03*
X192700000Y-195900000D03*
X191000000Y-195900000D03*
X189300000Y-195900000D03*
X189300000Y-159100000D03*
X191000000Y-159100000D03*
X192700000Y-159100000D03*
X192700000Y-163900000D03*
X191000000Y-163900000D03*
X189300000Y-163900000D03*
X189300000Y-127100000D03*
X191000000Y-127100000D03*
X192700000Y-127100000D03*
X192700000Y-131900000D03*
X191000000Y-131900000D03*
X189300000Y-131900000D03*
X189300000Y-95100000D03*
X191000000Y-95100000D03*
X192700000Y-95100000D03*
X192700000Y-99900000D03*
X191000000Y-99900000D03*
X189300000Y-99900000D03*
X231300000Y-191100000D03*
X233000000Y-191100000D03*
X234700000Y-191100000D03*
X234700000Y-195900000D03*
X233000000Y-195900000D03*
X231300000Y-195900000D03*
X231300000Y-159100000D03*
X233000000Y-159100000D03*
X234700000Y-159100000D03*
X234700000Y-163900000D03*
X233000000Y-163900000D03*
X231300000Y-163900000D03*
X231300000Y-127100000D03*
X233000000Y-127100000D03*
X234700000Y-127100000D03*
X234700000Y-131900000D03*
X233000000Y-131900000D03*
X231300000Y-131900000D03*
X231300000Y-95100000D03*
X233000000Y-95100000D03*
X234700000Y-95100000D03*
X234700000Y-99900000D03*
X233000000Y-99900000D03*
X231300000Y-99900000D03*
X192300000Y-177650000D03*
X194000000Y-177650000D03*
X195700000Y-177650000D03*
X195700000Y-172850000D03*
X194000000Y-172850000D03*
X192300000Y-172850000D03*
X192300000Y-145650000D03*
X194000000Y-145650000D03*
X195700000Y-145650000D03*
X195700000Y-140850000D03*
X194000000Y-140850000D03*
X192300000Y-140850000D03*
X192300000Y-113650000D03*
X194000000Y-113650000D03*
X195700000Y-113650000D03*
X195700000Y-108850000D03*
X194000000Y-108850000D03*
X192300000Y-108850000D03*
X192300000Y-81650000D03*
X194000000Y-81650000D03*
X195700000Y-81650000D03*
X195700000Y-76850000D03*
X194000000Y-76850000D03*
X192300000Y-76850000D03*
X237300000Y-191100000D03*
X239000000Y-191100000D03*
X240700000Y-191100000D03*
X240700000Y-195900000D03*
X239000000Y-195900000D03*
X237300000Y-195900000D03*
X237300000Y-159100000D03*
X239000000Y-159100000D03*
X240700000Y-159100000D03*
X240700000Y-163900000D03*
X239000000Y-163900000D03*
X237300000Y-163900000D03*
X237300000Y-127100000D03*
X239000000Y-127100000D03*
X240700000Y-127100000D03*
X240700000Y-131900000D03*
X239000000Y-131900000D03*
X237300000Y-131900000D03*
X237300000Y-95100000D03*
X239000000Y-95100000D03*
X240700000Y-95100000D03*
X240700000Y-99900000D03*
X239000000Y-99900000D03*
X237300000Y-99900000D03*
X195300000Y-191100000D03*
X197000000Y-191100000D03*
X198700000Y-191100000D03*
X198700000Y-195900000D03*
X197000000Y-195900000D03*
X195300000Y-195900000D03*
X195300000Y-159100000D03*
X197000000Y-159100000D03*
X198700000Y-159100000D03*
X198700000Y-163900000D03*
X197000000Y-163900000D03*
X195300000Y-163900000D03*
X195300000Y-127100000D03*
X197000000Y-127100000D03*
X198700000Y-127100000D03*
X198700000Y-131900000D03*
X197000000Y-131900000D03*
X195300000Y-131900000D03*
X195300000Y-95100000D03*
X197000000Y-95100000D03*
X198700000Y-95100000D03*
X198700000Y-99900000D03*
X197000000Y-99900000D03*
X195300000Y-99900000D03*
X198300000Y-177650000D03*
X200000000Y-177650000D03*
X201700000Y-177650000D03*
X201700000Y-172850000D03*
X200000000Y-172850000D03*
X198300000Y-172850000D03*
X198300000Y-145650000D03*
X200000000Y-145650000D03*
X201700000Y-145650000D03*
X201700000Y-140850000D03*
X200000000Y-140850000D03*
X198300000Y-140850000D03*
X198300000Y-113650000D03*
X200000000Y-113650000D03*
X201700000Y-113650000D03*
X201700000Y-108850000D03*
X200000000Y-108850000D03*
X198300000Y-108850000D03*
X198300000Y-81650000D03*
X200000000Y-81650000D03*
X201700000Y-81650000D03*
X201700000Y-76850000D03*
X200000000Y-76850000D03*
X198300000Y-76850000D03*
X201300000Y-191100000D03*
X203000000Y-191100000D03*
X204700000Y-191100000D03*
X204700000Y-195900000D03*
X203000000Y-195900000D03*
X201300000Y-195900000D03*
X201300000Y-159100000D03*
X203000000Y-159100000D03*
X204700000Y-159100000D03*
X204700000Y-163900000D03*
X203000000Y-163900000D03*
X201300000Y-163900000D03*
X201300000Y-127100000D03*
X203000000Y-127100000D03*
X204700000Y-127100000D03*
X204700000Y-131900000D03*
X203000000Y-131900000D03*
X201300000Y-131900000D03*
X201300000Y-95100000D03*
X203000000Y-95100000D03*
X204700000Y-95100000D03*
X204700000Y-99900000D03*
X203000000Y-99900000D03*
X201300000Y-99900000D03*
X207300000Y-191100000D03*
X209000000Y-191100000D03*
X210700000Y-191100000D03*
X210700000Y-195900000D03*
X209000000Y-195900000D03*
X207300000Y-195900000D03*
X207300000Y-159100000D03*
X209000000Y-159100000D03*
X210700000Y-159100000D03*
X210700000Y-163900000D03*
X209000000Y-163900000D03*
X207300000Y-163900000D03*
X207300000Y-127100000D03*
X209000000Y-127100000D03*
X210700000Y-127100000D03*
X210700000Y-131900000D03*
X209000000Y-131900000D03*
X207300000Y-131900000D03*
X207300000Y-95100000D03*
X209000000Y-95100000D03*
X210700000Y-95100000D03*
X210700000Y-99900000D03*
X209000000Y-99900000D03*
X207300000Y-99900000D03*
X210300000Y-172850000D03*
X212000000Y-172850000D03*
X213700000Y-172850000D03*
X213700000Y-177650000D03*
X212000000Y-177650000D03*
X210300000Y-177650000D03*
X210300000Y-140850000D03*
X212000000Y-140850000D03*
X213700000Y-140850000D03*
X213700000Y-145650000D03*
X212000000Y-145650000D03*
X210300000Y-145650000D03*
X210300000Y-108850000D03*
X212000000Y-108850000D03*
X213700000Y-108850000D03*
X213700000Y-113650000D03*
X212000000Y-113650000D03*
X210300000Y-113650000D03*
X210300000Y-76850000D03*
X212000000Y-76850000D03*
X213700000Y-76850000D03*
X213700000Y-81650000D03*
X212000000Y-81650000D03*
X210300000Y-81650000D03*
X240300000Y-177650000D03*
X242000000Y-177650000D03*
X243700000Y-177650000D03*
X243700000Y-172850000D03*
X242000000Y-172850000D03*
X240300000Y-172850000D03*
X240300000Y-145650000D03*
X242000000Y-145650000D03*
X243700000Y-145650000D03*
X243700000Y-140850000D03*
X242000000Y-140850000D03*
X240300000Y-140850000D03*
X240300000Y-113650000D03*
X242000000Y-113650000D03*
X243700000Y-113650000D03*
X243700000Y-108850000D03*
X242000000Y-108850000D03*
X240300000Y-108850000D03*
X240300000Y-81650000D03*
X242000000Y-81650000D03*
X243700000Y-81650000D03*
X243700000Y-76850000D03*
X242000000Y-76850000D03*
X240300000Y-76850000D03*
X213300000Y-195900000D03*
X215000000Y-195900000D03*
X216700000Y-195900000D03*
X216700000Y-191100000D03*
X215000000Y-191100000D03*
X213300000Y-191100000D03*
X213300000Y-163900000D03*
X215000000Y-163900000D03*
X216700000Y-163900000D03*
X216700000Y-159100000D03*
X215000000Y-159100000D03*
X213300000Y-159100000D03*
X213300000Y-131900000D03*
X215000000Y-131900000D03*
X216700000Y-131900000D03*
X216700000Y-127100000D03*
X215000000Y-127100000D03*
X213300000Y-127100000D03*
X213300000Y-99900000D03*
X215000000Y-99900000D03*
X216700000Y-99900000D03*
X216700000Y-95100000D03*
X215000000Y-95100000D03*
X213300000Y-95100000D03*
X249300000Y-195900000D03*
X251000000Y-195900000D03*
X252700000Y-195900000D03*
X252700000Y-191100000D03*
X251000000Y-191100000D03*
X249300000Y-191100000D03*
X249300000Y-163900000D03*
X251000000Y-163900000D03*
X252700000Y-163900000D03*
X252700000Y-159100000D03*
X251000000Y-159100000D03*
X249300000Y-159100000D03*
X249300000Y-131900000D03*
X251000000Y-131900000D03*
X252700000Y-131900000D03*
X252700000Y-127100000D03*
X251000000Y-127100000D03*
X249300000Y-127100000D03*
X249300000Y-99900000D03*
X251000000Y-99900000D03*
X252700000Y-99900000D03*
X252700000Y-95100000D03*
X251000000Y-95100000D03*
X249300000Y-95100000D03*
X216300000Y-172850000D03*
X218000000Y-172850000D03*
X219700000Y-172850000D03*
X219700000Y-177650000D03*
X218000000Y-177650000D03*
X216300000Y-177650000D03*
X216300000Y-140850000D03*
X218000000Y-140850000D03*
X219700000Y-140850000D03*
X219700000Y-145650000D03*
X218000000Y-145650000D03*
X216300000Y-145650000D03*
X216300000Y-108850000D03*
X218000000Y-108850000D03*
X219700000Y-108850000D03*
X219700000Y-113650000D03*
X218000000Y-113650000D03*
X216300000Y-113650000D03*
X216300000Y-76850000D03*
X218000000Y-76850000D03*
X219700000Y-76850000D03*
X219700000Y-81650000D03*
X218000000Y-81650000D03*
X216300000Y-81650000D03*
X225300000Y-195900000D03*
X227000000Y-195900000D03*
X228700000Y-195900000D03*
X228700000Y-191100000D03*
X227000000Y-191100000D03*
X225300000Y-191100000D03*
X225300000Y-163900000D03*
X227000000Y-163900000D03*
X228700000Y-163900000D03*
X228700000Y-159100000D03*
X227000000Y-159100000D03*
X225300000Y-159100000D03*
X225300000Y-131900000D03*
X227000000Y-131900000D03*
X228700000Y-131900000D03*
X228700000Y-127100000D03*
X227000000Y-127100000D03*
X225300000Y-127100000D03*
X225300000Y-99900000D03*
X227000000Y-99900000D03*
X228700000Y-99900000D03*
X228700000Y-95100000D03*
X227000000Y-95100000D03*
X225300000Y-95100000D03*
X219300000Y-195900000D03*
X221000000Y-195900000D03*
X222700000Y-195900000D03*
X222700000Y-191100000D03*
X221000000Y-191100000D03*
X219300000Y-191100000D03*
X219300000Y-163900000D03*
X221000000Y-163900000D03*
X222700000Y-163900000D03*
X222700000Y-159100000D03*
X221000000Y-159100000D03*
X219300000Y-159100000D03*
X219300000Y-131900000D03*
X221000000Y-131900000D03*
X222700000Y-131900000D03*
X222700000Y-127100000D03*
X221000000Y-127100000D03*
X219300000Y-127100000D03*
X219300000Y-99900000D03*
X221000000Y-99900000D03*
X222700000Y-99900000D03*
X222700000Y-95100000D03*
X221000000Y-95100000D03*
X219300000Y-95100000D03*
X222300000Y-172850000D03*
X224000000Y-172850000D03*
X225700000Y-172850000D03*
X225700000Y-177650000D03*
X224000000Y-177650000D03*
X222300000Y-177650000D03*
X222300000Y-140850000D03*
X224000000Y-140850000D03*
X225700000Y-140850000D03*
X225700000Y-145650000D03*
X224000000Y-145650000D03*
X222300000Y-145650000D03*
X222300000Y-108850000D03*
X224000000Y-108850000D03*
X225700000Y-108850000D03*
X225700000Y-113650000D03*
X224000000Y-113650000D03*
X222300000Y-113650000D03*
X222300000Y-76850000D03*
X224000000Y-76850000D03*
X225700000Y-76850000D03*
X225700000Y-81650000D03*
X224000000Y-81650000D03*
X222300000Y-81650000D03*
X234300000Y-177650000D03*
X236000000Y-177650000D03*
X237700000Y-177650000D03*
X237700000Y-172850000D03*
X236000000Y-172850000D03*
X234300000Y-172850000D03*
X234300000Y-145650000D03*
X236000000Y-145650000D03*
X237700000Y-145650000D03*
X237700000Y-140850000D03*
X236000000Y-140850000D03*
X234300000Y-140850000D03*
X234300000Y-113650000D03*
X236000000Y-113650000D03*
X237700000Y-113650000D03*
X237700000Y-108850000D03*
X236000000Y-108850000D03*
X234300000Y-108850000D03*
X234300000Y-81650000D03*
X236000000Y-81650000D03*
X237700000Y-81650000D03*
X237700000Y-76850000D03*
X236000000Y-76850000D03*
X234300000Y-76850000D03*
X252300000Y-172850000D03*
X254000000Y-172850000D03*
X255700000Y-172850000D03*
X255700000Y-177650000D03*
X254000000Y-177650000D03*
X252300000Y-177650000D03*
X252300000Y-140850000D03*
X254000000Y-140850000D03*
X255700000Y-140850000D03*
X255700000Y-145650000D03*
X254000000Y-145650000D03*
X252300000Y-145650000D03*
X252300000Y-108850000D03*
X254000000Y-108850000D03*
X255700000Y-108850000D03*
X255700000Y-113650000D03*
X254000000Y-113650000D03*
X252300000Y-113650000D03*
X252300000Y-76850000D03*
X254000000Y-76850000D03*
X255700000Y-76850000D03*
X255700000Y-81650000D03*
X254000000Y-81650000D03*
X252300000Y-81650000D03*
X243300000Y-195900000D03*
X245000000Y-195900000D03*
X246700000Y-195900000D03*
X246700000Y-191100000D03*
X245000000Y-191100000D03*
X243300000Y-191100000D03*
X243300000Y-163900000D03*
X245000000Y-163900000D03*
X246700000Y-163900000D03*
X246700000Y-159100000D03*
X245000000Y-159100000D03*
X243300000Y-159100000D03*
X243300000Y-131900000D03*
X245000000Y-131900000D03*
X246700000Y-131900000D03*
X246700000Y-127100000D03*
X245000000Y-127100000D03*
X243300000Y-127100000D03*
X243300000Y-99900000D03*
X245000000Y-99900000D03*
X246700000Y-99900000D03*
X246700000Y-95100000D03*
X245000000Y-95100000D03*
X243300000Y-95100000D03*
X261300000Y-195900000D03*
X263000000Y-195900000D03*
X264700000Y-195900000D03*
X264700000Y-191100000D03*
X263000000Y-191100000D03*
X261300000Y-191100000D03*
X261300000Y-163900000D03*
X263000000Y-163900000D03*
X264700000Y-163900000D03*
X264700000Y-159100000D03*
X263000000Y-159100000D03*
X261300000Y-159100000D03*
X261300000Y-131900000D03*
X263000000Y-131900000D03*
X264700000Y-131900000D03*
X264700000Y-127100000D03*
X263000000Y-127100000D03*
X261300000Y-127100000D03*
X261300000Y-99900000D03*
X263000000Y-99900000D03*
X264700000Y-99900000D03*
X264700000Y-95100000D03*
X263000000Y-95100000D03*
X261300000Y-95100000D03*
X267300000Y-195900000D03*
X269000000Y-195900000D03*
X270700000Y-195900000D03*
X270700000Y-191100000D03*
X269000000Y-191100000D03*
X267300000Y-191100000D03*
X267300000Y-163900000D03*
X269000000Y-163900000D03*
X270700000Y-163900000D03*
X270700000Y-159100000D03*
X269000000Y-159100000D03*
X267300000Y-159100000D03*
X267300000Y-131900000D03*
X269000000Y-131900000D03*
X270700000Y-131900000D03*
X270700000Y-127100000D03*
X269000000Y-127100000D03*
X267300000Y-127100000D03*
X267300000Y-99900000D03*
X269000000Y-99900000D03*
X270700000Y-99900000D03*
X270700000Y-95100000D03*
X269000000Y-95100000D03*
X267300000Y-95100000D03*
X273300000Y-191100000D03*
X275000000Y-191100000D03*
X276700000Y-191100000D03*
X276700000Y-195900000D03*
X275000000Y-195900000D03*
X273300000Y-195900000D03*
X273300000Y-159100000D03*
X275000000Y-159100000D03*
X276700000Y-159100000D03*
X276700000Y-163900000D03*
X275000000Y-163900000D03*
X273300000Y-163900000D03*
X273300000Y-127100000D03*
X275000000Y-127100000D03*
X276700000Y-127100000D03*
X276700000Y-131900000D03*
X275000000Y-131900000D03*
X273300000Y-131900000D03*
X273300000Y-95100000D03*
X275000000Y-95100000D03*
X276700000Y-95100000D03*
X276700000Y-99900000D03*
X275000000Y-99900000D03*
X273300000Y-99900000D03*
X279300000Y-191100000D03*
X281000000Y-191100000D03*
X282700000Y-191100000D03*
X282700000Y-195900000D03*
X281000000Y-195900000D03*
X279300000Y-195900000D03*
X279300000Y-159100000D03*
X281000000Y-159100000D03*
X282700000Y-159100000D03*
X282700000Y-163900000D03*
X281000000Y-163900000D03*
X279300000Y-163900000D03*
X279300000Y-127100000D03*
X281000000Y-127100000D03*
X282700000Y-127100000D03*
X282700000Y-131900000D03*
X281000000Y-131900000D03*
X279300000Y-131900000D03*
X279300000Y-95100000D03*
X281000000Y-95100000D03*
X282700000Y-95100000D03*
X282700000Y-99900000D03*
X281000000Y-99900000D03*
X279300000Y-99900000D03*
X291300000Y-191100000D03*
X293000000Y-191100000D03*
X294700000Y-191100000D03*
X294700000Y-195900000D03*
X293000000Y-195900000D03*
X291300000Y-195900000D03*
X291300000Y-159100000D03*
X293000000Y-159100000D03*
X294700000Y-159100000D03*
X294700000Y-163900000D03*
X293000000Y-163900000D03*
X291300000Y-163900000D03*
X291300000Y-127100000D03*
X293000000Y-127100000D03*
X294700000Y-127100000D03*
X294700000Y-131900000D03*
X293000000Y-131900000D03*
X291300000Y-131900000D03*
X291300000Y-95100000D03*
X293000000Y-95100000D03*
X294700000Y-95100000D03*
X294700000Y-99900000D03*
X293000000Y-99900000D03*
X291300000Y-99900000D03*
X306300000Y-177900000D03*
X308000000Y-177900000D03*
X309700000Y-177900000D03*
X309700000Y-173100000D03*
X308000000Y-173100000D03*
X306300000Y-173100000D03*
X306300000Y-145900000D03*
X308000000Y-145900000D03*
X309700000Y-145900000D03*
X309700000Y-141100000D03*
X308000000Y-141100000D03*
X306300000Y-141100000D03*
X306300000Y-113900000D03*
X308000000Y-113900000D03*
X309700000Y-113900000D03*
X309700000Y-109100000D03*
X308000000Y-109100000D03*
X306300000Y-109100000D03*
X306300000Y-81900000D03*
X308000000Y-81900000D03*
X309700000Y-81900000D03*
X309700000Y-77100000D03*
X308000000Y-77100000D03*
X306300000Y-77100000D03*
X342300000Y-177900000D03*
X344000000Y-177900000D03*
X345700000Y-177900000D03*
X345700000Y-173100000D03*
X344000000Y-173100000D03*
X342300000Y-173100000D03*
X342300000Y-145900000D03*
X344000000Y-145900000D03*
X345700000Y-145900000D03*
X345700000Y-141100000D03*
X344000000Y-141100000D03*
X342300000Y-141100000D03*
X342300000Y-113900000D03*
X344000000Y-113900000D03*
X345700000Y-113900000D03*
X345700000Y-109100000D03*
X344000000Y-109100000D03*
X342300000Y-109100000D03*
X342300000Y-81900000D03*
X344000000Y-81900000D03*
X345700000Y-81900000D03*
X345700000Y-77100000D03*
X344000000Y-77100000D03*
X342300000Y-77100000D03*
X315300000Y-195900000D03*
X317000000Y-195900000D03*
X318700000Y-195900000D03*
X318700000Y-191100000D03*
X317000000Y-191100000D03*
X315300000Y-191100000D03*
X315300000Y-163900000D03*
X317000000Y-163900000D03*
X318700000Y-163900000D03*
X318700000Y-159100000D03*
X317000000Y-159100000D03*
X315300000Y-159100000D03*
X315300000Y-131900000D03*
X317000000Y-131900000D03*
X318700000Y-131900000D03*
X318700000Y-127100000D03*
X317000000Y-127100000D03*
X315300000Y-127100000D03*
X315300000Y-99900000D03*
X317000000Y-99900000D03*
X318700000Y-99900000D03*
X318700000Y-95100000D03*
X317000000Y-95100000D03*
X315300000Y-95100000D03*
X336300000Y-177900000D03*
X338000000Y-177900000D03*
X339700000Y-177900000D03*
X339700000Y-173100000D03*
X338000000Y-173100000D03*
X336300000Y-173100000D03*
X336300000Y-145900000D03*
X338000000Y-145900000D03*
X339700000Y-145900000D03*
X339700000Y-141100000D03*
X338000000Y-141100000D03*
X336300000Y-141100000D03*
X336300000Y-113900000D03*
X338000000Y-113900000D03*
X339700000Y-113900000D03*
X339700000Y-109100000D03*
X338000000Y-109100000D03*
X336300000Y-109100000D03*
X336300000Y-81900000D03*
X338000000Y-81900000D03*
X339700000Y-81900000D03*
X339700000Y-77100000D03*
X338000000Y-77100000D03*
X336300000Y-77100000D03*
X258300000Y-172850000D03*
X260000000Y-172850000D03*
X261700000Y-172850000D03*
X261700000Y-177650000D03*
X260000000Y-177650000D03*
X258300000Y-177650000D03*
X258300000Y-140850000D03*
X260000000Y-140850000D03*
X261700000Y-140850000D03*
X261700000Y-145650000D03*
X260000000Y-145650000D03*
X258300000Y-145650000D03*
X258300000Y-108850000D03*
X260000000Y-108850000D03*
X261700000Y-108850000D03*
X261700000Y-113650000D03*
X260000000Y-113650000D03*
X258300000Y-113650000D03*
X258300000Y-76850000D03*
X260000000Y-76850000D03*
X261700000Y-76850000D03*
X261700000Y-81650000D03*
X260000000Y-81650000D03*
X258300000Y-81650000D03*
X321300000Y-195900000D03*
X323000000Y-195900000D03*
X324700000Y-195900000D03*
X324700000Y-191100000D03*
X323000000Y-191100000D03*
X321300000Y-191100000D03*
X321300000Y-163900000D03*
X323000000Y-163900000D03*
X324700000Y-163900000D03*
X324700000Y-159100000D03*
X323000000Y-159100000D03*
X321300000Y-159100000D03*
X321300000Y-131900000D03*
X323000000Y-131900000D03*
X324700000Y-131900000D03*
X324700000Y-127100000D03*
X323000000Y-127100000D03*
X321300000Y-127100000D03*
X321300000Y-99900000D03*
X323000000Y-99900000D03*
X324700000Y-99900000D03*
X324700000Y-95100000D03*
X323000000Y-95100000D03*
X321300000Y-95100000D03*
X285300000Y-195900000D03*
X287000000Y-195900000D03*
X288700000Y-195900000D03*
X288700000Y-191100000D03*
X287000000Y-191100000D03*
X285300000Y-191100000D03*
X285300000Y-163900000D03*
X287000000Y-163900000D03*
X288700000Y-163900000D03*
X288700000Y-159100000D03*
X287000000Y-159100000D03*
X285300000Y-159100000D03*
X285300000Y-131900000D03*
X287000000Y-131900000D03*
X288700000Y-131900000D03*
X288700000Y-127100000D03*
X287000000Y-127100000D03*
X285300000Y-127100000D03*
X285300000Y-99900000D03*
X287000000Y-99900000D03*
X288700000Y-99900000D03*
X288700000Y-95100000D03*
X287000000Y-95100000D03*
X285300000Y-95100000D03*
X294300000Y-177900000D03*
X296000000Y-177900000D03*
X297700000Y-177900000D03*
X297700000Y-173100000D03*
X296000000Y-173100000D03*
X294300000Y-173100000D03*
X294300000Y-145900000D03*
X296000000Y-145900000D03*
X297700000Y-145900000D03*
X297700000Y-141100000D03*
X296000000Y-141100000D03*
X294300000Y-141100000D03*
X294300000Y-113900000D03*
X296000000Y-113900000D03*
X297700000Y-113900000D03*
X297700000Y-109100000D03*
X296000000Y-109100000D03*
X294300000Y-109100000D03*
X294300000Y-81900000D03*
X296000000Y-81900000D03*
X297700000Y-81900000D03*
X297700000Y-77100000D03*
X296000000Y-77100000D03*
X294300000Y-77100000D03*
X297300000Y-191100000D03*
X299000000Y-191100000D03*
X300700000Y-191100000D03*
X300700000Y-195900000D03*
X299000000Y-195900000D03*
X297300000Y-195900000D03*
X297300000Y-159100000D03*
X299000000Y-159100000D03*
X300700000Y-159100000D03*
X300700000Y-163900000D03*
X299000000Y-163900000D03*
X297300000Y-163900000D03*
X297300000Y-127100000D03*
X299000000Y-127100000D03*
X300700000Y-127100000D03*
X300700000Y-131900000D03*
X299000000Y-131900000D03*
X297300000Y-131900000D03*
X297300000Y-95100000D03*
X299000000Y-95100000D03*
X300700000Y-95100000D03*
X300700000Y-99900000D03*
X299000000Y-99900000D03*
X297300000Y-99900000D03*
X303050000Y-191100000D03*
X304750000Y-191100000D03*
X306450000Y-191100000D03*
X306450000Y-195900000D03*
X304750000Y-195900000D03*
X303050000Y-195900000D03*
X303050000Y-159100000D03*
X304750000Y-159100000D03*
X306450000Y-159100000D03*
X306450000Y-163900000D03*
X304750000Y-163900000D03*
X303050000Y-163900000D03*
X303050000Y-127100000D03*
X304750000Y-127100000D03*
X306450000Y-127100000D03*
X306450000Y-131900000D03*
X304750000Y-131900000D03*
X303050000Y-131900000D03*
X303050000Y-95100000D03*
X304750000Y-95100000D03*
X306450000Y-95100000D03*
X306450000Y-99900000D03*
X304750000Y-99900000D03*
X303050000Y-99900000D03*
X309300000Y-191100000D03*
X311000000Y-191100000D03*
X312700000Y-191100000D03*
X312700000Y-195900000D03*
X311000000Y-195900000D03*
X309300000Y-195900000D03*
X309300000Y-159100000D03*
X311000000Y-159100000D03*
X312700000Y-159100000D03*
X312700000Y-163900000D03*
X311000000Y-163900000D03*
X309300000Y-163900000D03*
X309300000Y-127100000D03*
X311000000Y-127100000D03*
X312700000Y-127100000D03*
X312700000Y-131900000D03*
X311000000Y-131900000D03*
X309300000Y-131900000D03*
X309300000Y-95100000D03*
X311000000Y-95100000D03*
X312700000Y-95100000D03*
X312700000Y-99900000D03*
X311000000Y-99900000D03*
X309300000Y-99900000D03*
X324300000Y-173100000D03*
X326000000Y-173100000D03*
X327700000Y-173100000D03*
X327700000Y-177900000D03*
X326000000Y-177900000D03*
X324300000Y-177900000D03*
X324300000Y-141100000D03*
X326000000Y-141100000D03*
X327700000Y-141100000D03*
X327700000Y-145900000D03*
X326000000Y-145900000D03*
X324300000Y-145900000D03*
X324300000Y-109100000D03*
X326000000Y-109100000D03*
X327700000Y-109100000D03*
X327700000Y-113900000D03*
X326000000Y-113900000D03*
X324300000Y-113900000D03*
X324300000Y-77100000D03*
X326000000Y-77100000D03*
X327700000Y-77100000D03*
X327700000Y-81900000D03*
X326000000Y-81900000D03*
X324300000Y-81900000D03*
X348300000Y-177900000D03*
X350000000Y-177900000D03*
X351700000Y-177900000D03*
X351700000Y-173100000D03*
X350000000Y-173100000D03*
X348300000Y-173100000D03*
X348300000Y-145900000D03*
X350000000Y-145900000D03*
X351700000Y-145900000D03*
X351700000Y-141100000D03*
X350000000Y-141100000D03*
X348300000Y-141100000D03*
X348300000Y-113900000D03*
X350000000Y-113900000D03*
X351700000Y-113900000D03*
X351700000Y-109100000D03*
X350000000Y-109100000D03*
X348300000Y-109100000D03*
X348300000Y-81900000D03*
X350000000Y-81900000D03*
X351700000Y-81900000D03*
X351700000Y-77100000D03*
X350000000Y-77100000D03*
X348300000Y-77100000D03*
X345300000Y-191100000D03*
X347000000Y-191100000D03*
X348700000Y-191100000D03*
X348700000Y-195900000D03*
X347000000Y-195900000D03*
X345300000Y-195900000D03*
X345300000Y-159100000D03*
X347000000Y-159100000D03*
X348700000Y-159100000D03*
X348700000Y-163900000D03*
X347000000Y-163900000D03*
X345300000Y-163900000D03*
X345300000Y-127100000D03*
X347000000Y-127100000D03*
X348700000Y-127100000D03*
X348700000Y-131900000D03*
X347000000Y-131900000D03*
X345300000Y-131900000D03*
X345300000Y-95100000D03*
X347000000Y-95100000D03*
X348700000Y-95100000D03*
X348700000Y-99900000D03*
X347000000Y-99900000D03*
X345300000Y-99900000D03*
X327300000Y-195900000D03*
X329000000Y-195900000D03*
X330700000Y-195900000D03*
X330700000Y-191100000D03*
X329000000Y-191100000D03*
X327300000Y-191100000D03*
X327300000Y-163900000D03*
X329000000Y-163900000D03*
X330700000Y-163900000D03*
X330700000Y-159100000D03*
X329000000Y-159100000D03*
X327300000Y-159100000D03*
X327300000Y-131900000D03*
X329000000Y-131900000D03*
X330700000Y-131900000D03*
X330700000Y-127100000D03*
X329000000Y-127100000D03*
X327300000Y-127100000D03*
X327300000Y-99900000D03*
X329000000Y-99900000D03*
X330700000Y-99900000D03*
X330700000Y-95100000D03*
X329000000Y-95100000D03*
X327300000Y-95100000D03*
X333300000Y-191100000D03*
X335000000Y-191100000D03*
X336700000Y-191100000D03*
X336700000Y-195900000D03*
X335000000Y-195900000D03*
X333300000Y-195900000D03*
X333300000Y-159100000D03*
X335000000Y-159100000D03*
X336700000Y-159100000D03*
X336700000Y-163900000D03*
X335000000Y-163900000D03*
X333300000Y-163900000D03*
X333300000Y-127100000D03*
X335000000Y-127100000D03*
X336700000Y-127100000D03*
X336700000Y-131900000D03*
X335000000Y-131900000D03*
X333300000Y-131900000D03*
X333300000Y-95100000D03*
X335000000Y-95100000D03*
X336700000Y-95100000D03*
X336700000Y-99900000D03*
X335000000Y-99900000D03*
X333300000Y-99900000D03*
X255300000Y-195900000D03*
X257000000Y-195900000D03*
X258700000Y-195900000D03*
X258700000Y-191100000D03*
X257000000Y-191100000D03*
X255300000Y-191100000D03*
X255300000Y-163900000D03*
X257000000Y-163900000D03*
X258700000Y-163900000D03*
X258700000Y-159100000D03*
X257000000Y-159100000D03*
X255300000Y-159100000D03*
X255300000Y-131900000D03*
X257000000Y-131900000D03*
X258700000Y-131900000D03*
X258700000Y-127100000D03*
X257000000Y-127100000D03*
X255300000Y-127100000D03*
X255300000Y-99900000D03*
X257000000Y-99900000D03*
X258700000Y-99900000D03*
X258700000Y-95100000D03*
X257000000Y-95100000D03*
X255300000Y-95100000D03*
X264300000Y-172850000D03*
X266000000Y-172850000D03*
X267700000Y-172850000D03*
X267700000Y-177650000D03*
X266000000Y-177650000D03*
X264300000Y-177650000D03*
X264300000Y-140850000D03*
X266000000Y-140850000D03*
X267700000Y-140850000D03*
X267700000Y-145650000D03*
X266000000Y-145650000D03*
X264300000Y-145650000D03*
X264300000Y-108850000D03*
X266000000Y-108850000D03*
X267700000Y-108850000D03*
X267700000Y-113650000D03*
X266000000Y-113650000D03*
X264300000Y-113650000D03*
X264300000Y-76850000D03*
X266000000Y-76850000D03*
X267700000Y-76850000D03*
X267700000Y-81650000D03*
X266000000Y-81650000D03*
X264300000Y-81650000D03*
X339300000Y-191100000D03*
X341000000Y-191100000D03*
X342700000Y-191100000D03*
X342700000Y-195900000D03*
X341000000Y-195900000D03*
X339300000Y-195900000D03*
X339300000Y-159100000D03*
X341000000Y-159100000D03*
X342700000Y-159100000D03*
X342700000Y-163900000D03*
X341000000Y-163900000D03*
X339300000Y-163900000D03*
X339300000Y-127100000D03*
X341000000Y-127100000D03*
X342700000Y-127100000D03*
X342700000Y-131900000D03*
X341000000Y-131900000D03*
X339300000Y-131900000D03*
X339300000Y-95100000D03*
X341000000Y-95100000D03*
X342700000Y-95100000D03*
X342700000Y-99900000D03*
X341000000Y-99900000D03*
X339300000Y-99900000D03*
X276300000Y-177900000D03*
X278000000Y-177900000D03*
X279700000Y-177900000D03*
X279700000Y-173100000D03*
X278000000Y-173100000D03*
X276300000Y-173100000D03*
X276300000Y-145900000D03*
X278000000Y-145900000D03*
X279700000Y-145900000D03*
X279700000Y-141100000D03*
X278000000Y-141100000D03*
X276300000Y-141100000D03*
X276300000Y-113900000D03*
X278000000Y-113900000D03*
X279700000Y-113900000D03*
X279700000Y-109100000D03*
X278000000Y-109100000D03*
X276300000Y-109100000D03*
X276300000Y-81900000D03*
X278000000Y-81900000D03*
X279700000Y-81900000D03*
X279700000Y-77100000D03*
X278000000Y-77100000D03*
X276300000Y-77100000D03*
X282300000Y-173100000D03*
X284000000Y-173100000D03*
X285700000Y-173100000D03*
X285700000Y-177900000D03*
X284000000Y-177900000D03*
X282300000Y-177900000D03*
X282300000Y-141100000D03*
X284000000Y-141100000D03*
X285700000Y-141100000D03*
X285700000Y-145900000D03*
X284000000Y-145900000D03*
X282300000Y-145900000D03*
X282300000Y-109100000D03*
X284000000Y-109100000D03*
X285700000Y-109100000D03*
X285700000Y-113900000D03*
X284000000Y-113900000D03*
X282300000Y-113900000D03*
X282300000Y-77100000D03*
X284000000Y-77100000D03*
X285700000Y-77100000D03*
X285700000Y-81900000D03*
X284000000Y-81900000D03*
X282300000Y-81900000D03*
X300300000Y-177900000D03*
X302000000Y-177900000D03*
X303700000Y-177900000D03*
X303700000Y-173100000D03*
X302000000Y-173100000D03*
X300300000Y-173100000D03*
X300300000Y-145900000D03*
X302000000Y-145900000D03*
X303700000Y-145900000D03*
X303700000Y-141100000D03*
X302000000Y-141100000D03*
X300300000Y-141100000D03*
X300300000Y-113900000D03*
X302000000Y-113900000D03*
X303700000Y-113900000D03*
X303700000Y-109100000D03*
X302000000Y-109100000D03*
X300300000Y-109100000D03*
X300300000Y-81900000D03*
X302000000Y-81900000D03*
X303700000Y-81900000D03*
X303700000Y-77100000D03*
X302000000Y-77100000D03*
X300300000Y-77100000D03*
X318300000Y-177900000D03*
X320000000Y-177900000D03*
X321700000Y-177900000D03*
X321700000Y-173100000D03*
X320000000Y-173100000D03*
X318300000Y-173100000D03*
X318300000Y-145900000D03*
X320000000Y-145900000D03*
X321700000Y-145900000D03*
X321700000Y-141100000D03*
X320000000Y-141100000D03*
X318300000Y-141100000D03*
X318300000Y-113900000D03*
X320000000Y-113900000D03*
X321700000Y-113900000D03*
X321700000Y-109100000D03*
X320000000Y-109100000D03*
X318300000Y-109100000D03*
X318300000Y-81900000D03*
X320000000Y-81900000D03*
X321700000Y-81900000D03*
X321700000Y-77100000D03*
X320000000Y-77100000D03*
X318300000Y-77100000D03*
X357300000Y-191100000D03*
X359000000Y-191100000D03*
X360700000Y-191100000D03*
X360700000Y-195900000D03*
X359000000Y-195900000D03*
X357300000Y-195900000D03*
X357300000Y-159100000D03*
X359000000Y-159100000D03*
X360700000Y-159100000D03*
X360700000Y-163900000D03*
X359000000Y-163900000D03*
X357300000Y-163900000D03*
X357300000Y-127100000D03*
X359000000Y-127100000D03*
X360700000Y-127100000D03*
X360700000Y-131900000D03*
X359000000Y-131900000D03*
X357300000Y-131900000D03*
X357300000Y-95100000D03*
X359000000Y-95100000D03*
X360700000Y-95100000D03*
X360700000Y-99900000D03*
X359000000Y-99900000D03*
X357300000Y-99900000D03*
X351300000Y-191100000D03*
X353000000Y-191100000D03*
X354700000Y-191100000D03*
X354700000Y-195900000D03*
X353000000Y-195900000D03*
X351300000Y-195900000D03*
X351300000Y-159100000D03*
X353000000Y-159100000D03*
X354700000Y-159100000D03*
X354700000Y-163900000D03*
X353000000Y-163900000D03*
X351300000Y-163900000D03*
X351300000Y-127100000D03*
X353000000Y-127100000D03*
X354700000Y-127100000D03*
X354700000Y-131900000D03*
X353000000Y-131900000D03*
X351300000Y-131900000D03*
X351300000Y-95100000D03*
X353000000Y-95100000D03*
X354700000Y-95100000D03*
X354700000Y-99900000D03*
X353000000Y-99900000D03*
X351300000Y-99900000D03*
X357300000Y-67900000D03*
X359000000Y-67900000D03*
X360700000Y-67900000D03*
X360700000Y-63100000D03*
X359000000Y-63100000D03*
X357300000Y-63100000D03*
X351300000Y-67900000D03*
X353000000Y-67900000D03*
X354700000Y-67900000D03*
X354700000Y-63100000D03*
X353000000Y-63100000D03*
X351300000Y-63100000D03*
X348300000Y-45100000D03*
X350000000Y-45100000D03*
X351700000Y-45100000D03*
X351700000Y-49900000D03*
X350000000Y-49900000D03*
X348300000Y-49900000D03*
X345300000Y-67900000D03*
X347000000Y-67900000D03*
X348700000Y-67900000D03*
X348700000Y-63100000D03*
X347000000Y-63100000D03*
X345300000Y-63100000D03*
X342300000Y-45100000D03*
X344000000Y-45100000D03*
X345700000Y-45100000D03*
X345700000Y-49900000D03*
X344000000Y-49900000D03*
X342300000Y-49900000D03*
X339300000Y-67900000D03*
X341000000Y-67900000D03*
X342700000Y-67900000D03*
X342700000Y-63100000D03*
X341000000Y-63100000D03*
X339300000Y-63100000D03*
X336300000Y-45100000D03*
X338000000Y-45100000D03*
X339700000Y-45100000D03*
X339700000Y-49900000D03*
X338000000Y-49900000D03*
X336300000Y-49900000D03*
X333300000Y-67900000D03*
X335000000Y-67900000D03*
X336700000Y-67900000D03*
X336700000Y-63100000D03*
X335000000Y-63100000D03*
X333300000Y-63100000D03*
X327300000Y-63100000D03*
X329000000Y-63100000D03*
X330700000Y-63100000D03*
X330700000Y-67900000D03*
X329000000Y-67900000D03*
X327300000Y-67900000D03*
X324300000Y-49900000D03*
X326000000Y-49900000D03*
X327700000Y-49900000D03*
X327700000Y-45100000D03*
X326000000Y-45100000D03*
X324300000Y-45100000D03*
X321300000Y-63100000D03*
X323000000Y-63100000D03*
X324700000Y-63100000D03*
X324700000Y-67900000D03*
X323000000Y-67900000D03*
X321300000Y-67900000D03*
X318300000Y-45100000D03*
X320000000Y-45100000D03*
X321700000Y-45100000D03*
X321700000Y-49900000D03*
X320000000Y-49900000D03*
X318300000Y-49900000D03*
X315300000Y-63100000D03*
X317000000Y-63100000D03*
X318700000Y-63100000D03*
X318700000Y-67900000D03*
X317000000Y-67900000D03*
X315300000Y-67900000D03*
X309300000Y-67900000D03*
X311000000Y-67900000D03*
X312700000Y-67900000D03*
X312700000Y-63100000D03*
X311000000Y-63100000D03*
X309300000Y-63100000D03*
X306300000Y-45100000D03*
X308000000Y-45100000D03*
X309700000Y-45100000D03*
X309700000Y-49900000D03*
X308000000Y-49900000D03*
X306300000Y-49900000D03*
X303050000Y-67900000D03*
X304750000Y-67900000D03*
X306450000Y-67900000D03*
X306450000Y-63100000D03*
X304750000Y-63100000D03*
X303050000Y-63100000D03*
X300300000Y-45100000D03*
X302000000Y-45100000D03*
X303700000Y-45100000D03*
X303700000Y-49900000D03*
X302000000Y-49900000D03*
X300300000Y-49900000D03*
X297300000Y-67900000D03*
X299000000Y-67900000D03*
X300700000Y-67900000D03*
X300700000Y-63100000D03*
X299000000Y-63100000D03*
X297300000Y-63100000D03*
X294300000Y-45100000D03*
X296000000Y-45100000D03*
X297700000Y-45100000D03*
X297700000Y-49900000D03*
X296000000Y-49900000D03*
X294300000Y-49900000D03*
X291300000Y-67900000D03*
X293000000Y-67900000D03*
X294700000Y-67900000D03*
X294700000Y-63100000D03*
X293000000Y-63100000D03*
X291300000Y-63100000D03*
X285300000Y-63100000D03*
X287000000Y-63100000D03*
X288700000Y-63100000D03*
X288700000Y-67900000D03*
X287000000Y-67900000D03*
X285300000Y-67900000D03*
X282300000Y-49900000D03*
X284000000Y-49900000D03*
X285700000Y-49900000D03*
X285700000Y-45100000D03*
X284000000Y-45100000D03*
X282300000Y-45100000D03*
X279300000Y-67900000D03*
X281000000Y-67900000D03*
X282700000Y-67900000D03*
X282700000Y-63100000D03*
X281000000Y-63100000D03*
X279300000Y-63100000D03*
X276300000Y-45100000D03*
X278000000Y-45100000D03*
X279700000Y-45100000D03*
X279700000Y-49900000D03*
X278000000Y-49900000D03*
X276300000Y-49900000D03*
X273300000Y-67900000D03*
X275000000Y-67900000D03*
X276700000Y-67900000D03*
X276700000Y-63100000D03*
X275000000Y-63100000D03*
X273300000Y-63100000D03*
X267300000Y-63100000D03*
X269000000Y-63100000D03*
X270700000Y-63100000D03*
X270700000Y-67900000D03*
X269000000Y-67900000D03*
X267300000Y-67900000D03*
X264300000Y-49650000D03*
X266000000Y-49650000D03*
X267700000Y-49650000D03*
X267700000Y-44850000D03*
X266000000Y-44850000D03*
X264300000Y-44850000D03*
X261300000Y-63100000D03*
X263000000Y-63100000D03*
X264700000Y-63100000D03*
X264700000Y-67900000D03*
X263000000Y-67900000D03*
X261300000Y-67900000D03*
X258300000Y-49650000D03*
X260000000Y-49650000D03*
X261700000Y-49650000D03*
X261700000Y-44850000D03*
X260000000Y-44850000D03*
X258300000Y-44850000D03*
X255300000Y-63100000D03*
X257000000Y-63100000D03*
X258700000Y-63100000D03*
X258700000Y-67900000D03*
X257000000Y-67900000D03*
X255300000Y-67900000D03*
X252300000Y-49650000D03*
X254000000Y-49650000D03*
X255700000Y-49650000D03*
X255700000Y-44850000D03*
X254000000Y-44850000D03*
X252300000Y-44850000D03*
X249300000Y-63100000D03*
X251000000Y-63100000D03*
X252700000Y-63100000D03*
X252700000Y-67900000D03*
X251000000Y-67900000D03*
X249300000Y-67900000D03*
X243300000Y-63100000D03*
X245000000Y-63100000D03*
X246700000Y-63100000D03*
X246700000Y-67900000D03*
X245000000Y-67900000D03*
X243300000Y-67900000D03*
X240300000Y-44850000D03*
X242000000Y-44850000D03*
X243700000Y-44850000D03*
X243700000Y-49650000D03*
X242000000Y-49650000D03*
X240300000Y-49650000D03*
X237300000Y-67900000D03*
X239000000Y-67900000D03*
X240700000Y-67900000D03*
X240700000Y-63100000D03*
X239000000Y-63100000D03*
X237300000Y-63100000D03*
X234300000Y-44850000D03*
X236000000Y-44850000D03*
X237700000Y-44850000D03*
X237700000Y-49650000D03*
X236000000Y-49650000D03*
X234300000Y-49650000D03*
X231300000Y-67900000D03*
X233000000Y-67900000D03*
X234700000Y-67900000D03*
X234700000Y-63100000D03*
X233000000Y-63100000D03*
X231300000Y-63100000D03*
X225300000Y-63100000D03*
X227000000Y-63100000D03*
X228700000Y-63100000D03*
X228700000Y-67900000D03*
X227000000Y-67900000D03*
X225300000Y-67900000D03*
X222300000Y-49650000D03*
X224000000Y-49650000D03*
X225700000Y-49650000D03*
X225700000Y-44850000D03*
X224000000Y-44850000D03*
X222300000Y-44850000D03*
X219300000Y-63100000D03*
X221000000Y-63100000D03*
X222700000Y-63100000D03*
X222700000Y-67900000D03*
X221000000Y-67900000D03*
X219300000Y-67900000D03*
X216300000Y-49650000D03*
X218000000Y-49650000D03*
X219700000Y-49650000D03*
X219700000Y-44850000D03*
X218000000Y-44850000D03*
X216300000Y-44850000D03*
X213300000Y-63100000D03*
X215000000Y-63100000D03*
X216700000Y-63100000D03*
X216700000Y-67900000D03*
X215000000Y-67900000D03*
X213300000Y-67900000D03*
X210300000Y-49650000D03*
X212000000Y-49650000D03*
X213700000Y-49650000D03*
X213700000Y-44850000D03*
X212000000Y-44850000D03*
X210300000Y-44850000D03*
X207300000Y-67900000D03*
X209000000Y-67900000D03*
X210700000Y-67900000D03*
X210700000Y-63100000D03*
X209000000Y-63100000D03*
X207300000Y-63100000D03*
X201300000Y-67900000D03*
X203000000Y-67900000D03*
X204700000Y-67900000D03*
X204700000Y-63100000D03*
X203000000Y-63100000D03*
X201300000Y-63100000D03*
X198300000Y-44850000D03*
X200000000Y-44850000D03*
X201700000Y-44850000D03*
X201700000Y-49650000D03*
X200000000Y-49650000D03*
X198300000Y-49650000D03*
X195300000Y-67900000D03*
X197000000Y-67900000D03*
X198700000Y-67900000D03*
X198700000Y-63100000D03*
X197000000Y-63100000D03*
X195300000Y-63100000D03*
X192300000Y-44850000D03*
X194000000Y-44850000D03*
X195700000Y-44850000D03*
X195700000Y-49650000D03*
X194000000Y-49650000D03*
X192300000Y-49650000D03*
X189300000Y-67900000D03*
X191000000Y-67900000D03*
X192700000Y-67900000D03*
X192700000Y-63100000D03*
X191000000Y-63100000D03*
X189300000Y-63100000D03*
X183300000Y-63100000D03*
X185000000Y-63100000D03*
X186700000Y-63100000D03*
X186700000Y-67900000D03*
X185000000Y-67900000D03*
X183300000Y-67900000D03*
X180300000Y-49650000D03*
X182000000Y-49650000D03*
X183700000Y-49650000D03*
X183700000Y-44850000D03*
X182000000Y-44850000D03*
X180300000Y-44850000D03*
X177300000Y-63100000D03*
X179000000Y-63100000D03*
X180700000Y-63100000D03*
X180700000Y-67900000D03*
X179000000Y-67900000D03*
X177300000Y-67900000D03*
X174300000Y-49650000D03*
X176000000Y-49650000D03*
X177700000Y-49650000D03*
X177700000Y-44850000D03*
X176000000Y-44850000D03*
X174300000Y-44850000D03*
X171300000Y-63100000D03*
X173000000Y-63100000D03*
X174700000Y-63100000D03*
X174700000Y-67900000D03*
X173000000Y-67900000D03*
X171300000Y-67900000D03*
X168300000Y-49650000D03*
X170000000Y-49650000D03*
X171700000Y-49650000D03*
X171700000Y-44850000D03*
X170000000Y-44850000D03*
X168300000Y-44850000D03*
X165300000Y-63100000D03*
X167000000Y-63100000D03*
X168700000Y-63100000D03*
X168700000Y-67900000D03*
X167000000Y-67900000D03*
X165300000Y-67900000D03*
X159300000Y-67900000D03*
X161000000Y-67900000D03*
X162700000Y-67900000D03*
X162700000Y-63100000D03*
X161000000Y-63100000D03*
X159300000Y-63100000D03*
X156300000Y-44850000D03*
X158000000Y-44850000D03*
X159700000Y-44850000D03*
X159700000Y-49650000D03*
X158000000Y-49650000D03*
X156300000Y-49650000D03*
X153300000Y-67900000D03*
X155000000Y-67900000D03*
X156700000Y-67900000D03*
X156700000Y-63100000D03*
X155000000Y-63100000D03*
X153300000Y-63100000D03*
X150300000Y-44850000D03*
X152000000Y-44850000D03*
X153700000Y-44850000D03*
X153700000Y-49650000D03*
X152000000Y-49650000D03*
X150300000Y-49650000D03*
X147300000Y-67900000D03*
X149000000Y-67900000D03*
X150700000Y-67900000D03*
X150700000Y-63100000D03*
X149000000Y-63100000D03*
X147300000Y-63100000D03*
X141300000Y-63100000D03*
X143000000Y-63100000D03*
X144700000Y-63100000D03*
X144700000Y-67900000D03*
X143000000Y-67900000D03*
X141300000Y-67900000D03*
X138300000Y-49650000D03*
X140000000Y-49650000D03*
X141700000Y-49650000D03*
X141700000Y-44850000D03*
X140000000Y-44850000D03*
X138300000Y-44850000D03*
X135300000Y-63100000D03*
X137000000Y-63100000D03*
X138700000Y-63100000D03*
X138700000Y-67900000D03*
X137000000Y-67900000D03*
X135300000Y-67900000D03*
X132300000Y-49650000D03*
X134000000Y-49650000D03*
X135700000Y-49650000D03*
X135700000Y-44850000D03*
X134000000Y-44850000D03*
X132300000Y-44850000D03*
X129300000Y-63100000D03*
X131000000Y-63100000D03*
X132700000Y-63100000D03*
X132700000Y-67900000D03*
X131000000Y-67900000D03*
X129300000Y-67900000D03*
X126300000Y-49650000D03*
X128000000Y-49650000D03*
X129700000Y-49650000D03*
X129700000Y-44850000D03*
X128000000Y-44850000D03*
X126300000Y-44850000D03*
X123300000Y-67900000D03*
X125000000Y-67900000D03*
X126700000Y-67900000D03*
X126700000Y-63100000D03*
X125000000Y-63100000D03*
X123300000Y-63100000D03*
X117300000Y-63100000D03*
X119000000Y-63100000D03*
X120700000Y-63100000D03*
X120700000Y-67900000D03*
X119000000Y-67900000D03*
X117300000Y-67900000D03*
X114300000Y-49650000D03*
X116000000Y-49650000D03*
X117700000Y-49650000D03*
X117700000Y-44850000D03*
X116000000Y-44850000D03*
X114300000Y-44850000D03*
X111300000Y-63100000D03*
X113000000Y-63100000D03*
X114700000Y-63100000D03*
X114700000Y-67900000D03*
X113000000Y-67900000D03*
X111300000Y-67900000D03*
X108300000Y-49650000D03*
X110000000Y-49650000D03*
X111700000Y-49650000D03*
X111700000Y-44850000D03*
X110000000Y-44850000D03*
X108300000Y-44850000D03*
X105300000Y-63100000D03*
X107000000Y-63100000D03*
X108700000Y-63100000D03*
X108700000Y-67900000D03*
X107000000Y-67900000D03*
X105300000Y-67900000D03*
X99300000Y-67900000D03*
X101000000Y-67900000D03*
X102700000Y-67900000D03*
X102700000Y-63100000D03*
X101000000Y-63100000D03*
X99300000Y-63100000D03*
X96300000Y-44850000D03*
X98000000Y-44850000D03*
X99700000Y-44850000D03*
X99700000Y-49650000D03*
X98000000Y-49650000D03*
X96300000Y-49650000D03*
X93300000Y-67900000D03*
X95000000Y-67900000D03*
X96700000Y-67900000D03*
X96700000Y-63100000D03*
X95000000Y-63100000D03*
X93300000Y-63100000D03*
X90300000Y-44850000D03*
X92000000Y-44850000D03*
X93700000Y-44850000D03*
X93700000Y-49650000D03*
X92000000Y-49650000D03*
X90300000Y-49650000D03*
X87300000Y-63100000D03*
X89000000Y-63100000D03*
X90700000Y-63100000D03*
X90700000Y-67900000D03*
X89000000Y-67900000D03*
X87300000Y-67900000D03*
X84300000Y-44850000D03*
X86000000Y-44850000D03*
X87700000Y-44850000D03*
X87700000Y-49650000D03*
X86000000Y-49650000D03*
X84300000Y-49650000D03*
X81300000Y-67900000D03*
X83000000Y-67900000D03*
X84700000Y-67900000D03*
X84700000Y-63100000D03*
X83000000Y-63100000D03*
X81300000Y-63100000D03*
X75300000Y-63100000D03*
X77000000Y-63100000D03*
X78700000Y-63100000D03*
X78700000Y-67900000D03*
X77000000Y-67900000D03*
X75300000Y-67900000D03*
X72300000Y-49650000D03*
X74000000Y-49650000D03*
X75700000Y-49650000D03*
X75700000Y-44850000D03*
X74000000Y-44850000D03*
X72300000Y-44850000D03*
X69300000Y-63100000D03*
X71000000Y-63100000D03*
X72700000Y-63100000D03*
X72700000Y-67900000D03*
X71000000Y-67900000D03*
X69300000Y-67900000D03*
X66300000Y-49650000D03*
X68000000Y-49650000D03*
X69700000Y-49650000D03*
X69700000Y-44850000D03*
X68000000Y-44850000D03*
X66300000Y-44850000D03*
X63300000Y-63100000D03*
X65000000Y-63100000D03*
X66700000Y-63100000D03*
X66700000Y-67900000D03*
X65000000Y-67900000D03*
X63300000Y-67900000D03*
X57300000Y-67900000D03*
X59000000Y-67900000D03*
X60700000Y-67900000D03*
X60700000Y-63100000D03*
X59000000Y-63100000D03*
X57300000Y-63100000D03*
X54300000Y-44850000D03*
X56000000Y-44850000D03*
X57700000Y-44850000D03*
X57700000Y-49650000D03*
X56000000Y-49650000D03*
X54300000Y-49650000D03*
X51300000Y-67900000D03*
X53000000Y-67900000D03*
X54700000Y-67900000D03*
X54700000Y-63100000D03*
X53000000Y-63100000D03*
X51300000Y-63100000D03*
M02*
