G04 #@! TF.GenerationSoftware,KiCad,Pcbnew,(5.1.5)-3*
G04 #@! TF.CreationDate,2020-04-14T19:59:01+09:00*
G04 #@! TF.ProjectId,APA102_MENZUKE5_base,41504131-3032-45f4-9d45-4e5a554b4535,rev?*
G04 #@! TF.SameCoordinates,Original*
G04 #@! TF.FileFunction,Other,ECO1*
%FSLAX46Y46*%
G04 Gerber Fmt 4.6, Leading zero omitted, Abs format (unit mm)*
G04 Created by KiCad (PCBNEW (5.1.5)-3) date 2020-04-14 19:59:01*
%MOMM*%
%LPD*%
G04 APERTURE LIST*
%ADD10C,0.120000*%
G04 APERTURE END LIST*
D10*
X55700000Y-191000000D02*
X55700000Y-196000000D01*
X51400000Y-197100000D02*
X50300000Y-197100000D01*
X50300000Y-197100000D02*
X50300000Y-191000000D01*
X55700000Y-159000000D02*
X55700000Y-164000000D01*
X51400000Y-165100000D02*
X50300000Y-165100000D01*
X50300000Y-165100000D02*
X50300000Y-159000000D01*
X55700000Y-127000000D02*
X55700000Y-132000000D01*
X51400000Y-133100000D02*
X50300000Y-133100000D01*
X50300000Y-133100000D02*
X50300000Y-127000000D01*
X55700000Y-95000000D02*
X55700000Y-100000000D01*
X51400000Y-101100000D02*
X50300000Y-101100000D01*
X50300000Y-101100000D02*
X50300000Y-95000000D01*
X61700000Y-191000000D02*
X61700000Y-196000000D01*
X57400000Y-197100000D02*
X56300000Y-197100000D01*
X56300000Y-197100000D02*
X56300000Y-191000000D01*
X61700000Y-159000000D02*
X61700000Y-164000000D01*
X57400000Y-165100000D02*
X56300000Y-165100000D01*
X56300000Y-165100000D02*
X56300000Y-159000000D01*
X61700000Y-127000000D02*
X61700000Y-132000000D01*
X57400000Y-133100000D02*
X56300000Y-133100000D01*
X56300000Y-133100000D02*
X56300000Y-127000000D01*
X61700000Y-95000000D02*
X61700000Y-100000000D01*
X57400000Y-101100000D02*
X56300000Y-101100000D01*
X56300000Y-101100000D02*
X56300000Y-95000000D01*
X70700000Y-172750000D02*
X70700000Y-177750000D01*
X66400000Y-178850000D02*
X65300000Y-178850000D01*
X65300000Y-178850000D02*
X65300000Y-172750000D01*
X70700000Y-140750000D02*
X70700000Y-145750000D01*
X66400000Y-146850000D02*
X65300000Y-146850000D01*
X65300000Y-146850000D02*
X65300000Y-140750000D01*
X70700000Y-108750000D02*
X70700000Y-113750000D01*
X66400000Y-114850000D02*
X65300000Y-114850000D01*
X65300000Y-114850000D02*
X65300000Y-108750000D01*
X70700000Y-76750000D02*
X70700000Y-81750000D01*
X66400000Y-82850000D02*
X65300000Y-82850000D01*
X65300000Y-82850000D02*
X65300000Y-76750000D01*
X85700000Y-191000000D02*
X85700000Y-196000000D01*
X81400000Y-197100000D02*
X80300000Y-197100000D01*
X80300000Y-197100000D02*
X80300000Y-191000000D01*
X85700000Y-159000000D02*
X85700000Y-164000000D01*
X81400000Y-165100000D02*
X80300000Y-165100000D01*
X80300000Y-165100000D02*
X80300000Y-159000000D01*
X85700000Y-127000000D02*
X85700000Y-132000000D01*
X81400000Y-133100000D02*
X80300000Y-133100000D01*
X80300000Y-133100000D02*
X80300000Y-127000000D01*
X85700000Y-95000000D02*
X85700000Y-100000000D01*
X81400000Y-101100000D02*
X80300000Y-101100000D01*
X80300000Y-101100000D02*
X80300000Y-95000000D01*
X95300000Y-178850000D02*
X95300000Y-172750000D01*
X96400000Y-178850000D02*
X95300000Y-178850000D01*
X100700000Y-172750000D02*
X100700000Y-177750000D01*
X95300000Y-146850000D02*
X95300000Y-140750000D01*
X96400000Y-146850000D02*
X95300000Y-146850000D01*
X100700000Y-140750000D02*
X100700000Y-145750000D01*
X95300000Y-114850000D02*
X95300000Y-108750000D01*
X96400000Y-114850000D02*
X95300000Y-114850000D01*
X100700000Y-108750000D02*
X100700000Y-113750000D01*
X95300000Y-82850000D02*
X95300000Y-76750000D01*
X96400000Y-82850000D02*
X95300000Y-82850000D01*
X100700000Y-76750000D02*
X100700000Y-81750000D01*
X110300000Y-197100000D02*
X110300000Y-191000000D01*
X111400000Y-197100000D02*
X110300000Y-197100000D01*
X115700000Y-191000000D02*
X115700000Y-196000000D01*
X110300000Y-165100000D02*
X110300000Y-159000000D01*
X111400000Y-165100000D02*
X110300000Y-165100000D01*
X115700000Y-159000000D02*
X115700000Y-164000000D01*
X110300000Y-133100000D02*
X110300000Y-127000000D01*
X111400000Y-133100000D02*
X110300000Y-133100000D01*
X115700000Y-127000000D02*
X115700000Y-132000000D01*
X110300000Y-101100000D02*
X110300000Y-95000000D01*
X111400000Y-101100000D02*
X110300000Y-101100000D01*
X115700000Y-95000000D02*
X115700000Y-100000000D01*
X142700000Y-172750000D02*
X142700000Y-177750000D01*
X138400000Y-178850000D02*
X137300000Y-178850000D01*
X137300000Y-178850000D02*
X137300000Y-172750000D01*
X142700000Y-140750000D02*
X142700000Y-145750000D01*
X138400000Y-146850000D02*
X137300000Y-146850000D01*
X137300000Y-146850000D02*
X137300000Y-140750000D01*
X142700000Y-108750000D02*
X142700000Y-113750000D01*
X138400000Y-114850000D02*
X137300000Y-114850000D01*
X137300000Y-114850000D02*
X137300000Y-108750000D01*
X142700000Y-76750000D02*
X142700000Y-81750000D01*
X138400000Y-82850000D02*
X137300000Y-82850000D01*
X137300000Y-82850000D02*
X137300000Y-76750000D01*
X172700000Y-172750000D02*
X172700000Y-177750000D01*
X168400000Y-178850000D02*
X167300000Y-178850000D01*
X167300000Y-178850000D02*
X167300000Y-172750000D01*
X172700000Y-140750000D02*
X172700000Y-145750000D01*
X168400000Y-146850000D02*
X167300000Y-146850000D01*
X167300000Y-146850000D02*
X167300000Y-140750000D01*
X172700000Y-108750000D02*
X172700000Y-113750000D01*
X168400000Y-114850000D02*
X167300000Y-114850000D01*
X167300000Y-114850000D02*
X167300000Y-108750000D01*
X172700000Y-76750000D02*
X172700000Y-81750000D01*
X168400000Y-82850000D02*
X167300000Y-82850000D01*
X167300000Y-82850000D02*
X167300000Y-76750000D01*
X176300000Y-197100000D02*
X176300000Y-191000000D01*
X177400000Y-197100000D02*
X176300000Y-197100000D01*
X181700000Y-191000000D02*
X181700000Y-196000000D01*
X176300000Y-165100000D02*
X176300000Y-159000000D01*
X177400000Y-165100000D02*
X176300000Y-165100000D01*
X181700000Y-159000000D02*
X181700000Y-164000000D01*
X176300000Y-133100000D02*
X176300000Y-127000000D01*
X177400000Y-133100000D02*
X176300000Y-133100000D01*
X181700000Y-127000000D02*
X181700000Y-132000000D01*
X176300000Y-101100000D02*
X176300000Y-95000000D01*
X177400000Y-101100000D02*
X176300000Y-101100000D01*
X181700000Y-95000000D02*
X181700000Y-100000000D01*
X149300000Y-178850000D02*
X149300000Y-172750000D01*
X150400000Y-178850000D02*
X149300000Y-178850000D01*
X154700000Y-172750000D02*
X154700000Y-177750000D01*
X149300000Y-146850000D02*
X149300000Y-140750000D01*
X150400000Y-146850000D02*
X149300000Y-146850000D01*
X154700000Y-140750000D02*
X154700000Y-145750000D01*
X149300000Y-114850000D02*
X149300000Y-108750000D01*
X150400000Y-114850000D02*
X149300000Y-114850000D01*
X154700000Y-108750000D02*
X154700000Y-113750000D01*
X149300000Y-82850000D02*
X149300000Y-76750000D01*
X150400000Y-82850000D02*
X149300000Y-82850000D01*
X154700000Y-76750000D02*
X154700000Y-81750000D01*
X155300000Y-178850000D02*
X155300000Y-172750000D01*
X156400000Y-178850000D02*
X155300000Y-178850000D01*
X160700000Y-172750000D02*
X160700000Y-177750000D01*
X155300000Y-146850000D02*
X155300000Y-140750000D01*
X156400000Y-146850000D02*
X155300000Y-146850000D01*
X160700000Y-140750000D02*
X160700000Y-145750000D01*
X155300000Y-114850000D02*
X155300000Y-108750000D01*
X156400000Y-114850000D02*
X155300000Y-114850000D01*
X160700000Y-108750000D02*
X160700000Y-113750000D01*
X155300000Y-82850000D02*
X155300000Y-76750000D01*
X156400000Y-82850000D02*
X155300000Y-82850000D01*
X160700000Y-76750000D02*
X160700000Y-81750000D01*
X53300000Y-178850000D02*
X53300000Y-172750000D01*
X54400000Y-178850000D02*
X53300000Y-178850000D01*
X58700000Y-172750000D02*
X58700000Y-177750000D01*
X53300000Y-146850000D02*
X53300000Y-140750000D01*
X54400000Y-146850000D02*
X53300000Y-146850000D01*
X58700000Y-140750000D02*
X58700000Y-145750000D01*
X53300000Y-114850000D02*
X53300000Y-108750000D01*
X54400000Y-114850000D02*
X53300000Y-114850000D01*
X58700000Y-108750000D02*
X58700000Y-113750000D01*
X53300000Y-82850000D02*
X53300000Y-76750000D01*
X54400000Y-82850000D02*
X53300000Y-82850000D01*
X58700000Y-76750000D02*
X58700000Y-81750000D01*
X62300000Y-197100000D02*
X62300000Y-191000000D01*
X63400000Y-197100000D02*
X62300000Y-197100000D01*
X67700000Y-191000000D02*
X67700000Y-196000000D01*
X62300000Y-165100000D02*
X62300000Y-159000000D01*
X63400000Y-165100000D02*
X62300000Y-165100000D01*
X67700000Y-159000000D02*
X67700000Y-164000000D01*
X62300000Y-133100000D02*
X62300000Y-127000000D01*
X63400000Y-133100000D02*
X62300000Y-133100000D01*
X67700000Y-127000000D02*
X67700000Y-132000000D01*
X62300000Y-101100000D02*
X62300000Y-95000000D01*
X63400000Y-101100000D02*
X62300000Y-101100000D01*
X67700000Y-95000000D02*
X67700000Y-100000000D01*
X86300000Y-197100000D02*
X86300000Y-191000000D01*
X87400000Y-197100000D02*
X86300000Y-197100000D01*
X91700000Y-191000000D02*
X91700000Y-196000000D01*
X86300000Y-165100000D02*
X86300000Y-159000000D01*
X87400000Y-165100000D02*
X86300000Y-165100000D01*
X91700000Y-159000000D02*
X91700000Y-164000000D01*
X86300000Y-133100000D02*
X86300000Y-127000000D01*
X87400000Y-133100000D02*
X86300000Y-133100000D01*
X91700000Y-127000000D02*
X91700000Y-132000000D01*
X86300000Y-101100000D02*
X86300000Y-95000000D01*
X87400000Y-101100000D02*
X86300000Y-101100000D01*
X91700000Y-95000000D02*
X91700000Y-100000000D01*
X112700000Y-172750000D02*
X112700000Y-177750000D01*
X108400000Y-178850000D02*
X107300000Y-178850000D01*
X107300000Y-178850000D02*
X107300000Y-172750000D01*
X112700000Y-140750000D02*
X112700000Y-145750000D01*
X108400000Y-146850000D02*
X107300000Y-146850000D01*
X107300000Y-146850000D02*
X107300000Y-140750000D01*
X112700000Y-108750000D02*
X112700000Y-113750000D01*
X108400000Y-114850000D02*
X107300000Y-114850000D01*
X107300000Y-114850000D02*
X107300000Y-108750000D01*
X112700000Y-76750000D02*
X112700000Y-81750000D01*
X108400000Y-82850000D02*
X107300000Y-82850000D01*
X107300000Y-82850000D02*
X107300000Y-76750000D01*
X151700000Y-191000000D02*
X151700000Y-196000000D01*
X147400000Y-197100000D02*
X146300000Y-197100000D01*
X146300000Y-197100000D02*
X146300000Y-191000000D01*
X151700000Y-159000000D02*
X151700000Y-164000000D01*
X147400000Y-165100000D02*
X146300000Y-165100000D01*
X146300000Y-165100000D02*
X146300000Y-159000000D01*
X151700000Y-127000000D02*
X151700000Y-132000000D01*
X147400000Y-133100000D02*
X146300000Y-133100000D01*
X146300000Y-133100000D02*
X146300000Y-127000000D01*
X151700000Y-95000000D02*
X151700000Y-100000000D01*
X147400000Y-101100000D02*
X146300000Y-101100000D01*
X146300000Y-101100000D02*
X146300000Y-95000000D01*
X170300000Y-197100000D02*
X170300000Y-191000000D01*
X171400000Y-197100000D02*
X170300000Y-197100000D01*
X175700000Y-191000000D02*
X175700000Y-196000000D01*
X170300000Y-165100000D02*
X170300000Y-159000000D01*
X171400000Y-165100000D02*
X170300000Y-165100000D01*
X175700000Y-159000000D02*
X175700000Y-164000000D01*
X170300000Y-133100000D02*
X170300000Y-127000000D01*
X171400000Y-133100000D02*
X170300000Y-133100000D01*
X175700000Y-127000000D02*
X175700000Y-132000000D01*
X170300000Y-101100000D02*
X170300000Y-95000000D01*
X171400000Y-101100000D02*
X170300000Y-101100000D01*
X175700000Y-95000000D02*
X175700000Y-100000000D01*
X130700000Y-172750000D02*
X130700000Y-177750000D01*
X126400000Y-178850000D02*
X125300000Y-178850000D01*
X125300000Y-178850000D02*
X125300000Y-172750000D01*
X130700000Y-140750000D02*
X130700000Y-145750000D01*
X126400000Y-146850000D02*
X125300000Y-146850000D01*
X125300000Y-146850000D02*
X125300000Y-140750000D01*
X130700000Y-108750000D02*
X130700000Y-113750000D01*
X126400000Y-114850000D02*
X125300000Y-114850000D01*
X125300000Y-114850000D02*
X125300000Y-108750000D01*
X130700000Y-76750000D02*
X130700000Y-81750000D01*
X126400000Y-82850000D02*
X125300000Y-82850000D01*
X125300000Y-82850000D02*
X125300000Y-76750000D01*
X140300000Y-197100000D02*
X140300000Y-191000000D01*
X141400000Y-197100000D02*
X140300000Y-197100000D01*
X145700000Y-191000000D02*
X145700000Y-196000000D01*
X140300000Y-165100000D02*
X140300000Y-159000000D01*
X141400000Y-165100000D02*
X140300000Y-165100000D01*
X145700000Y-159000000D02*
X145700000Y-164000000D01*
X140300000Y-133100000D02*
X140300000Y-127000000D01*
X141400000Y-133100000D02*
X140300000Y-133100000D01*
X145700000Y-127000000D02*
X145700000Y-132000000D01*
X140300000Y-101100000D02*
X140300000Y-95000000D01*
X141400000Y-101100000D02*
X140300000Y-101100000D01*
X145700000Y-95000000D02*
X145700000Y-100000000D01*
X104300000Y-197100000D02*
X104300000Y-191000000D01*
X105400000Y-197100000D02*
X104300000Y-197100000D01*
X109700000Y-191000000D02*
X109700000Y-196000000D01*
X104300000Y-165100000D02*
X104300000Y-159000000D01*
X105400000Y-165100000D02*
X104300000Y-165100000D01*
X109700000Y-159000000D02*
X109700000Y-164000000D01*
X104300000Y-133100000D02*
X104300000Y-127000000D01*
X105400000Y-133100000D02*
X104300000Y-133100000D01*
X109700000Y-127000000D02*
X109700000Y-132000000D01*
X104300000Y-101100000D02*
X104300000Y-95000000D01*
X105400000Y-101100000D02*
X104300000Y-101100000D01*
X109700000Y-95000000D02*
X109700000Y-100000000D01*
X128300000Y-197100000D02*
X128300000Y-191000000D01*
X129400000Y-197100000D02*
X128300000Y-197100000D01*
X133700000Y-191000000D02*
X133700000Y-196000000D01*
X128300000Y-165100000D02*
X128300000Y-159000000D01*
X129400000Y-165100000D02*
X128300000Y-165100000D01*
X133700000Y-159000000D02*
X133700000Y-164000000D01*
X128300000Y-133100000D02*
X128300000Y-127000000D01*
X129400000Y-133100000D02*
X128300000Y-133100000D01*
X133700000Y-127000000D02*
X133700000Y-132000000D01*
X128300000Y-101100000D02*
X128300000Y-95000000D01*
X129400000Y-101100000D02*
X128300000Y-101100000D01*
X133700000Y-95000000D02*
X133700000Y-100000000D01*
X74300000Y-197100000D02*
X74300000Y-191000000D01*
X75400000Y-197100000D02*
X74300000Y-197100000D01*
X79700000Y-191000000D02*
X79700000Y-196000000D01*
X74300000Y-165100000D02*
X74300000Y-159000000D01*
X75400000Y-165100000D02*
X74300000Y-165100000D01*
X79700000Y-159000000D02*
X79700000Y-164000000D01*
X74300000Y-133100000D02*
X74300000Y-127000000D01*
X75400000Y-133100000D02*
X74300000Y-133100000D01*
X79700000Y-127000000D02*
X79700000Y-132000000D01*
X74300000Y-101100000D02*
X74300000Y-95000000D01*
X75400000Y-101100000D02*
X74300000Y-101100000D01*
X79700000Y-95000000D02*
X79700000Y-100000000D01*
X97700000Y-191000000D02*
X97700000Y-196000000D01*
X93400000Y-197100000D02*
X92300000Y-197100000D01*
X92300000Y-197100000D02*
X92300000Y-191000000D01*
X97700000Y-159000000D02*
X97700000Y-164000000D01*
X93400000Y-165100000D02*
X92300000Y-165100000D01*
X92300000Y-165100000D02*
X92300000Y-159000000D01*
X97700000Y-127000000D02*
X97700000Y-132000000D01*
X93400000Y-133100000D02*
X92300000Y-133100000D01*
X92300000Y-133100000D02*
X92300000Y-127000000D01*
X97700000Y-95000000D02*
X97700000Y-100000000D01*
X93400000Y-101100000D02*
X92300000Y-101100000D01*
X92300000Y-101100000D02*
X92300000Y-95000000D01*
X182300000Y-197100000D02*
X182300000Y-191000000D01*
X183400000Y-197100000D02*
X182300000Y-197100000D01*
X187700000Y-191000000D02*
X187700000Y-196000000D01*
X182300000Y-165100000D02*
X182300000Y-159000000D01*
X183400000Y-165100000D02*
X182300000Y-165100000D01*
X187700000Y-159000000D02*
X187700000Y-164000000D01*
X182300000Y-133100000D02*
X182300000Y-127000000D01*
X183400000Y-133100000D02*
X182300000Y-133100000D01*
X187700000Y-127000000D02*
X187700000Y-132000000D01*
X182300000Y-101100000D02*
X182300000Y-95000000D01*
X183400000Y-101100000D02*
X182300000Y-101100000D01*
X187700000Y-95000000D02*
X187700000Y-100000000D01*
X134300000Y-165100000D02*
X134300000Y-159000000D01*
X135400000Y-165100000D02*
X134300000Y-165100000D01*
X139700000Y-159000000D02*
X139700000Y-164000000D01*
X134300000Y-133100000D02*
X134300000Y-127000000D01*
X135400000Y-133100000D02*
X134300000Y-133100000D01*
X139700000Y-127000000D02*
X139700000Y-132000000D01*
X134300000Y-101100000D02*
X134300000Y-95000000D01*
X135400000Y-101100000D02*
X134300000Y-101100000D01*
X139700000Y-95000000D02*
X139700000Y-100000000D01*
X163700000Y-191000000D02*
X163700000Y-196000000D01*
X159400000Y-197100000D02*
X158300000Y-197100000D01*
X158300000Y-197100000D02*
X158300000Y-191000000D01*
X163700000Y-159000000D02*
X163700000Y-164000000D01*
X159400000Y-165100000D02*
X158300000Y-165100000D01*
X158300000Y-165100000D02*
X158300000Y-159000000D01*
X163700000Y-127000000D02*
X163700000Y-132000000D01*
X159400000Y-133100000D02*
X158300000Y-133100000D01*
X158300000Y-133100000D02*
X158300000Y-127000000D01*
X163700000Y-95000000D02*
X163700000Y-100000000D01*
X159400000Y-101100000D02*
X158300000Y-101100000D01*
X158300000Y-101100000D02*
X158300000Y-95000000D01*
X164300000Y-197100000D02*
X164300000Y-191000000D01*
X165400000Y-197100000D02*
X164300000Y-197100000D01*
X169700000Y-191000000D02*
X169700000Y-196000000D01*
X164300000Y-165100000D02*
X164300000Y-159000000D01*
X165400000Y-165100000D02*
X164300000Y-165100000D01*
X169700000Y-159000000D02*
X169700000Y-164000000D01*
X164300000Y-133100000D02*
X164300000Y-127000000D01*
X165400000Y-133100000D02*
X164300000Y-133100000D01*
X169700000Y-127000000D02*
X169700000Y-132000000D01*
X164300000Y-101100000D02*
X164300000Y-95000000D01*
X165400000Y-101100000D02*
X164300000Y-101100000D01*
X169700000Y-95000000D02*
X169700000Y-100000000D01*
X178700000Y-172750000D02*
X178700000Y-177750000D01*
X174400000Y-178850000D02*
X173300000Y-178850000D01*
X173300000Y-178850000D02*
X173300000Y-172750000D01*
X178700000Y-140750000D02*
X178700000Y-145750000D01*
X174400000Y-146850000D02*
X173300000Y-146850000D01*
X173300000Y-146850000D02*
X173300000Y-140750000D01*
X178700000Y-108750000D02*
X178700000Y-113750000D01*
X174400000Y-114850000D02*
X173300000Y-114850000D01*
X173300000Y-114850000D02*
X173300000Y-108750000D01*
X178700000Y-76750000D02*
X178700000Y-81750000D01*
X174400000Y-82850000D02*
X173300000Y-82850000D01*
X173300000Y-82850000D02*
X173300000Y-76750000D01*
X118700000Y-172750000D02*
X118700000Y-177750000D01*
X114400000Y-178850000D02*
X113300000Y-178850000D01*
X113300000Y-178850000D02*
X113300000Y-172750000D01*
X118700000Y-140750000D02*
X118700000Y-145750000D01*
X114400000Y-146850000D02*
X113300000Y-146850000D01*
X113300000Y-146850000D02*
X113300000Y-140750000D01*
X118700000Y-108750000D02*
X118700000Y-113750000D01*
X114400000Y-114850000D02*
X113300000Y-114850000D01*
X113300000Y-114850000D02*
X113300000Y-108750000D01*
X118700000Y-76750000D02*
X118700000Y-81750000D01*
X114400000Y-82850000D02*
X113300000Y-82850000D01*
X113300000Y-82850000D02*
X113300000Y-76750000D01*
X184700000Y-172750000D02*
X184700000Y-177750000D01*
X180400000Y-178850000D02*
X179300000Y-178850000D01*
X179300000Y-178850000D02*
X179300000Y-172750000D01*
X184700000Y-140750000D02*
X184700000Y-145750000D01*
X180400000Y-146850000D02*
X179300000Y-146850000D01*
X179300000Y-146850000D02*
X179300000Y-140750000D01*
X184700000Y-108750000D02*
X184700000Y-113750000D01*
X180400000Y-114850000D02*
X179300000Y-114850000D01*
X179300000Y-114850000D02*
X179300000Y-108750000D01*
X184700000Y-76750000D02*
X184700000Y-81750000D01*
X180400000Y-82850000D02*
X179300000Y-82850000D01*
X179300000Y-82850000D02*
X179300000Y-76750000D01*
X76700000Y-172750000D02*
X76700000Y-177750000D01*
X72400000Y-178850000D02*
X71300000Y-178850000D01*
X71300000Y-178850000D02*
X71300000Y-172750000D01*
X76700000Y-140750000D02*
X76700000Y-145750000D01*
X72400000Y-146850000D02*
X71300000Y-146850000D01*
X71300000Y-146850000D02*
X71300000Y-140750000D01*
X76700000Y-108750000D02*
X76700000Y-113750000D01*
X72400000Y-114850000D02*
X71300000Y-114850000D01*
X71300000Y-114850000D02*
X71300000Y-108750000D01*
X76700000Y-76750000D02*
X76700000Y-81750000D01*
X72400000Y-82850000D02*
X71300000Y-82850000D01*
X71300000Y-82850000D02*
X71300000Y-76750000D01*
X83300000Y-178850000D02*
X83300000Y-172750000D01*
X84400000Y-178850000D02*
X83300000Y-178850000D01*
X88700000Y-172750000D02*
X88700000Y-177750000D01*
X83300000Y-146850000D02*
X83300000Y-140750000D01*
X84400000Y-146850000D02*
X83300000Y-146850000D01*
X88700000Y-140750000D02*
X88700000Y-145750000D01*
X83300000Y-114850000D02*
X83300000Y-108750000D01*
X84400000Y-114850000D02*
X83300000Y-114850000D01*
X88700000Y-108750000D02*
X88700000Y-113750000D01*
X83300000Y-82850000D02*
X83300000Y-76750000D01*
X84400000Y-82850000D02*
X83300000Y-82850000D01*
X88700000Y-76750000D02*
X88700000Y-81750000D01*
X89300000Y-178850000D02*
X89300000Y-172750000D01*
X90400000Y-178850000D02*
X89300000Y-178850000D01*
X94700000Y-172750000D02*
X94700000Y-177750000D01*
X89300000Y-146850000D02*
X89300000Y-140750000D01*
X90400000Y-146850000D02*
X89300000Y-146850000D01*
X94700000Y-140750000D02*
X94700000Y-145750000D01*
X89300000Y-114850000D02*
X89300000Y-108750000D01*
X90400000Y-114850000D02*
X89300000Y-114850000D01*
X94700000Y-108750000D02*
X94700000Y-113750000D01*
X89300000Y-82850000D02*
X89300000Y-76750000D01*
X90400000Y-82850000D02*
X89300000Y-82850000D01*
X94700000Y-76750000D02*
X94700000Y-81750000D01*
X136700000Y-172750000D02*
X136700000Y-177750000D01*
X132400000Y-178850000D02*
X131300000Y-178850000D01*
X131300000Y-178850000D02*
X131300000Y-172750000D01*
X136700000Y-140750000D02*
X136700000Y-145750000D01*
X132400000Y-146850000D02*
X131300000Y-146850000D01*
X131300000Y-146850000D02*
X131300000Y-140750000D01*
X136700000Y-108750000D02*
X136700000Y-113750000D01*
X132400000Y-114850000D02*
X131300000Y-114850000D01*
X131300000Y-114850000D02*
X131300000Y-108750000D01*
X136700000Y-76750000D02*
X136700000Y-81750000D01*
X132400000Y-82850000D02*
X131300000Y-82850000D01*
X131300000Y-82850000D02*
X131300000Y-76750000D01*
X157700000Y-191000000D02*
X157700000Y-196000000D01*
X153400000Y-197100000D02*
X152300000Y-197100000D01*
X152300000Y-197100000D02*
X152300000Y-191000000D01*
X157700000Y-159000000D02*
X157700000Y-164000000D01*
X153400000Y-165100000D02*
X152300000Y-165100000D01*
X152300000Y-165100000D02*
X152300000Y-159000000D01*
X157700000Y-127000000D02*
X157700000Y-132000000D01*
X153400000Y-133100000D02*
X152300000Y-133100000D01*
X152300000Y-133100000D02*
X152300000Y-127000000D01*
X157700000Y-95000000D02*
X157700000Y-100000000D01*
X153400000Y-101100000D02*
X152300000Y-101100000D01*
X152300000Y-101100000D02*
X152300000Y-95000000D01*
X103700000Y-191000000D02*
X103700000Y-196000000D01*
X99400000Y-197100000D02*
X98300000Y-197100000D01*
X98300000Y-197100000D02*
X98300000Y-191000000D01*
X103700000Y-159000000D02*
X103700000Y-164000000D01*
X99400000Y-165100000D02*
X98300000Y-165100000D01*
X98300000Y-165100000D02*
X98300000Y-159000000D01*
X103700000Y-127000000D02*
X103700000Y-132000000D01*
X99400000Y-133100000D02*
X98300000Y-133100000D01*
X98300000Y-133100000D02*
X98300000Y-127000000D01*
X103700000Y-95000000D02*
X103700000Y-100000000D01*
X99400000Y-101100000D02*
X98300000Y-101100000D01*
X98300000Y-101100000D02*
X98300000Y-95000000D01*
X68300000Y-197100000D02*
X68300000Y-191000000D01*
X69400000Y-197100000D02*
X68300000Y-197100000D01*
X73700000Y-191000000D02*
X73700000Y-196000000D01*
X68300000Y-165100000D02*
X68300000Y-159000000D01*
X69400000Y-165100000D02*
X68300000Y-165100000D01*
X73700000Y-159000000D02*
X73700000Y-164000000D01*
X68300000Y-133100000D02*
X68300000Y-127000000D01*
X69400000Y-133100000D02*
X68300000Y-133100000D01*
X73700000Y-127000000D02*
X73700000Y-132000000D01*
X68300000Y-101100000D02*
X68300000Y-95000000D01*
X69400000Y-101100000D02*
X68300000Y-101100000D01*
X73700000Y-95000000D02*
X73700000Y-100000000D01*
X127700000Y-191000000D02*
X127700000Y-196000000D01*
X123400000Y-197100000D02*
X122300000Y-197100000D01*
X122300000Y-197100000D02*
X122300000Y-191000000D01*
X127700000Y-159000000D02*
X127700000Y-164000000D01*
X123400000Y-165100000D02*
X122300000Y-165100000D01*
X122300000Y-165100000D02*
X122300000Y-159000000D01*
X127700000Y-127000000D02*
X127700000Y-132000000D01*
X123400000Y-133100000D02*
X122300000Y-133100000D01*
X122300000Y-133100000D02*
X122300000Y-127000000D01*
X127700000Y-95000000D02*
X127700000Y-100000000D01*
X123400000Y-101100000D02*
X122300000Y-101100000D01*
X122300000Y-101100000D02*
X122300000Y-95000000D01*
X116300000Y-197100000D02*
X116300000Y-191000000D01*
X117400000Y-197100000D02*
X116300000Y-197100000D01*
X121700000Y-191000000D02*
X121700000Y-196000000D01*
X116300000Y-165100000D02*
X116300000Y-159000000D01*
X117400000Y-165100000D02*
X116300000Y-165100000D01*
X121700000Y-159000000D02*
X121700000Y-164000000D01*
X116300000Y-133100000D02*
X116300000Y-127000000D01*
X117400000Y-133100000D02*
X116300000Y-133100000D01*
X121700000Y-127000000D02*
X121700000Y-132000000D01*
X116300000Y-101100000D02*
X116300000Y-95000000D01*
X117400000Y-101100000D02*
X116300000Y-101100000D01*
X121700000Y-95000000D02*
X121700000Y-100000000D01*
X193700000Y-191000000D02*
X193700000Y-196000000D01*
X189400000Y-197100000D02*
X188300000Y-197100000D01*
X188300000Y-197100000D02*
X188300000Y-191000000D01*
X193700000Y-159000000D02*
X193700000Y-164000000D01*
X189400000Y-165100000D02*
X188300000Y-165100000D01*
X188300000Y-165100000D02*
X188300000Y-159000000D01*
X193700000Y-127000000D02*
X193700000Y-132000000D01*
X189400000Y-133100000D02*
X188300000Y-133100000D01*
X188300000Y-133100000D02*
X188300000Y-127000000D01*
X193700000Y-95000000D02*
X193700000Y-100000000D01*
X189400000Y-101100000D02*
X188300000Y-101100000D01*
X188300000Y-101100000D02*
X188300000Y-95000000D01*
X235700000Y-191000000D02*
X235700000Y-196000000D01*
X231400000Y-197100000D02*
X230300000Y-197100000D01*
X230300000Y-197100000D02*
X230300000Y-191000000D01*
X235700000Y-159000000D02*
X235700000Y-164000000D01*
X231400000Y-165100000D02*
X230300000Y-165100000D01*
X230300000Y-165100000D02*
X230300000Y-159000000D01*
X235700000Y-127000000D02*
X235700000Y-132000000D01*
X231400000Y-133100000D02*
X230300000Y-133100000D01*
X230300000Y-133100000D02*
X230300000Y-127000000D01*
X235700000Y-95000000D02*
X235700000Y-100000000D01*
X231400000Y-101100000D02*
X230300000Y-101100000D01*
X230300000Y-101100000D02*
X230300000Y-95000000D01*
X191300000Y-178850000D02*
X191300000Y-172750000D01*
X192400000Y-178850000D02*
X191300000Y-178850000D01*
X196700000Y-172750000D02*
X196700000Y-177750000D01*
X191300000Y-146850000D02*
X191300000Y-140750000D01*
X192400000Y-146850000D02*
X191300000Y-146850000D01*
X196700000Y-140750000D02*
X196700000Y-145750000D01*
X191300000Y-114850000D02*
X191300000Y-108750000D01*
X192400000Y-114850000D02*
X191300000Y-114850000D01*
X196700000Y-108750000D02*
X196700000Y-113750000D01*
X191300000Y-82850000D02*
X191300000Y-76750000D01*
X192400000Y-82850000D02*
X191300000Y-82850000D01*
X196700000Y-76750000D02*
X196700000Y-81750000D01*
X241700000Y-191000000D02*
X241700000Y-196000000D01*
X237400000Y-197100000D02*
X236300000Y-197100000D01*
X236300000Y-197100000D02*
X236300000Y-191000000D01*
X241700000Y-159000000D02*
X241700000Y-164000000D01*
X237400000Y-165100000D02*
X236300000Y-165100000D01*
X236300000Y-165100000D02*
X236300000Y-159000000D01*
X241700000Y-127000000D02*
X241700000Y-132000000D01*
X237400000Y-133100000D02*
X236300000Y-133100000D01*
X236300000Y-133100000D02*
X236300000Y-127000000D01*
X241700000Y-95000000D02*
X241700000Y-100000000D01*
X237400000Y-101100000D02*
X236300000Y-101100000D01*
X236300000Y-101100000D02*
X236300000Y-95000000D01*
X199700000Y-191000000D02*
X199700000Y-196000000D01*
X195400000Y-197100000D02*
X194300000Y-197100000D01*
X194300000Y-197100000D02*
X194300000Y-191000000D01*
X199700000Y-159000000D02*
X199700000Y-164000000D01*
X195400000Y-165100000D02*
X194300000Y-165100000D01*
X194300000Y-165100000D02*
X194300000Y-159000000D01*
X199700000Y-127000000D02*
X199700000Y-132000000D01*
X195400000Y-133100000D02*
X194300000Y-133100000D01*
X194300000Y-133100000D02*
X194300000Y-127000000D01*
X199700000Y-95000000D02*
X199700000Y-100000000D01*
X195400000Y-101100000D02*
X194300000Y-101100000D01*
X194300000Y-101100000D02*
X194300000Y-95000000D01*
X197300000Y-178850000D02*
X197300000Y-172750000D01*
X198400000Y-178850000D02*
X197300000Y-178850000D01*
X202700000Y-172750000D02*
X202700000Y-177750000D01*
X197300000Y-146850000D02*
X197300000Y-140750000D01*
X198400000Y-146850000D02*
X197300000Y-146850000D01*
X202700000Y-140750000D02*
X202700000Y-145750000D01*
X197300000Y-114850000D02*
X197300000Y-108750000D01*
X198400000Y-114850000D02*
X197300000Y-114850000D01*
X202700000Y-108750000D02*
X202700000Y-113750000D01*
X197300000Y-82850000D02*
X197300000Y-76750000D01*
X198400000Y-82850000D02*
X197300000Y-82850000D01*
X202700000Y-76750000D02*
X202700000Y-81750000D01*
X205700000Y-191000000D02*
X205700000Y-196000000D01*
X201400000Y-197100000D02*
X200300000Y-197100000D01*
X200300000Y-197100000D02*
X200300000Y-191000000D01*
X205700000Y-159000000D02*
X205700000Y-164000000D01*
X201400000Y-165100000D02*
X200300000Y-165100000D01*
X200300000Y-165100000D02*
X200300000Y-159000000D01*
X205700000Y-127000000D02*
X205700000Y-132000000D01*
X201400000Y-133100000D02*
X200300000Y-133100000D01*
X200300000Y-133100000D02*
X200300000Y-127000000D01*
X205700000Y-95000000D02*
X205700000Y-100000000D01*
X201400000Y-101100000D02*
X200300000Y-101100000D01*
X200300000Y-101100000D02*
X200300000Y-95000000D01*
X211700000Y-191000000D02*
X211700000Y-196000000D01*
X207400000Y-197100000D02*
X206300000Y-197100000D01*
X206300000Y-197100000D02*
X206300000Y-191000000D01*
X211700000Y-159000000D02*
X211700000Y-164000000D01*
X207400000Y-165100000D02*
X206300000Y-165100000D01*
X206300000Y-165100000D02*
X206300000Y-159000000D01*
X211700000Y-127000000D02*
X211700000Y-132000000D01*
X207400000Y-133100000D02*
X206300000Y-133100000D01*
X206300000Y-133100000D02*
X206300000Y-127000000D01*
X211700000Y-95000000D02*
X211700000Y-100000000D01*
X207400000Y-101100000D02*
X206300000Y-101100000D01*
X206300000Y-101100000D02*
X206300000Y-95000000D01*
X214700000Y-172750000D02*
X214700000Y-177750000D01*
X210400000Y-178850000D02*
X209300000Y-178850000D01*
X209300000Y-178850000D02*
X209300000Y-172750000D01*
X214700000Y-140750000D02*
X214700000Y-145750000D01*
X210400000Y-146850000D02*
X209300000Y-146850000D01*
X209300000Y-146850000D02*
X209300000Y-140750000D01*
X214700000Y-108750000D02*
X214700000Y-113750000D01*
X210400000Y-114850000D02*
X209300000Y-114850000D01*
X209300000Y-114850000D02*
X209300000Y-108750000D01*
X214700000Y-76750000D02*
X214700000Y-81750000D01*
X210400000Y-82850000D02*
X209300000Y-82850000D01*
X209300000Y-82850000D02*
X209300000Y-76750000D01*
X239300000Y-178850000D02*
X239300000Y-172750000D01*
X240400000Y-178850000D02*
X239300000Y-178850000D01*
X244700000Y-172750000D02*
X244700000Y-177750000D01*
X239300000Y-146850000D02*
X239300000Y-140750000D01*
X240400000Y-146850000D02*
X239300000Y-146850000D01*
X244700000Y-140750000D02*
X244700000Y-145750000D01*
X239300000Y-114850000D02*
X239300000Y-108750000D01*
X240400000Y-114850000D02*
X239300000Y-114850000D01*
X244700000Y-108750000D02*
X244700000Y-113750000D01*
X239300000Y-82850000D02*
X239300000Y-76750000D01*
X240400000Y-82850000D02*
X239300000Y-82850000D01*
X244700000Y-76750000D02*
X244700000Y-81750000D01*
X212300000Y-197100000D02*
X212300000Y-191000000D01*
X213400000Y-197100000D02*
X212300000Y-197100000D01*
X217700000Y-191000000D02*
X217700000Y-196000000D01*
X212300000Y-165100000D02*
X212300000Y-159000000D01*
X213400000Y-165100000D02*
X212300000Y-165100000D01*
X217700000Y-159000000D02*
X217700000Y-164000000D01*
X212300000Y-133100000D02*
X212300000Y-127000000D01*
X213400000Y-133100000D02*
X212300000Y-133100000D01*
X217700000Y-127000000D02*
X217700000Y-132000000D01*
X212300000Y-101100000D02*
X212300000Y-95000000D01*
X213400000Y-101100000D02*
X212300000Y-101100000D01*
X217700000Y-95000000D02*
X217700000Y-100000000D01*
X248300000Y-197100000D02*
X248300000Y-191000000D01*
X249400000Y-197100000D02*
X248300000Y-197100000D01*
X253700000Y-191000000D02*
X253700000Y-196000000D01*
X248300000Y-165100000D02*
X248300000Y-159000000D01*
X249400000Y-165100000D02*
X248300000Y-165100000D01*
X253700000Y-159000000D02*
X253700000Y-164000000D01*
X248300000Y-133100000D02*
X248300000Y-127000000D01*
X249400000Y-133100000D02*
X248300000Y-133100000D01*
X253700000Y-127000000D02*
X253700000Y-132000000D01*
X248300000Y-101100000D02*
X248300000Y-95000000D01*
X249400000Y-101100000D02*
X248300000Y-101100000D01*
X253700000Y-95000000D02*
X253700000Y-100000000D01*
X220700000Y-172750000D02*
X220700000Y-177750000D01*
X216400000Y-178850000D02*
X215300000Y-178850000D01*
X215300000Y-178850000D02*
X215300000Y-172750000D01*
X220700000Y-140750000D02*
X220700000Y-145750000D01*
X216400000Y-146850000D02*
X215300000Y-146850000D01*
X215300000Y-146850000D02*
X215300000Y-140750000D01*
X220700000Y-108750000D02*
X220700000Y-113750000D01*
X216400000Y-114850000D02*
X215300000Y-114850000D01*
X215300000Y-114850000D02*
X215300000Y-108750000D01*
X220700000Y-76750000D02*
X220700000Y-81750000D01*
X216400000Y-82850000D02*
X215300000Y-82850000D01*
X215300000Y-82850000D02*
X215300000Y-76750000D01*
X224300000Y-197100000D02*
X224300000Y-191000000D01*
X225400000Y-197100000D02*
X224300000Y-197100000D01*
X229700000Y-191000000D02*
X229700000Y-196000000D01*
X224300000Y-165100000D02*
X224300000Y-159000000D01*
X225400000Y-165100000D02*
X224300000Y-165100000D01*
X229700000Y-159000000D02*
X229700000Y-164000000D01*
X224300000Y-133100000D02*
X224300000Y-127000000D01*
X225400000Y-133100000D02*
X224300000Y-133100000D01*
X229700000Y-127000000D02*
X229700000Y-132000000D01*
X224300000Y-101100000D02*
X224300000Y-95000000D01*
X225400000Y-101100000D02*
X224300000Y-101100000D01*
X229700000Y-95000000D02*
X229700000Y-100000000D01*
X218300000Y-197100000D02*
X218300000Y-191000000D01*
X219400000Y-197100000D02*
X218300000Y-197100000D01*
X223700000Y-191000000D02*
X223700000Y-196000000D01*
X218300000Y-165100000D02*
X218300000Y-159000000D01*
X219400000Y-165100000D02*
X218300000Y-165100000D01*
X223700000Y-159000000D02*
X223700000Y-164000000D01*
X218300000Y-133100000D02*
X218300000Y-127000000D01*
X219400000Y-133100000D02*
X218300000Y-133100000D01*
X223700000Y-127000000D02*
X223700000Y-132000000D01*
X218300000Y-101100000D02*
X218300000Y-95000000D01*
X219400000Y-101100000D02*
X218300000Y-101100000D01*
X223700000Y-95000000D02*
X223700000Y-100000000D01*
X226700000Y-172750000D02*
X226700000Y-177750000D01*
X222400000Y-178850000D02*
X221300000Y-178850000D01*
X221300000Y-178850000D02*
X221300000Y-172750000D01*
X226700000Y-140750000D02*
X226700000Y-145750000D01*
X222400000Y-146850000D02*
X221300000Y-146850000D01*
X221300000Y-146850000D02*
X221300000Y-140750000D01*
X226700000Y-108750000D02*
X226700000Y-113750000D01*
X222400000Y-114850000D02*
X221300000Y-114850000D01*
X221300000Y-114850000D02*
X221300000Y-108750000D01*
X226700000Y-76750000D02*
X226700000Y-81750000D01*
X222400000Y-82850000D02*
X221300000Y-82850000D01*
X221300000Y-82850000D02*
X221300000Y-76750000D01*
X233300000Y-178850000D02*
X233300000Y-172750000D01*
X234400000Y-178850000D02*
X233300000Y-178850000D01*
X238700000Y-172750000D02*
X238700000Y-177750000D01*
X233300000Y-146850000D02*
X233300000Y-140750000D01*
X234400000Y-146850000D02*
X233300000Y-146850000D01*
X238700000Y-140750000D02*
X238700000Y-145750000D01*
X233300000Y-114850000D02*
X233300000Y-108750000D01*
X234400000Y-114850000D02*
X233300000Y-114850000D01*
X238700000Y-108750000D02*
X238700000Y-113750000D01*
X233300000Y-82850000D02*
X233300000Y-76750000D01*
X234400000Y-82850000D02*
X233300000Y-82850000D01*
X238700000Y-76750000D02*
X238700000Y-81750000D01*
X256700000Y-172750000D02*
X256700000Y-177750000D01*
X252400000Y-178850000D02*
X251300000Y-178850000D01*
X251300000Y-178850000D02*
X251300000Y-172750000D01*
X256700000Y-140750000D02*
X256700000Y-145750000D01*
X252400000Y-146850000D02*
X251300000Y-146850000D01*
X251300000Y-146850000D02*
X251300000Y-140750000D01*
X256700000Y-108750000D02*
X256700000Y-113750000D01*
X252400000Y-114850000D02*
X251300000Y-114850000D01*
X251300000Y-114850000D02*
X251300000Y-108750000D01*
X256700000Y-76750000D02*
X256700000Y-81750000D01*
X252400000Y-82850000D02*
X251300000Y-82850000D01*
X251300000Y-82850000D02*
X251300000Y-76750000D01*
X242300000Y-197100000D02*
X242300000Y-191000000D01*
X243400000Y-197100000D02*
X242300000Y-197100000D01*
X247700000Y-191000000D02*
X247700000Y-196000000D01*
X242300000Y-165100000D02*
X242300000Y-159000000D01*
X243400000Y-165100000D02*
X242300000Y-165100000D01*
X247700000Y-159000000D02*
X247700000Y-164000000D01*
X242300000Y-133100000D02*
X242300000Y-127000000D01*
X243400000Y-133100000D02*
X242300000Y-133100000D01*
X247700000Y-127000000D02*
X247700000Y-132000000D01*
X242300000Y-101100000D02*
X242300000Y-95000000D01*
X243400000Y-101100000D02*
X242300000Y-101100000D01*
X247700000Y-95000000D02*
X247700000Y-100000000D01*
X260300000Y-197100000D02*
X260300000Y-191000000D01*
X261400000Y-197100000D02*
X260300000Y-197100000D01*
X265700000Y-191000000D02*
X265700000Y-196000000D01*
X260300000Y-165100000D02*
X260300000Y-159000000D01*
X261400000Y-165100000D02*
X260300000Y-165100000D01*
X265700000Y-159000000D02*
X265700000Y-164000000D01*
X260300000Y-133100000D02*
X260300000Y-127000000D01*
X261400000Y-133100000D02*
X260300000Y-133100000D01*
X265700000Y-127000000D02*
X265700000Y-132000000D01*
X260300000Y-101100000D02*
X260300000Y-95000000D01*
X261400000Y-101100000D02*
X260300000Y-101100000D01*
X265700000Y-95000000D02*
X265700000Y-100000000D01*
X266300000Y-197100000D02*
X266300000Y-191000000D01*
X267400000Y-197100000D02*
X266300000Y-197100000D01*
X271700000Y-191000000D02*
X271700000Y-196000000D01*
X266300000Y-165100000D02*
X266300000Y-159000000D01*
X267400000Y-165100000D02*
X266300000Y-165100000D01*
X271700000Y-159000000D02*
X271700000Y-164000000D01*
X266300000Y-133100000D02*
X266300000Y-127000000D01*
X267400000Y-133100000D02*
X266300000Y-133100000D01*
X271700000Y-127000000D02*
X271700000Y-132000000D01*
X266300000Y-101100000D02*
X266300000Y-95000000D01*
X267400000Y-101100000D02*
X266300000Y-101100000D01*
X271700000Y-95000000D02*
X271700000Y-100000000D01*
X277700000Y-191000000D02*
X277700000Y-196000000D01*
X273400000Y-197100000D02*
X272300000Y-197100000D01*
X272300000Y-197100000D02*
X272300000Y-191000000D01*
X277700000Y-159000000D02*
X277700000Y-164000000D01*
X273400000Y-165100000D02*
X272300000Y-165100000D01*
X272300000Y-165100000D02*
X272300000Y-159000000D01*
X277700000Y-127000000D02*
X277700000Y-132000000D01*
X273400000Y-133100000D02*
X272300000Y-133100000D01*
X272300000Y-133100000D02*
X272300000Y-127000000D01*
X277700000Y-95000000D02*
X277700000Y-100000000D01*
X273400000Y-101100000D02*
X272300000Y-101100000D01*
X272300000Y-101100000D02*
X272300000Y-95000000D01*
X283700000Y-191000000D02*
X283700000Y-196000000D01*
X279400000Y-197100000D02*
X278300000Y-197100000D01*
X278300000Y-197100000D02*
X278300000Y-191000000D01*
X283700000Y-159000000D02*
X283700000Y-164000000D01*
X279400000Y-165100000D02*
X278300000Y-165100000D01*
X278300000Y-165100000D02*
X278300000Y-159000000D01*
X283700000Y-127000000D02*
X283700000Y-132000000D01*
X279400000Y-133100000D02*
X278300000Y-133100000D01*
X278300000Y-133100000D02*
X278300000Y-127000000D01*
X283700000Y-95000000D02*
X283700000Y-100000000D01*
X279400000Y-101100000D02*
X278300000Y-101100000D01*
X278300000Y-101100000D02*
X278300000Y-95000000D01*
X295700000Y-191000000D02*
X295700000Y-196000000D01*
X291400000Y-197100000D02*
X290300000Y-197100000D01*
X290300000Y-197100000D02*
X290300000Y-191000000D01*
X295700000Y-159000000D02*
X295700000Y-164000000D01*
X291400000Y-165100000D02*
X290300000Y-165100000D01*
X290300000Y-165100000D02*
X290300000Y-159000000D01*
X295700000Y-127000000D02*
X295700000Y-132000000D01*
X291400000Y-133100000D02*
X290300000Y-133100000D01*
X290300000Y-133100000D02*
X290300000Y-127000000D01*
X295700000Y-95000000D02*
X295700000Y-100000000D01*
X291400000Y-101100000D02*
X290300000Y-101100000D01*
X290300000Y-101100000D02*
X290300000Y-95000000D01*
X305300000Y-179100000D02*
X305300000Y-173000000D01*
X306400000Y-179100000D02*
X305300000Y-179100000D01*
X310700000Y-173000000D02*
X310700000Y-178000000D01*
X305300000Y-147100000D02*
X305300000Y-141000000D01*
X306400000Y-147100000D02*
X305300000Y-147100000D01*
X310700000Y-141000000D02*
X310700000Y-146000000D01*
X305300000Y-115100000D02*
X305300000Y-109000000D01*
X306400000Y-115100000D02*
X305300000Y-115100000D01*
X310700000Y-109000000D02*
X310700000Y-114000000D01*
X305300000Y-83100000D02*
X305300000Y-77000000D01*
X306400000Y-83100000D02*
X305300000Y-83100000D01*
X310700000Y-77000000D02*
X310700000Y-82000000D01*
X341300000Y-179100000D02*
X341300000Y-173000000D01*
X342400000Y-179100000D02*
X341300000Y-179100000D01*
X346700000Y-173000000D02*
X346700000Y-178000000D01*
X341300000Y-147100000D02*
X341300000Y-141000000D01*
X342400000Y-147100000D02*
X341300000Y-147100000D01*
X346700000Y-141000000D02*
X346700000Y-146000000D01*
X341300000Y-115100000D02*
X341300000Y-109000000D01*
X342400000Y-115100000D02*
X341300000Y-115100000D01*
X346700000Y-109000000D02*
X346700000Y-114000000D01*
X341300000Y-83100000D02*
X341300000Y-77000000D01*
X342400000Y-83100000D02*
X341300000Y-83100000D01*
X346700000Y-77000000D02*
X346700000Y-82000000D01*
X314300000Y-197100000D02*
X314300000Y-191000000D01*
X315400000Y-197100000D02*
X314300000Y-197100000D01*
X319700000Y-191000000D02*
X319700000Y-196000000D01*
X314300000Y-165100000D02*
X314300000Y-159000000D01*
X315400000Y-165100000D02*
X314300000Y-165100000D01*
X319700000Y-159000000D02*
X319700000Y-164000000D01*
X314300000Y-133100000D02*
X314300000Y-127000000D01*
X315400000Y-133100000D02*
X314300000Y-133100000D01*
X319700000Y-127000000D02*
X319700000Y-132000000D01*
X314300000Y-101100000D02*
X314300000Y-95000000D01*
X315400000Y-101100000D02*
X314300000Y-101100000D01*
X319700000Y-95000000D02*
X319700000Y-100000000D01*
X335300000Y-179100000D02*
X335300000Y-173000000D01*
X336400000Y-179100000D02*
X335300000Y-179100000D01*
X340700000Y-173000000D02*
X340700000Y-178000000D01*
X335300000Y-147100000D02*
X335300000Y-141000000D01*
X336400000Y-147100000D02*
X335300000Y-147100000D01*
X340700000Y-141000000D02*
X340700000Y-146000000D01*
X335300000Y-115100000D02*
X335300000Y-109000000D01*
X336400000Y-115100000D02*
X335300000Y-115100000D01*
X340700000Y-109000000D02*
X340700000Y-114000000D01*
X335300000Y-83100000D02*
X335300000Y-77000000D01*
X336400000Y-83100000D02*
X335300000Y-83100000D01*
X340700000Y-77000000D02*
X340700000Y-82000000D01*
X262700000Y-172750000D02*
X262700000Y-177750000D01*
X258400000Y-178850000D02*
X257300000Y-178850000D01*
X257300000Y-178850000D02*
X257300000Y-172750000D01*
X262700000Y-140750000D02*
X262700000Y-145750000D01*
X258400000Y-146850000D02*
X257300000Y-146850000D01*
X257300000Y-146850000D02*
X257300000Y-140750000D01*
X262700000Y-108750000D02*
X262700000Y-113750000D01*
X258400000Y-114850000D02*
X257300000Y-114850000D01*
X257300000Y-114850000D02*
X257300000Y-108750000D01*
X262700000Y-76750000D02*
X262700000Y-81750000D01*
X258400000Y-82850000D02*
X257300000Y-82850000D01*
X257300000Y-82850000D02*
X257300000Y-76750000D01*
X320300000Y-197100000D02*
X320300000Y-191000000D01*
X321400000Y-197100000D02*
X320300000Y-197100000D01*
X325700000Y-191000000D02*
X325700000Y-196000000D01*
X320300000Y-165100000D02*
X320300000Y-159000000D01*
X321400000Y-165100000D02*
X320300000Y-165100000D01*
X325700000Y-159000000D02*
X325700000Y-164000000D01*
X320300000Y-133100000D02*
X320300000Y-127000000D01*
X321400000Y-133100000D02*
X320300000Y-133100000D01*
X325700000Y-127000000D02*
X325700000Y-132000000D01*
X320300000Y-101100000D02*
X320300000Y-95000000D01*
X321400000Y-101100000D02*
X320300000Y-101100000D01*
X325700000Y-95000000D02*
X325700000Y-100000000D01*
X284300000Y-197100000D02*
X284300000Y-191000000D01*
X285400000Y-197100000D02*
X284300000Y-197100000D01*
X289700000Y-191000000D02*
X289700000Y-196000000D01*
X284300000Y-165100000D02*
X284300000Y-159000000D01*
X285400000Y-165100000D02*
X284300000Y-165100000D01*
X289700000Y-159000000D02*
X289700000Y-164000000D01*
X284300000Y-133100000D02*
X284300000Y-127000000D01*
X285400000Y-133100000D02*
X284300000Y-133100000D01*
X289700000Y-127000000D02*
X289700000Y-132000000D01*
X284300000Y-101100000D02*
X284300000Y-95000000D01*
X285400000Y-101100000D02*
X284300000Y-101100000D01*
X289700000Y-95000000D02*
X289700000Y-100000000D01*
X293300000Y-179100000D02*
X293300000Y-173000000D01*
X294400000Y-179100000D02*
X293300000Y-179100000D01*
X298700000Y-173000000D02*
X298700000Y-178000000D01*
X293300000Y-147100000D02*
X293300000Y-141000000D01*
X294400000Y-147100000D02*
X293300000Y-147100000D01*
X298700000Y-141000000D02*
X298700000Y-146000000D01*
X293300000Y-115100000D02*
X293300000Y-109000000D01*
X294400000Y-115100000D02*
X293300000Y-115100000D01*
X298700000Y-109000000D02*
X298700000Y-114000000D01*
X293300000Y-83100000D02*
X293300000Y-77000000D01*
X294400000Y-83100000D02*
X293300000Y-83100000D01*
X298700000Y-77000000D02*
X298700000Y-82000000D01*
X301700000Y-191000000D02*
X301700000Y-196000000D01*
X297400000Y-197100000D02*
X296300000Y-197100000D01*
X296300000Y-197100000D02*
X296300000Y-191000000D01*
X301700000Y-159000000D02*
X301700000Y-164000000D01*
X297400000Y-165100000D02*
X296300000Y-165100000D01*
X296300000Y-165100000D02*
X296300000Y-159000000D01*
X301700000Y-127000000D02*
X301700000Y-132000000D01*
X297400000Y-133100000D02*
X296300000Y-133100000D01*
X296300000Y-133100000D02*
X296300000Y-127000000D01*
X301700000Y-95000000D02*
X301700000Y-100000000D01*
X297400000Y-101100000D02*
X296300000Y-101100000D01*
X296300000Y-101100000D02*
X296300000Y-95000000D01*
X307450000Y-191000000D02*
X307450000Y-196000000D01*
X303150000Y-197100000D02*
X302050000Y-197100000D01*
X302050000Y-197100000D02*
X302050000Y-191000000D01*
X307450000Y-159000000D02*
X307450000Y-164000000D01*
X303150000Y-165100000D02*
X302050000Y-165100000D01*
X302050000Y-165100000D02*
X302050000Y-159000000D01*
X307450000Y-127000000D02*
X307450000Y-132000000D01*
X303150000Y-133100000D02*
X302050000Y-133100000D01*
X302050000Y-133100000D02*
X302050000Y-127000000D01*
X307450000Y-95000000D02*
X307450000Y-100000000D01*
X303150000Y-101100000D02*
X302050000Y-101100000D01*
X302050000Y-101100000D02*
X302050000Y-95000000D01*
X313700000Y-191000000D02*
X313700000Y-196000000D01*
X309400000Y-197100000D02*
X308300000Y-197100000D01*
X308300000Y-197100000D02*
X308300000Y-191000000D01*
X313700000Y-159000000D02*
X313700000Y-164000000D01*
X309400000Y-165100000D02*
X308300000Y-165100000D01*
X308300000Y-165100000D02*
X308300000Y-159000000D01*
X313700000Y-127000000D02*
X313700000Y-132000000D01*
X309400000Y-133100000D02*
X308300000Y-133100000D01*
X308300000Y-133100000D02*
X308300000Y-127000000D01*
X313700000Y-95000000D02*
X313700000Y-100000000D01*
X309400000Y-101100000D02*
X308300000Y-101100000D01*
X308300000Y-101100000D02*
X308300000Y-95000000D01*
X328700000Y-173000000D02*
X328700000Y-178000000D01*
X324400000Y-179100000D02*
X323300000Y-179100000D01*
X323300000Y-179100000D02*
X323300000Y-173000000D01*
X328700000Y-141000000D02*
X328700000Y-146000000D01*
X324400000Y-147100000D02*
X323300000Y-147100000D01*
X323300000Y-147100000D02*
X323300000Y-141000000D01*
X328700000Y-109000000D02*
X328700000Y-114000000D01*
X324400000Y-115100000D02*
X323300000Y-115100000D01*
X323300000Y-115100000D02*
X323300000Y-109000000D01*
X328700000Y-77000000D02*
X328700000Y-82000000D01*
X324400000Y-83100000D02*
X323300000Y-83100000D01*
X323300000Y-83100000D02*
X323300000Y-77000000D01*
X347300000Y-179100000D02*
X347300000Y-173000000D01*
X348400000Y-179100000D02*
X347300000Y-179100000D01*
X352700000Y-173000000D02*
X352700000Y-178000000D01*
X347300000Y-147100000D02*
X347300000Y-141000000D01*
X348400000Y-147100000D02*
X347300000Y-147100000D01*
X352700000Y-141000000D02*
X352700000Y-146000000D01*
X347300000Y-115100000D02*
X347300000Y-109000000D01*
X348400000Y-115100000D02*
X347300000Y-115100000D01*
X352700000Y-109000000D02*
X352700000Y-114000000D01*
X347300000Y-83100000D02*
X347300000Y-77000000D01*
X348400000Y-83100000D02*
X347300000Y-83100000D01*
X352700000Y-77000000D02*
X352700000Y-82000000D01*
X349700000Y-191000000D02*
X349700000Y-196000000D01*
X345400000Y-197100000D02*
X344300000Y-197100000D01*
X344300000Y-197100000D02*
X344300000Y-191000000D01*
X349700000Y-159000000D02*
X349700000Y-164000000D01*
X345400000Y-165100000D02*
X344300000Y-165100000D01*
X344300000Y-165100000D02*
X344300000Y-159000000D01*
X349700000Y-127000000D02*
X349700000Y-132000000D01*
X345400000Y-133100000D02*
X344300000Y-133100000D01*
X344300000Y-133100000D02*
X344300000Y-127000000D01*
X349700000Y-95000000D02*
X349700000Y-100000000D01*
X345400000Y-101100000D02*
X344300000Y-101100000D01*
X344300000Y-101100000D02*
X344300000Y-95000000D01*
X326300000Y-197100000D02*
X326300000Y-191000000D01*
X327400000Y-197100000D02*
X326300000Y-197100000D01*
X331700000Y-191000000D02*
X331700000Y-196000000D01*
X326300000Y-165100000D02*
X326300000Y-159000000D01*
X327400000Y-165100000D02*
X326300000Y-165100000D01*
X331700000Y-159000000D02*
X331700000Y-164000000D01*
X326300000Y-133100000D02*
X326300000Y-127000000D01*
X327400000Y-133100000D02*
X326300000Y-133100000D01*
X331700000Y-127000000D02*
X331700000Y-132000000D01*
X326300000Y-101100000D02*
X326300000Y-95000000D01*
X327400000Y-101100000D02*
X326300000Y-101100000D01*
X331700000Y-95000000D02*
X331700000Y-100000000D01*
X337700000Y-191000000D02*
X337700000Y-196000000D01*
X333400000Y-197100000D02*
X332300000Y-197100000D01*
X332300000Y-197100000D02*
X332300000Y-191000000D01*
X337700000Y-159000000D02*
X337700000Y-164000000D01*
X333400000Y-165100000D02*
X332300000Y-165100000D01*
X332300000Y-165100000D02*
X332300000Y-159000000D01*
X337700000Y-127000000D02*
X337700000Y-132000000D01*
X333400000Y-133100000D02*
X332300000Y-133100000D01*
X332300000Y-133100000D02*
X332300000Y-127000000D01*
X337700000Y-95000000D02*
X337700000Y-100000000D01*
X333400000Y-101100000D02*
X332300000Y-101100000D01*
X332300000Y-101100000D02*
X332300000Y-95000000D01*
X254300000Y-197100000D02*
X254300000Y-191000000D01*
X255400000Y-197100000D02*
X254300000Y-197100000D01*
X259700000Y-191000000D02*
X259700000Y-196000000D01*
X254300000Y-165100000D02*
X254300000Y-159000000D01*
X255400000Y-165100000D02*
X254300000Y-165100000D01*
X259700000Y-159000000D02*
X259700000Y-164000000D01*
X254300000Y-133100000D02*
X254300000Y-127000000D01*
X255400000Y-133100000D02*
X254300000Y-133100000D01*
X259700000Y-127000000D02*
X259700000Y-132000000D01*
X254300000Y-101100000D02*
X254300000Y-95000000D01*
X255400000Y-101100000D02*
X254300000Y-101100000D01*
X259700000Y-95000000D02*
X259700000Y-100000000D01*
X268700000Y-172750000D02*
X268700000Y-177750000D01*
X264400000Y-178850000D02*
X263300000Y-178850000D01*
X263300000Y-178850000D02*
X263300000Y-172750000D01*
X268700000Y-140750000D02*
X268700000Y-145750000D01*
X264400000Y-146850000D02*
X263300000Y-146850000D01*
X263300000Y-146850000D02*
X263300000Y-140750000D01*
X268700000Y-108750000D02*
X268700000Y-113750000D01*
X264400000Y-114850000D02*
X263300000Y-114850000D01*
X263300000Y-114850000D02*
X263300000Y-108750000D01*
X268700000Y-76750000D02*
X268700000Y-81750000D01*
X264400000Y-82850000D02*
X263300000Y-82850000D01*
X263300000Y-82850000D02*
X263300000Y-76750000D01*
X343700000Y-191000000D02*
X343700000Y-196000000D01*
X339400000Y-197100000D02*
X338300000Y-197100000D01*
X338300000Y-197100000D02*
X338300000Y-191000000D01*
X343700000Y-159000000D02*
X343700000Y-164000000D01*
X339400000Y-165100000D02*
X338300000Y-165100000D01*
X338300000Y-165100000D02*
X338300000Y-159000000D01*
X343700000Y-127000000D02*
X343700000Y-132000000D01*
X339400000Y-133100000D02*
X338300000Y-133100000D01*
X338300000Y-133100000D02*
X338300000Y-127000000D01*
X343700000Y-95000000D02*
X343700000Y-100000000D01*
X339400000Y-101100000D02*
X338300000Y-101100000D01*
X338300000Y-101100000D02*
X338300000Y-95000000D01*
X275300000Y-179100000D02*
X275300000Y-173000000D01*
X276400000Y-179100000D02*
X275300000Y-179100000D01*
X280700000Y-173000000D02*
X280700000Y-178000000D01*
X275300000Y-147100000D02*
X275300000Y-141000000D01*
X276400000Y-147100000D02*
X275300000Y-147100000D01*
X280700000Y-141000000D02*
X280700000Y-146000000D01*
X275300000Y-115100000D02*
X275300000Y-109000000D01*
X276400000Y-115100000D02*
X275300000Y-115100000D01*
X280700000Y-109000000D02*
X280700000Y-114000000D01*
X275300000Y-83100000D02*
X275300000Y-77000000D01*
X276400000Y-83100000D02*
X275300000Y-83100000D01*
X280700000Y-77000000D02*
X280700000Y-82000000D01*
X286700000Y-173000000D02*
X286700000Y-178000000D01*
X282400000Y-179100000D02*
X281300000Y-179100000D01*
X281300000Y-179100000D02*
X281300000Y-173000000D01*
X286700000Y-141000000D02*
X286700000Y-146000000D01*
X282400000Y-147100000D02*
X281300000Y-147100000D01*
X281300000Y-147100000D02*
X281300000Y-141000000D01*
X286700000Y-109000000D02*
X286700000Y-114000000D01*
X282400000Y-115100000D02*
X281300000Y-115100000D01*
X281300000Y-115100000D02*
X281300000Y-109000000D01*
X286700000Y-77000000D02*
X286700000Y-82000000D01*
X282400000Y-83100000D02*
X281300000Y-83100000D01*
X281300000Y-83100000D02*
X281300000Y-77000000D01*
X299300000Y-179100000D02*
X299300000Y-173000000D01*
X300400000Y-179100000D02*
X299300000Y-179100000D01*
X304700000Y-173000000D02*
X304700000Y-178000000D01*
X299300000Y-147100000D02*
X299300000Y-141000000D01*
X300400000Y-147100000D02*
X299300000Y-147100000D01*
X304700000Y-141000000D02*
X304700000Y-146000000D01*
X299300000Y-115100000D02*
X299300000Y-109000000D01*
X300400000Y-115100000D02*
X299300000Y-115100000D01*
X304700000Y-109000000D02*
X304700000Y-114000000D01*
X299300000Y-83100000D02*
X299300000Y-77000000D01*
X300400000Y-83100000D02*
X299300000Y-83100000D01*
X304700000Y-77000000D02*
X304700000Y-82000000D01*
X317300000Y-179100000D02*
X317300000Y-173000000D01*
X318400000Y-179100000D02*
X317300000Y-179100000D01*
X322700000Y-173000000D02*
X322700000Y-178000000D01*
X317300000Y-147100000D02*
X317300000Y-141000000D01*
X318400000Y-147100000D02*
X317300000Y-147100000D01*
X322700000Y-141000000D02*
X322700000Y-146000000D01*
X317300000Y-115100000D02*
X317300000Y-109000000D01*
X318400000Y-115100000D02*
X317300000Y-115100000D01*
X322700000Y-109000000D02*
X322700000Y-114000000D01*
X317300000Y-83100000D02*
X317300000Y-77000000D01*
X318400000Y-83100000D02*
X317300000Y-83100000D01*
X322700000Y-77000000D02*
X322700000Y-82000000D01*
X361700000Y-191000000D02*
X361700000Y-196000000D01*
X357400000Y-197100000D02*
X356300000Y-197100000D01*
X356300000Y-197100000D02*
X356300000Y-191000000D01*
X361700000Y-159000000D02*
X361700000Y-164000000D01*
X357400000Y-165100000D02*
X356300000Y-165100000D01*
X356300000Y-165100000D02*
X356300000Y-159000000D01*
X361700000Y-127000000D02*
X361700000Y-132000000D01*
X357400000Y-133100000D02*
X356300000Y-133100000D01*
X356300000Y-133100000D02*
X356300000Y-127000000D01*
X361700000Y-95000000D02*
X361700000Y-100000000D01*
X357400000Y-101100000D02*
X356300000Y-101100000D01*
X356300000Y-101100000D02*
X356300000Y-95000000D01*
X355700000Y-191000000D02*
X355700000Y-196000000D01*
X351400000Y-197100000D02*
X350300000Y-197100000D01*
X350300000Y-197100000D02*
X350300000Y-191000000D01*
X355700000Y-159000000D02*
X355700000Y-164000000D01*
X351400000Y-165100000D02*
X350300000Y-165100000D01*
X350300000Y-165100000D02*
X350300000Y-159000000D01*
X355700000Y-127000000D02*
X355700000Y-132000000D01*
X351400000Y-133100000D02*
X350300000Y-133100000D01*
X350300000Y-133100000D02*
X350300000Y-127000000D01*
X355700000Y-95000000D02*
X355700000Y-100000000D01*
X351400000Y-101100000D02*
X350300000Y-101100000D01*
X350300000Y-101100000D02*
X350300000Y-95000000D01*
X356300000Y-69100000D02*
X356300000Y-63000000D01*
X357400000Y-69100000D02*
X356300000Y-69100000D01*
X361700000Y-63000000D02*
X361700000Y-68000000D01*
X350300000Y-69100000D02*
X350300000Y-63000000D01*
X351400000Y-69100000D02*
X350300000Y-69100000D01*
X355700000Y-63000000D02*
X355700000Y-68000000D01*
X352700000Y-45000000D02*
X352700000Y-50000000D01*
X348400000Y-51100000D02*
X347300000Y-51100000D01*
X347300000Y-51100000D02*
X347300000Y-45000000D01*
X344300000Y-69100000D02*
X344300000Y-63000000D01*
X345400000Y-69100000D02*
X344300000Y-69100000D01*
X349700000Y-63000000D02*
X349700000Y-68000000D01*
X346700000Y-45000000D02*
X346700000Y-50000000D01*
X342400000Y-51100000D02*
X341300000Y-51100000D01*
X341300000Y-51100000D02*
X341300000Y-45000000D01*
X338300000Y-69100000D02*
X338300000Y-63000000D01*
X339400000Y-69100000D02*
X338300000Y-69100000D01*
X343700000Y-63000000D02*
X343700000Y-68000000D01*
X340700000Y-45000000D02*
X340700000Y-50000000D01*
X336400000Y-51100000D02*
X335300000Y-51100000D01*
X335300000Y-51100000D02*
X335300000Y-45000000D01*
X332300000Y-69100000D02*
X332300000Y-63000000D01*
X333400000Y-69100000D02*
X332300000Y-69100000D01*
X337700000Y-63000000D02*
X337700000Y-68000000D01*
X331700000Y-63000000D02*
X331700000Y-68000000D01*
X327400000Y-69100000D02*
X326300000Y-69100000D01*
X326300000Y-69100000D02*
X326300000Y-63000000D01*
X323300000Y-51100000D02*
X323300000Y-45000000D01*
X324400000Y-51100000D02*
X323300000Y-51100000D01*
X328700000Y-45000000D02*
X328700000Y-50000000D01*
X325700000Y-63000000D02*
X325700000Y-68000000D01*
X321400000Y-69100000D02*
X320300000Y-69100000D01*
X320300000Y-69100000D02*
X320300000Y-63000000D01*
X322700000Y-45000000D02*
X322700000Y-50000000D01*
X318400000Y-51100000D02*
X317300000Y-51100000D01*
X317300000Y-51100000D02*
X317300000Y-45000000D01*
X319700000Y-63000000D02*
X319700000Y-68000000D01*
X315400000Y-69100000D02*
X314300000Y-69100000D01*
X314300000Y-69100000D02*
X314300000Y-63000000D01*
X308300000Y-69100000D02*
X308300000Y-63000000D01*
X309400000Y-69100000D02*
X308300000Y-69100000D01*
X313700000Y-63000000D02*
X313700000Y-68000000D01*
X310700000Y-45000000D02*
X310700000Y-50000000D01*
X306400000Y-51100000D02*
X305300000Y-51100000D01*
X305300000Y-51100000D02*
X305300000Y-45000000D01*
X302050000Y-69100000D02*
X302050000Y-63000000D01*
X303150000Y-69100000D02*
X302050000Y-69100000D01*
X307450000Y-63000000D02*
X307450000Y-68000000D01*
X304700000Y-45000000D02*
X304700000Y-50000000D01*
X300400000Y-51100000D02*
X299300000Y-51100000D01*
X299300000Y-51100000D02*
X299300000Y-45000000D01*
X296300000Y-69100000D02*
X296300000Y-63000000D01*
X297400000Y-69100000D02*
X296300000Y-69100000D01*
X301700000Y-63000000D02*
X301700000Y-68000000D01*
X298700000Y-45000000D02*
X298700000Y-50000000D01*
X294400000Y-51100000D02*
X293300000Y-51100000D01*
X293300000Y-51100000D02*
X293300000Y-45000000D01*
X290300000Y-69100000D02*
X290300000Y-63000000D01*
X291400000Y-69100000D02*
X290300000Y-69100000D01*
X295700000Y-63000000D02*
X295700000Y-68000000D01*
X289700000Y-63000000D02*
X289700000Y-68000000D01*
X285400000Y-69100000D02*
X284300000Y-69100000D01*
X284300000Y-69100000D02*
X284300000Y-63000000D01*
X281300000Y-51100000D02*
X281300000Y-45000000D01*
X282400000Y-51100000D02*
X281300000Y-51100000D01*
X286700000Y-45000000D02*
X286700000Y-50000000D01*
X278300000Y-69100000D02*
X278300000Y-63000000D01*
X279400000Y-69100000D02*
X278300000Y-69100000D01*
X283700000Y-63000000D02*
X283700000Y-68000000D01*
X280700000Y-45000000D02*
X280700000Y-50000000D01*
X276400000Y-51100000D02*
X275300000Y-51100000D01*
X275300000Y-51100000D02*
X275300000Y-45000000D01*
X272300000Y-69100000D02*
X272300000Y-63000000D01*
X273400000Y-69100000D02*
X272300000Y-69100000D01*
X277700000Y-63000000D02*
X277700000Y-68000000D01*
X271700000Y-63000000D02*
X271700000Y-68000000D01*
X267400000Y-69100000D02*
X266300000Y-69100000D01*
X266300000Y-69100000D02*
X266300000Y-63000000D01*
X263300000Y-50850000D02*
X263300000Y-44750000D01*
X264400000Y-50850000D02*
X263300000Y-50850000D01*
X268700000Y-44750000D02*
X268700000Y-49750000D01*
X265700000Y-63000000D02*
X265700000Y-68000000D01*
X261400000Y-69100000D02*
X260300000Y-69100000D01*
X260300000Y-69100000D02*
X260300000Y-63000000D01*
X257300000Y-50850000D02*
X257300000Y-44750000D01*
X258400000Y-50850000D02*
X257300000Y-50850000D01*
X262700000Y-44750000D02*
X262700000Y-49750000D01*
X259700000Y-63000000D02*
X259700000Y-68000000D01*
X255400000Y-69100000D02*
X254300000Y-69100000D01*
X254300000Y-69100000D02*
X254300000Y-63000000D01*
X251300000Y-50850000D02*
X251300000Y-44750000D01*
X252400000Y-50850000D02*
X251300000Y-50850000D01*
X256700000Y-44750000D02*
X256700000Y-49750000D01*
X253700000Y-63000000D02*
X253700000Y-68000000D01*
X249400000Y-69100000D02*
X248300000Y-69100000D01*
X248300000Y-69100000D02*
X248300000Y-63000000D01*
X247700000Y-63000000D02*
X247700000Y-68000000D01*
X243400000Y-69100000D02*
X242300000Y-69100000D01*
X242300000Y-69100000D02*
X242300000Y-63000000D01*
X244700000Y-44750000D02*
X244700000Y-49750000D01*
X240400000Y-50850000D02*
X239300000Y-50850000D01*
X239300000Y-50850000D02*
X239300000Y-44750000D01*
X236300000Y-69100000D02*
X236300000Y-63000000D01*
X237400000Y-69100000D02*
X236300000Y-69100000D01*
X241700000Y-63000000D02*
X241700000Y-68000000D01*
X238700000Y-44750000D02*
X238700000Y-49750000D01*
X234400000Y-50850000D02*
X233300000Y-50850000D01*
X233300000Y-50850000D02*
X233300000Y-44750000D01*
X230300000Y-69100000D02*
X230300000Y-63000000D01*
X231400000Y-69100000D02*
X230300000Y-69100000D01*
X235700000Y-63000000D02*
X235700000Y-68000000D01*
X229700000Y-63000000D02*
X229700000Y-68000000D01*
X225400000Y-69100000D02*
X224300000Y-69100000D01*
X224300000Y-69100000D02*
X224300000Y-63000000D01*
X221300000Y-50850000D02*
X221300000Y-44750000D01*
X222400000Y-50850000D02*
X221300000Y-50850000D01*
X226700000Y-44750000D02*
X226700000Y-49750000D01*
X223700000Y-63000000D02*
X223700000Y-68000000D01*
X219400000Y-69100000D02*
X218300000Y-69100000D01*
X218300000Y-69100000D02*
X218300000Y-63000000D01*
X215300000Y-50850000D02*
X215300000Y-44750000D01*
X216400000Y-50850000D02*
X215300000Y-50850000D01*
X220700000Y-44750000D02*
X220700000Y-49750000D01*
X217700000Y-63000000D02*
X217700000Y-68000000D01*
X213400000Y-69100000D02*
X212300000Y-69100000D01*
X212300000Y-69100000D02*
X212300000Y-63000000D01*
X209300000Y-50850000D02*
X209300000Y-44750000D01*
X210400000Y-50850000D02*
X209300000Y-50850000D01*
X214700000Y-44750000D02*
X214700000Y-49750000D01*
X206300000Y-69100000D02*
X206300000Y-63000000D01*
X207400000Y-69100000D02*
X206300000Y-69100000D01*
X211700000Y-63000000D02*
X211700000Y-68000000D01*
X200300000Y-69100000D02*
X200300000Y-63000000D01*
X201400000Y-69100000D02*
X200300000Y-69100000D01*
X205700000Y-63000000D02*
X205700000Y-68000000D01*
X202700000Y-44750000D02*
X202700000Y-49750000D01*
X198400000Y-50850000D02*
X197300000Y-50850000D01*
X197300000Y-50850000D02*
X197300000Y-44750000D01*
X194300000Y-69100000D02*
X194300000Y-63000000D01*
X195400000Y-69100000D02*
X194300000Y-69100000D01*
X199700000Y-63000000D02*
X199700000Y-68000000D01*
X196700000Y-44750000D02*
X196700000Y-49750000D01*
X192400000Y-50850000D02*
X191300000Y-50850000D01*
X191300000Y-50850000D02*
X191300000Y-44750000D01*
X188300000Y-69100000D02*
X188300000Y-63000000D01*
X189400000Y-69100000D02*
X188300000Y-69100000D01*
X193700000Y-63000000D02*
X193700000Y-68000000D01*
X187700000Y-63000000D02*
X187700000Y-68000000D01*
X183400000Y-69100000D02*
X182300000Y-69100000D01*
X182300000Y-69100000D02*
X182300000Y-63000000D01*
X179300000Y-50850000D02*
X179300000Y-44750000D01*
X180400000Y-50850000D02*
X179300000Y-50850000D01*
X184700000Y-44750000D02*
X184700000Y-49750000D01*
X181700000Y-63000000D02*
X181700000Y-68000000D01*
X177400000Y-69100000D02*
X176300000Y-69100000D01*
X176300000Y-69100000D02*
X176300000Y-63000000D01*
X173300000Y-50850000D02*
X173300000Y-44750000D01*
X174400000Y-50850000D02*
X173300000Y-50850000D01*
X178700000Y-44750000D02*
X178700000Y-49750000D01*
X175700000Y-63000000D02*
X175700000Y-68000000D01*
X171400000Y-69100000D02*
X170300000Y-69100000D01*
X170300000Y-69100000D02*
X170300000Y-63000000D01*
X167300000Y-50850000D02*
X167300000Y-44750000D01*
X168400000Y-50850000D02*
X167300000Y-50850000D01*
X172700000Y-44750000D02*
X172700000Y-49750000D01*
X169700000Y-63000000D02*
X169700000Y-68000000D01*
X165400000Y-69100000D02*
X164300000Y-69100000D01*
X164300000Y-69100000D02*
X164300000Y-63000000D01*
X158300000Y-69100000D02*
X158300000Y-63000000D01*
X159400000Y-69100000D02*
X158300000Y-69100000D01*
X163700000Y-63000000D02*
X163700000Y-68000000D01*
X160700000Y-44750000D02*
X160700000Y-49750000D01*
X156400000Y-50850000D02*
X155300000Y-50850000D01*
X155300000Y-50850000D02*
X155300000Y-44750000D01*
X152300000Y-69100000D02*
X152300000Y-63000000D01*
X153400000Y-69100000D02*
X152300000Y-69100000D01*
X157700000Y-63000000D02*
X157700000Y-68000000D01*
X154700000Y-44750000D02*
X154700000Y-49750000D01*
X150400000Y-50850000D02*
X149300000Y-50850000D01*
X149300000Y-50850000D02*
X149300000Y-44750000D01*
X146300000Y-69100000D02*
X146300000Y-63000000D01*
X147400000Y-69100000D02*
X146300000Y-69100000D01*
X151700000Y-63000000D02*
X151700000Y-68000000D01*
X145700000Y-63000000D02*
X145700000Y-68000000D01*
X141400000Y-69100000D02*
X140300000Y-69100000D01*
X140300000Y-69100000D02*
X140300000Y-63000000D01*
X137300000Y-50850000D02*
X137300000Y-44750000D01*
X138400000Y-50850000D02*
X137300000Y-50850000D01*
X142700000Y-44750000D02*
X142700000Y-49750000D01*
X139700000Y-63000000D02*
X139700000Y-68000000D01*
X135400000Y-69100000D02*
X134300000Y-69100000D01*
X134300000Y-69100000D02*
X134300000Y-63000000D01*
X131300000Y-50850000D02*
X131300000Y-44750000D01*
X132400000Y-50850000D02*
X131300000Y-50850000D01*
X136700000Y-44750000D02*
X136700000Y-49750000D01*
X133700000Y-63000000D02*
X133700000Y-68000000D01*
X129400000Y-69100000D02*
X128300000Y-69100000D01*
X128300000Y-69100000D02*
X128300000Y-63000000D01*
X125300000Y-50850000D02*
X125300000Y-44750000D01*
X126400000Y-50850000D02*
X125300000Y-50850000D01*
X130700000Y-44750000D02*
X130700000Y-49750000D01*
X122300000Y-69100000D02*
X122300000Y-63000000D01*
X123400000Y-69100000D02*
X122300000Y-69100000D01*
X127700000Y-63000000D02*
X127700000Y-68000000D01*
X121700000Y-63000000D02*
X121700000Y-68000000D01*
X117400000Y-69100000D02*
X116300000Y-69100000D01*
X116300000Y-69100000D02*
X116300000Y-63000000D01*
X113300000Y-50850000D02*
X113300000Y-44750000D01*
X114400000Y-50850000D02*
X113300000Y-50850000D01*
X118700000Y-44750000D02*
X118700000Y-49750000D01*
X115700000Y-63000000D02*
X115700000Y-68000000D01*
X111400000Y-69100000D02*
X110300000Y-69100000D01*
X110300000Y-69100000D02*
X110300000Y-63000000D01*
X107300000Y-50850000D02*
X107300000Y-44750000D01*
X108400000Y-50850000D02*
X107300000Y-50850000D01*
X112700000Y-44750000D02*
X112700000Y-49750000D01*
X109700000Y-63000000D02*
X109700000Y-68000000D01*
X105400000Y-69100000D02*
X104300000Y-69100000D01*
X104300000Y-69100000D02*
X104300000Y-63000000D01*
X98300000Y-69100000D02*
X98300000Y-63000000D01*
X99400000Y-69100000D02*
X98300000Y-69100000D01*
X103700000Y-63000000D02*
X103700000Y-68000000D01*
X100700000Y-44750000D02*
X100700000Y-49750000D01*
X96400000Y-50850000D02*
X95300000Y-50850000D01*
X95300000Y-50850000D02*
X95300000Y-44750000D01*
X92300000Y-69100000D02*
X92300000Y-63000000D01*
X93400000Y-69100000D02*
X92300000Y-69100000D01*
X97700000Y-63000000D02*
X97700000Y-68000000D01*
X94700000Y-44750000D02*
X94700000Y-49750000D01*
X90400000Y-50850000D02*
X89300000Y-50850000D01*
X89300000Y-50850000D02*
X89300000Y-44750000D01*
X91700000Y-63000000D02*
X91700000Y-68000000D01*
X87400000Y-69100000D02*
X86300000Y-69100000D01*
X86300000Y-69100000D02*
X86300000Y-63000000D01*
X88700000Y-44750000D02*
X88700000Y-49750000D01*
X84400000Y-50850000D02*
X83300000Y-50850000D01*
X83300000Y-50850000D02*
X83300000Y-44750000D01*
X80300000Y-69100000D02*
X80300000Y-63000000D01*
X81400000Y-69100000D02*
X80300000Y-69100000D01*
X85700000Y-63000000D02*
X85700000Y-68000000D01*
X79700000Y-63000000D02*
X79700000Y-68000000D01*
X75400000Y-69100000D02*
X74300000Y-69100000D01*
X74300000Y-69100000D02*
X74300000Y-63000000D01*
X71300000Y-50850000D02*
X71300000Y-44750000D01*
X72400000Y-50850000D02*
X71300000Y-50850000D01*
X76700000Y-44750000D02*
X76700000Y-49750000D01*
X73700000Y-63000000D02*
X73700000Y-68000000D01*
X69400000Y-69100000D02*
X68300000Y-69100000D01*
X68300000Y-69100000D02*
X68300000Y-63000000D01*
X65300000Y-50850000D02*
X65300000Y-44750000D01*
X66400000Y-50850000D02*
X65300000Y-50850000D01*
X70700000Y-44750000D02*
X70700000Y-49750000D01*
X67700000Y-63000000D02*
X67700000Y-68000000D01*
X63400000Y-69100000D02*
X62300000Y-69100000D01*
X62300000Y-69100000D02*
X62300000Y-63000000D01*
X56300000Y-69100000D02*
X56300000Y-63000000D01*
X57400000Y-69100000D02*
X56300000Y-69100000D01*
X61700000Y-63000000D02*
X61700000Y-68000000D01*
X58700000Y-44750000D02*
X58700000Y-49750000D01*
X54400000Y-50850000D02*
X53300000Y-50850000D01*
X53300000Y-50850000D02*
X53300000Y-44750000D01*
X50300000Y-69100000D02*
X50300000Y-63000000D01*
X51400000Y-69100000D02*
X50300000Y-69100000D01*
X55700000Y-63000000D02*
X55700000Y-68000000D01*
M02*
