G04 #@! TF.GenerationSoftware,KiCad,Pcbnew,(5.1.5)-3*
G04 #@! TF.CreationDate,2020-04-14T19:59:01+09:00*
G04 #@! TF.ProjectId,APA102_MENZUKE5_base,41504131-3032-45f4-9d45-4e5a554b4535,rev?*
G04 #@! TF.SameCoordinates,Original*
G04 #@! TF.FileFunction,Legend,Bot*
G04 #@! TF.FilePolarity,Positive*
%FSLAX46Y46*%
G04 Gerber Fmt 4.6, Leading zero omitted, Abs format (unit mm)*
G04 Created by KiCad (PCBNEW (5.1.5)-3) date 2020-04-14 19:59:01*
%MOMM*%
%LPD*%
G04 APERTURE LIST*
%ADD10C,0.200000*%
G04 APERTURE END LIST*
D10*
X356127142Y-178475000D02*
X356270000Y-178403571D01*
X356484285Y-178403571D01*
X356698571Y-178475000D01*
X356841428Y-178617857D01*
X356912857Y-178760714D01*
X356984285Y-179046428D01*
X356984285Y-179260714D01*
X356912857Y-179546428D01*
X356841428Y-179689285D01*
X356698571Y-179832142D01*
X356484285Y-179903571D01*
X356341428Y-179903571D01*
X356127142Y-179832142D01*
X356055714Y-179760714D01*
X356055714Y-179260714D01*
X356341428Y-179260714D01*
X355412857Y-179903571D02*
X355412857Y-178403571D01*
X354555714Y-179903571D01*
X354555714Y-178403571D01*
X353841428Y-179903571D02*
X353841428Y-178403571D01*
X353484285Y-178403571D01*
X353270000Y-178475000D01*
X353127142Y-178617857D01*
X353055714Y-178760714D01*
X352984285Y-179046428D01*
X352984285Y-179260714D01*
X353055714Y-179546428D01*
X353127142Y-179689285D01*
X353270000Y-179832142D01*
X353484285Y-179903571D01*
X353841428Y-179903571D01*
X356055714Y-182210714D02*
X356127142Y-182282142D01*
X356341428Y-182353571D01*
X356484285Y-182353571D01*
X356698571Y-182282142D01*
X356841428Y-182139285D01*
X356912857Y-181996428D01*
X356984285Y-181710714D01*
X356984285Y-181496428D01*
X356912857Y-181210714D01*
X356841428Y-181067857D01*
X356698571Y-180925000D01*
X356484285Y-180853571D01*
X356341428Y-180853571D01*
X356127142Y-180925000D01*
X356055714Y-180996428D01*
X355412857Y-182353571D02*
X355412857Y-180853571D01*
X354555714Y-182353571D02*
X355198571Y-181496428D01*
X354555714Y-180853571D02*
X355412857Y-181710714D01*
X353912857Y-182353571D02*
X353912857Y-180853571D01*
X356984285Y-184732142D02*
X356770000Y-184803571D01*
X356412857Y-184803571D01*
X356270000Y-184732142D01*
X356198571Y-184660714D01*
X356127142Y-184517857D01*
X356127142Y-184375000D01*
X356198571Y-184232142D01*
X356270000Y-184160714D01*
X356412857Y-184089285D01*
X356698571Y-184017857D01*
X356841428Y-183946428D01*
X356912857Y-183875000D01*
X356984285Y-183732142D01*
X356984285Y-183589285D01*
X356912857Y-183446428D01*
X356841428Y-183375000D01*
X356698571Y-183303571D01*
X356341428Y-183303571D01*
X356127142Y-183375000D01*
X355484285Y-184803571D02*
X355484285Y-183303571D01*
X355127142Y-183303571D01*
X354912857Y-183375000D01*
X354770000Y-183517857D01*
X354698571Y-183660714D01*
X354627142Y-183946428D01*
X354627142Y-184160714D01*
X354698571Y-184446428D01*
X354770000Y-184589285D01*
X354912857Y-184732142D01*
X355127142Y-184803571D01*
X355484285Y-184803571D01*
X353984285Y-184803571D02*
X353984285Y-183303571D01*
X356198571Y-185753571D02*
X356912857Y-185753571D01*
X356984285Y-186467857D01*
X356912857Y-186396428D01*
X356770000Y-186325000D01*
X356412857Y-186325000D01*
X356270000Y-186396428D01*
X356198571Y-186467857D01*
X356127142Y-186610714D01*
X356127142Y-186967857D01*
X356198571Y-187110714D01*
X356270000Y-187182142D01*
X356412857Y-187253571D01*
X356770000Y-187253571D01*
X356912857Y-187182142D01*
X356984285Y-187110714D01*
X355484285Y-187110714D02*
X355412857Y-187182142D01*
X355484285Y-187253571D01*
X355555714Y-187182142D01*
X355484285Y-187110714D01*
X355484285Y-187253571D01*
X354484285Y-185753571D02*
X354341428Y-185753571D01*
X354198571Y-185825000D01*
X354127142Y-185896428D01*
X354055714Y-186039285D01*
X353984285Y-186325000D01*
X353984285Y-186682142D01*
X354055714Y-186967857D01*
X354127142Y-187110714D01*
X354198571Y-187182142D01*
X354341428Y-187253571D01*
X354484285Y-187253571D01*
X354627142Y-187182142D01*
X354698571Y-187110714D01*
X354770000Y-186967857D01*
X354841428Y-186682142D01*
X354841428Y-186325000D01*
X354770000Y-186039285D01*
X354698571Y-185896428D01*
X354627142Y-185825000D01*
X354484285Y-185753571D01*
X353555714Y-185753571D02*
X353055714Y-187253571D01*
X352555714Y-185753571D01*
X356127142Y-146475000D02*
X356270000Y-146403571D01*
X356484285Y-146403571D01*
X356698571Y-146475000D01*
X356841428Y-146617857D01*
X356912857Y-146760714D01*
X356984285Y-147046428D01*
X356984285Y-147260714D01*
X356912857Y-147546428D01*
X356841428Y-147689285D01*
X356698571Y-147832142D01*
X356484285Y-147903571D01*
X356341428Y-147903571D01*
X356127142Y-147832142D01*
X356055714Y-147760714D01*
X356055714Y-147260714D01*
X356341428Y-147260714D01*
X355412857Y-147903571D02*
X355412857Y-146403571D01*
X354555714Y-147903571D01*
X354555714Y-146403571D01*
X353841428Y-147903571D02*
X353841428Y-146403571D01*
X353484285Y-146403571D01*
X353270000Y-146475000D01*
X353127142Y-146617857D01*
X353055714Y-146760714D01*
X352984285Y-147046428D01*
X352984285Y-147260714D01*
X353055714Y-147546428D01*
X353127142Y-147689285D01*
X353270000Y-147832142D01*
X353484285Y-147903571D01*
X353841428Y-147903571D01*
X356055714Y-150210714D02*
X356127142Y-150282142D01*
X356341428Y-150353571D01*
X356484285Y-150353571D01*
X356698571Y-150282142D01*
X356841428Y-150139285D01*
X356912857Y-149996428D01*
X356984285Y-149710714D01*
X356984285Y-149496428D01*
X356912857Y-149210714D01*
X356841428Y-149067857D01*
X356698571Y-148925000D01*
X356484285Y-148853571D01*
X356341428Y-148853571D01*
X356127142Y-148925000D01*
X356055714Y-148996428D01*
X355412857Y-150353571D02*
X355412857Y-148853571D01*
X354555714Y-150353571D02*
X355198571Y-149496428D01*
X354555714Y-148853571D02*
X355412857Y-149710714D01*
X353912857Y-150353571D02*
X353912857Y-148853571D01*
X356984285Y-152732142D02*
X356770000Y-152803571D01*
X356412857Y-152803571D01*
X356270000Y-152732142D01*
X356198571Y-152660714D01*
X356127142Y-152517857D01*
X356127142Y-152375000D01*
X356198571Y-152232142D01*
X356270000Y-152160714D01*
X356412857Y-152089285D01*
X356698571Y-152017857D01*
X356841428Y-151946428D01*
X356912857Y-151875000D01*
X356984285Y-151732142D01*
X356984285Y-151589285D01*
X356912857Y-151446428D01*
X356841428Y-151375000D01*
X356698571Y-151303571D01*
X356341428Y-151303571D01*
X356127142Y-151375000D01*
X355484285Y-152803571D02*
X355484285Y-151303571D01*
X355127142Y-151303571D01*
X354912857Y-151375000D01*
X354770000Y-151517857D01*
X354698571Y-151660714D01*
X354627142Y-151946428D01*
X354627142Y-152160714D01*
X354698571Y-152446428D01*
X354770000Y-152589285D01*
X354912857Y-152732142D01*
X355127142Y-152803571D01*
X355484285Y-152803571D01*
X353984285Y-152803571D02*
X353984285Y-151303571D01*
X356198571Y-153753571D02*
X356912857Y-153753571D01*
X356984285Y-154467857D01*
X356912857Y-154396428D01*
X356770000Y-154325000D01*
X356412857Y-154325000D01*
X356270000Y-154396428D01*
X356198571Y-154467857D01*
X356127142Y-154610714D01*
X356127142Y-154967857D01*
X356198571Y-155110714D01*
X356270000Y-155182142D01*
X356412857Y-155253571D01*
X356770000Y-155253571D01*
X356912857Y-155182142D01*
X356984285Y-155110714D01*
X355484285Y-155110714D02*
X355412857Y-155182142D01*
X355484285Y-155253571D01*
X355555714Y-155182142D01*
X355484285Y-155110714D01*
X355484285Y-155253571D01*
X354484285Y-153753571D02*
X354341428Y-153753571D01*
X354198571Y-153825000D01*
X354127142Y-153896428D01*
X354055714Y-154039285D01*
X353984285Y-154325000D01*
X353984285Y-154682142D01*
X354055714Y-154967857D01*
X354127142Y-155110714D01*
X354198571Y-155182142D01*
X354341428Y-155253571D01*
X354484285Y-155253571D01*
X354627142Y-155182142D01*
X354698571Y-155110714D01*
X354770000Y-154967857D01*
X354841428Y-154682142D01*
X354841428Y-154325000D01*
X354770000Y-154039285D01*
X354698571Y-153896428D01*
X354627142Y-153825000D01*
X354484285Y-153753571D01*
X353555714Y-153753571D02*
X353055714Y-155253571D01*
X352555714Y-153753571D01*
X356127142Y-114475000D02*
X356270000Y-114403571D01*
X356484285Y-114403571D01*
X356698571Y-114475000D01*
X356841428Y-114617857D01*
X356912857Y-114760714D01*
X356984285Y-115046428D01*
X356984285Y-115260714D01*
X356912857Y-115546428D01*
X356841428Y-115689285D01*
X356698571Y-115832142D01*
X356484285Y-115903571D01*
X356341428Y-115903571D01*
X356127142Y-115832142D01*
X356055714Y-115760714D01*
X356055714Y-115260714D01*
X356341428Y-115260714D01*
X355412857Y-115903571D02*
X355412857Y-114403571D01*
X354555714Y-115903571D01*
X354555714Y-114403571D01*
X353841428Y-115903571D02*
X353841428Y-114403571D01*
X353484285Y-114403571D01*
X353270000Y-114475000D01*
X353127142Y-114617857D01*
X353055714Y-114760714D01*
X352984285Y-115046428D01*
X352984285Y-115260714D01*
X353055714Y-115546428D01*
X353127142Y-115689285D01*
X353270000Y-115832142D01*
X353484285Y-115903571D01*
X353841428Y-115903571D01*
X356055714Y-118210714D02*
X356127142Y-118282142D01*
X356341428Y-118353571D01*
X356484285Y-118353571D01*
X356698571Y-118282142D01*
X356841428Y-118139285D01*
X356912857Y-117996428D01*
X356984285Y-117710714D01*
X356984285Y-117496428D01*
X356912857Y-117210714D01*
X356841428Y-117067857D01*
X356698571Y-116925000D01*
X356484285Y-116853571D01*
X356341428Y-116853571D01*
X356127142Y-116925000D01*
X356055714Y-116996428D01*
X355412857Y-118353571D02*
X355412857Y-116853571D01*
X354555714Y-118353571D02*
X355198571Y-117496428D01*
X354555714Y-116853571D02*
X355412857Y-117710714D01*
X353912857Y-118353571D02*
X353912857Y-116853571D01*
X356984285Y-120732142D02*
X356770000Y-120803571D01*
X356412857Y-120803571D01*
X356270000Y-120732142D01*
X356198571Y-120660714D01*
X356127142Y-120517857D01*
X356127142Y-120375000D01*
X356198571Y-120232142D01*
X356270000Y-120160714D01*
X356412857Y-120089285D01*
X356698571Y-120017857D01*
X356841428Y-119946428D01*
X356912857Y-119875000D01*
X356984285Y-119732142D01*
X356984285Y-119589285D01*
X356912857Y-119446428D01*
X356841428Y-119375000D01*
X356698571Y-119303571D01*
X356341428Y-119303571D01*
X356127142Y-119375000D01*
X355484285Y-120803571D02*
X355484285Y-119303571D01*
X355127142Y-119303571D01*
X354912857Y-119375000D01*
X354770000Y-119517857D01*
X354698571Y-119660714D01*
X354627142Y-119946428D01*
X354627142Y-120160714D01*
X354698571Y-120446428D01*
X354770000Y-120589285D01*
X354912857Y-120732142D01*
X355127142Y-120803571D01*
X355484285Y-120803571D01*
X353984285Y-120803571D02*
X353984285Y-119303571D01*
X356198571Y-121753571D02*
X356912857Y-121753571D01*
X356984285Y-122467857D01*
X356912857Y-122396428D01*
X356770000Y-122325000D01*
X356412857Y-122325000D01*
X356270000Y-122396428D01*
X356198571Y-122467857D01*
X356127142Y-122610714D01*
X356127142Y-122967857D01*
X356198571Y-123110714D01*
X356270000Y-123182142D01*
X356412857Y-123253571D01*
X356770000Y-123253571D01*
X356912857Y-123182142D01*
X356984285Y-123110714D01*
X355484285Y-123110714D02*
X355412857Y-123182142D01*
X355484285Y-123253571D01*
X355555714Y-123182142D01*
X355484285Y-123110714D01*
X355484285Y-123253571D01*
X354484285Y-121753571D02*
X354341428Y-121753571D01*
X354198571Y-121825000D01*
X354127142Y-121896428D01*
X354055714Y-122039285D01*
X353984285Y-122325000D01*
X353984285Y-122682142D01*
X354055714Y-122967857D01*
X354127142Y-123110714D01*
X354198571Y-123182142D01*
X354341428Y-123253571D01*
X354484285Y-123253571D01*
X354627142Y-123182142D01*
X354698571Y-123110714D01*
X354770000Y-122967857D01*
X354841428Y-122682142D01*
X354841428Y-122325000D01*
X354770000Y-122039285D01*
X354698571Y-121896428D01*
X354627142Y-121825000D01*
X354484285Y-121753571D01*
X353555714Y-121753571D02*
X353055714Y-123253571D01*
X352555714Y-121753571D01*
X356127142Y-82475000D02*
X356270000Y-82403571D01*
X356484285Y-82403571D01*
X356698571Y-82475000D01*
X356841428Y-82617857D01*
X356912857Y-82760714D01*
X356984285Y-83046428D01*
X356984285Y-83260714D01*
X356912857Y-83546428D01*
X356841428Y-83689285D01*
X356698571Y-83832142D01*
X356484285Y-83903571D01*
X356341428Y-83903571D01*
X356127142Y-83832142D01*
X356055714Y-83760714D01*
X356055714Y-83260714D01*
X356341428Y-83260714D01*
X355412857Y-83903571D02*
X355412857Y-82403571D01*
X354555714Y-83903571D01*
X354555714Y-82403571D01*
X353841428Y-83903571D02*
X353841428Y-82403571D01*
X353484285Y-82403571D01*
X353270000Y-82475000D01*
X353127142Y-82617857D01*
X353055714Y-82760714D01*
X352984285Y-83046428D01*
X352984285Y-83260714D01*
X353055714Y-83546428D01*
X353127142Y-83689285D01*
X353270000Y-83832142D01*
X353484285Y-83903571D01*
X353841428Y-83903571D01*
X356055714Y-86210714D02*
X356127142Y-86282142D01*
X356341428Y-86353571D01*
X356484285Y-86353571D01*
X356698571Y-86282142D01*
X356841428Y-86139285D01*
X356912857Y-85996428D01*
X356984285Y-85710714D01*
X356984285Y-85496428D01*
X356912857Y-85210714D01*
X356841428Y-85067857D01*
X356698571Y-84925000D01*
X356484285Y-84853571D01*
X356341428Y-84853571D01*
X356127142Y-84925000D01*
X356055714Y-84996428D01*
X355412857Y-86353571D02*
X355412857Y-84853571D01*
X354555714Y-86353571D02*
X355198571Y-85496428D01*
X354555714Y-84853571D02*
X355412857Y-85710714D01*
X353912857Y-86353571D02*
X353912857Y-84853571D01*
X356984285Y-88732142D02*
X356770000Y-88803571D01*
X356412857Y-88803571D01*
X356270000Y-88732142D01*
X356198571Y-88660714D01*
X356127142Y-88517857D01*
X356127142Y-88375000D01*
X356198571Y-88232142D01*
X356270000Y-88160714D01*
X356412857Y-88089285D01*
X356698571Y-88017857D01*
X356841428Y-87946428D01*
X356912857Y-87875000D01*
X356984285Y-87732142D01*
X356984285Y-87589285D01*
X356912857Y-87446428D01*
X356841428Y-87375000D01*
X356698571Y-87303571D01*
X356341428Y-87303571D01*
X356127142Y-87375000D01*
X355484285Y-88803571D02*
X355484285Y-87303571D01*
X355127142Y-87303571D01*
X354912857Y-87375000D01*
X354770000Y-87517857D01*
X354698571Y-87660714D01*
X354627142Y-87946428D01*
X354627142Y-88160714D01*
X354698571Y-88446428D01*
X354770000Y-88589285D01*
X354912857Y-88732142D01*
X355127142Y-88803571D01*
X355484285Y-88803571D01*
X353984285Y-88803571D02*
X353984285Y-87303571D01*
X356198571Y-89753571D02*
X356912857Y-89753571D01*
X356984285Y-90467857D01*
X356912857Y-90396428D01*
X356770000Y-90325000D01*
X356412857Y-90325000D01*
X356270000Y-90396428D01*
X356198571Y-90467857D01*
X356127142Y-90610714D01*
X356127142Y-90967857D01*
X356198571Y-91110714D01*
X356270000Y-91182142D01*
X356412857Y-91253571D01*
X356770000Y-91253571D01*
X356912857Y-91182142D01*
X356984285Y-91110714D01*
X355484285Y-91110714D02*
X355412857Y-91182142D01*
X355484285Y-91253571D01*
X355555714Y-91182142D01*
X355484285Y-91110714D01*
X355484285Y-91253571D01*
X354484285Y-89753571D02*
X354341428Y-89753571D01*
X354198571Y-89825000D01*
X354127142Y-89896428D01*
X354055714Y-90039285D01*
X353984285Y-90325000D01*
X353984285Y-90682142D01*
X354055714Y-90967857D01*
X354127142Y-91110714D01*
X354198571Y-91182142D01*
X354341428Y-91253571D01*
X354484285Y-91253571D01*
X354627142Y-91182142D01*
X354698571Y-91110714D01*
X354770000Y-90967857D01*
X354841428Y-90682142D01*
X354841428Y-90325000D01*
X354770000Y-90039285D01*
X354698571Y-89896428D01*
X354627142Y-89825000D01*
X354484285Y-89753571D01*
X353555714Y-89753571D02*
X353055714Y-91253571D01*
X352555714Y-89753571D01*
X360715654Y-195861904D02*
X360894226Y-195766666D01*
X360977559Y-195671428D01*
X361048988Y-195480952D01*
X361037083Y-195385714D01*
X360918035Y-195195238D01*
X360810892Y-195100000D01*
X360608511Y-195004761D01*
X360227559Y-195004761D01*
X360048988Y-195100000D01*
X359965654Y-195195238D01*
X359894226Y-195385714D01*
X359906130Y-195480952D01*
X360025178Y-195671428D01*
X360132321Y-195766666D01*
X360334702Y-195861904D01*
X360715654Y-195861904D01*
X360918035Y-195957142D01*
X361025178Y-196052380D01*
X361144226Y-196242857D01*
X361191845Y-196623809D01*
X361120416Y-196814285D01*
X361037083Y-196909523D01*
X360858511Y-197004761D01*
X360477559Y-197004761D01*
X360275178Y-196909523D01*
X360168035Y-196814285D01*
X360048988Y-196623809D01*
X360001369Y-196242857D01*
X360072797Y-196052380D01*
X360156130Y-195957142D01*
X360334702Y-195861904D01*
X358810892Y-195861904D02*
X358989464Y-195766666D01*
X359072797Y-195671428D01*
X359144226Y-195480952D01*
X359132321Y-195385714D01*
X359013273Y-195195238D01*
X358906130Y-195100000D01*
X358703750Y-195004761D01*
X358322797Y-195004761D01*
X358144226Y-195100000D01*
X358060892Y-195195238D01*
X357989464Y-195385714D01*
X358001369Y-195480952D01*
X358120416Y-195671428D01*
X358227559Y-195766666D01*
X358429940Y-195861904D01*
X358810892Y-195861904D01*
X359013273Y-195957142D01*
X359120416Y-196052380D01*
X359239464Y-196242857D01*
X359287083Y-196623809D01*
X359215654Y-196814285D01*
X359132321Y-196909523D01*
X358953750Y-197004761D01*
X358572797Y-197004761D01*
X358370416Y-196909523D01*
X358263273Y-196814285D01*
X358144226Y-196623809D01*
X358096607Y-196242857D01*
X358168035Y-196052380D01*
X358251369Y-195957142D01*
X358429940Y-195861904D01*
X354858511Y-197004761D02*
X355810892Y-197004761D01*
X355560892Y-195004761D01*
X354060892Y-195957142D02*
X353394226Y-195957142D01*
X353239464Y-197004761D02*
X354191845Y-197004761D01*
X353941845Y-195004761D01*
X352989464Y-195004761D01*
X352382321Y-197004761D02*
X352132321Y-195004761D01*
X351656130Y-195004761D01*
X351382321Y-195100000D01*
X351215654Y-195290476D01*
X351144226Y-195480952D01*
X351096607Y-195861904D01*
X351132321Y-196147619D01*
X351275178Y-196528571D01*
X351394226Y-196719047D01*
X351608511Y-196909523D01*
X351906130Y-197004761D01*
X352382321Y-197004761D01*
X348858511Y-197004761D02*
X348608511Y-195004761D01*
X347846607Y-195004761D01*
X347668035Y-195100000D01*
X347584702Y-195195238D01*
X347513273Y-195385714D01*
X347548988Y-195671428D01*
X347668035Y-195861904D01*
X347775178Y-195957142D01*
X347977559Y-196052380D01*
X348739464Y-196052380D01*
X346858511Y-197004761D02*
X346691845Y-195671428D01*
X346608511Y-195004761D02*
X346715654Y-195100000D01*
X346632321Y-195195238D01*
X346525178Y-195100000D01*
X346608511Y-195004761D01*
X346632321Y-195195238D01*
X345048988Y-197004761D02*
X344918035Y-195957142D01*
X344989464Y-195766666D01*
X345168035Y-195671428D01*
X345548988Y-195671428D01*
X345751369Y-195766666D01*
X345037083Y-196909523D02*
X345239464Y-197004761D01*
X345715654Y-197004761D01*
X345894226Y-196909523D01*
X345965654Y-196719047D01*
X345941845Y-196528571D01*
X345822797Y-196338095D01*
X345620416Y-196242857D01*
X345144226Y-196242857D01*
X344941845Y-196147619D01*
X343929940Y-195671428D02*
X344096607Y-197004761D01*
X343953750Y-195861904D02*
X343846607Y-195766666D01*
X343644226Y-195671428D01*
X343358511Y-195671428D01*
X343179940Y-195766666D01*
X343108511Y-195957142D01*
X343239464Y-197004761D01*
X342001369Y-197004761D02*
X342179940Y-196909523D01*
X342263273Y-196814285D01*
X342334702Y-196623809D01*
X342263273Y-196052380D01*
X342144226Y-195861904D01*
X342037083Y-195766666D01*
X341834702Y-195671428D01*
X341548988Y-195671428D01*
X341370416Y-195766666D01*
X341287083Y-195861904D01*
X341215654Y-196052380D01*
X341287083Y-196623809D01*
X341406130Y-196814285D01*
X341513273Y-196909523D01*
X341715654Y-197004761D01*
X342001369Y-197004761D01*
X338953750Y-197004761D02*
X338703750Y-195004761D01*
X337810892Y-197004761D02*
X338525178Y-195861904D01*
X337560892Y-195004761D02*
X338846607Y-196147619D01*
X336179940Y-196909523D02*
X336382321Y-197004761D01*
X336763273Y-197004761D01*
X336941845Y-196909523D01*
X337013273Y-196719047D01*
X336918035Y-195957142D01*
X336798988Y-195766666D01*
X336596607Y-195671428D01*
X336215654Y-195671428D01*
X336037083Y-195766666D01*
X335965654Y-195957142D01*
X335989464Y-196147619D01*
X336965654Y-196338095D01*
X335263273Y-195671428D02*
X334953750Y-197004761D01*
X334310892Y-195671428D02*
X334953750Y-197004761D01*
X335203750Y-197480952D01*
X335310892Y-197576190D01*
X335513273Y-197671428D01*
X333715654Y-197004761D02*
X333465654Y-195004761D01*
X333560892Y-195766666D02*
X333358511Y-195671428D01*
X332977559Y-195671428D01*
X332798988Y-195766666D01*
X332715654Y-195861904D01*
X332644226Y-196052380D01*
X332715654Y-196623809D01*
X332834702Y-196814285D01*
X332941845Y-196909523D01*
X333144226Y-197004761D01*
X333525178Y-197004761D01*
X333703750Y-196909523D01*
X331620416Y-197004761D02*
X331798988Y-196909523D01*
X331882321Y-196814285D01*
X331953750Y-196623809D01*
X331882321Y-196052380D01*
X331763273Y-195861904D01*
X331656130Y-195766666D01*
X331453750Y-195671428D01*
X331168035Y-195671428D01*
X330989464Y-195766666D01*
X330906130Y-195861904D01*
X330834702Y-196052380D01*
X330906130Y-196623809D01*
X331025178Y-196814285D01*
X331132321Y-196909523D01*
X331334702Y-197004761D01*
X331620416Y-197004761D01*
X329239464Y-197004761D02*
X329108511Y-195957142D01*
X329179940Y-195766666D01*
X329358511Y-195671428D01*
X329739464Y-195671428D01*
X329941845Y-195766666D01*
X329227559Y-196909523D02*
X329429940Y-197004761D01*
X329906130Y-197004761D01*
X330084702Y-196909523D01*
X330156130Y-196719047D01*
X330132321Y-196528571D01*
X330013273Y-196338095D01*
X329810892Y-196242857D01*
X329334702Y-196242857D01*
X329132321Y-196147619D01*
X328287083Y-197004761D02*
X328120416Y-195671428D01*
X328168035Y-196052380D02*
X328048988Y-195861904D01*
X327941845Y-195766666D01*
X327739464Y-195671428D01*
X327548988Y-195671428D01*
X326191845Y-197004761D02*
X325941845Y-195004761D01*
X326179940Y-196909523D02*
X326382321Y-197004761D01*
X326763273Y-197004761D01*
X326941845Y-196909523D01*
X327025178Y-196814285D01*
X327096607Y-196623809D01*
X327025178Y-196052380D01*
X326906130Y-195861904D01*
X326798988Y-195766666D01*
X326596607Y-195671428D01*
X326215654Y-195671428D01*
X326037083Y-195766666D01*
X325215654Y-196814285D02*
X325132321Y-196909523D01*
X325239464Y-197004761D01*
X325322797Y-196909523D01*
X325215654Y-196814285D01*
X325239464Y-197004761D01*
X360715654Y-163861904D02*
X360894226Y-163766666D01*
X360977559Y-163671428D01*
X361048988Y-163480952D01*
X361037083Y-163385714D01*
X360918035Y-163195238D01*
X360810892Y-163100000D01*
X360608511Y-163004761D01*
X360227559Y-163004761D01*
X360048988Y-163100000D01*
X359965654Y-163195238D01*
X359894226Y-163385714D01*
X359906130Y-163480952D01*
X360025178Y-163671428D01*
X360132321Y-163766666D01*
X360334702Y-163861904D01*
X360715654Y-163861904D01*
X360918035Y-163957142D01*
X361025178Y-164052380D01*
X361144226Y-164242857D01*
X361191845Y-164623809D01*
X361120416Y-164814285D01*
X361037083Y-164909523D01*
X360858511Y-165004761D01*
X360477559Y-165004761D01*
X360275178Y-164909523D01*
X360168035Y-164814285D01*
X360048988Y-164623809D01*
X360001369Y-164242857D01*
X360072797Y-164052380D01*
X360156130Y-163957142D01*
X360334702Y-163861904D01*
X358810892Y-163861904D02*
X358989464Y-163766666D01*
X359072797Y-163671428D01*
X359144226Y-163480952D01*
X359132321Y-163385714D01*
X359013273Y-163195238D01*
X358906130Y-163100000D01*
X358703750Y-163004761D01*
X358322797Y-163004761D01*
X358144226Y-163100000D01*
X358060892Y-163195238D01*
X357989464Y-163385714D01*
X358001369Y-163480952D01*
X358120416Y-163671428D01*
X358227559Y-163766666D01*
X358429940Y-163861904D01*
X358810892Y-163861904D01*
X359013273Y-163957142D01*
X359120416Y-164052380D01*
X359239464Y-164242857D01*
X359287083Y-164623809D01*
X359215654Y-164814285D01*
X359132321Y-164909523D01*
X358953750Y-165004761D01*
X358572797Y-165004761D01*
X358370416Y-164909523D01*
X358263273Y-164814285D01*
X358144226Y-164623809D01*
X358096607Y-164242857D01*
X358168035Y-164052380D01*
X358251369Y-163957142D01*
X358429940Y-163861904D01*
X354858511Y-165004761D02*
X355810892Y-165004761D01*
X355560892Y-163004761D01*
X354060892Y-163957142D02*
X353394226Y-163957142D01*
X353239464Y-165004761D02*
X354191845Y-165004761D01*
X353941845Y-163004761D01*
X352989464Y-163004761D01*
X352382321Y-165004761D02*
X352132321Y-163004761D01*
X351656130Y-163004761D01*
X351382321Y-163100000D01*
X351215654Y-163290476D01*
X351144226Y-163480952D01*
X351096607Y-163861904D01*
X351132321Y-164147619D01*
X351275178Y-164528571D01*
X351394226Y-164719047D01*
X351608511Y-164909523D01*
X351906130Y-165004761D01*
X352382321Y-165004761D01*
X348858511Y-165004761D02*
X348608511Y-163004761D01*
X347846607Y-163004761D01*
X347668035Y-163100000D01*
X347584702Y-163195238D01*
X347513273Y-163385714D01*
X347548988Y-163671428D01*
X347668035Y-163861904D01*
X347775178Y-163957142D01*
X347977559Y-164052380D01*
X348739464Y-164052380D01*
X346858511Y-165004761D02*
X346691845Y-163671428D01*
X346608511Y-163004761D02*
X346715654Y-163100000D01*
X346632321Y-163195238D01*
X346525178Y-163100000D01*
X346608511Y-163004761D01*
X346632321Y-163195238D01*
X345048988Y-165004761D02*
X344918035Y-163957142D01*
X344989464Y-163766666D01*
X345168035Y-163671428D01*
X345548988Y-163671428D01*
X345751369Y-163766666D01*
X345037083Y-164909523D02*
X345239464Y-165004761D01*
X345715654Y-165004761D01*
X345894226Y-164909523D01*
X345965654Y-164719047D01*
X345941845Y-164528571D01*
X345822797Y-164338095D01*
X345620416Y-164242857D01*
X345144226Y-164242857D01*
X344941845Y-164147619D01*
X343929940Y-163671428D02*
X344096607Y-165004761D01*
X343953750Y-163861904D02*
X343846607Y-163766666D01*
X343644226Y-163671428D01*
X343358511Y-163671428D01*
X343179940Y-163766666D01*
X343108511Y-163957142D01*
X343239464Y-165004761D01*
X342001369Y-165004761D02*
X342179940Y-164909523D01*
X342263273Y-164814285D01*
X342334702Y-164623809D01*
X342263273Y-164052380D01*
X342144226Y-163861904D01*
X342037083Y-163766666D01*
X341834702Y-163671428D01*
X341548988Y-163671428D01*
X341370416Y-163766666D01*
X341287083Y-163861904D01*
X341215654Y-164052380D01*
X341287083Y-164623809D01*
X341406130Y-164814285D01*
X341513273Y-164909523D01*
X341715654Y-165004761D01*
X342001369Y-165004761D01*
X338953750Y-165004761D02*
X338703750Y-163004761D01*
X337810892Y-165004761D02*
X338525178Y-163861904D01*
X337560892Y-163004761D02*
X338846607Y-164147619D01*
X336179940Y-164909523D02*
X336382321Y-165004761D01*
X336763273Y-165004761D01*
X336941845Y-164909523D01*
X337013273Y-164719047D01*
X336918035Y-163957142D01*
X336798988Y-163766666D01*
X336596607Y-163671428D01*
X336215654Y-163671428D01*
X336037083Y-163766666D01*
X335965654Y-163957142D01*
X335989464Y-164147619D01*
X336965654Y-164338095D01*
X335263273Y-163671428D02*
X334953750Y-165004761D01*
X334310892Y-163671428D02*
X334953750Y-165004761D01*
X335203750Y-165480952D01*
X335310892Y-165576190D01*
X335513273Y-165671428D01*
X333715654Y-165004761D02*
X333465654Y-163004761D01*
X333560892Y-163766666D02*
X333358511Y-163671428D01*
X332977559Y-163671428D01*
X332798988Y-163766666D01*
X332715654Y-163861904D01*
X332644226Y-164052380D01*
X332715654Y-164623809D01*
X332834702Y-164814285D01*
X332941845Y-164909523D01*
X333144226Y-165004761D01*
X333525178Y-165004761D01*
X333703750Y-164909523D01*
X331620416Y-165004761D02*
X331798988Y-164909523D01*
X331882321Y-164814285D01*
X331953750Y-164623809D01*
X331882321Y-164052380D01*
X331763273Y-163861904D01*
X331656130Y-163766666D01*
X331453750Y-163671428D01*
X331168035Y-163671428D01*
X330989464Y-163766666D01*
X330906130Y-163861904D01*
X330834702Y-164052380D01*
X330906130Y-164623809D01*
X331025178Y-164814285D01*
X331132321Y-164909523D01*
X331334702Y-165004761D01*
X331620416Y-165004761D01*
X329239464Y-165004761D02*
X329108511Y-163957142D01*
X329179940Y-163766666D01*
X329358511Y-163671428D01*
X329739464Y-163671428D01*
X329941845Y-163766666D01*
X329227559Y-164909523D02*
X329429940Y-165004761D01*
X329906130Y-165004761D01*
X330084702Y-164909523D01*
X330156130Y-164719047D01*
X330132321Y-164528571D01*
X330013273Y-164338095D01*
X329810892Y-164242857D01*
X329334702Y-164242857D01*
X329132321Y-164147619D01*
X328287083Y-165004761D02*
X328120416Y-163671428D01*
X328168035Y-164052380D02*
X328048988Y-163861904D01*
X327941845Y-163766666D01*
X327739464Y-163671428D01*
X327548988Y-163671428D01*
X326191845Y-165004761D02*
X325941845Y-163004761D01*
X326179940Y-164909523D02*
X326382321Y-165004761D01*
X326763273Y-165004761D01*
X326941845Y-164909523D01*
X327025178Y-164814285D01*
X327096607Y-164623809D01*
X327025178Y-164052380D01*
X326906130Y-163861904D01*
X326798988Y-163766666D01*
X326596607Y-163671428D01*
X326215654Y-163671428D01*
X326037083Y-163766666D01*
X325215654Y-164814285D02*
X325132321Y-164909523D01*
X325239464Y-165004761D01*
X325322797Y-164909523D01*
X325215654Y-164814285D01*
X325239464Y-165004761D01*
X360715654Y-131861904D02*
X360894226Y-131766666D01*
X360977559Y-131671428D01*
X361048988Y-131480952D01*
X361037083Y-131385714D01*
X360918035Y-131195238D01*
X360810892Y-131100000D01*
X360608511Y-131004761D01*
X360227559Y-131004761D01*
X360048988Y-131100000D01*
X359965654Y-131195238D01*
X359894226Y-131385714D01*
X359906130Y-131480952D01*
X360025178Y-131671428D01*
X360132321Y-131766666D01*
X360334702Y-131861904D01*
X360715654Y-131861904D01*
X360918035Y-131957142D01*
X361025178Y-132052380D01*
X361144226Y-132242857D01*
X361191845Y-132623809D01*
X361120416Y-132814285D01*
X361037083Y-132909523D01*
X360858511Y-133004761D01*
X360477559Y-133004761D01*
X360275178Y-132909523D01*
X360168035Y-132814285D01*
X360048988Y-132623809D01*
X360001369Y-132242857D01*
X360072797Y-132052380D01*
X360156130Y-131957142D01*
X360334702Y-131861904D01*
X358810892Y-131861904D02*
X358989464Y-131766666D01*
X359072797Y-131671428D01*
X359144226Y-131480952D01*
X359132321Y-131385714D01*
X359013273Y-131195238D01*
X358906130Y-131100000D01*
X358703750Y-131004761D01*
X358322797Y-131004761D01*
X358144226Y-131100000D01*
X358060892Y-131195238D01*
X357989464Y-131385714D01*
X358001369Y-131480952D01*
X358120416Y-131671428D01*
X358227559Y-131766666D01*
X358429940Y-131861904D01*
X358810892Y-131861904D01*
X359013273Y-131957142D01*
X359120416Y-132052380D01*
X359239464Y-132242857D01*
X359287083Y-132623809D01*
X359215654Y-132814285D01*
X359132321Y-132909523D01*
X358953750Y-133004761D01*
X358572797Y-133004761D01*
X358370416Y-132909523D01*
X358263273Y-132814285D01*
X358144226Y-132623809D01*
X358096607Y-132242857D01*
X358168035Y-132052380D01*
X358251369Y-131957142D01*
X358429940Y-131861904D01*
X354858511Y-133004761D02*
X355810892Y-133004761D01*
X355560892Y-131004761D01*
X354060892Y-131957142D02*
X353394226Y-131957142D01*
X353239464Y-133004761D02*
X354191845Y-133004761D01*
X353941845Y-131004761D01*
X352989464Y-131004761D01*
X352382321Y-133004761D02*
X352132321Y-131004761D01*
X351656130Y-131004761D01*
X351382321Y-131100000D01*
X351215654Y-131290476D01*
X351144226Y-131480952D01*
X351096607Y-131861904D01*
X351132321Y-132147619D01*
X351275178Y-132528571D01*
X351394226Y-132719047D01*
X351608511Y-132909523D01*
X351906130Y-133004761D01*
X352382321Y-133004761D01*
X348858511Y-133004761D02*
X348608511Y-131004761D01*
X347846607Y-131004761D01*
X347668035Y-131100000D01*
X347584702Y-131195238D01*
X347513273Y-131385714D01*
X347548988Y-131671428D01*
X347668035Y-131861904D01*
X347775178Y-131957142D01*
X347977559Y-132052380D01*
X348739464Y-132052380D01*
X346858511Y-133004761D02*
X346691845Y-131671428D01*
X346608511Y-131004761D02*
X346715654Y-131100000D01*
X346632321Y-131195238D01*
X346525178Y-131100000D01*
X346608511Y-131004761D01*
X346632321Y-131195238D01*
X345048988Y-133004761D02*
X344918035Y-131957142D01*
X344989464Y-131766666D01*
X345168035Y-131671428D01*
X345548988Y-131671428D01*
X345751369Y-131766666D01*
X345037083Y-132909523D02*
X345239464Y-133004761D01*
X345715654Y-133004761D01*
X345894226Y-132909523D01*
X345965654Y-132719047D01*
X345941845Y-132528571D01*
X345822797Y-132338095D01*
X345620416Y-132242857D01*
X345144226Y-132242857D01*
X344941845Y-132147619D01*
X343929940Y-131671428D02*
X344096607Y-133004761D01*
X343953750Y-131861904D02*
X343846607Y-131766666D01*
X343644226Y-131671428D01*
X343358511Y-131671428D01*
X343179940Y-131766666D01*
X343108511Y-131957142D01*
X343239464Y-133004761D01*
X342001369Y-133004761D02*
X342179940Y-132909523D01*
X342263273Y-132814285D01*
X342334702Y-132623809D01*
X342263273Y-132052380D01*
X342144226Y-131861904D01*
X342037083Y-131766666D01*
X341834702Y-131671428D01*
X341548988Y-131671428D01*
X341370416Y-131766666D01*
X341287083Y-131861904D01*
X341215654Y-132052380D01*
X341287083Y-132623809D01*
X341406130Y-132814285D01*
X341513273Y-132909523D01*
X341715654Y-133004761D01*
X342001369Y-133004761D01*
X338953750Y-133004761D02*
X338703750Y-131004761D01*
X337810892Y-133004761D02*
X338525178Y-131861904D01*
X337560892Y-131004761D02*
X338846607Y-132147619D01*
X336179940Y-132909523D02*
X336382321Y-133004761D01*
X336763273Y-133004761D01*
X336941845Y-132909523D01*
X337013273Y-132719047D01*
X336918035Y-131957142D01*
X336798988Y-131766666D01*
X336596607Y-131671428D01*
X336215654Y-131671428D01*
X336037083Y-131766666D01*
X335965654Y-131957142D01*
X335989464Y-132147619D01*
X336965654Y-132338095D01*
X335263273Y-131671428D02*
X334953750Y-133004761D01*
X334310892Y-131671428D02*
X334953750Y-133004761D01*
X335203750Y-133480952D01*
X335310892Y-133576190D01*
X335513273Y-133671428D01*
X333715654Y-133004761D02*
X333465654Y-131004761D01*
X333560892Y-131766666D02*
X333358511Y-131671428D01*
X332977559Y-131671428D01*
X332798988Y-131766666D01*
X332715654Y-131861904D01*
X332644226Y-132052380D01*
X332715654Y-132623809D01*
X332834702Y-132814285D01*
X332941845Y-132909523D01*
X333144226Y-133004761D01*
X333525178Y-133004761D01*
X333703750Y-132909523D01*
X331620416Y-133004761D02*
X331798988Y-132909523D01*
X331882321Y-132814285D01*
X331953750Y-132623809D01*
X331882321Y-132052380D01*
X331763273Y-131861904D01*
X331656130Y-131766666D01*
X331453750Y-131671428D01*
X331168035Y-131671428D01*
X330989464Y-131766666D01*
X330906130Y-131861904D01*
X330834702Y-132052380D01*
X330906130Y-132623809D01*
X331025178Y-132814285D01*
X331132321Y-132909523D01*
X331334702Y-133004761D01*
X331620416Y-133004761D01*
X329239464Y-133004761D02*
X329108511Y-131957142D01*
X329179940Y-131766666D01*
X329358511Y-131671428D01*
X329739464Y-131671428D01*
X329941845Y-131766666D01*
X329227559Y-132909523D02*
X329429940Y-133004761D01*
X329906130Y-133004761D01*
X330084702Y-132909523D01*
X330156130Y-132719047D01*
X330132321Y-132528571D01*
X330013273Y-132338095D01*
X329810892Y-132242857D01*
X329334702Y-132242857D01*
X329132321Y-132147619D01*
X328287083Y-133004761D02*
X328120416Y-131671428D01*
X328168035Y-132052380D02*
X328048988Y-131861904D01*
X327941845Y-131766666D01*
X327739464Y-131671428D01*
X327548988Y-131671428D01*
X326191845Y-133004761D02*
X325941845Y-131004761D01*
X326179940Y-132909523D02*
X326382321Y-133004761D01*
X326763273Y-133004761D01*
X326941845Y-132909523D01*
X327025178Y-132814285D01*
X327096607Y-132623809D01*
X327025178Y-132052380D01*
X326906130Y-131861904D01*
X326798988Y-131766666D01*
X326596607Y-131671428D01*
X326215654Y-131671428D01*
X326037083Y-131766666D01*
X325215654Y-132814285D02*
X325132321Y-132909523D01*
X325239464Y-133004761D01*
X325322797Y-132909523D01*
X325215654Y-132814285D01*
X325239464Y-133004761D01*
X360715654Y-99861904D02*
X360894226Y-99766666D01*
X360977559Y-99671428D01*
X361048988Y-99480952D01*
X361037083Y-99385714D01*
X360918035Y-99195238D01*
X360810892Y-99100000D01*
X360608511Y-99004761D01*
X360227559Y-99004761D01*
X360048988Y-99100000D01*
X359965654Y-99195238D01*
X359894226Y-99385714D01*
X359906130Y-99480952D01*
X360025178Y-99671428D01*
X360132321Y-99766666D01*
X360334702Y-99861904D01*
X360715654Y-99861904D01*
X360918035Y-99957142D01*
X361025178Y-100052380D01*
X361144226Y-100242857D01*
X361191845Y-100623809D01*
X361120416Y-100814285D01*
X361037083Y-100909523D01*
X360858511Y-101004761D01*
X360477559Y-101004761D01*
X360275178Y-100909523D01*
X360168035Y-100814285D01*
X360048988Y-100623809D01*
X360001369Y-100242857D01*
X360072797Y-100052380D01*
X360156130Y-99957142D01*
X360334702Y-99861904D01*
X358810892Y-99861904D02*
X358989464Y-99766666D01*
X359072797Y-99671428D01*
X359144226Y-99480952D01*
X359132321Y-99385714D01*
X359013273Y-99195238D01*
X358906130Y-99100000D01*
X358703750Y-99004761D01*
X358322797Y-99004761D01*
X358144226Y-99100000D01*
X358060892Y-99195238D01*
X357989464Y-99385714D01*
X358001369Y-99480952D01*
X358120416Y-99671428D01*
X358227559Y-99766666D01*
X358429940Y-99861904D01*
X358810892Y-99861904D01*
X359013273Y-99957142D01*
X359120416Y-100052380D01*
X359239464Y-100242857D01*
X359287083Y-100623809D01*
X359215654Y-100814285D01*
X359132321Y-100909523D01*
X358953750Y-101004761D01*
X358572797Y-101004761D01*
X358370416Y-100909523D01*
X358263273Y-100814285D01*
X358144226Y-100623809D01*
X358096607Y-100242857D01*
X358168035Y-100052380D01*
X358251369Y-99957142D01*
X358429940Y-99861904D01*
X354858511Y-101004761D02*
X355810892Y-101004761D01*
X355560892Y-99004761D01*
X354060892Y-99957142D02*
X353394226Y-99957142D01*
X353239464Y-101004761D02*
X354191845Y-101004761D01*
X353941845Y-99004761D01*
X352989464Y-99004761D01*
X352382321Y-101004761D02*
X352132321Y-99004761D01*
X351656130Y-99004761D01*
X351382321Y-99100000D01*
X351215654Y-99290476D01*
X351144226Y-99480952D01*
X351096607Y-99861904D01*
X351132321Y-100147619D01*
X351275178Y-100528571D01*
X351394226Y-100719047D01*
X351608511Y-100909523D01*
X351906130Y-101004761D01*
X352382321Y-101004761D01*
X348858511Y-101004761D02*
X348608511Y-99004761D01*
X347846607Y-99004761D01*
X347668035Y-99100000D01*
X347584702Y-99195238D01*
X347513273Y-99385714D01*
X347548988Y-99671428D01*
X347668035Y-99861904D01*
X347775178Y-99957142D01*
X347977559Y-100052380D01*
X348739464Y-100052380D01*
X346858511Y-101004761D02*
X346691845Y-99671428D01*
X346608511Y-99004761D02*
X346715654Y-99100000D01*
X346632321Y-99195238D01*
X346525178Y-99100000D01*
X346608511Y-99004761D01*
X346632321Y-99195238D01*
X345048988Y-101004761D02*
X344918035Y-99957142D01*
X344989464Y-99766666D01*
X345168035Y-99671428D01*
X345548988Y-99671428D01*
X345751369Y-99766666D01*
X345037083Y-100909523D02*
X345239464Y-101004761D01*
X345715654Y-101004761D01*
X345894226Y-100909523D01*
X345965654Y-100719047D01*
X345941845Y-100528571D01*
X345822797Y-100338095D01*
X345620416Y-100242857D01*
X345144226Y-100242857D01*
X344941845Y-100147619D01*
X343929940Y-99671428D02*
X344096607Y-101004761D01*
X343953750Y-99861904D02*
X343846607Y-99766666D01*
X343644226Y-99671428D01*
X343358511Y-99671428D01*
X343179940Y-99766666D01*
X343108511Y-99957142D01*
X343239464Y-101004761D01*
X342001369Y-101004761D02*
X342179940Y-100909523D01*
X342263273Y-100814285D01*
X342334702Y-100623809D01*
X342263273Y-100052380D01*
X342144226Y-99861904D01*
X342037083Y-99766666D01*
X341834702Y-99671428D01*
X341548988Y-99671428D01*
X341370416Y-99766666D01*
X341287083Y-99861904D01*
X341215654Y-100052380D01*
X341287083Y-100623809D01*
X341406130Y-100814285D01*
X341513273Y-100909523D01*
X341715654Y-101004761D01*
X342001369Y-101004761D01*
X338953750Y-101004761D02*
X338703750Y-99004761D01*
X337810892Y-101004761D02*
X338525178Y-99861904D01*
X337560892Y-99004761D02*
X338846607Y-100147619D01*
X336179940Y-100909523D02*
X336382321Y-101004761D01*
X336763273Y-101004761D01*
X336941845Y-100909523D01*
X337013273Y-100719047D01*
X336918035Y-99957142D01*
X336798988Y-99766666D01*
X336596607Y-99671428D01*
X336215654Y-99671428D01*
X336037083Y-99766666D01*
X335965654Y-99957142D01*
X335989464Y-100147619D01*
X336965654Y-100338095D01*
X335263273Y-99671428D02*
X334953750Y-101004761D01*
X334310892Y-99671428D02*
X334953750Y-101004761D01*
X335203750Y-101480952D01*
X335310892Y-101576190D01*
X335513273Y-101671428D01*
X333715654Y-101004761D02*
X333465654Y-99004761D01*
X333560892Y-99766666D02*
X333358511Y-99671428D01*
X332977559Y-99671428D01*
X332798988Y-99766666D01*
X332715654Y-99861904D01*
X332644226Y-100052380D01*
X332715654Y-100623809D01*
X332834702Y-100814285D01*
X332941845Y-100909523D01*
X333144226Y-101004761D01*
X333525178Y-101004761D01*
X333703750Y-100909523D01*
X331620416Y-101004761D02*
X331798988Y-100909523D01*
X331882321Y-100814285D01*
X331953750Y-100623809D01*
X331882321Y-100052380D01*
X331763273Y-99861904D01*
X331656130Y-99766666D01*
X331453750Y-99671428D01*
X331168035Y-99671428D01*
X330989464Y-99766666D01*
X330906130Y-99861904D01*
X330834702Y-100052380D01*
X330906130Y-100623809D01*
X331025178Y-100814285D01*
X331132321Y-100909523D01*
X331334702Y-101004761D01*
X331620416Y-101004761D01*
X329239464Y-101004761D02*
X329108511Y-99957142D01*
X329179940Y-99766666D01*
X329358511Y-99671428D01*
X329739464Y-99671428D01*
X329941845Y-99766666D01*
X329227559Y-100909523D02*
X329429940Y-101004761D01*
X329906130Y-101004761D01*
X330084702Y-100909523D01*
X330156130Y-100719047D01*
X330132321Y-100528571D01*
X330013273Y-100338095D01*
X329810892Y-100242857D01*
X329334702Y-100242857D01*
X329132321Y-100147619D01*
X328287083Y-101004761D02*
X328120416Y-99671428D01*
X328168035Y-100052380D02*
X328048988Y-99861904D01*
X327941845Y-99766666D01*
X327739464Y-99671428D01*
X327548988Y-99671428D01*
X326191845Y-101004761D02*
X325941845Y-99004761D01*
X326179940Y-100909523D02*
X326382321Y-101004761D01*
X326763273Y-101004761D01*
X326941845Y-100909523D01*
X327025178Y-100814285D01*
X327096607Y-100623809D01*
X327025178Y-100052380D01*
X326906130Y-99861904D01*
X326798988Y-99766666D01*
X326596607Y-99671428D01*
X326215654Y-99671428D01*
X326037083Y-99766666D01*
X325215654Y-100814285D02*
X325132321Y-100909523D01*
X325239464Y-101004761D01*
X325322797Y-100909523D01*
X325215654Y-100814285D01*
X325239464Y-101004761D01*
X360715654Y-67861904D02*
X360894226Y-67766666D01*
X360977559Y-67671428D01*
X361048988Y-67480952D01*
X361037083Y-67385714D01*
X360918035Y-67195238D01*
X360810892Y-67100000D01*
X360608511Y-67004761D01*
X360227559Y-67004761D01*
X360048988Y-67100000D01*
X359965654Y-67195238D01*
X359894226Y-67385714D01*
X359906130Y-67480952D01*
X360025178Y-67671428D01*
X360132321Y-67766666D01*
X360334702Y-67861904D01*
X360715654Y-67861904D01*
X360918035Y-67957142D01*
X361025178Y-68052380D01*
X361144226Y-68242857D01*
X361191845Y-68623809D01*
X361120416Y-68814285D01*
X361037083Y-68909523D01*
X360858511Y-69004761D01*
X360477559Y-69004761D01*
X360275178Y-68909523D01*
X360168035Y-68814285D01*
X360048988Y-68623809D01*
X360001369Y-68242857D01*
X360072797Y-68052380D01*
X360156130Y-67957142D01*
X360334702Y-67861904D01*
X358810892Y-67861904D02*
X358989464Y-67766666D01*
X359072797Y-67671428D01*
X359144226Y-67480952D01*
X359132321Y-67385714D01*
X359013273Y-67195238D01*
X358906130Y-67100000D01*
X358703750Y-67004761D01*
X358322797Y-67004761D01*
X358144226Y-67100000D01*
X358060892Y-67195238D01*
X357989464Y-67385714D01*
X358001369Y-67480952D01*
X358120416Y-67671428D01*
X358227559Y-67766666D01*
X358429940Y-67861904D01*
X358810892Y-67861904D01*
X359013273Y-67957142D01*
X359120416Y-68052380D01*
X359239464Y-68242857D01*
X359287083Y-68623809D01*
X359215654Y-68814285D01*
X359132321Y-68909523D01*
X358953750Y-69004761D01*
X358572797Y-69004761D01*
X358370416Y-68909523D01*
X358263273Y-68814285D01*
X358144226Y-68623809D01*
X358096607Y-68242857D01*
X358168035Y-68052380D01*
X358251369Y-67957142D01*
X358429940Y-67861904D01*
X354858511Y-69004761D02*
X355810892Y-69004761D01*
X355560892Y-67004761D01*
X354060892Y-67957142D02*
X353394226Y-67957142D01*
X353239464Y-69004761D02*
X354191845Y-69004761D01*
X353941845Y-67004761D01*
X352989464Y-67004761D01*
X352382321Y-69004761D02*
X352132321Y-67004761D01*
X351656130Y-67004761D01*
X351382321Y-67100000D01*
X351215654Y-67290476D01*
X351144226Y-67480952D01*
X351096607Y-67861904D01*
X351132321Y-68147619D01*
X351275178Y-68528571D01*
X351394226Y-68719047D01*
X351608511Y-68909523D01*
X351906130Y-69004761D01*
X352382321Y-69004761D01*
X348858511Y-69004761D02*
X348608511Y-67004761D01*
X347846607Y-67004761D01*
X347668035Y-67100000D01*
X347584702Y-67195238D01*
X347513273Y-67385714D01*
X347548988Y-67671428D01*
X347668035Y-67861904D01*
X347775178Y-67957142D01*
X347977559Y-68052380D01*
X348739464Y-68052380D01*
X346858511Y-69004761D02*
X346691845Y-67671428D01*
X346608511Y-67004761D02*
X346715654Y-67100000D01*
X346632321Y-67195238D01*
X346525178Y-67100000D01*
X346608511Y-67004761D01*
X346632321Y-67195238D01*
X345048988Y-69004761D02*
X344918035Y-67957142D01*
X344989464Y-67766666D01*
X345168035Y-67671428D01*
X345548988Y-67671428D01*
X345751369Y-67766666D01*
X345037083Y-68909523D02*
X345239464Y-69004761D01*
X345715654Y-69004761D01*
X345894226Y-68909523D01*
X345965654Y-68719047D01*
X345941845Y-68528571D01*
X345822797Y-68338095D01*
X345620416Y-68242857D01*
X345144226Y-68242857D01*
X344941845Y-68147619D01*
X343929940Y-67671428D02*
X344096607Y-69004761D01*
X343953750Y-67861904D02*
X343846607Y-67766666D01*
X343644226Y-67671428D01*
X343358511Y-67671428D01*
X343179940Y-67766666D01*
X343108511Y-67957142D01*
X343239464Y-69004761D01*
X342001369Y-69004761D02*
X342179940Y-68909523D01*
X342263273Y-68814285D01*
X342334702Y-68623809D01*
X342263273Y-68052380D01*
X342144226Y-67861904D01*
X342037083Y-67766666D01*
X341834702Y-67671428D01*
X341548988Y-67671428D01*
X341370416Y-67766666D01*
X341287083Y-67861904D01*
X341215654Y-68052380D01*
X341287083Y-68623809D01*
X341406130Y-68814285D01*
X341513273Y-68909523D01*
X341715654Y-69004761D01*
X342001369Y-69004761D01*
X338953750Y-69004761D02*
X338703750Y-67004761D01*
X337810892Y-69004761D02*
X338525178Y-67861904D01*
X337560892Y-67004761D02*
X338846607Y-68147619D01*
X336179940Y-68909523D02*
X336382321Y-69004761D01*
X336763273Y-69004761D01*
X336941845Y-68909523D01*
X337013273Y-68719047D01*
X336918035Y-67957142D01*
X336798988Y-67766666D01*
X336596607Y-67671428D01*
X336215654Y-67671428D01*
X336037083Y-67766666D01*
X335965654Y-67957142D01*
X335989464Y-68147619D01*
X336965654Y-68338095D01*
X335263273Y-67671428D02*
X334953750Y-69004761D01*
X334310892Y-67671428D02*
X334953750Y-69004761D01*
X335203750Y-69480952D01*
X335310892Y-69576190D01*
X335513273Y-69671428D01*
X333715654Y-69004761D02*
X333465654Y-67004761D01*
X333560892Y-67766666D02*
X333358511Y-67671428D01*
X332977559Y-67671428D01*
X332798988Y-67766666D01*
X332715654Y-67861904D01*
X332644226Y-68052380D01*
X332715654Y-68623809D01*
X332834702Y-68814285D01*
X332941845Y-68909523D01*
X333144226Y-69004761D01*
X333525178Y-69004761D01*
X333703750Y-68909523D01*
X331620416Y-69004761D02*
X331798988Y-68909523D01*
X331882321Y-68814285D01*
X331953750Y-68623809D01*
X331882321Y-68052380D01*
X331763273Y-67861904D01*
X331656130Y-67766666D01*
X331453750Y-67671428D01*
X331168035Y-67671428D01*
X330989464Y-67766666D01*
X330906130Y-67861904D01*
X330834702Y-68052380D01*
X330906130Y-68623809D01*
X331025178Y-68814285D01*
X331132321Y-68909523D01*
X331334702Y-69004761D01*
X331620416Y-69004761D01*
X329239464Y-69004761D02*
X329108511Y-67957142D01*
X329179940Y-67766666D01*
X329358511Y-67671428D01*
X329739464Y-67671428D01*
X329941845Y-67766666D01*
X329227559Y-68909523D02*
X329429940Y-69004761D01*
X329906130Y-69004761D01*
X330084702Y-68909523D01*
X330156130Y-68719047D01*
X330132321Y-68528571D01*
X330013273Y-68338095D01*
X329810892Y-68242857D01*
X329334702Y-68242857D01*
X329132321Y-68147619D01*
X328287083Y-69004761D02*
X328120416Y-67671428D01*
X328168035Y-68052380D02*
X328048988Y-67861904D01*
X327941845Y-67766666D01*
X327739464Y-67671428D01*
X327548988Y-67671428D01*
X326191845Y-69004761D02*
X325941845Y-67004761D01*
X326179940Y-68909523D02*
X326382321Y-69004761D01*
X326763273Y-69004761D01*
X326941845Y-68909523D01*
X327025178Y-68814285D01*
X327096607Y-68623809D01*
X327025178Y-68052380D01*
X326906130Y-67861904D01*
X326798988Y-67766666D01*
X326596607Y-67671428D01*
X326215654Y-67671428D01*
X326037083Y-67766666D01*
X325215654Y-68814285D02*
X325132321Y-68909523D01*
X325239464Y-69004761D01*
X325322797Y-68909523D01*
X325215654Y-68814285D01*
X325239464Y-69004761D01*
X356127142Y-50475000D02*
X356270000Y-50403571D01*
X356484285Y-50403571D01*
X356698571Y-50475000D01*
X356841428Y-50617857D01*
X356912857Y-50760714D01*
X356984285Y-51046428D01*
X356984285Y-51260714D01*
X356912857Y-51546428D01*
X356841428Y-51689285D01*
X356698571Y-51832142D01*
X356484285Y-51903571D01*
X356341428Y-51903571D01*
X356127142Y-51832142D01*
X356055714Y-51760714D01*
X356055714Y-51260714D01*
X356341428Y-51260714D01*
X355412857Y-51903571D02*
X355412857Y-50403571D01*
X354555714Y-51903571D01*
X354555714Y-50403571D01*
X353841428Y-51903571D02*
X353841428Y-50403571D01*
X353484285Y-50403571D01*
X353270000Y-50475000D01*
X353127142Y-50617857D01*
X353055714Y-50760714D01*
X352984285Y-51046428D01*
X352984285Y-51260714D01*
X353055714Y-51546428D01*
X353127142Y-51689285D01*
X353270000Y-51832142D01*
X353484285Y-51903571D01*
X353841428Y-51903571D01*
X356055714Y-54210714D02*
X356127142Y-54282142D01*
X356341428Y-54353571D01*
X356484285Y-54353571D01*
X356698571Y-54282142D01*
X356841428Y-54139285D01*
X356912857Y-53996428D01*
X356984285Y-53710714D01*
X356984285Y-53496428D01*
X356912857Y-53210714D01*
X356841428Y-53067857D01*
X356698571Y-52925000D01*
X356484285Y-52853571D01*
X356341428Y-52853571D01*
X356127142Y-52925000D01*
X356055714Y-52996428D01*
X355412857Y-54353571D02*
X355412857Y-52853571D01*
X354555714Y-54353571D02*
X355198571Y-53496428D01*
X354555714Y-52853571D02*
X355412857Y-53710714D01*
X353912857Y-54353571D02*
X353912857Y-52853571D01*
X356984285Y-56732142D02*
X356770000Y-56803571D01*
X356412857Y-56803571D01*
X356270000Y-56732142D01*
X356198571Y-56660714D01*
X356127142Y-56517857D01*
X356127142Y-56375000D01*
X356198571Y-56232142D01*
X356270000Y-56160714D01*
X356412857Y-56089285D01*
X356698571Y-56017857D01*
X356841428Y-55946428D01*
X356912857Y-55875000D01*
X356984285Y-55732142D01*
X356984285Y-55589285D01*
X356912857Y-55446428D01*
X356841428Y-55375000D01*
X356698571Y-55303571D01*
X356341428Y-55303571D01*
X356127142Y-55375000D01*
X355484285Y-56803571D02*
X355484285Y-55303571D01*
X355127142Y-55303571D01*
X354912857Y-55375000D01*
X354770000Y-55517857D01*
X354698571Y-55660714D01*
X354627142Y-55946428D01*
X354627142Y-56160714D01*
X354698571Y-56446428D01*
X354770000Y-56589285D01*
X354912857Y-56732142D01*
X355127142Y-56803571D01*
X355484285Y-56803571D01*
X353984285Y-56803571D02*
X353984285Y-55303571D01*
X356198571Y-57753571D02*
X356912857Y-57753571D01*
X356984285Y-58467857D01*
X356912857Y-58396428D01*
X356770000Y-58325000D01*
X356412857Y-58325000D01*
X356270000Y-58396428D01*
X356198571Y-58467857D01*
X356127142Y-58610714D01*
X356127142Y-58967857D01*
X356198571Y-59110714D01*
X356270000Y-59182142D01*
X356412857Y-59253571D01*
X356770000Y-59253571D01*
X356912857Y-59182142D01*
X356984285Y-59110714D01*
X355484285Y-59110714D02*
X355412857Y-59182142D01*
X355484285Y-59253571D01*
X355555714Y-59182142D01*
X355484285Y-59110714D01*
X355484285Y-59253571D01*
X354484285Y-57753571D02*
X354341428Y-57753571D01*
X354198571Y-57825000D01*
X354127142Y-57896428D01*
X354055714Y-58039285D01*
X353984285Y-58325000D01*
X353984285Y-58682142D01*
X354055714Y-58967857D01*
X354127142Y-59110714D01*
X354198571Y-59182142D01*
X354341428Y-59253571D01*
X354484285Y-59253571D01*
X354627142Y-59182142D01*
X354698571Y-59110714D01*
X354770000Y-58967857D01*
X354841428Y-58682142D01*
X354841428Y-58325000D01*
X354770000Y-58039285D01*
X354698571Y-57896428D01*
X354627142Y-57825000D01*
X354484285Y-57753571D01*
X353555714Y-57753571D02*
X353055714Y-59253571D01*
X352555714Y-57753571D01*
M02*
