M48
; DRILL file {KiCad (5.1.0)-1} date 2019/08/05 10:11:56
; FORMAT={-:-/ absolute / inch / decimal}
; #@! TF.CreationDate,2019-08-05T10:11:56+09:00
; #@! TF.GenerationSoftware,Kicad,Pcbnew,(5.1.0)-1
; #@! TF.FileFunction,Plated,1,2,PTH
FMAT,2
INCH
T1C0.0157
T2C0.0374
T3C0.0394
%
G90
G05
T1
X4.1339Y-3.4939
X4.1366Y-3.3044
X4.2008Y-3.3045
X4.2008Y-3.4925
X4.3307Y-2.392
X4.3307Y-2.5815
X4.3969Y-2.392
X4.3976Y-2.5809
X4.5276Y-3.304
X4.5276Y-3.4939
X4.5945Y-3.3047
X4.5945Y-3.4937
X4.7244Y-2.3931
X4.7462Y-2.5927
X4.7913Y-2.4507
X4.7938Y-2.3935
X4.9213Y-3.3049
X4.9213Y-3.4921
X4.9882Y-3.3047
X4.9882Y-3.4933
X5.3011Y-3.4356
X5.3048Y-3.4909
X5.3819Y-3.4356
X5.4237Y-3.502
X5.5118Y-2.581
X5.5207Y-2.2608
X5.5787Y-2.3929
X5.5787Y-2.5811
X5.7072Y-3.3049
X5.7116Y-3.492
X5.7756Y-3.3039
X5.7756Y-3.4939
X5.9055Y-2.2608
X5.9055Y-2.5809
X5.9724Y-2.2608
X5.9724Y-2.5809
X6.1024Y-3.4935
X6.1088Y-3.258
X6.1407Y-3.2864
X6.1693Y-3.4929
X6.2992Y-2.2608
X6.2992Y-2.5818
X6.3661Y-2.3918
X6.3661Y-2.5807
X6.497Y-3.3033
X6.563Y-3.304
X6.563Y-3.4939
X6.565Y-3.4449
T2
X4.2992Y-1.3268
X4.2992Y-1.4252
X4.2992Y-1.5236
X4.2992Y-1.622
T3
X6.5906Y-1.3268
X6.5906Y-1.4252
X6.5906Y-1.5236
X6.5906Y-1.622
T0
M30
