M48
; DRILL file {KiCad (5.1.5)-3} date 2020/04/10 18:57:22
; FORMAT={-:-/ absolute / inch / decimal}
; #@! TF.CreationDate,2020-04-10T18:57:22+09:00
; #@! TF.GenerationSoftware,Kicad,Pcbnew,(5.1.5)-3
; #@! TF.FileFunction,Plated,1,2,PTH
FMAT,2
INCH
T1C0.0157
T2C0.0394
%
G90
G05
T1
X2.0197Y-1.8228
X2.0197Y-2.0157
X2.0197Y-2.1929
X2.0197Y-2.3996
X2.0197Y-3.0827
X2.0197Y-3.2756
X2.0197Y-3.4528
X2.0197Y-3.6594
X2.0197Y-4.3425
X2.0197Y-4.5354
X2.0197Y-4.7126
X2.0197Y-4.9193
X2.0197Y-5.6024
X2.0197Y-5.7953
X2.0197Y-5.9724
X2.0197Y-6.1791
X2.0197Y-6.8622
X2.0197Y-7.0551
X2.0197Y-7.2323
X2.0197Y-7.439
X2.0866Y-2.4016
X2.0866Y-3.6614
X2.0866Y-4.9213
X2.0866Y-6.1811
X2.0866Y-7.4409
X2.0965Y-2.0472
X2.0965Y-3.3071
X2.0965Y-4.5669
X2.0965Y-5.8268
X2.0965Y-7.0866
X2.1161Y-2.1161
X2.1161Y-3.376
X2.1161Y-4.6358
X2.1161Y-5.8957
X2.1161Y-7.1555
X2.1378Y-1.6417
X2.1378Y-2.9016
X2.1378Y-4.1614
X2.1378Y-5.4213
X2.1378Y-6.6811
X2.1555Y-2.4016
X2.1555Y-3.6614
X2.1555Y-4.9213
X2.1555Y-6.1811
X2.1555Y-7.4409
X2.1654Y-2.1152
X2.1654Y-3.375
X2.1654Y-4.6348
X2.1654Y-5.8947
X2.1654Y-7.1545
X2.2047Y-1.6732
X2.2047Y-2.5591
X2.2047Y-2.9331
X2.2047Y-3.8189
X2.2047Y-4.1929
X2.2047Y-5.0787
X2.2047Y-5.4528
X2.2047Y-6.3386
X2.2047Y-6.7126
X2.2047Y-7.5984
X2.2736Y-1.6732
X2.2736Y-2.9331
X2.2736Y-4.1929
X2.2736Y-5.4528
X2.2736Y-6.7126
X2.3061Y-2.6093
X2.3061Y-3.8691
X2.3061Y-5.1289
X2.3061Y-6.3888
X2.3061Y-7.6486
X2.3228Y-2.4016
X2.3228Y-3.6614
X2.3228Y-4.9213
X2.3228Y-6.1811
X2.3228Y-7.4409
X2.3819Y-2.6093
X2.3819Y-3.8691
X2.3819Y-5.1289
X2.3819Y-6.3888
X2.3819Y-7.6486
X2.3917Y-2.4016
X2.3917Y-3.6614
X2.3917Y-4.9213
X2.3917Y-6.1811
X2.3917Y-7.4409
X2.4409Y-2.1654
X2.4409Y-3.4252
X2.4409Y-4.685
X2.4409Y-5.9449
X2.4409Y-7.2047
X2.5492Y-2.6093
X2.5492Y-3.8691
X2.5492Y-5.1289
X2.5492Y-6.3888
X2.5492Y-7.6486
X2.5591Y-1.6457
X2.5591Y-2.4016
X2.5591Y-2.9055
X2.5591Y-3.6614
X2.5591Y-4.1654
X2.5591Y-4.9213
X2.5591Y-5.4252
X2.5591Y-6.1811
X2.5591Y-6.685
X2.5591Y-7.4409
X2.6181Y-2.6093
X2.6181Y-3.8691
X2.6181Y-5.1289
X2.6181Y-6.3888
X2.6181Y-7.6486
X2.628Y-2.4016
X2.628Y-3.6614
X2.628Y-4.9213
X2.628Y-6.1811
X2.628Y-7.4409
X2.6772Y-1.6644
X2.6772Y-2.1152
X2.6772Y-2.9242
X2.6772Y-3.375
X2.6772Y-4.1841
X2.6772Y-4.6348
X2.6772Y-5.4439
X2.6772Y-5.8947
X2.6772Y-6.7037
X2.6772Y-7.1545
X2.7362Y-2.1152
X2.7362Y-3.375
X2.7362Y-4.6348
X2.7362Y-5.8947
X2.7362Y-7.1545
X2.7457Y-1.6644
X2.7457Y-2.9242
X2.7457Y-4.1841
X2.7457Y-5.4439
X2.7457Y-6.7037
X2.7854Y-2.6093
X2.7854Y-3.8691
X2.7854Y-5.1289
X2.7854Y-6.3888
X2.7854Y-7.6486
X2.7953Y-1.6437
X2.7953Y-2.4016
X2.7953Y-2.9035
X2.7953Y-3.6614
X2.7953Y-4.1634
X2.7953Y-4.9213
X2.7953Y-5.4232
X2.7953Y-6.1811
X2.7953Y-6.6831
X2.7953Y-7.4409
X2.8642Y-2.4016
X2.8642Y-2.6093
X2.8642Y-3.6614
X2.8642Y-3.8691
X2.8642Y-4.9213
X2.8642Y-5.1289
X2.8642Y-6.1811
X2.8642Y-6.3888
X2.8642Y-7.4409
X2.8642Y-7.6486
X2.9134Y-1.6644
X2.9134Y-2.1152
X2.9134Y-2.9242
X2.9134Y-3.375
X2.9134Y-4.1841
X2.9134Y-4.6348
X2.9134Y-5.4439
X2.9134Y-5.8947
X2.9134Y-6.7037
X2.9134Y-7.1545
X2.9823Y-1.6644
X2.9823Y-2.1152
X2.9823Y-2.9242
X2.9823Y-3.375
X2.9823Y-4.1841
X2.9823Y-4.6348
X2.9823Y-5.4439
X2.9823Y-5.8947
X2.9823Y-6.7037
X2.9823Y-7.1545
X3.0217Y-2.6093
X3.0217Y-3.8691
X3.0217Y-5.1289
X3.0217Y-6.3888
X3.0217Y-7.6486
X3.0315Y-2.4016
X3.0315Y-3.6614
X3.0315Y-4.9213
X3.0315Y-6.1811
X3.0315Y-7.4409
X3.1004Y-2.4016
X3.1004Y-2.6093
X3.1004Y-3.6614
X3.1004Y-3.8691
X3.1004Y-4.9213
X3.1004Y-5.1289
X3.1004Y-6.1811
X3.1004Y-6.3888
X3.1004Y-7.4409
X3.1004Y-7.6486
X3.2087Y-2.1654
X3.2087Y-3.4252
X3.2087Y-4.685
X3.2087Y-5.9449
X3.2087Y-7.2047
X3.2579Y-2.6093
X3.2579Y-3.8691
X3.2579Y-5.1289
X3.2579Y-6.3888
X3.2579Y-7.6486
X3.2677Y-2.4016
X3.2677Y-3.6614
X3.2677Y-4.9213
X3.2677Y-6.1811
X3.2677Y-7.4409
X3.2776Y-1.6535
X3.2776Y-2.9134
X3.2776Y-4.1732
X3.2776Y-5.4331
X3.2776Y-6.6929
X3.3268Y-2.6093
X3.3268Y-3.8691
X3.3268Y-5.1289
X3.3268Y-6.3888
X3.3268Y-7.6486
X3.3366Y-2.4016
X3.3366Y-3.6614
X3.3366Y-4.9213
X3.3366Y-6.1811
X3.3366Y-7.4409
X3.3661Y-2.1152
X3.3661Y-3.375
X3.3661Y-4.6348
X3.3661Y-5.8947
X3.3661Y-7.1545
X3.3858Y-1.6644
X3.3858Y-2.9242
X3.3858Y-4.1841
X3.3858Y-5.4439
X3.3858Y-6.7037
X3.4154Y-2.1152
X3.4154Y-3.375
X3.4154Y-4.6348
X3.4154Y-5.8947
X3.4154Y-7.1545
X3.4544Y-1.6644
X3.4544Y-2.9242
X3.4544Y-4.1841
X3.4544Y-5.4439
X3.4544Y-6.7037
X3.4941Y-2.6093
X3.4941Y-3.8691
X3.4941Y-5.1289
X3.4941Y-6.3888
X3.4941Y-7.6486
X3.5039Y-1.6457
X3.5039Y-2.4016
X3.5039Y-2.9055
X3.5039Y-3.6614
X3.5039Y-4.1654
X3.5039Y-4.9213
X3.5039Y-5.4252
X3.5039Y-6.1811
X3.5039Y-6.685
X3.5039Y-7.4409
X3.563Y-2.6093
X3.563Y-3.8691
X3.563Y-5.1289
X3.563Y-6.3888
X3.563Y-7.6486
X3.5728Y-2.4016
X3.5728Y-3.6614
X3.5728Y-4.9213
X3.5728Y-6.1811
X3.5728Y-7.4409
X3.622Y-1.6644
X3.622Y-2.1152
X3.622Y-2.9242
X3.622Y-3.375
X3.622Y-4.1841
X3.622Y-4.6348
X3.622Y-5.4439
X3.622Y-5.8947
X3.622Y-6.7037
X3.622Y-7.1545
X3.6811Y-2.1152
X3.6811Y-3.375
X3.6811Y-4.6348
X3.6811Y-5.8947
X3.6811Y-7.1545
X3.6906Y-1.6644
X3.6906Y-2.9242
X3.6906Y-4.1841
X3.6906Y-5.4439
X3.6906Y-6.7037
X3.7234Y-2.6093
X3.7234Y-3.8691
X3.7234Y-5.1289
X3.7234Y-6.3888
X3.7234Y-7.6486
X3.7303Y-2.4016
X3.7303Y-3.6614
X3.7303Y-4.9213
X3.7303Y-6.1811
X3.7303Y-7.4409
X3.7402Y-1.6457
X3.7402Y-2.9055
X3.7402Y-4.1654
X3.7402Y-5.4252
X3.7402Y-6.685
X3.7992Y-2.4016
X3.7992Y-2.6093
X3.7992Y-3.6614
X3.7992Y-3.8691
X3.7992Y-4.9213
X3.7992Y-5.1289
X3.7992Y-6.1811
X3.7992Y-6.3888
X3.7992Y-7.4409
X3.7992Y-7.6486
X3.8583Y-1.6644
X3.8583Y-2.1152
X3.8583Y-2.9242
X3.8583Y-3.375
X3.8583Y-4.1841
X3.8583Y-4.6348
X3.8583Y-5.4439
X3.8583Y-5.8947
X3.8583Y-6.7037
X3.8583Y-7.1545
X3.9075Y-2.1152
X3.9075Y-3.375
X3.9075Y-4.6348
X3.9075Y-5.8947
X3.9075Y-7.1545
X3.9272Y-1.6644
X3.9272Y-2.9242
X3.9272Y-4.1841
X3.9272Y-5.4439
X3.9272Y-6.7037
X3.9665Y-2.6093
X3.9665Y-3.8691
X3.9665Y-5.1289
X3.9665Y-6.3888
X3.9665Y-7.6486
X3.9764Y-2.4016
X3.9764Y-3.6614
X3.9764Y-4.9213
X3.9764Y-6.1811
X3.9764Y-7.4409
X4.0453Y-2.4016
X4.0453Y-2.6093
X4.0453Y-3.6614
X4.0453Y-3.8691
X4.0453Y-4.9213
X4.0453Y-5.1289
X4.0453Y-6.1811
X4.0453Y-6.3888
X4.0453Y-7.4409
X4.0453Y-7.6486
X4.1339Y-2.1654
X4.1339Y-3.4252
X4.1339Y-4.685
X4.1339Y-5.9449
X4.1339Y-7.2047
X4.2028Y-2.6093
X4.2028Y-3.8691
X4.2028Y-5.1289
X4.2028Y-6.3888
X4.2028Y-7.6486
X4.2126Y-1.6457
X4.2126Y-2.4016
X4.2126Y-2.9055
X4.2126Y-3.6614
X4.2126Y-4.1654
X4.2126Y-4.9213
X4.2126Y-5.4252
X4.2126Y-6.1811
X4.2126Y-6.685
X4.2126Y-7.4409
X4.2717Y-2.6093
X4.2717Y-3.8691
X4.2717Y-5.1289
X4.2717Y-6.3888
X4.2717Y-7.6486
X4.2815Y-2.4016
X4.2815Y-3.6614
X4.2815Y-4.9213
X4.2815Y-6.1811
X4.2815Y-7.4409
X4.3307Y-1.6644
X4.3307Y-2.1152
X4.3307Y-2.9242
X4.3307Y-3.375
X4.3307Y-4.1841
X4.3307Y-4.6348
X4.3307Y-5.4439
X4.3307Y-5.8947
X4.3307Y-6.7037
X4.3307Y-7.1545
X4.3898Y-2.1152
X4.3898Y-3.375
X4.3898Y-4.6348
X4.3898Y-5.8947
X4.3898Y-7.1545
X4.3993Y-1.6644
X4.3993Y-2.9242
X4.3993Y-4.1841
X4.3993Y-5.4439
X4.3993Y-6.7037
X4.439Y-2.6093
X4.439Y-3.8691
X4.439Y-5.1289
X4.439Y-6.3888
X4.439Y-7.6486
X4.4488Y-1.6457
X4.4488Y-2.4016
X4.4488Y-2.9055
X4.4488Y-3.6614
X4.4488Y-4.1654
X4.4488Y-4.9213
X4.4488Y-5.4252
X4.4488Y-6.1811
X4.4488Y-6.685
X4.4488Y-7.4409
X4.5177Y-2.4016
X4.5177Y-2.6093
X4.5177Y-3.6614
X4.5177Y-3.8691
X4.5177Y-4.9213
X4.5177Y-5.1289
X4.5177Y-6.1811
X4.5177Y-6.3888
X4.5177Y-7.4409
X4.5177Y-7.6486
X4.5669Y-1.6644
X4.5669Y-2.1152
X4.5669Y-2.9242
X4.5669Y-3.375
X4.5669Y-4.1841
X4.5669Y-4.6348
X4.5669Y-5.4439
X4.5669Y-5.8947
X4.5669Y-6.7037
X4.5669Y-7.1545
X4.6358Y-1.6644
X4.6358Y-2.1152
X4.6358Y-2.9242
X4.6358Y-3.375
X4.6358Y-4.1841
X4.6358Y-4.6348
X4.6358Y-5.4439
X4.6358Y-5.8947
X4.6358Y-6.7037
X4.6358Y-7.1545
X4.6752Y-2.6093
X4.6752Y-3.8691
X4.6752Y-5.1289
X4.6752Y-6.3888
X4.6752Y-7.6486
X4.685Y-2.4016
X4.685Y-3.6614
X4.685Y-4.9213
X4.685Y-6.1811
X4.685Y-7.4409
X4.7539Y-2.4016
X4.7539Y-2.6093
X4.7539Y-3.6614
X4.7539Y-3.8691
X4.7539Y-4.9213
X4.7539Y-5.1289
X4.7539Y-6.1811
X4.7539Y-6.3888
X4.7539Y-7.4409
X4.7539Y-7.6486
X4.8622Y-2.1654
X4.8622Y-3.4252
X4.8622Y-4.685
X4.8622Y-5.9449
X4.8622Y-7.2047
X4.9114Y-2.6093
X4.9114Y-3.8691
X4.9114Y-5.1289
X4.9114Y-6.3888
X4.9114Y-7.6486
X4.9213Y-2.4016
X4.9213Y-3.6614
X4.9213Y-4.9213
X4.9213Y-6.1811
X4.9213Y-7.4409
X4.9803Y-2.6093
X4.9803Y-3.8691
X4.9803Y-5.1289
X4.9803Y-6.3888
X4.9803Y-7.6486
X4.9902Y-2.4016
X4.9902Y-3.6614
X4.9902Y-4.9213
X4.9902Y-6.1811
X4.9902Y-7.4409
X5.0197Y-2.1152
X5.0197Y-3.375
X5.0197Y-4.6348
X5.0197Y-5.8947
X5.0197Y-7.1545
X5.0394Y-1.6644
X5.0394Y-2.9242
X5.0394Y-4.1841
X5.0394Y-5.4439
X5.0394Y-6.7037
X5.0689Y-2.1152
X5.0689Y-3.375
X5.0689Y-4.6348
X5.0689Y-5.8947
X5.0689Y-7.1545
X5.1079Y-1.6644
X5.1079Y-2.9242
X5.1079Y-4.1841
X5.1079Y-5.4439
X5.1079Y-6.7037
X5.1476Y-2.6093
X5.1476Y-3.8691
X5.1476Y-5.1289
X5.1476Y-6.3888
X5.1476Y-7.6486
X5.1575Y-1.6457
X5.1575Y-2.4016
X5.1575Y-2.9055
X5.1575Y-3.6614
X5.1575Y-4.1654
X5.1575Y-4.9213
X5.1575Y-5.4252
X5.1575Y-6.1811
X5.1575Y-6.685
X5.1575Y-7.4409
X5.2165Y-2.6093
X5.2165Y-3.8691
X5.2165Y-5.1289
X5.2165Y-6.3888
X5.2165Y-7.6486
X5.2264Y-2.4016
X5.2264Y-3.6614
X5.2264Y-4.9213
X5.2264Y-6.1811
X5.2264Y-7.4409
X5.2756Y-1.6644
X5.2756Y-2.1152
X5.2756Y-2.9242
X5.2756Y-3.375
X5.2756Y-4.1841
X5.2756Y-4.6348
X5.2756Y-5.4439
X5.2756Y-5.8947
X5.2756Y-6.7037
X5.2756Y-7.1545
X5.3346Y-2.1152
X5.3346Y-3.375
X5.3346Y-4.6348
X5.3346Y-5.8947
X5.3346Y-7.1545
X5.3441Y-1.6644
X5.3441Y-2.9242
X5.3441Y-4.1841
X5.3441Y-5.4439
X5.3441Y-6.7037
X5.377Y-2.6095
X5.377Y-3.8694
X5.377Y-5.1292
X5.377Y-6.3891
X5.377Y-7.6489
X5.3839Y-2.4016
X5.3839Y-3.6614
X5.3839Y-4.9213
X5.3839Y-6.1811
X5.3839Y-7.4409
X5.3937Y-1.6437
X5.3937Y-2.9035
X5.3937Y-4.1634
X5.3937Y-5.4232
X5.3937Y-6.6831
X5.4528Y-2.4016
X5.4528Y-2.6093
X5.4528Y-3.6614
X5.4528Y-3.8691
X5.4528Y-4.9213
X5.4528Y-5.1289
X5.4528Y-6.1811
X5.4528Y-6.3888
X5.4528Y-7.4409
X5.4528Y-7.6486
X5.5118Y-1.6644
X5.5118Y-2.1152
X5.5118Y-2.9242
X5.5118Y-3.375
X5.5118Y-4.1841
X5.5118Y-4.6348
X5.5118Y-5.4439
X5.5118Y-5.8947
X5.5118Y-6.7037
X5.5118Y-7.1545
X5.561Y-2.1152
X5.561Y-3.375
X5.561Y-4.6348
X5.561Y-5.8947
X5.561Y-7.1545
X5.5807Y-1.6644
X5.5807Y-2.9242
X5.5807Y-4.1841
X5.5807Y-5.4439
X5.5807Y-6.7037
X5.6201Y-2.6093
X5.6201Y-3.8691
X5.6201Y-5.1289
X5.6201Y-6.3888
X5.6201Y-7.6486
X5.6299Y-2.4016
X5.6299Y-3.6614
X5.6299Y-4.9213
X5.6299Y-6.1811
X5.6299Y-7.4409
X5.6988Y-2.4016
X5.6988Y-2.6093
X5.6988Y-3.6614
X5.6988Y-3.8691
X5.6988Y-4.9213
X5.6988Y-5.1289
X5.6988Y-6.1811
X5.6988Y-6.3888
X5.6988Y-7.4409
X5.6988Y-7.6486
X5.8071Y-2.1654
X5.8071Y-3.4252
X5.8071Y-4.685
X5.8071Y-5.9449
X5.8071Y-7.2047
X5.8563Y-2.6093
X5.8563Y-3.8691
X5.8563Y-5.1289
X5.8563Y-6.3888
X5.8563Y-7.6486
X5.8661Y-1.6457
X5.8661Y-2.4016
X5.8661Y-2.9055
X5.8661Y-3.6614
X5.8661Y-4.1654
X5.8661Y-4.9213
X5.8661Y-5.4252
X5.8661Y-6.1811
X5.8661Y-6.685
X5.8661Y-7.4409
X5.9252Y-2.6093
X5.9252Y-3.8691
X5.9252Y-5.1289
X5.9252Y-6.3888
X5.9252Y-7.6486
X5.935Y-2.4016
X5.935Y-3.6614
X5.935Y-4.9213
X5.935Y-6.1811
X5.935Y-7.4409
X5.9843Y-1.6644
X5.9843Y-2.1152
X5.9843Y-2.9242
X5.9843Y-3.375
X5.9843Y-4.1841
X5.9843Y-4.6348
X5.9843Y-5.4439
X5.9843Y-5.8947
X5.9843Y-6.7037
X5.9843Y-7.1545
X6.0433Y-2.1152
X6.0433Y-3.375
X6.0433Y-4.6348
X6.0433Y-5.8947
X6.0433Y-7.1545
X6.0528Y-1.6644
X6.0528Y-2.9242
X6.0528Y-4.1841
X6.0528Y-5.4439
X6.0528Y-6.7037
X6.0925Y-2.6093
X6.0925Y-3.8691
X6.0925Y-5.1289
X6.0925Y-6.3888
X6.0925Y-7.6486
X6.1024Y-1.6457
X6.1024Y-2.4016
X6.1024Y-2.9055
X6.1024Y-3.6614
X6.1024Y-4.1654
X6.1024Y-4.9213
X6.1024Y-5.4252
X6.1024Y-6.1811
X6.1024Y-6.685
X6.1024Y-7.4409
X6.1713Y-2.4016
X6.1713Y-2.6093
X6.1713Y-3.6614
X6.1713Y-3.8691
X6.1713Y-4.9213
X6.1713Y-5.1289
X6.1713Y-6.1811
X6.1713Y-6.3888
X6.1713Y-7.4409
X6.1713Y-7.6486
X6.2205Y-1.6644
X6.2205Y-2.1152
X6.2205Y-2.9242
X6.2205Y-3.375
X6.2205Y-4.1841
X6.2205Y-4.6348
X6.2205Y-5.4439
X6.2205Y-5.8947
X6.2205Y-6.7037
X6.2205Y-7.1545
X6.2894Y-1.6644
X6.2894Y-2.1152
X6.2894Y-2.9242
X6.2894Y-3.375
X6.2894Y-4.1841
X6.2894Y-4.6348
X6.2894Y-5.4439
X6.2894Y-5.8947
X6.2894Y-6.7037
X6.2894Y-7.1545
X6.3287Y-2.6093
X6.3287Y-3.8691
X6.3287Y-5.1289
X6.3287Y-6.3888
X6.3287Y-7.6486
X6.3386Y-2.4016
X6.3386Y-3.6614
X6.3386Y-4.9213
X6.3386Y-6.1811
X6.3386Y-7.4409
X6.4075Y-2.4016
X6.4075Y-2.6093
X6.4075Y-3.6614
X6.4075Y-3.8691
X6.4075Y-4.9213
X6.4075Y-5.1289
X6.4075Y-6.1811
X6.4075Y-6.3888
X6.4075Y-7.4409
X6.4075Y-7.6486
X6.5059Y-2.1654
X6.5059Y-3.4252
X6.5059Y-4.685
X6.5059Y-5.9449
X6.5059Y-7.2047
X6.565Y-2.6093
X6.565Y-3.8691
X6.565Y-5.1289
X6.565Y-6.3888
X6.565Y-7.6486
X6.5748Y-1.6457
X6.5748Y-2.4016
X6.5748Y-2.9055
X6.5748Y-3.6614
X6.5748Y-4.1654
X6.5748Y-4.9213
X6.5748Y-5.4252
X6.5748Y-6.1811
X6.5748Y-6.685
X6.5748Y-7.4409
X6.6339Y-2.6093
X6.6339Y-3.8691
X6.6339Y-5.1289
X6.6339Y-6.3888
X6.6339Y-7.6486
X6.6437Y-2.4016
X6.6437Y-3.6614
X6.6437Y-4.9213
X6.6437Y-6.1811
X6.6437Y-7.4409
X6.6732Y-2.1152
X6.6732Y-3.375
X6.6732Y-4.6348
X6.6732Y-5.8947
X6.6732Y-7.1545
X6.6929Y-1.6644
X6.6929Y-2.9242
X6.6929Y-4.1841
X6.6929Y-5.4439
X6.6929Y-6.7037
X6.7224Y-2.1152
X6.7224Y-3.375
X6.7224Y-4.6348
X6.7224Y-5.8947
X6.7224Y-7.1545
X6.7615Y-1.6644
X6.7615Y-2.9242
X6.7615Y-4.1841
X6.7615Y-5.4439
X6.7615Y-6.7037
X6.8012Y-2.6093
X6.8012Y-3.8691
X6.8012Y-5.1289
X6.8012Y-6.3888
X6.8012Y-7.6486
X6.811Y-1.6457
X6.811Y-2.4016
X6.811Y-2.9055
X6.811Y-3.6614
X6.811Y-4.1654
X6.811Y-4.9213
X6.811Y-5.4252
X6.811Y-6.1811
X6.811Y-6.685
X6.811Y-7.4409
X6.8701Y-2.6093
X6.8701Y-3.8691
X6.8701Y-5.1289
X6.8701Y-6.3888
X6.8701Y-7.6486
X6.8799Y-2.4016
X6.8799Y-3.6614
X6.8799Y-4.9213
X6.8799Y-6.1811
X6.8799Y-7.4409
X6.9291Y-1.6644
X6.9291Y-2.1152
X6.9291Y-2.9242
X6.9291Y-3.375
X6.9291Y-4.1841
X6.9291Y-4.6348
X6.9291Y-5.4439
X6.9291Y-5.8947
X6.9291Y-6.7037
X6.9291Y-7.1545
X6.9882Y-2.1152
X6.9882Y-3.375
X6.9882Y-4.6348
X6.9882Y-5.8947
X6.9882Y-7.1545
X6.9977Y-1.6644
X6.9977Y-2.9242
X6.9977Y-4.1841
X6.9977Y-5.4439
X6.9977Y-6.7037
X7.0374Y-2.4016
X7.0374Y-2.6093
X7.0374Y-3.6614
X7.0374Y-3.8691
X7.0374Y-4.9213
X7.0374Y-5.1289
X7.0374Y-6.1811
X7.0374Y-6.3888
X7.0374Y-7.4409
X7.0374Y-7.6486
X7.0472Y-1.6457
X7.0472Y-2.9055
X7.0472Y-4.1654
X7.0472Y-5.4252
X7.0472Y-6.685
X7.1063Y-2.4016
X7.1063Y-2.6093
X7.1063Y-3.6614
X7.1063Y-3.8691
X7.1063Y-4.9213
X7.1063Y-5.1289
X7.1063Y-6.1811
X7.1063Y-6.3888
X7.1063Y-7.4409
X7.1063Y-7.6486
X7.1654Y-1.6644
X7.1654Y-2.1152
X7.1654Y-2.9242
X7.1654Y-3.375
X7.1654Y-4.1841
X7.1654Y-4.6348
X7.1654Y-5.4439
X7.1654Y-5.8947
X7.1654Y-6.7037
X7.1654Y-7.1545
X7.2146Y-2.1152
X7.2146Y-3.375
X7.2146Y-4.6348
X7.2146Y-5.8947
X7.2146Y-7.1545
X7.2343Y-1.6644
X7.2343Y-2.9242
X7.2343Y-4.1841
X7.2343Y-5.4439
X7.2343Y-6.7037
X7.2736Y-2.6093
X7.2736Y-3.8691
X7.2736Y-5.1289
X7.2736Y-6.3888
X7.2736Y-7.6486
X7.2835Y-2.4016
X7.2835Y-3.6614
X7.2835Y-4.9213
X7.2835Y-6.1811
X7.2835Y-7.4409
X7.3524Y-2.4016
X7.3524Y-2.6093
X7.3524Y-3.6614
X7.3524Y-3.8691
X7.3524Y-4.9213
X7.3524Y-5.1289
X7.3524Y-6.1811
X7.3524Y-6.3888
X7.3524Y-7.4409
X7.3524Y-7.6486
X7.4311Y-2.1654
X7.4311Y-3.4252
X7.4311Y-4.685
X7.4311Y-5.9449
X7.4311Y-7.2047
X7.5098Y-2.6093
X7.5098Y-3.8691
X7.5098Y-5.1289
X7.5098Y-6.3888
X7.5098Y-7.6486
X7.5197Y-2.4016
X7.5197Y-3.6614
X7.5197Y-4.9213
X7.5197Y-6.1811
X7.5197Y-7.4409
X7.5787Y-1.6732
X7.5787Y-2.6093
X7.5787Y-2.9331
X7.5787Y-3.8691
X7.5787Y-4.1929
X7.5787Y-5.1289
X7.5787Y-5.4528
X7.5787Y-6.3888
X7.5787Y-6.7126
X7.5787Y-7.6486
X7.5886Y-2.4016
X7.5886Y-3.6614
X7.5886Y-4.9213
X7.5886Y-6.1811
X7.5886Y-7.4409
X7.6378Y-1.6644
X7.6378Y-2.1152
X7.6378Y-2.9242
X7.6378Y-3.375
X7.6378Y-4.1841
X7.6378Y-4.6348
X7.6378Y-5.4439
X7.6378Y-5.8947
X7.6378Y-6.7037
X7.6378Y-7.1545
X7.6969Y-2.1152
X7.6969Y-3.375
X7.6969Y-4.6348
X7.6969Y-5.8947
X7.6969Y-7.1545
X7.7063Y-1.6644
X7.7063Y-2.9242
X7.7063Y-4.1841
X7.7063Y-5.4439
X7.7063Y-6.7037
X7.7461Y-2.6093
X7.7461Y-3.8691
X7.7461Y-5.1289
X7.7461Y-6.3888
X7.7461Y-7.6486
X7.7559Y-2.4016
X7.7559Y-3.6614
X7.7559Y-4.9213
X7.7559Y-6.1811
X7.7559Y-7.4409
X7.7598Y-1.6496
X7.7598Y-2.9094
X7.7598Y-4.1693
X7.7598Y-5.4291
X7.7598Y-6.689
X7.8248Y-2.4016
X7.8248Y-2.6093
X7.8248Y-3.6614
X7.8248Y-3.8691
X7.8248Y-4.9213
X7.8248Y-5.1289
X7.8248Y-6.1811
X7.8248Y-6.3888
X7.8248Y-7.4409
X7.8248Y-7.6486
X7.874Y-1.6644
X7.874Y-2.1152
X7.874Y-2.9242
X7.874Y-3.375
X7.874Y-4.1841
X7.874Y-4.6348
X7.874Y-5.4439
X7.874Y-5.8947
X7.874Y-6.7037
X7.874Y-7.1545
X7.9429Y-1.6644
X7.9429Y-2.1152
X7.9429Y-2.9242
X7.9429Y-3.375
X7.9429Y-4.1841
X7.9429Y-4.6348
X7.9429Y-5.4439
X7.9429Y-5.8947
X7.9429Y-6.7037
X7.9429Y-7.1545
X7.9823Y-2.6093
X7.9823Y-3.8691
X7.9823Y-5.1289
X7.9823Y-6.3888
X7.9823Y-7.6486
X7.9921Y-2.4016
X7.9921Y-3.6614
X7.9921Y-4.9213
X7.9921Y-6.1811
X7.9921Y-7.4409
X8.061Y-2.4016
X8.061Y-2.6093
X8.061Y-3.6614
X8.061Y-3.8691
X8.061Y-4.9213
X8.061Y-5.1289
X8.061Y-6.1811
X8.061Y-6.3888
X8.061Y-7.4409
X8.061Y-7.6486
X8.1496Y-2.1654
X8.1496Y-3.4252
X8.1496Y-4.685
X8.1496Y-5.9449
X8.1496Y-7.2047
X8.2185Y-2.6093
X8.2185Y-3.8691
X8.2185Y-5.1289
X8.2185Y-6.3888
X8.2185Y-7.6486
X8.2283Y-1.6457
X8.2283Y-2.4016
X8.2283Y-2.9055
X8.2283Y-3.6614
X8.2283Y-4.1654
X8.2283Y-4.9213
X8.2283Y-5.4252
X8.2283Y-6.1811
X8.2283Y-6.685
X8.2283Y-7.4409
X8.2874Y-2.6093
X8.2874Y-3.8691
X8.2874Y-5.1289
X8.2874Y-6.3888
X8.2874Y-7.6486
X8.2972Y-2.4016
X8.2972Y-3.6614
X8.2972Y-4.9213
X8.2972Y-6.1811
X8.2972Y-7.4409
X8.3268Y-2.1152
X8.3268Y-3.375
X8.3268Y-4.6348
X8.3268Y-5.8947
X8.3268Y-7.1545
X8.3465Y-1.6644
X8.3465Y-2.9242
X8.3465Y-4.1841
X8.3465Y-5.4439
X8.3465Y-6.7037
X8.376Y-2.1152
X8.376Y-3.375
X8.376Y-4.6348
X8.376Y-5.8947
X8.376Y-7.1545
X8.415Y-1.6644
X8.415Y-2.9242
X8.415Y-4.1841
X8.415Y-5.4439
X8.415Y-6.7037
X8.4547Y-2.6093
X8.4547Y-3.8691
X8.4547Y-5.1289
X8.4547Y-6.3888
X8.4547Y-7.6486
X8.4646Y-1.6457
X8.4646Y-2.4016
X8.4646Y-2.9055
X8.4646Y-3.6614
X8.4646Y-4.1654
X8.4646Y-4.9213
X8.4646Y-5.4252
X8.4646Y-6.1811
X8.4646Y-6.685
X8.4646Y-7.4409
X8.5236Y-2.6093
X8.5236Y-3.8691
X8.5236Y-5.1289
X8.5236Y-6.3888
X8.5236Y-7.6486
X8.5335Y-2.4016
X8.5335Y-3.6614
X8.5335Y-4.9213
X8.5335Y-6.1811
X8.5335Y-7.4409
X8.5827Y-1.6644
X8.5827Y-2.1152
X8.5827Y-2.9242
X8.5827Y-3.375
X8.5827Y-4.1841
X8.5827Y-4.6348
X8.5827Y-5.4439
X8.5827Y-5.8947
X8.5827Y-6.7037
X8.5827Y-7.1545
X8.6417Y-2.1152
X8.6417Y-3.375
X8.6417Y-4.6348
X8.6417Y-5.8947
X8.6417Y-7.1545
X8.6512Y-1.6644
X8.6512Y-2.9242
X8.6512Y-4.1841
X8.6512Y-5.4439
X8.6512Y-6.7037
X8.6909Y-2.4016
X8.6909Y-2.6093
X8.6909Y-3.6614
X8.6909Y-3.8691
X8.6909Y-4.9213
X8.6909Y-5.1289
X8.6909Y-6.1811
X8.6909Y-6.3888
X8.6909Y-7.4409
X8.6909Y-7.6486
X8.7008Y-1.6437
X8.7008Y-2.9035
X8.7008Y-4.1634
X8.7008Y-5.4232
X8.7008Y-6.6831
X8.7598Y-2.4016
X8.7598Y-2.6093
X8.7598Y-3.6614
X8.7598Y-3.8691
X8.7598Y-4.9213
X8.7598Y-5.1289
X8.7598Y-6.1811
X8.7598Y-6.3888
X8.7598Y-7.4409
X8.7598Y-7.6486
X8.8189Y-1.6644
X8.8189Y-2.1152
X8.8189Y-2.9242
X8.8189Y-3.375
X8.8189Y-4.1841
X8.8189Y-4.6348
X8.8189Y-5.4439
X8.8189Y-5.8947
X8.8189Y-6.7037
X8.8189Y-7.1545
X8.8681Y-2.1152
X8.8681Y-3.375
X8.8681Y-4.6348
X8.8681Y-5.8947
X8.8681Y-7.1545
X8.8878Y-1.6644
X8.8878Y-2.9242
X8.8878Y-4.1841
X8.8878Y-5.4439
X8.8878Y-6.7037
X8.9272Y-2.6093
X8.9272Y-3.8691
X8.9272Y-5.1289
X8.9272Y-6.3888
X8.9272Y-7.6486
X8.937Y-2.4016
X8.937Y-3.6614
X8.937Y-4.9213
X8.937Y-6.1811
X8.937Y-7.4409
X9.0059Y-2.4016
X9.0059Y-2.6093
X9.0059Y-3.6614
X9.0059Y-3.8691
X9.0059Y-4.9213
X9.0059Y-5.1289
X9.0059Y-6.1811
X9.0059Y-6.3888
X9.0059Y-7.4409
X9.0059Y-7.6486
X9.1142Y-2.1654
X9.1142Y-3.4252
X9.1142Y-4.685
X9.1142Y-5.9449
X9.1142Y-7.2047
X9.1634Y-2.6093
X9.1634Y-3.8691
X9.1634Y-5.1289
X9.1634Y-6.3888
X9.1634Y-7.6486
X9.1732Y-1.6457
X9.1732Y-2.4016
X9.1732Y-2.9055
X9.1732Y-3.6614
X9.1732Y-4.1654
X9.1732Y-4.9213
X9.1732Y-5.4252
X9.1732Y-6.1811
X9.1732Y-6.685
X9.1732Y-7.4409
X9.2323Y-2.6093
X9.2323Y-3.8691
X9.2323Y-5.1289
X9.2323Y-6.3888
X9.2323Y-7.6486
X9.2421Y-2.4016
X9.2421Y-3.6614
X9.2421Y-4.9213
X9.2421Y-6.1811
X9.2421Y-7.4409
X9.2913Y-1.6644
X9.2913Y-2.1152
X9.2913Y-2.9242
X9.2913Y-3.375
X9.2913Y-4.1841
X9.2913Y-4.6348
X9.2913Y-5.4439
X9.2913Y-5.8947
X9.2913Y-6.7037
X9.2913Y-7.1545
X9.3504Y-2.1152
X9.3504Y-3.375
X9.3504Y-4.6348
X9.3504Y-5.8947
X9.3504Y-7.1545
X9.3599Y-1.6644
X9.3599Y-2.9242
X9.3599Y-4.1841
X9.3599Y-5.4439
X9.3599Y-6.7037
X9.3996Y-2.6093
X9.3996Y-3.8691
X9.3996Y-5.1289
X9.3996Y-6.3888
X9.3996Y-7.6486
X9.4094Y-1.6457
X9.4094Y-2.4016
X9.4094Y-2.9055
X9.4094Y-3.6614
X9.4094Y-4.1654
X9.4094Y-4.9213
X9.4094Y-5.4252
X9.4094Y-6.1811
X9.4094Y-6.685
X9.4094Y-7.4409
X9.4783Y-2.4016
X9.4783Y-2.6093
X9.4783Y-3.6614
X9.4783Y-3.8691
X9.4783Y-4.9213
X9.4783Y-5.1289
X9.4783Y-6.1811
X9.4783Y-6.3888
X9.4783Y-7.4409
X9.4783Y-7.6486
X9.5276Y-1.6644
X9.5276Y-2.1152
X9.5276Y-2.9242
X9.5276Y-3.375
X9.5276Y-4.1841
X9.5276Y-4.6348
X9.5276Y-5.4439
X9.5276Y-5.8947
X9.5276Y-6.7037
X9.5276Y-7.1545
X9.5965Y-1.6644
X9.5965Y-2.1152
X9.5965Y-2.9242
X9.5965Y-3.375
X9.5965Y-4.1841
X9.5965Y-4.6348
X9.5965Y-5.4439
X9.5965Y-5.8947
X9.5965Y-6.7037
X9.5965Y-7.1545
X9.6358Y-2.6093
X9.6358Y-3.8691
X9.6358Y-5.1289
X9.6358Y-6.3888
X9.6358Y-7.6486
X9.6457Y-2.4016
X9.6457Y-3.6614
X9.6457Y-4.9213
X9.6457Y-6.1811
X9.6457Y-7.4409
X9.7146Y-2.4016
X9.7146Y-2.6093
X9.7146Y-3.6614
X9.7146Y-3.8691
X9.7146Y-4.9213
X9.7146Y-5.1289
X9.7146Y-6.1811
X9.7146Y-6.3888
X9.7146Y-7.4409
X9.7146Y-7.6486
X9.8228Y-2.1654
X9.8228Y-3.4252
X9.8228Y-4.685
X9.8228Y-5.9449
X9.8228Y-7.2047
X9.872Y-2.6093
X9.872Y-3.8691
X9.872Y-5.1289
X9.872Y-6.3888
X9.872Y-7.6486
X9.8819Y-1.6457
X9.8819Y-2.4016
X9.8819Y-2.9055
X9.8819Y-3.6614
X9.8819Y-4.1654
X9.8819Y-4.9213
X9.8819Y-5.4252
X9.8819Y-6.1811
X9.8819Y-6.685
X9.8819Y-7.4409
X9.9409Y-2.6093
X9.9409Y-3.8691
X9.9409Y-5.1289
X9.9409Y-6.3888
X9.9409Y-7.6486
X9.9508Y-2.4016
X9.9508Y-3.6614
X9.9508Y-4.9213
X9.9508Y-6.1811
X9.9508Y-7.4409
X9.9803Y-2.1152
X9.9803Y-3.375
X9.9803Y-4.6348
X9.9803Y-5.8947
X9.9803Y-7.1545
X10.0Y-1.6644
X10.0Y-2.9242
X10.0Y-4.1841
X10.0Y-5.4439
X10.0Y-6.7037
X10.0295Y-2.1152
X10.0295Y-3.375
X10.0295Y-4.6348
X10.0295Y-5.8947
X10.0295Y-7.1545
X10.0685Y-1.6644
X10.0685Y-2.9242
X10.0685Y-4.1841
X10.0685Y-5.4439
X10.0685Y-6.7037
X10.1083Y-2.6093
X10.1083Y-3.8691
X10.1083Y-5.1289
X10.1083Y-6.3888
X10.1083Y-7.6486
X10.1181Y-2.4016
X10.1181Y-3.6614
X10.1181Y-4.9213
X10.1181Y-6.1811
X10.1181Y-7.4409
X10.122Y-1.6496
X10.122Y-2.9094
X10.122Y-4.1693
X10.122Y-5.4291
X10.122Y-6.689
X10.1772Y-2.6093
X10.1772Y-3.8691
X10.1772Y-5.1289
X10.1772Y-6.3888
X10.1772Y-7.6486
X10.187Y-2.4016
X10.187Y-3.6614
X10.187Y-4.9213
X10.187Y-6.1811
X10.187Y-7.4409
X10.2362Y-1.6644
X10.2362Y-2.1152
X10.2362Y-2.9242
X10.2362Y-3.375
X10.2362Y-4.1841
X10.2362Y-4.6348
X10.2362Y-5.4439
X10.2362Y-5.8947
X10.2362Y-6.7037
X10.2362Y-7.1545
X10.2953Y-2.1152
X10.2953Y-3.375
X10.2953Y-4.6348
X10.2953Y-5.8947
X10.2953Y-7.1545
X10.3048Y-1.6644
X10.3048Y-2.9242
X10.3048Y-4.1841
X10.3048Y-5.4439
X10.3048Y-6.7037
X10.3376Y-2.6093
X10.3376Y-3.8691
X10.3376Y-5.129
X10.3376Y-6.3888
X10.3376Y-7.6487
X10.3445Y-2.4016
X10.3445Y-3.6614
X10.3445Y-4.9213
X10.3445Y-6.1811
X10.3445Y-7.4409
X10.3583Y-1.6496
X10.3583Y-2.9094
X10.3583Y-4.1693
X10.3583Y-5.4291
X10.3583Y-6.689
X10.4134Y-2.4016
X10.4134Y-2.6093
X10.4134Y-3.6614
X10.4134Y-3.8691
X10.4134Y-4.9213
X10.4134Y-5.1289
X10.4134Y-6.1811
X10.4134Y-6.3888
X10.4134Y-7.4409
X10.4134Y-7.6486
X10.4724Y-1.6644
X10.4724Y-2.1152
X10.4724Y-2.9242
X10.4724Y-3.375
X10.4724Y-4.1841
X10.4724Y-4.6348
X10.4724Y-5.4439
X10.4724Y-5.8947
X10.4724Y-6.7037
X10.4724Y-7.1545
X10.5217Y-2.1152
X10.5217Y-3.375
X10.5217Y-4.6348
X10.5217Y-5.8947
X10.5217Y-7.1545
X10.5413Y-1.6644
X10.5413Y-2.9242
X10.5413Y-4.1841
X10.5413Y-5.4439
X10.5413Y-6.7037
X10.5807Y-2.6093
X10.5807Y-3.8691
X10.5807Y-5.1289
X10.5807Y-6.3888
X10.5807Y-7.6486
X10.5906Y-2.4016
X10.5906Y-3.6614
X10.5906Y-4.9213
X10.5906Y-6.1811
X10.5906Y-7.4409
X10.6594Y-2.4016
X10.6594Y-2.6093
X10.6594Y-3.6614
X10.6594Y-3.8691
X10.6594Y-4.9213
X10.6594Y-5.1289
X10.6594Y-6.1811
X10.6594Y-6.3888
X10.6594Y-7.4409
X10.6594Y-7.6486
X10.7579Y-2.1654
X10.7579Y-3.4252
X10.7579Y-4.685
X10.7579Y-5.9449
X10.7579Y-7.2047
X10.8169Y-2.6093
X10.8169Y-3.8691
X10.8169Y-5.1289
X10.8169Y-6.3888
X10.8169Y-7.6486
X10.8268Y-1.6535
X10.8268Y-2.4016
X10.8268Y-2.9134
X10.8268Y-3.6614
X10.8268Y-4.1732
X10.8268Y-4.9213
X10.8268Y-5.4331
X10.8268Y-6.1811
X10.8268Y-6.6929
X10.8268Y-7.4409
X10.8858Y-2.6093
X10.8858Y-3.8691
X10.8858Y-5.1289
X10.8858Y-6.3888
X10.8858Y-7.6486
X10.8957Y-2.4016
X10.8957Y-3.6614
X10.8957Y-4.9213
X10.8957Y-6.1811
X10.8957Y-7.4409
X10.9449Y-1.6644
X10.9449Y-2.1152
X10.9449Y-2.9242
X10.9449Y-3.375
X10.9449Y-4.1841
X10.9449Y-4.6348
X10.9449Y-5.4439
X10.9449Y-5.8947
X10.9449Y-6.7037
X10.9449Y-7.1545
X11.0039Y-2.1152
X11.0039Y-3.375
X11.0039Y-4.6348
X11.0039Y-5.8947
X11.0039Y-7.1545
X11.0134Y-1.6644
X11.0134Y-2.9242
X11.0134Y-4.1841
X11.0134Y-5.4439
X11.0134Y-6.7037
X11.0531Y-2.6093
X11.0531Y-3.8691
X11.0531Y-5.1289
X11.0531Y-6.3888
X11.0531Y-7.6486
X11.063Y-2.4016
X11.063Y-3.6614
X11.063Y-4.9213
X11.063Y-6.1811
X11.063Y-7.4409
X11.1319Y-2.4016
X11.1319Y-2.6093
X11.1319Y-3.6614
X11.1319Y-3.8691
X11.1319Y-4.9213
X11.1319Y-5.1289
X11.1319Y-6.1811
X11.1319Y-6.3888
X11.1319Y-7.4409
X11.1319Y-7.6486
X11.1811Y-1.6644
X11.1811Y-2.1152
X11.1811Y-2.9242
X11.1811Y-3.375
X11.1811Y-4.1841
X11.1811Y-4.6348
X11.1811Y-5.4439
X11.1811Y-5.8947
X11.1811Y-6.7037
X11.1811Y-7.1545
X11.25Y-1.6644
X11.25Y-2.1152
X11.25Y-2.9242
X11.25Y-3.375
X11.25Y-4.1841
X11.25Y-4.6348
X11.25Y-5.4439
X11.25Y-5.8947
X11.25Y-6.7037
X11.25Y-7.1545
X11.2894Y-2.6093
X11.2894Y-3.8691
X11.2894Y-5.1289
X11.2894Y-6.3888
X11.2894Y-7.6486
X11.2992Y-2.4016
X11.2992Y-3.6614
X11.2992Y-4.9213
X11.2992Y-6.1811
X11.2992Y-7.4409
X11.3681Y-2.4016
X11.3681Y-2.6093
X11.3681Y-3.6614
X11.3681Y-3.8691
X11.3681Y-4.9213
X11.3681Y-5.1289
X11.3681Y-6.1811
X11.3681Y-6.3888
X11.3681Y-7.4409
X11.3681Y-7.6486
X11.4764Y-2.1654
X11.4764Y-3.4252
X11.4764Y-4.685
X11.4764Y-5.9449
X11.4764Y-7.2047
X11.5256Y-2.6093
X11.5256Y-3.8691
X11.5256Y-5.1289
X11.5256Y-6.3888
X11.5256Y-7.6486
X11.5354Y-1.6535
X11.5354Y-2.4016
X11.5354Y-2.9134
X11.5354Y-3.6614
X11.5354Y-4.1732
X11.5354Y-4.9213
X11.5354Y-5.4331
X11.5354Y-6.1811
X11.5354Y-6.6929
X11.5354Y-7.4409
X11.5945Y-2.6093
X11.5945Y-3.8691
X11.5945Y-5.1289
X11.5945Y-6.3888
X11.5945Y-7.6486
X11.6043Y-2.4016
X11.6043Y-3.6614
X11.6043Y-4.9213
X11.6043Y-6.1811
X11.6043Y-7.4409
X11.6339Y-2.1152
X11.6339Y-3.375
X11.6339Y-4.6348
X11.6339Y-5.8947
X11.6339Y-7.1545
X11.6535Y-1.6644
X11.6535Y-2.9242
X11.6535Y-4.1841
X11.6535Y-5.4439
X11.6535Y-6.7037
X11.6831Y-2.1152
X11.6831Y-3.375
X11.6831Y-4.6348
X11.6831Y-5.8947
X11.6831Y-7.1545
X11.7221Y-1.6644
X11.7221Y-2.9242
X11.7221Y-4.1841
X11.7221Y-5.4439
X11.7221Y-6.7037
X11.7618Y-2.6093
X11.7618Y-3.8691
X11.7618Y-5.1289
X11.7618Y-6.3888
X11.7618Y-7.6486
X11.7717Y-2.4016
X11.7717Y-3.6614
X11.7717Y-4.9213
X11.7717Y-6.1811
X11.7717Y-7.4409
X11.8307Y-2.6093
X11.8307Y-3.8691
X11.8307Y-5.1289
X11.8307Y-6.3888
X11.8307Y-7.6486
X11.8406Y-2.4016
X11.8406Y-3.6614
X11.8406Y-4.9213
X11.8406Y-6.1811
X11.8406Y-7.4409
X11.8898Y-1.6644
X11.8898Y-2.1152
X11.8898Y-2.9242
X11.8898Y-3.375
X11.8898Y-4.1841
X11.8898Y-4.6348
X11.8898Y-5.4439
X11.8898Y-5.8947
X11.8898Y-6.7037
X11.8898Y-7.1545
X11.9488Y-2.1152
X11.9488Y-3.375
X11.9488Y-4.6348
X11.9488Y-5.8947
X11.9488Y-7.1545
X11.9583Y-1.6644
X11.9583Y-2.9242
X11.9583Y-4.1841
X11.9583Y-5.4439
X11.9583Y-6.7037
X11.9813Y-2.6093
X11.9813Y-3.8691
X11.9813Y-5.1289
X11.9813Y-6.3888
X11.9813Y-7.6486
X11.998Y-2.4016
X11.998Y-3.6614
X11.998Y-4.9213
X11.998Y-6.1811
X11.998Y-7.4409
X12.0669Y-2.4016
X12.0669Y-2.6093
X12.0669Y-3.6614
X12.0669Y-3.8691
X12.0669Y-4.9213
X12.0669Y-5.1289
X12.0669Y-6.1811
X12.0669Y-6.3888
X12.0669Y-7.4409
X12.0669Y-7.6486
X12.126Y-1.6644
X12.126Y-2.1152
X12.126Y-2.9242
X12.126Y-3.375
X12.126Y-4.1841
X12.126Y-4.6348
X12.126Y-5.4439
X12.126Y-5.8947
X12.126Y-6.7037
X12.126Y-7.1545
X12.1752Y-2.1152
X12.1752Y-3.375
X12.1752Y-4.6348
X12.1752Y-5.8947
X12.1752Y-7.1545
X12.1949Y-1.6644
X12.1949Y-2.9242
X12.1949Y-4.1841
X12.1949Y-5.4439
X12.1949Y-6.7037
X12.2343Y-2.6093
X12.2343Y-3.8691
X12.2343Y-5.1289
X12.2343Y-6.3888
X12.2343Y-7.6486
X12.2441Y-2.4016
X12.2441Y-3.6614
X12.2441Y-4.9213
X12.2441Y-6.1811
X12.2441Y-7.4409
X12.313Y-2.4016
X12.313Y-2.6093
X12.313Y-3.6614
X12.313Y-3.8691
X12.313Y-4.9213
X12.313Y-5.1289
X12.313Y-6.1811
X12.313Y-6.3888
X12.313Y-7.4409
X12.313Y-7.6486
X12.4114Y-2.1654
X12.4114Y-3.4252
X12.4114Y-4.685
X12.4114Y-5.9449
X12.4114Y-7.2047
X12.4705Y-2.6093
X12.4705Y-3.8691
X12.4705Y-5.1289
X12.4705Y-6.3888
X12.4705Y-7.6486
X12.4803Y-1.6535
X12.4803Y-2.4016
X12.4803Y-2.9134
X12.4803Y-3.6614
X12.4803Y-4.1732
X12.4803Y-4.9213
X12.4803Y-5.4331
X12.4803Y-6.1811
X12.4803Y-6.6929
X12.4803Y-7.4409
X12.5394Y-2.6093
X12.5394Y-3.8691
X12.5394Y-5.1289
X12.5394Y-6.3888
X12.5394Y-7.6486
X12.5492Y-2.4016
X12.5492Y-3.6614
X12.5492Y-4.9213
X12.5492Y-6.1811
X12.5492Y-7.4409
X12.5984Y-1.6644
X12.5984Y-2.1152
X12.5984Y-2.9242
X12.5984Y-3.375
X12.5984Y-4.1841
X12.5984Y-4.6348
X12.5984Y-5.4439
X12.5984Y-5.8947
X12.5984Y-6.7037
X12.5984Y-7.1545
X12.6575Y-2.1152
X12.6575Y-3.375
X12.6575Y-4.6348
X12.6575Y-5.8947
X12.6575Y-7.1545
X12.667Y-1.6644
X12.667Y-2.9242
X12.667Y-4.1841
X12.667Y-5.4439
X12.667Y-6.7037
X12.7067Y-2.6093
X12.7067Y-3.8691
X12.7067Y-5.1289
X12.7067Y-6.3888
X12.7067Y-7.6486
X12.7165Y-2.4016
X12.7165Y-3.6614
X12.7165Y-4.9213
X12.7165Y-6.1811
X12.7165Y-7.4409
X12.7756Y-2.6093
X12.7756Y-3.8691
X12.7756Y-5.1289
X12.7756Y-6.3888
X12.7756Y-7.6486
X12.7854Y-2.4016
X12.7854Y-3.6614
X12.7854Y-4.9213
X12.7854Y-6.1811
X12.7854Y-7.4409
X12.8346Y-1.6644
X12.8346Y-2.1152
X12.8346Y-2.9242
X12.8346Y-3.375
X12.8346Y-4.1841
X12.8346Y-4.6348
X12.8346Y-5.4439
X12.8346Y-5.8947
X12.8346Y-6.7037
X12.8346Y-7.1545
X12.8937Y-2.1152
X12.8937Y-3.375
X12.8937Y-4.6348
X12.8937Y-5.8947
X12.8937Y-7.1545
X12.9035Y-1.6644
X12.9035Y-2.9242
X12.9035Y-4.1841
X12.9035Y-5.4439
X12.9035Y-6.7037
X12.9331Y-2.6093
X12.9331Y-3.8691
X12.9331Y-5.1289
X12.9331Y-6.3888
X12.9331Y-7.6486
X12.9429Y-2.4016
X12.9429Y-3.6614
X12.9429Y-4.9213
X12.9429Y-6.1811
X12.9429Y-7.4409
X13.0118Y-2.4016
X13.0118Y-2.6093
X13.0118Y-3.6614
X13.0118Y-3.8691
X13.0118Y-4.9213
X13.0118Y-5.1289
X13.0118Y-6.1811
X13.0118Y-6.3888
X13.0118Y-7.4409
X13.0118Y-7.6486
X13.1201Y-2.1654
X13.1201Y-3.4252
X13.1201Y-4.685
X13.1201Y-5.9449
X13.1201Y-7.2047
X13.189Y-1.6535
X13.189Y-2.4016
X13.189Y-2.6093
X13.189Y-2.9134
X13.189Y-3.6614
X13.189Y-3.8691
X13.189Y-4.1732
X13.189Y-4.9213
X13.189Y-5.1289
X13.189Y-5.4331
X13.189Y-6.1811
X13.189Y-6.3888
X13.189Y-6.6929
X13.189Y-7.4409
X13.189Y-7.6486
X13.248Y-2.6093
X13.248Y-3.8691
X13.248Y-5.1289
X13.248Y-6.3888
X13.248Y-7.6486
X13.2579Y-2.4016
X13.2579Y-3.6614
X13.2579Y-4.9213
X13.2579Y-6.1811
X13.2579Y-7.4409
X13.2972Y-2.1152
X13.2972Y-3.375
X13.2972Y-4.6348
X13.2972Y-5.8947
X13.2972Y-7.1545
X13.3071Y-1.6644
X13.3071Y-2.9242
X13.3071Y-4.1841
X13.3071Y-5.4439
X13.3071Y-6.7037
X13.3563Y-2.1152
X13.3563Y-3.375
X13.3563Y-4.6348
X13.3563Y-5.8947
X13.3563Y-7.1545
X13.3756Y-1.6644
X13.3756Y-2.9242
X13.3756Y-4.1841
X13.3756Y-5.4439
X13.3756Y-6.7037
X13.4154Y-2.6093
X13.4154Y-3.8691
X13.4154Y-5.1289
X13.4154Y-6.3888
X13.4154Y-7.6486
X13.4252Y-2.4114
X13.4252Y-3.6713
X13.4252Y-4.9311
X13.4252Y-6.1909
X13.4252Y-7.4508
X13.4843Y-2.6093
X13.4843Y-3.8691
X13.4843Y-5.1289
X13.4843Y-6.3888
X13.4843Y-7.6486
X13.4941Y-2.4114
X13.4941Y-3.6713
X13.4941Y-4.9311
X13.4941Y-6.1909
X13.4941Y-7.4508
X13.5138Y-2.1152
X13.5138Y-3.375
X13.5138Y-4.6348
X13.5138Y-5.8947
X13.5138Y-7.1545
X13.5433Y-1.6644
X13.5433Y-2.9242
X13.5433Y-4.1841
X13.5433Y-5.4439
X13.5433Y-6.7037
X13.5728Y-2.1152
X13.5728Y-3.375
X13.5728Y-4.6348
X13.5728Y-5.8947
X13.5728Y-7.1545
X13.6119Y-1.6644
X13.6119Y-2.9242
X13.6119Y-4.1841
X13.6119Y-5.4439
X13.6119Y-6.7037
X13.6447Y-2.6093
X13.6447Y-3.8691
X13.6447Y-5.1289
X13.6447Y-6.3888
X13.6447Y-7.6486
X13.6614Y-2.4114
X13.6614Y-3.6713
X13.6614Y-4.9311
X13.6614Y-6.1909
X13.6614Y-7.4508
X13.7205Y-2.6093
X13.7205Y-3.8691
X13.7205Y-5.1289
X13.7205Y-6.3888
X13.7205Y-7.6486
X13.7303Y-2.1152
X13.7303Y-2.4114
X13.7303Y-3.375
X13.7303Y-3.6713
X13.7303Y-4.6348
X13.7303Y-4.9311
X13.7303Y-5.8947
X13.7303Y-6.1909
X13.7303Y-7.1545
X13.7303Y-7.4508
X13.7795Y-1.6634
X13.7795Y-2.9232
X13.7795Y-4.1831
X13.7795Y-5.4429
X13.7795Y-6.7028
X13.8189Y-2.1161
X13.8189Y-3.376
X13.8189Y-4.6358
X13.8189Y-5.8957
X13.8189Y-7.1555
X13.8337Y-2.2195
X13.8337Y-3.4793
X13.8337Y-4.7392
X13.8337Y-5.999
X13.8337Y-7.2589
X13.8485Y-1.6622
X13.8485Y-2.922
X13.8485Y-4.1819
X13.8485Y-5.4417
X13.8485Y-6.7015
X13.878Y-2.6093
X13.878Y-3.8691
X13.878Y-5.1289
X13.878Y-6.3888
X13.878Y-7.6486
X13.8878Y-2.4016
X13.8878Y-3.6614
X13.8878Y-4.9213
X13.8878Y-6.1811
X13.8878Y-7.4409
X13.9469Y-2.6093
X13.9469Y-3.8691
X13.9469Y-5.1289
X13.9469Y-6.3888
X13.9469Y-7.6486
X13.9567Y-2.3425
X13.9567Y-2.4016
X13.9567Y-3.6024
X13.9567Y-3.6614
X13.9567Y-4.8622
X13.9567Y-4.9213
X13.9567Y-6.122
X13.9567Y-6.1811
X13.9567Y-7.3819
X13.9567Y-7.4409
X14.0748Y-2.3819
X14.0748Y-3.6417
X14.0748Y-4.9016
X14.0748Y-6.1614
X14.0748Y-7.4213
X14.0936Y-2.56
X14.0936Y-3.8198
X14.0936Y-5.0797
X14.0936Y-6.3395
X14.0936Y-7.5993
X14.1929Y-2.5787
X14.1929Y-3.8386
X14.1929Y-5.0984
X14.1929Y-6.3583
X14.1929Y-7.6181
X14.2126Y-2.3819
X14.2126Y-3.6417
X14.2126Y-4.9016
X14.2126Y-6.1614
X14.2126Y-7.4213
T2
X14.1339Y-6.7866
X14.1339Y-6.8866
X14.1339Y-6.9866
X14.1339Y-7.0866
X14.1339Y-5.5268
X14.1339Y-5.6268
X14.1339Y-5.7268
X14.1339Y-5.8268
X14.1339Y-4.2669
X14.1339Y-4.3669
X14.1339Y-4.4669
X14.1339Y-4.5669
X14.1339Y-3.0071
X14.1339Y-3.1071
X14.1339Y-3.2071
X14.1339Y-3.3071
X14.1339Y-1.7472
X14.1339Y-1.8472
X14.1339Y-1.9472
X14.1339Y-2.0472
T0
M30
