G04 #@! TF.GenerationSoftware,KiCad,Pcbnew,(5.1.5)-3*
G04 #@! TF.CreationDate,2020-04-10T18:57:11+09:00*
G04 #@! TF.ProjectId,APA102_MENZUKE5,41504131-3032-45f4-9d45-4e5a554b4535,rev?*
G04 #@! TF.SameCoordinates,Original*
G04 #@! TF.FileFunction,Soldermask,Bot*
G04 #@! TF.FilePolarity,Negative*
%FSLAX46Y46*%
G04 Gerber Fmt 4.6, Leading zero omitted, Abs format (unit mm)*
G04 Created by KiCad (PCBNEW (5.1.5)-3) date 2020-04-10 18:57:11*
%MOMM*%
%LPD*%
G04 APERTURE LIST*
%ADD10C,0.100000*%
G04 APERTURE END LIST*
D10*
G36*
X332642007Y-202883582D02*
G01*
X333042563Y-203049498D01*
X333042565Y-203049499D01*
X333403056Y-203290371D01*
X333709629Y-203596944D01*
X333950501Y-203957435D01*
X333950502Y-203957437D01*
X334116418Y-204357993D01*
X334201000Y-204783219D01*
X334201000Y-205216781D01*
X334116418Y-205642007D01*
X333950502Y-206042563D01*
X333950501Y-206042565D01*
X333709629Y-206403056D01*
X333403056Y-206709629D01*
X333042565Y-206950501D01*
X333042564Y-206950502D01*
X333042563Y-206950502D01*
X332642007Y-207116418D01*
X332216781Y-207201000D01*
X331783219Y-207201000D01*
X331357993Y-207116418D01*
X330957437Y-206950502D01*
X330957436Y-206950502D01*
X330957435Y-206950501D01*
X330596944Y-206709629D01*
X330290371Y-206403056D01*
X330049499Y-206042565D01*
X330049498Y-206042563D01*
X329883582Y-205642007D01*
X329799000Y-205216781D01*
X329799000Y-204783219D01*
X329883582Y-204357993D01*
X330049498Y-203957437D01*
X330049499Y-203957435D01*
X330290371Y-203596944D01*
X330596944Y-203290371D01*
X330957435Y-203049499D01*
X330957437Y-203049498D01*
X331357993Y-202883582D01*
X331783219Y-202799000D01*
X332216781Y-202799000D01*
X332642007Y-202883582D01*
G37*
G36*
X80642007Y-202883582D02*
G01*
X81042563Y-203049498D01*
X81042565Y-203049499D01*
X81403056Y-203290371D01*
X81709629Y-203596944D01*
X81950501Y-203957435D01*
X81950502Y-203957437D01*
X82116418Y-204357993D01*
X82201000Y-204783219D01*
X82201000Y-205216781D01*
X82116418Y-205642007D01*
X81950502Y-206042563D01*
X81950501Y-206042565D01*
X81709629Y-206403056D01*
X81403056Y-206709629D01*
X81042565Y-206950501D01*
X81042564Y-206950502D01*
X81042563Y-206950502D01*
X80642007Y-207116418D01*
X80216781Y-207201000D01*
X79783219Y-207201000D01*
X79357993Y-207116418D01*
X78957437Y-206950502D01*
X78957436Y-206950502D01*
X78957435Y-206950501D01*
X78596944Y-206709629D01*
X78290371Y-206403056D01*
X78049499Y-206042565D01*
X78049498Y-206042563D01*
X77883582Y-205642007D01*
X77799000Y-205216781D01*
X77799000Y-204783219D01*
X77883582Y-204357993D01*
X78049498Y-203957437D01*
X78049499Y-203957435D01*
X78290371Y-203596944D01*
X78596944Y-203290371D01*
X78957435Y-203049499D01*
X78957437Y-203049498D01*
X79357993Y-202883582D01*
X79783219Y-202799000D01*
X80216781Y-202799000D01*
X80642007Y-202883582D01*
G37*
G36*
X359901000Y-180901000D02*
G01*
X358099000Y-180901000D01*
X358099000Y-179099000D01*
X359901000Y-179099000D01*
X359901000Y-180901000D01*
G37*
G36*
X359113512Y-176563927D02*
G01*
X359262812Y-176593624D01*
X359426784Y-176661544D01*
X359574354Y-176760147D01*
X359699853Y-176885646D01*
X359798456Y-177033216D01*
X359866376Y-177197188D01*
X359901000Y-177371259D01*
X359901000Y-177548741D01*
X359866376Y-177722812D01*
X359798456Y-177886784D01*
X359699853Y-178034354D01*
X359574354Y-178159853D01*
X359426784Y-178258456D01*
X359262812Y-178326376D01*
X359113512Y-178356073D01*
X359088742Y-178361000D01*
X358911258Y-178361000D01*
X358886488Y-178356073D01*
X358737188Y-178326376D01*
X358573216Y-178258456D01*
X358425646Y-178159853D01*
X358300147Y-178034354D01*
X358201544Y-177886784D01*
X358133624Y-177722812D01*
X358099000Y-177548741D01*
X358099000Y-177371259D01*
X358133624Y-177197188D01*
X358201544Y-177033216D01*
X358300147Y-176885646D01*
X358425646Y-176760147D01*
X358573216Y-176661544D01*
X358737188Y-176593624D01*
X358886488Y-176563927D01*
X358911258Y-176559000D01*
X359088742Y-176559000D01*
X359113512Y-176563927D01*
G37*
G36*
X359113512Y-174023927D02*
G01*
X359262812Y-174053624D01*
X359426784Y-174121544D01*
X359574354Y-174220147D01*
X359699853Y-174345646D01*
X359798456Y-174493216D01*
X359866376Y-174657188D01*
X359901000Y-174831259D01*
X359901000Y-175008741D01*
X359866376Y-175182812D01*
X359798456Y-175346784D01*
X359699853Y-175494354D01*
X359574354Y-175619853D01*
X359426784Y-175718456D01*
X359262812Y-175786376D01*
X359113512Y-175816073D01*
X359088742Y-175821000D01*
X358911258Y-175821000D01*
X358886488Y-175816073D01*
X358737188Y-175786376D01*
X358573216Y-175718456D01*
X358425646Y-175619853D01*
X358300147Y-175494354D01*
X358201544Y-175346784D01*
X358133624Y-175182812D01*
X358099000Y-175008741D01*
X358099000Y-174831259D01*
X358133624Y-174657188D01*
X358201544Y-174493216D01*
X358300147Y-174345646D01*
X358425646Y-174220147D01*
X358573216Y-174121544D01*
X358737188Y-174053624D01*
X358886488Y-174023927D01*
X358911258Y-174019000D01*
X359088742Y-174019000D01*
X359113512Y-174023927D01*
G37*
G36*
X359113512Y-171483927D02*
G01*
X359262812Y-171513624D01*
X359426784Y-171581544D01*
X359574354Y-171680147D01*
X359699853Y-171805646D01*
X359798456Y-171953216D01*
X359866376Y-172117188D01*
X359901000Y-172291259D01*
X359901000Y-172468741D01*
X359866376Y-172642812D01*
X359798456Y-172806784D01*
X359699853Y-172954354D01*
X359574354Y-173079853D01*
X359426784Y-173178456D01*
X359262812Y-173246376D01*
X359113512Y-173276073D01*
X359088742Y-173281000D01*
X358911258Y-173281000D01*
X358886488Y-173276073D01*
X358737188Y-173246376D01*
X358573216Y-173178456D01*
X358425646Y-173079853D01*
X358300147Y-172954354D01*
X358201544Y-172806784D01*
X358133624Y-172642812D01*
X358099000Y-172468741D01*
X358099000Y-172291259D01*
X358133624Y-172117188D01*
X358201544Y-171953216D01*
X358300147Y-171805646D01*
X358425646Y-171680147D01*
X358573216Y-171581544D01*
X358737188Y-171513624D01*
X358886488Y-171483927D01*
X358911258Y-171479000D01*
X359088742Y-171479000D01*
X359113512Y-171483927D01*
G37*
G36*
X359901000Y-148901000D02*
G01*
X358099000Y-148901000D01*
X358099000Y-147099000D01*
X359901000Y-147099000D01*
X359901000Y-148901000D01*
G37*
G36*
X359113512Y-144563927D02*
G01*
X359262812Y-144593624D01*
X359426784Y-144661544D01*
X359574354Y-144760147D01*
X359699853Y-144885646D01*
X359798456Y-145033216D01*
X359866376Y-145197188D01*
X359901000Y-145371259D01*
X359901000Y-145548741D01*
X359866376Y-145722812D01*
X359798456Y-145886784D01*
X359699853Y-146034354D01*
X359574354Y-146159853D01*
X359426784Y-146258456D01*
X359262812Y-146326376D01*
X359113512Y-146356073D01*
X359088742Y-146361000D01*
X358911258Y-146361000D01*
X358886488Y-146356073D01*
X358737188Y-146326376D01*
X358573216Y-146258456D01*
X358425646Y-146159853D01*
X358300147Y-146034354D01*
X358201544Y-145886784D01*
X358133624Y-145722812D01*
X358099000Y-145548741D01*
X358099000Y-145371259D01*
X358133624Y-145197188D01*
X358201544Y-145033216D01*
X358300147Y-144885646D01*
X358425646Y-144760147D01*
X358573216Y-144661544D01*
X358737188Y-144593624D01*
X358886488Y-144563927D01*
X358911258Y-144559000D01*
X359088742Y-144559000D01*
X359113512Y-144563927D01*
G37*
G36*
X359113512Y-142023927D02*
G01*
X359262812Y-142053624D01*
X359426784Y-142121544D01*
X359574354Y-142220147D01*
X359699853Y-142345646D01*
X359798456Y-142493216D01*
X359866376Y-142657188D01*
X359901000Y-142831259D01*
X359901000Y-143008741D01*
X359866376Y-143182812D01*
X359798456Y-143346784D01*
X359699853Y-143494354D01*
X359574354Y-143619853D01*
X359426784Y-143718456D01*
X359262812Y-143786376D01*
X359113512Y-143816073D01*
X359088742Y-143821000D01*
X358911258Y-143821000D01*
X358886488Y-143816073D01*
X358737188Y-143786376D01*
X358573216Y-143718456D01*
X358425646Y-143619853D01*
X358300147Y-143494354D01*
X358201544Y-143346784D01*
X358133624Y-143182812D01*
X358099000Y-143008741D01*
X358099000Y-142831259D01*
X358133624Y-142657188D01*
X358201544Y-142493216D01*
X358300147Y-142345646D01*
X358425646Y-142220147D01*
X358573216Y-142121544D01*
X358737188Y-142053624D01*
X358886488Y-142023927D01*
X358911258Y-142019000D01*
X359088742Y-142019000D01*
X359113512Y-142023927D01*
G37*
G36*
X359113512Y-139483927D02*
G01*
X359262812Y-139513624D01*
X359426784Y-139581544D01*
X359574354Y-139680147D01*
X359699853Y-139805646D01*
X359798456Y-139953216D01*
X359866376Y-140117188D01*
X359901000Y-140291259D01*
X359901000Y-140468741D01*
X359866376Y-140642812D01*
X359798456Y-140806784D01*
X359699853Y-140954354D01*
X359574354Y-141079853D01*
X359426784Y-141178456D01*
X359262812Y-141246376D01*
X359113512Y-141276073D01*
X359088742Y-141281000D01*
X358911258Y-141281000D01*
X358886488Y-141276073D01*
X358737188Y-141246376D01*
X358573216Y-141178456D01*
X358425646Y-141079853D01*
X358300147Y-140954354D01*
X358201544Y-140806784D01*
X358133624Y-140642812D01*
X358099000Y-140468741D01*
X358099000Y-140291259D01*
X358133624Y-140117188D01*
X358201544Y-139953216D01*
X358300147Y-139805646D01*
X358425646Y-139680147D01*
X358573216Y-139581544D01*
X358737188Y-139513624D01*
X358886488Y-139483927D01*
X358911258Y-139479000D01*
X359088742Y-139479000D01*
X359113512Y-139483927D01*
G37*
G36*
X359901000Y-116901000D02*
G01*
X358099000Y-116901000D01*
X358099000Y-115099000D01*
X359901000Y-115099000D01*
X359901000Y-116901000D01*
G37*
G36*
X359113512Y-112563927D02*
G01*
X359262812Y-112593624D01*
X359426784Y-112661544D01*
X359574354Y-112760147D01*
X359699853Y-112885646D01*
X359798456Y-113033216D01*
X359866376Y-113197188D01*
X359901000Y-113371259D01*
X359901000Y-113548741D01*
X359866376Y-113722812D01*
X359798456Y-113886784D01*
X359699853Y-114034354D01*
X359574354Y-114159853D01*
X359426784Y-114258456D01*
X359262812Y-114326376D01*
X359113512Y-114356073D01*
X359088742Y-114361000D01*
X358911258Y-114361000D01*
X358886488Y-114356073D01*
X358737188Y-114326376D01*
X358573216Y-114258456D01*
X358425646Y-114159853D01*
X358300147Y-114034354D01*
X358201544Y-113886784D01*
X358133624Y-113722812D01*
X358099000Y-113548741D01*
X358099000Y-113371259D01*
X358133624Y-113197188D01*
X358201544Y-113033216D01*
X358300147Y-112885646D01*
X358425646Y-112760147D01*
X358573216Y-112661544D01*
X358737188Y-112593624D01*
X358886488Y-112563927D01*
X358911258Y-112559000D01*
X359088742Y-112559000D01*
X359113512Y-112563927D01*
G37*
G36*
X359113512Y-110023927D02*
G01*
X359262812Y-110053624D01*
X359426784Y-110121544D01*
X359574354Y-110220147D01*
X359699853Y-110345646D01*
X359798456Y-110493216D01*
X359866376Y-110657188D01*
X359901000Y-110831259D01*
X359901000Y-111008741D01*
X359866376Y-111182812D01*
X359798456Y-111346784D01*
X359699853Y-111494354D01*
X359574354Y-111619853D01*
X359426784Y-111718456D01*
X359262812Y-111786376D01*
X359113512Y-111816073D01*
X359088742Y-111821000D01*
X358911258Y-111821000D01*
X358886488Y-111816073D01*
X358737188Y-111786376D01*
X358573216Y-111718456D01*
X358425646Y-111619853D01*
X358300147Y-111494354D01*
X358201544Y-111346784D01*
X358133624Y-111182812D01*
X358099000Y-111008741D01*
X358099000Y-110831259D01*
X358133624Y-110657188D01*
X358201544Y-110493216D01*
X358300147Y-110345646D01*
X358425646Y-110220147D01*
X358573216Y-110121544D01*
X358737188Y-110053624D01*
X358886488Y-110023927D01*
X358911258Y-110019000D01*
X359088742Y-110019000D01*
X359113512Y-110023927D01*
G37*
G36*
X359113512Y-107483927D02*
G01*
X359262812Y-107513624D01*
X359426784Y-107581544D01*
X359574354Y-107680147D01*
X359699853Y-107805646D01*
X359798456Y-107953216D01*
X359866376Y-108117188D01*
X359901000Y-108291259D01*
X359901000Y-108468741D01*
X359866376Y-108642812D01*
X359798456Y-108806784D01*
X359699853Y-108954354D01*
X359574354Y-109079853D01*
X359426784Y-109178456D01*
X359262812Y-109246376D01*
X359113512Y-109276073D01*
X359088742Y-109281000D01*
X358911258Y-109281000D01*
X358886488Y-109276073D01*
X358737188Y-109246376D01*
X358573216Y-109178456D01*
X358425646Y-109079853D01*
X358300147Y-108954354D01*
X358201544Y-108806784D01*
X358133624Y-108642812D01*
X358099000Y-108468741D01*
X358099000Y-108291259D01*
X358133624Y-108117188D01*
X358201544Y-107953216D01*
X358300147Y-107805646D01*
X358425646Y-107680147D01*
X358573216Y-107581544D01*
X358737188Y-107513624D01*
X358886488Y-107483927D01*
X358911258Y-107479000D01*
X359088742Y-107479000D01*
X359113512Y-107483927D01*
G37*
G36*
X359901000Y-84901000D02*
G01*
X358099000Y-84901000D01*
X358099000Y-83099000D01*
X359901000Y-83099000D01*
X359901000Y-84901000D01*
G37*
G36*
X359113512Y-80563927D02*
G01*
X359262812Y-80593624D01*
X359426784Y-80661544D01*
X359574354Y-80760147D01*
X359699853Y-80885646D01*
X359798456Y-81033216D01*
X359866376Y-81197188D01*
X359901000Y-81371259D01*
X359901000Y-81548741D01*
X359866376Y-81722812D01*
X359798456Y-81886784D01*
X359699853Y-82034354D01*
X359574354Y-82159853D01*
X359426784Y-82258456D01*
X359262812Y-82326376D01*
X359113512Y-82356073D01*
X359088742Y-82361000D01*
X358911258Y-82361000D01*
X358886488Y-82356073D01*
X358737188Y-82326376D01*
X358573216Y-82258456D01*
X358425646Y-82159853D01*
X358300147Y-82034354D01*
X358201544Y-81886784D01*
X358133624Y-81722812D01*
X358099000Y-81548741D01*
X358099000Y-81371259D01*
X358133624Y-81197188D01*
X358201544Y-81033216D01*
X358300147Y-80885646D01*
X358425646Y-80760147D01*
X358573216Y-80661544D01*
X358737188Y-80593624D01*
X358886488Y-80563927D01*
X358911258Y-80559000D01*
X359088742Y-80559000D01*
X359113512Y-80563927D01*
G37*
G36*
X359113512Y-78023927D02*
G01*
X359262812Y-78053624D01*
X359426784Y-78121544D01*
X359574354Y-78220147D01*
X359699853Y-78345646D01*
X359798456Y-78493216D01*
X359866376Y-78657188D01*
X359901000Y-78831259D01*
X359901000Y-79008741D01*
X359866376Y-79182812D01*
X359798456Y-79346784D01*
X359699853Y-79494354D01*
X359574354Y-79619853D01*
X359426784Y-79718456D01*
X359262812Y-79786376D01*
X359113512Y-79816073D01*
X359088742Y-79821000D01*
X358911258Y-79821000D01*
X358886488Y-79816073D01*
X358737188Y-79786376D01*
X358573216Y-79718456D01*
X358425646Y-79619853D01*
X358300147Y-79494354D01*
X358201544Y-79346784D01*
X358133624Y-79182812D01*
X358099000Y-79008741D01*
X358099000Y-78831259D01*
X358133624Y-78657188D01*
X358201544Y-78493216D01*
X358300147Y-78345646D01*
X358425646Y-78220147D01*
X358573216Y-78121544D01*
X358737188Y-78053624D01*
X358886488Y-78023927D01*
X358911258Y-78019000D01*
X359088742Y-78019000D01*
X359113512Y-78023927D01*
G37*
G36*
X359113512Y-75483927D02*
G01*
X359262812Y-75513624D01*
X359426784Y-75581544D01*
X359574354Y-75680147D01*
X359699853Y-75805646D01*
X359798456Y-75953216D01*
X359866376Y-76117188D01*
X359901000Y-76291259D01*
X359901000Y-76468741D01*
X359866376Y-76642812D01*
X359798456Y-76806784D01*
X359699853Y-76954354D01*
X359574354Y-77079853D01*
X359426784Y-77178456D01*
X359262812Y-77246376D01*
X359113512Y-77276073D01*
X359088742Y-77281000D01*
X358911258Y-77281000D01*
X358886488Y-77276073D01*
X358737188Y-77246376D01*
X358573216Y-77178456D01*
X358425646Y-77079853D01*
X358300147Y-76954354D01*
X358201544Y-76806784D01*
X358133624Y-76642812D01*
X358099000Y-76468741D01*
X358099000Y-76291259D01*
X358133624Y-76117188D01*
X358201544Y-75953216D01*
X358300147Y-75805646D01*
X358425646Y-75680147D01*
X358573216Y-75581544D01*
X358737188Y-75513624D01*
X358886488Y-75483927D01*
X358911258Y-75479000D01*
X359088742Y-75479000D01*
X359113512Y-75483927D01*
G37*
G36*
X359901000Y-52901000D02*
G01*
X358099000Y-52901000D01*
X358099000Y-51099000D01*
X359901000Y-51099000D01*
X359901000Y-52901000D01*
G37*
G36*
X359113512Y-48563927D02*
G01*
X359262812Y-48593624D01*
X359426784Y-48661544D01*
X359574354Y-48760147D01*
X359699853Y-48885646D01*
X359798456Y-49033216D01*
X359866376Y-49197188D01*
X359901000Y-49371259D01*
X359901000Y-49548741D01*
X359866376Y-49722812D01*
X359798456Y-49886784D01*
X359699853Y-50034354D01*
X359574354Y-50159853D01*
X359426784Y-50258456D01*
X359262812Y-50326376D01*
X359113512Y-50356073D01*
X359088742Y-50361000D01*
X358911258Y-50361000D01*
X358886488Y-50356073D01*
X358737188Y-50326376D01*
X358573216Y-50258456D01*
X358425646Y-50159853D01*
X358300147Y-50034354D01*
X358201544Y-49886784D01*
X358133624Y-49722812D01*
X358099000Y-49548741D01*
X358099000Y-49371259D01*
X358133624Y-49197188D01*
X358201544Y-49033216D01*
X358300147Y-48885646D01*
X358425646Y-48760147D01*
X358573216Y-48661544D01*
X358737188Y-48593624D01*
X358886488Y-48563927D01*
X358911258Y-48559000D01*
X359088742Y-48559000D01*
X359113512Y-48563927D01*
G37*
G36*
X359113512Y-46023927D02*
G01*
X359262812Y-46053624D01*
X359426784Y-46121544D01*
X359574354Y-46220147D01*
X359699853Y-46345646D01*
X359798456Y-46493216D01*
X359866376Y-46657188D01*
X359901000Y-46831259D01*
X359901000Y-47008741D01*
X359866376Y-47182812D01*
X359798456Y-47346784D01*
X359699853Y-47494354D01*
X359574354Y-47619853D01*
X359426784Y-47718456D01*
X359262812Y-47786376D01*
X359113512Y-47816073D01*
X359088742Y-47821000D01*
X358911258Y-47821000D01*
X358886488Y-47816073D01*
X358737188Y-47786376D01*
X358573216Y-47718456D01*
X358425646Y-47619853D01*
X358300147Y-47494354D01*
X358201544Y-47346784D01*
X358133624Y-47182812D01*
X358099000Y-47008741D01*
X358099000Y-46831259D01*
X358133624Y-46657188D01*
X358201544Y-46493216D01*
X358300147Y-46345646D01*
X358425646Y-46220147D01*
X358573216Y-46121544D01*
X358737188Y-46053624D01*
X358886488Y-46023927D01*
X358911258Y-46019000D01*
X359088742Y-46019000D01*
X359113512Y-46023927D01*
G37*
G36*
X359113512Y-43483927D02*
G01*
X359262812Y-43513624D01*
X359426784Y-43581544D01*
X359574354Y-43680147D01*
X359699853Y-43805646D01*
X359798456Y-43953216D01*
X359866376Y-44117188D01*
X359901000Y-44291259D01*
X359901000Y-44468741D01*
X359866376Y-44642812D01*
X359798456Y-44806784D01*
X359699853Y-44954354D01*
X359574354Y-45079853D01*
X359426784Y-45178456D01*
X359262812Y-45246376D01*
X359113512Y-45276073D01*
X359088742Y-45281000D01*
X358911258Y-45281000D01*
X358886488Y-45276073D01*
X358737188Y-45246376D01*
X358573216Y-45178456D01*
X358425646Y-45079853D01*
X358300147Y-44954354D01*
X358201544Y-44806784D01*
X358133624Y-44642812D01*
X358099000Y-44468741D01*
X358099000Y-44291259D01*
X358133624Y-44117188D01*
X358201544Y-43953216D01*
X358300147Y-43805646D01*
X358425646Y-43680147D01*
X358573216Y-43581544D01*
X358737188Y-43513624D01*
X358886488Y-43483927D01*
X358911258Y-43479000D01*
X359088742Y-43479000D01*
X359113512Y-43483927D01*
G37*
G36*
X331642007Y-30883582D02*
G01*
X332042563Y-31049498D01*
X332042565Y-31049499D01*
X332403056Y-31290371D01*
X332709629Y-31596944D01*
X332950501Y-31957435D01*
X332950502Y-31957437D01*
X333116418Y-32357993D01*
X333201000Y-32783219D01*
X333201000Y-33216781D01*
X333116418Y-33642007D01*
X332950502Y-34042563D01*
X332950501Y-34042565D01*
X332709629Y-34403056D01*
X332403056Y-34709629D01*
X332042565Y-34950501D01*
X332042564Y-34950502D01*
X332042563Y-34950502D01*
X331642007Y-35116418D01*
X331216781Y-35201000D01*
X330783219Y-35201000D01*
X330357993Y-35116418D01*
X329957437Y-34950502D01*
X329957436Y-34950502D01*
X329957435Y-34950501D01*
X329596944Y-34709629D01*
X329290371Y-34403056D01*
X329049499Y-34042565D01*
X329049498Y-34042563D01*
X328883582Y-33642007D01*
X328799000Y-33216781D01*
X328799000Y-32783219D01*
X328883582Y-32357993D01*
X329049498Y-31957437D01*
X329049499Y-31957435D01*
X329290371Y-31596944D01*
X329596944Y-31290371D01*
X329957435Y-31049499D01*
X329957437Y-31049498D01*
X330357993Y-30883582D01*
X330783219Y-30799000D01*
X331216781Y-30799000D01*
X331642007Y-30883582D01*
G37*
G36*
X80642007Y-30883582D02*
G01*
X81042563Y-31049498D01*
X81042565Y-31049499D01*
X81403056Y-31290371D01*
X81709629Y-31596944D01*
X81950501Y-31957435D01*
X81950502Y-31957437D01*
X82116418Y-32357993D01*
X82201000Y-32783219D01*
X82201000Y-33216781D01*
X82116418Y-33642007D01*
X81950502Y-34042563D01*
X81950501Y-34042565D01*
X81709629Y-34403056D01*
X81403056Y-34709629D01*
X81042565Y-34950501D01*
X81042564Y-34950502D01*
X81042563Y-34950502D01*
X80642007Y-35116418D01*
X80216781Y-35201000D01*
X79783219Y-35201000D01*
X79357993Y-35116418D01*
X78957437Y-34950502D01*
X78957436Y-34950502D01*
X78957435Y-34950501D01*
X78596944Y-34709629D01*
X78290371Y-34403056D01*
X78049499Y-34042565D01*
X78049498Y-34042563D01*
X77883582Y-33642007D01*
X77799000Y-33216781D01*
X77799000Y-32783219D01*
X77883582Y-32357993D01*
X78049498Y-31957437D01*
X78049499Y-31957435D01*
X78290371Y-31596944D01*
X78596944Y-31290371D01*
X78957435Y-31049499D01*
X78957437Y-31049498D01*
X79357993Y-30883582D01*
X79783219Y-30799000D01*
X80216781Y-30799000D01*
X80642007Y-30883582D01*
G37*
M02*
