G04 #@! TF.GenerationSoftware,KiCad,Pcbnew,(5.1.0)-1*
G04 #@! TF.CreationDate,2019-08-05T10:11:54+09:00*
G04 #@! TF.ProjectId,APA102,41504131-3032-42e6-9b69-6361645f7063,rev?*
G04 #@! TF.SameCoordinates,Original*
G04 #@! TF.FileFunction,Soldermask,Bot*
G04 #@! TF.FilePolarity,Negative*
%FSLAX46Y46*%
G04 Gerber Fmt 4.6, Leading zero omitted, Abs format (unit mm)*
G04 Created by KiCad (PCBNEW (5.1.0)-1) date 2019-08-05 10:11:54*
%MOMM*%
%LPD*%
G04 APERTURE LIST*
%ADD10C,0.100000*%
G04 APERTURE END LIST*
D10*
G36*
X109435443Y-40305519D02*
G01*
X109501627Y-40312037D01*
X109671466Y-40363557D01*
X109827991Y-40447222D01*
X109863729Y-40476552D01*
X109965186Y-40559814D01*
X110048448Y-40661271D01*
X110077778Y-40697009D01*
X110161443Y-40853534D01*
X110212963Y-41023373D01*
X110230359Y-41200000D01*
X110212963Y-41376627D01*
X110161443Y-41546466D01*
X110077778Y-41702991D01*
X110048448Y-41738729D01*
X109965186Y-41840186D01*
X109863729Y-41923448D01*
X109827991Y-41952778D01*
X109671466Y-42036443D01*
X109501627Y-42087963D01*
X109435443Y-42094481D01*
X109369260Y-42101000D01*
X109030740Y-42101000D01*
X108964557Y-42094481D01*
X108898373Y-42087963D01*
X108728534Y-42036443D01*
X108572009Y-41952778D01*
X108536271Y-41923448D01*
X108434814Y-41840186D01*
X108351552Y-41738729D01*
X108322222Y-41702991D01*
X108238557Y-41546466D01*
X108187037Y-41376627D01*
X108169641Y-41200000D01*
X108187037Y-41023373D01*
X108238557Y-40853534D01*
X108322222Y-40697009D01*
X108351552Y-40661271D01*
X108434814Y-40559814D01*
X108536271Y-40476552D01*
X108572009Y-40447222D01*
X108728534Y-40363557D01*
X108898373Y-40312037D01*
X108964557Y-40305519D01*
X109030740Y-40299000D01*
X109369260Y-40299000D01*
X109435443Y-40305519D01*
X109435443Y-40305519D01*
G37*
G36*
X167633642Y-40429781D02*
G01*
X167779414Y-40490162D01*
X167779416Y-40490163D01*
X167910608Y-40577822D01*
X168022178Y-40689392D01*
X168109837Y-40820584D01*
X168109838Y-40820586D01*
X168170219Y-40966358D01*
X168201000Y-41121107D01*
X168201000Y-41278893D01*
X168170219Y-41433642D01*
X168109838Y-41579414D01*
X168109837Y-41579416D01*
X168022178Y-41710608D01*
X167910608Y-41822178D01*
X167779416Y-41909837D01*
X167779415Y-41909838D01*
X167779414Y-41909838D01*
X167633642Y-41970219D01*
X167478893Y-42001000D01*
X167321107Y-42001000D01*
X167166358Y-41970219D01*
X167020586Y-41909838D01*
X167020585Y-41909838D01*
X167020584Y-41909837D01*
X166889392Y-41822178D01*
X166777822Y-41710608D01*
X166690163Y-41579416D01*
X166690162Y-41579414D01*
X166629781Y-41433642D01*
X166599000Y-41278893D01*
X166599000Y-41121107D01*
X166629781Y-40966358D01*
X166690162Y-40820586D01*
X166690163Y-40820584D01*
X166777822Y-40689392D01*
X166889392Y-40577822D01*
X167020584Y-40490163D01*
X167020586Y-40490162D01*
X167166358Y-40429781D01*
X167321107Y-40399000D01*
X167478893Y-40399000D01*
X167633642Y-40429781D01*
X167633642Y-40429781D01*
G37*
G36*
X109435443Y-37805519D02*
G01*
X109501627Y-37812037D01*
X109671466Y-37863557D01*
X109827991Y-37947222D01*
X109863729Y-37976552D01*
X109965186Y-38059814D01*
X110040019Y-38151000D01*
X110077778Y-38197009D01*
X110161443Y-38353534D01*
X110212963Y-38523373D01*
X110230359Y-38700000D01*
X110212963Y-38876627D01*
X110161443Y-39046466D01*
X110077778Y-39202991D01*
X110048448Y-39238729D01*
X109965186Y-39340186D01*
X109863729Y-39423448D01*
X109827991Y-39452778D01*
X109671466Y-39536443D01*
X109501627Y-39587963D01*
X109435443Y-39594481D01*
X109369260Y-39601000D01*
X109030740Y-39601000D01*
X108964557Y-39594481D01*
X108898373Y-39587963D01*
X108728534Y-39536443D01*
X108572009Y-39452778D01*
X108536271Y-39423448D01*
X108434814Y-39340186D01*
X108351552Y-39238729D01*
X108322222Y-39202991D01*
X108238557Y-39046466D01*
X108187037Y-38876627D01*
X108169641Y-38700000D01*
X108187037Y-38523373D01*
X108238557Y-38353534D01*
X108322222Y-38197009D01*
X108359981Y-38151000D01*
X108434814Y-38059814D01*
X108536271Y-37976552D01*
X108572009Y-37947222D01*
X108728534Y-37863557D01*
X108898373Y-37812037D01*
X108964557Y-37805519D01*
X109030740Y-37799000D01*
X109369260Y-37799000D01*
X109435443Y-37805519D01*
X109435443Y-37805519D01*
G37*
G36*
X167633642Y-37929781D02*
G01*
X167779414Y-37990162D01*
X167779416Y-37990163D01*
X167910608Y-38077822D01*
X168022178Y-38189392D01*
X168109837Y-38320584D01*
X168109838Y-38320586D01*
X168170219Y-38466358D01*
X168201000Y-38621107D01*
X168201000Y-38778893D01*
X168170219Y-38933642D01*
X168109838Y-39079414D01*
X168109837Y-39079416D01*
X168022178Y-39210608D01*
X167910608Y-39322178D01*
X167779416Y-39409837D01*
X167779415Y-39409838D01*
X167779414Y-39409838D01*
X167633642Y-39470219D01*
X167478893Y-39501000D01*
X167321107Y-39501000D01*
X167166358Y-39470219D01*
X167020586Y-39409838D01*
X167020585Y-39409838D01*
X167020584Y-39409837D01*
X166889392Y-39322178D01*
X166777822Y-39210608D01*
X166690163Y-39079416D01*
X166690162Y-39079414D01*
X166629781Y-38933642D01*
X166599000Y-38778893D01*
X166599000Y-38621107D01*
X166629781Y-38466358D01*
X166690162Y-38320586D01*
X166690163Y-38320584D01*
X166777822Y-38189392D01*
X166889392Y-38077822D01*
X167020584Y-37990163D01*
X167020586Y-37990162D01*
X167166358Y-37929781D01*
X167321107Y-37899000D01*
X167478893Y-37899000D01*
X167633642Y-37929781D01*
X167633642Y-37929781D01*
G37*
G36*
X135375256Y-34891298D02*
G01*
X135481579Y-34912447D01*
X135782042Y-35036903D01*
X136052451Y-35217585D01*
X136282415Y-35447549D01*
X136463097Y-35717958D01*
X136565988Y-35966358D01*
X136587553Y-36018422D01*
X136651000Y-36337389D01*
X136651000Y-36662611D01*
X136619260Y-36822178D01*
X136587553Y-36981579D01*
X136463097Y-37282042D01*
X136282415Y-37552451D01*
X136052451Y-37782415D01*
X135782042Y-37963097D01*
X135481579Y-38087553D01*
X135375256Y-38108702D01*
X135162611Y-38151000D01*
X134837389Y-38151000D01*
X134624744Y-38108702D01*
X134518421Y-38087553D01*
X134217958Y-37963097D01*
X133947549Y-37782415D01*
X133717585Y-37552451D01*
X133536903Y-37282042D01*
X133412447Y-36981579D01*
X133380740Y-36822178D01*
X133349000Y-36662611D01*
X133349000Y-36337389D01*
X133412447Y-36018422D01*
X133434013Y-35966358D01*
X133536903Y-35717958D01*
X133717585Y-35447549D01*
X133947549Y-35217585D01*
X134217958Y-35036903D01*
X134518421Y-34912447D01*
X134624744Y-34891298D01*
X134837389Y-34849000D01*
X135162611Y-34849000D01*
X135375256Y-34891298D01*
X135375256Y-34891298D01*
G37*
G36*
X145375256Y-34891298D02*
G01*
X145481579Y-34912447D01*
X145782042Y-35036903D01*
X146052451Y-35217585D01*
X146282415Y-35447549D01*
X146463097Y-35717958D01*
X146565988Y-35966358D01*
X146587553Y-36018422D01*
X146651000Y-36337389D01*
X146651000Y-36662611D01*
X146619260Y-36822178D01*
X146587553Y-36981579D01*
X146463097Y-37282042D01*
X146282415Y-37552451D01*
X146052451Y-37782415D01*
X145782042Y-37963097D01*
X145481579Y-38087553D01*
X145375256Y-38108702D01*
X145162611Y-38151000D01*
X144837389Y-38151000D01*
X144624744Y-38108702D01*
X144518421Y-38087553D01*
X144217958Y-37963097D01*
X143947549Y-37782415D01*
X143717585Y-37552451D01*
X143536903Y-37282042D01*
X143412447Y-36981579D01*
X143380740Y-36822178D01*
X143349000Y-36662611D01*
X143349000Y-36337389D01*
X143412447Y-36018422D01*
X143434013Y-35966358D01*
X143536903Y-35717958D01*
X143717585Y-35447549D01*
X143947549Y-35217585D01*
X144217958Y-35036903D01*
X144518421Y-34912447D01*
X144624744Y-34891298D01*
X144837389Y-34849000D01*
X145162611Y-34849000D01*
X145375256Y-34891298D01*
X145375256Y-34891298D01*
G37*
G36*
X125375256Y-34891298D02*
G01*
X125481579Y-34912447D01*
X125782042Y-35036903D01*
X126052451Y-35217585D01*
X126282415Y-35447549D01*
X126463097Y-35717958D01*
X126565988Y-35966358D01*
X126587553Y-36018422D01*
X126651000Y-36337389D01*
X126651000Y-36662611D01*
X126619260Y-36822178D01*
X126587553Y-36981579D01*
X126463097Y-37282042D01*
X126282415Y-37552451D01*
X126052451Y-37782415D01*
X125782042Y-37963097D01*
X125481579Y-38087553D01*
X125375256Y-38108702D01*
X125162611Y-38151000D01*
X124837389Y-38151000D01*
X124624744Y-38108702D01*
X124518421Y-38087553D01*
X124217958Y-37963097D01*
X123947549Y-37782415D01*
X123717585Y-37552451D01*
X123536903Y-37282042D01*
X123412447Y-36981579D01*
X123380740Y-36822178D01*
X123349000Y-36662611D01*
X123349000Y-36337389D01*
X123412447Y-36018422D01*
X123434013Y-35966358D01*
X123536903Y-35717958D01*
X123717585Y-35447549D01*
X123947549Y-35217585D01*
X124217958Y-35036903D01*
X124518421Y-34912447D01*
X124624744Y-34891298D01*
X124837389Y-34849000D01*
X125162611Y-34849000D01*
X125375256Y-34891298D01*
X125375256Y-34891298D01*
G37*
G36*
X109435443Y-35305519D02*
G01*
X109501627Y-35312037D01*
X109671466Y-35363557D01*
X109827991Y-35447222D01*
X109863729Y-35476552D01*
X109965186Y-35559814D01*
X110048448Y-35661271D01*
X110077778Y-35697009D01*
X110161443Y-35853534D01*
X110212963Y-36023373D01*
X110230359Y-36200000D01*
X110212963Y-36376627D01*
X110161443Y-36546466D01*
X110077778Y-36702991D01*
X110048448Y-36738729D01*
X109965186Y-36840186D01*
X109863729Y-36923448D01*
X109827991Y-36952778D01*
X109671466Y-37036443D01*
X109501627Y-37087963D01*
X109435443Y-37094481D01*
X109369260Y-37101000D01*
X109030740Y-37101000D01*
X108964557Y-37094481D01*
X108898373Y-37087963D01*
X108728534Y-37036443D01*
X108572009Y-36952778D01*
X108536271Y-36923448D01*
X108434814Y-36840186D01*
X108351552Y-36738729D01*
X108322222Y-36702991D01*
X108238557Y-36546466D01*
X108187037Y-36376627D01*
X108169641Y-36200000D01*
X108187037Y-36023373D01*
X108238557Y-35853534D01*
X108322222Y-35697009D01*
X108351552Y-35661271D01*
X108434814Y-35559814D01*
X108536271Y-35476552D01*
X108572009Y-35447222D01*
X108728534Y-35363557D01*
X108898373Y-35312037D01*
X108964557Y-35305519D01*
X109030740Y-35299000D01*
X109369260Y-35299000D01*
X109435443Y-35305519D01*
X109435443Y-35305519D01*
G37*
G36*
X167633642Y-35429781D02*
G01*
X167779414Y-35490162D01*
X167779416Y-35490163D01*
X167910608Y-35577822D01*
X168022178Y-35689392D01*
X168041266Y-35717960D01*
X168109838Y-35820586D01*
X168170219Y-35966358D01*
X168201000Y-36121107D01*
X168201000Y-36278893D01*
X168170219Y-36433642D01*
X168109838Y-36579414D01*
X168109837Y-36579416D01*
X168022178Y-36710608D01*
X167910608Y-36822178D01*
X167779416Y-36909837D01*
X167779415Y-36909838D01*
X167779414Y-36909838D01*
X167633642Y-36970219D01*
X167478893Y-37001000D01*
X167321107Y-37001000D01*
X167166358Y-36970219D01*
X167020586Y-36909838D01*
X167020585Y-36909838D01*
X167020584Y-36909837D01*
X166889392Y-36822178D01*
X166777822Y-36710608D01*
X166690163Y-36579416D01*
X166690162Y-36579414D01*
X166629781Y-36433642D01*
X166599000Y-36278893D01*
X166599000Y-36121107D01*
X166629781Y-35966358D01*
X166690162Y-35820586D01*
X166758734Y-35717960D01*
X166777822Y-35689392D01*
X166889392Y-35577822D01*
X167020584Y-35490163D01*
X167020586Y-35490162D01*
X167166358Y-35429781D01*
X167321107Y-35399000D01*
X167478893Y-35399000D01*
X167633642Y-35429781D01*
X167633642Y-35429781D01*
G37*
G36*
X110083600Y-32802989D02*
G01*
X110116652Y-32813015D01*
X110147103Y-32829292D01*
X110173799Y-32851201D01*
X110195708Y-32877897D01*
X110211985Y-32908348D01*
X110222011Y-32941400D01*
X110226000Y-32981903D01*
X110226000Y-34418097D01*
X110222011Y-34458600D01*
X110211985Y-34491652D01*
X110195708Y-34522103D01*
X110173799Y-34548799D01*
X110147103Y-34570708D01*
X110116652Y-34586985D01*
X110083600Y-34597011D01*
X110043097Y-34601000D01*
X108356903Y-34601000D01*
X108316400Y-34597011D01*
X108283348Y-34586985D01*
X108252897Y-34570708D01*
X108226201Y-34548799D01*
X108204292Y-34522103D01*
X108188015Y-34491652D01*
X108177989Y-34458600D01*
X108174000Y-34418097D01*
X108174000Y-32981903D01*
X108177989Y-32941400D01*
X108188015Y-32908348D01*
X108204292Y-32877897D01*
X108226201Y-32851201D01*
X108252897Y-32829292D01*
X108283348Y-32813015D01*
X108316400Y-32802989D01*
X108356903Y-32799000D01*
X110043097Y-32799000D01*
X110083600Y-32802989D01*
X110083600Y-32802989D01*
G37*
G36*
X167633642Y-32929781D02*
G01*
X167759475Y-32981903D01*
X167779416Y-32990163D01*
X167910608Y-33077822D01*
X168022178Y-33189392D01*
X168109837Y-33320584D01*
X168109838Y-33320586D01*
X168170219Y-33466358D01*
X168201000Y-33621107D01*
X168201000Y-33778893D01*
X168170219Y-33933642D01*
X168109838Y-34079414D01*
X168109837Y-34079416D01*
X168022178Y-34210608D01*
X167910608Y-34322178D01*
X167779416Y-34409837D01*
X167779415Y-34409838D01*
X167779414Y-34409838D01*
X167633642Y-34470219D01*
X167478893Y-34501000D01*
X167321107Y-34501000D01*
X167166358Y-34470219D01*
X167020586Y-34409838D01*
X167020585Y-34409838D01*
X167020584Y-34409837D01*
X166889392Y-34322178D01*
X166777822Y-34210608D01*
X166690163Y-34079416D01*
X166690162Y-34079414D01*
X166629781Y-33933642D01*
X166599000Y-33778893D01*
X166599000Y-33621107D01*
X166629781Y-33466358D01*
X166690162Y-33320586D01*
X166690163Y-33320584D01*
X166777822Y-33189392D01*
X166889392Y-33077822D01*
X167020584Y-32990163D01*
X167040525Y-32981903D01*
X167166358Y-32929781D01*
X167321107Y-32899000D01*
X167478893Y-32899000D01*
X167633642Y-32929781D01*
X167633642Y-32929781D01*
G37*
M02*
