G04 #@! TF.GenerationSoftware,KiCad,Pcbnew,(5.1.5)-3*
G04 #@! TF.CreationDate,2020-04-10T18:57:11+09:00*
G04 #@! TF.ProjectId,APA102_MENZUKE5,41504131-3032-45f4-9d45-4e5a554b4535,rev?*
G04 #@! TF.SameCoordinates,Original*
G04 #@! TF.FileFunction,Other,User*
%FSLAX46Y46*%
G04 Gerber Fmt 4.6, Leading zero omitted, Abs format (unit mm)*
G04 Created by KiCad (PCBNEW (5.1.5)-3) date 2020-04-10 18:57:11*
%MOMM*%
%LPD*%
G04 APERTURE LIST*
%ADD10C,0.050000*%
G04 APERTURE END LIST*
D10*
X84550000Y-205000000D02*
G75*
G03X84550000Y-205000000I-4550000J0D01*
G01*
X84550000Y-33000000D02*
G75*
G03X84550000Y-33000000I-4550000J0D01*
G01*
X335550000Y-33000000D02*
G75*
G03X335550000Y-33000000I-4550000J0D01*
G01*
X336550000Y-205000000D02*
G75*
G03X336550000Y-205000000I-4550000J0D01*
G01*
X353750000Y-205000000D02*
G75*
G03X353750000Y-205000000I-1750000J0D01*
G01*
X352750000Y-33000000D02*
G75*
G03X352750000Y-33000000I-1750000J0D01*
G01*
X61750000Y-33000000D02*
G75*
G03X61750000Y-33000000I-1750000J0D01*
G01*
X212250000Y-189850000D02*
X212250000Y-197150000D01*
X217750000Y-189850000D02*
X212250000Y-189850000D01*
X217750000Y-197150000D02*
X217750000Y-189850000D01*
X212250000Y-197150000D02*
X217750000Y-197150000D01*
X212250000Y-157850000D02*
X212250000Y-165150000D01*
X217750000Y-157850000D02*
X212250000Y-157850000D01*
X217750000Y-165150000D02*
X217750000Y-157850000D01*
X212250000Y-165150000D02*
X217750000Y-165150000D01*
X212250000Y-125850000D02*
X212250000Y-133150000D01*
X217750000Y-125850000D02*
X212250000Y-125850000D01*
X217750000Y-133150000D02*
X217750000Y-125850000D01*
X212250000Y-133150000D02*
X217750000Y-133150000D01*
X212250000Y-93850000D02*
X212250000Y-101150000D01*
X217750000Y-93850000D02*
X212250000Y-93850000D01*
X217750000Y-101150000D02*
X217750000Y-93850000D01*
X212250000Y-101150000D02*
X217750000Y-101150000D01*
X197250000Y-171600000D02*
X197250000Y-178900000D01*
X202750000Y-171600000D02*
X197250000Y-171600000D01*
X202750000Y-178900000D02*
X202750000Y-171600000D01*
X197250000Y-178900000D02*
X202750000Y-178900000D01*
X197250000Y-139600000D02*
X197250000Y-146900000D01*
X202750000Y-139600000D02*
X197250000Y-139600000D01*
X202750000Y-146900000D02*
X202750000Y-139600000D01*
X197250000Y-146900000D02*
X202750000Y-146900000D01*
X197250000Y-107600000D02*
X197250000Y-114900000D01*
X202750000Y-107600000D02*
X197250000Y-107600000D01*
X202750000Y-114900000D02*
X202750000Y-107600000D01*
X197250000Y-114900000D02*
X202750000Y-114900000D01*
X197250000Y-75600000D02*
X197250000Y-82900000D01*
X202750000Y-75600000D02*
X197250000Y-75600000D01*
X202750000Y-82900000D02*
X202750000Y-75600000D01*
X197250000Y-82900000D02*
X202750000Y-82900000D01*
X215250000Y-178900000D02*
X220750000Y-178900000D01*
X220750000Y-178900000D02*
X220750000Y-171600000D01*
X220750000Y-171600000D02*
X215250000Y-171600000D01*
X215250000Y-171600000D02*
X215250000Y-178900000D01*
X215250000Y-146900000D02*
X220750000Y-146900000D01*
X220750000Y-146900000D02*
X220750000Y-139600000D01*
X220750000Y-139600000D02*
X215250000Y-139600000D01*
X215250000Y-139600000D02*
X215250000Y-146900000D01*
X215250000Y-114900000D02*
X220750000Y-114900000D01*
X220750000Y-114900000D02*
X220750000Y-107600000D01*
X220750000Y-107600000D02*
X215250000Y-107600000D01*
X215250000Y-107600000D02*
X215250000Y-114900000D01*
X215250000Y-82900000D02*
X220750000Y-82900000D01*
X220750000Y-82900000D02*
X220750000Y-75600000D01*
X220750000Y-75600000D02*
X215250000Y-75600000D01*
X215250000Y-75600000D02*
X215250000Y-82900000D01*
X242250000Y-189850000D02*
X242250000Y-197150000D01*
X247750000Y-189850000D02*
X242250000Y-189850000D01*
X247750000Y-197150000D02*
X247750000Y-189850000D01*
X242250000Y-197150000D02*
X247750000Y-197150000D01*
X242250000Y-157850000D02*
X242250000Y-165150000D01*
X247750000Y-157850000D02*
X242250000Y-157850000D01*
X247750000Y-165150000D02*
X247750000Y-157850000D01*
X242250000Y-165150000D02*
X247750000Y-165150000D01*
X242250000Y-125850000D02*
X242250000Y-133150000D01*
X247750000Y-125850000D02*
X242250000Y-125850000D01*
X247750000Y-133150000D02*
X247750000Y-125850000D01*
X242250000Y-133150000D02*
X247750000Y-133150000D01*
X242250000Y-93850000D02*
X242250000Y-101150000D01*
X247750000Y-93850000D02*
X242250000Y-93850000D01*
X247750000Y-101150000D02*
X247750000Y-93850000D01*
X242250000Y-101150000D02*
X247750000Y-101150000D01*
X224250000Y-189850000D02*
X224250000Y-197150000D01*
X229750000Y-189850000D02*
X224250000Y-189850000D01*
X229750000Y-197150000D02*
X229750000Y-189850000D01*
X224250000Y-197150000D02*
X229750000Y-197150000D01*
X224250000Y-157850000D02*
X224250000Y-165150000D01*
X229750000Y-157850000D02*
X224250000Y-157850000D01*
X229750000Y-165150000D02*
X229750000Y-157850000D01*
X224250000Y-165150000D02*
X229750000Y-165150000D01*
X224250000Y-125850000D02*
X224250000Y-133150000D01*
X229750000Y-125850000D02*
X224250000Y-125850000D01*
X229750000Y-133150000D02*
X229750000Y-125850000D01*
X224250000Y-133150000D02*
X229750000Y-133150000D01*
X224250000Y-93850000D02*
X224250000Y-101150000D01*
X229750000Y-93850000D02*
X224250000Y-93850000D01*
X229750000Y-101150000D02*
X229750000Y-93850000D01*
X224250000Y-101150000D02*
X229750000Y-101150000D01*
X230250000Y-197150000D02*
X235750000Y-197150000D01*
X235750000Y-197150000D02*
X235750000Y-189850000D01*
X235750000Y-189850000D02*
X230250000Y-189850000D01*
X230250000Y-189850000D02*
X230250000Y-197150000D01*
X230250000Y-165150000D02*
X235750000Y-165150000D01*
X235750000Y-165150000D02*
X235750000Y-157850000D01*
X235750000Y-157850000D02*
X230250000Y-157850000D01*
X230250000Y-157850000D02*
X230250000Y-165150000D01*
X230250000Y-133150000D02*
X235750000Y-133150000D01*
X235750000Y-133150000D02*
X235750000Y-125850000D01*
X235750000Y-125850000D02*
X230250000Y-125850000D01*
X230250000Y-125850000D02*
X230250000Y-133150000D01*
X230250000Y-101150000D02*
X235750000Y-101150000D01*
X235750000Y-101150000D02*
X235750000Y-93850000D01*
X235750000Y-93850000D02*
X230250000Y-93850000D01*
X230250000Y-93850000D02*
X230250000Y-101150000D01*
X239250000Y-171600000D02*
X239250000Y-178900000D01*
X244750000Y-171600000D02*
X239250000Y-171600000D01*
X244750000Y-178900000D02*
X244750000Y-171600000D01*
X239250000Y-178900000D02*
X244750000Y-178900000D01*
X239250000Y-139600000D02*
X239250000Y-146900000D01*
X244750000Y-139600000D02*
X239250000Y-139600000D01*
X244750000Y-146900000D02*
X244750000Y-139600000D01*
X239250000Y-146900000D02*
X244750000Y-146900000D01*
X239250000Y-107600000D02*
X239250000Y-114900000D01*
X244750000Y-107600000D02*
X239250000Y-107600000D01*
X244750000Y-114900000D02*
X244750000Y-107600000D01*
X239250000Y-114900000D02*
X244750000Y-114900000D01*
X239250000Y-75600000D02*
X239250000Y-82900000D01*
X244750000Y-75600000D02*
X239250000Y-75600000D01*
X244750000Y-82900000D02*
X244750000Y-75600000D01*
X239250000Y-82900000D02*
X244750000Y-82900000D01*
X248250000Y-189850000D02*
X248250000Y-197150000D01*
X253750000Y-189850000D02*
X248250000Y-189850000D01*
X253750000Y-197150000D02*
X253750000Y-189850000D01*
X248250000Y-197150000D02*
X253750000Y-197150000D01*
X248250000Y-157850000D02*
X248250000Y-165150000D01*
X253750000Y-157850000D02*
X248250000Y-157850000D01*
X253750000Y-165150000D02*
X253750000Y-157850000D01*
X248250000Y-165150000D02*
X253750000Y-165150000D01*
X248250000Y-125850000D02*
X248250000Y-133150000D01*
X253750000Y-125850000D02*
X248250000Y-125850000D01*
X253750000Y-133150000D02*
X253750000Y-125850000D01*
X248250000Y-133150000D02*
X253750000Y-133150000D01*
X248250000Y-93850000D02*
X248250000Y-101150000D01*
X253750000Y-93850000D02*
X248250000Y-93850000D01*
X253750000Y-101150000D02*
X253750000Y-93850000D01*
X248250000Y-101150000D02*
X253750000Y-101150000D01*
X251250000Y-178900000D02*
X256750000Y-178900000D01*
X256750000Y-178900000D02*
X256750000Y-171600000D01*
X256750000Y-171600000D02*
X251250000Y-171600000D01*
X251250000Y-171600000D02*
X251250000Y-178900000D01*
X251250000Y-146900000D02*
X256750000Y-146900000D01*
X256750000Y-146900000D02*
X256750000Y-139600000D01*
X256750000Y-139600000D02*
X251250000Y-139600000D01*
X251250000Y-139600000D02*
X251250000Y-146900000D01*
X251250000Y-114900000D02*
X256750000Y-114900000D01*
X256750000Y-114900000D02*
X256750000Y-107600000D01*
X256750000Y-107600000D02*
X251250000Y-107600000D01*
X251250000Y-107600000D02*
X251250000Y-114900000D01*
X251250000Y-82900000D02*
X256750000Y-82900000D01*
X256750000Y-82900000D02*
X256750000Y-75600000D01*
X256750000Y-75600000D02*
X251250000Y-75600000D01*
X251250000Y-75600000D02*
X251250000Y-82900000D01*
X254250000Y-189850000D02*
X254250000Y-197150000D01*
X259750000Y-189850000D02*
X254250000Y-189850000D01*
X259750000Y-197150000D02*
X259750000Y-189850000D01*
X254250000Y-197150000D02*
X259750000Y-197150000D01*
X254250000Y-157850000D02*
X254250000Y-165150000D01*
X259750000Y-157850000D02*
X254250000Y-157850000D01*
X259750000Y-165150000D02*
X259750000Y-157850000D01*
X254250000Y-165150000D02*
X259750000Y-165150000D01*
X254250000Y-125850000D02*
X254250000Y-133150000D01*
X259750000Y-125850000D02*
X254250000Y-125850000D01*
X259750000Y-133150000D02*
X259750000Y-125850000D01*
X254250000Y-133150000D02*
X259750000Y-133150000D01*
X254250000Y-93850000D02*
X254250000Y-101150000D01*
X259750000Y-93850000D02*
X254250000Y-93850000D01*
X259750000Y-101150000D02*
X259750000Y-93850000D01*
X254250000Y-101150000D02*
X259750000Y-101150000D01*
X257250000Y-178900000D02*
X262750000Y-178900000D01*
X262750000Y-178900000D02*
X262750000Y-171600000D01*
X262750000Y-171600000D02*
X257250000Y-171600000D01*
X257250000Y-171600000D02*
X257250000Y-178900000D01*
X257250000Y-146900000D02*
X262750000Y-146900000D01*
X262750000Y-146900000D02*
X262750000Y-139600000D01*
X262750000Y-139600000D02*
X257250000Y-139600000D01*
X257250000Y-139600000D02*
X257250000Y-146900000D01*
X257250000Y-114900000D02*
X262750000Y-114900000D01*
X262750000Y-114900000D02*
X262750000Y-107600000D01*
X262750000Y-107600000D02*
X257250000Y-107600000D01*
X257250000Y-107600000D02*
X257250000Y-114900000D01*
X257250000Y-82900000D02*
X262750000Y-82900000D01*
X262750000Y-82900000D02*
X262750000Y-75600000D01*
X262750000Y-75600000D02*
X257250000Y-75600000D01*
X257250000Y-75600000D02*
X257250000Y-82900000D01*
X209250000Y-178900000D02*
X214750000Y-178900000D01*
X214750000Y-178900000D02*
X214750000Y-171600000D01*
X214750000Y-171600000D02*
X209250000Y-171600000D01*
X209250000Y-171600000D02*
X209250000Y-178900000D01*
X209250000Y-146900000D02*
X214750000Y-146900000D01*
X214750000Y-146900000D02*
X214750000Y-139600000D01*
X214750000Y-139600000D02*
X209250000Y-139600000D01*
X209250000Y-139600000D02*
X209250000Y-146900000D01*
X209250000Y-114900000D02*
X214750000Y-114900000D01*
X214750000Y-114900000D02*
X214750000Y-107600000D01*
X214750000Y-107600000D02*
X209250000Y-107600000D01*
X209250000Y-107600000D02*
X209250000Y-114900000D01*
X209250000Y-82900000D02*
X214750000Y-82900000D01*
X214750000Y-82900000D02*
X214750000Y-75600000D01*
X214750000Y-75600000D02*
X209250000Y-75600000D01*
X209250000Y-75600000D02*
X209250000Y-82900000D01*
X200250000Y-197150000D02*
X205750000Y-197150000D01*
X205750000Y-197150000D02*
X205750000Y-189850000D01*
X205750000Y-189850000D02*
X200250000Y-189850000D01*
X200250000Y-189850000D02*
X200250000Y-197150000D01*
X200250000Y-165150000D02*
X205750000Y-165150000D01*
X205750000Y-165150000D02*
X205750000Y-157850000D01*
X205750000Y-157850000D02*
X200250000Y-157850000D01*
X200250000Y-157850000D02*
X200250000Y-165150000D01*
X200250000Y-133150000D02*
X205750000Y-133150000D01*
X205750000Y-133150000D02*
X205750000Y-125850000D01*
X205750000Y-125850000D02*
X200250000Y-125850000D01*
X200250000Y-125850000D02*
X200250000Y-133150000D01*
X200250000Y-101150000D02*
X205750000Y-101150000D01*
X205750000Y-101150000D02*
X205750000Y-93850000D01*
X205750000Y-93850000D02*
X200250000Y-93850000D01*
X200250000Y-93850000D02*
X200250000Y-101150000D01*
X218250000Y-189850000D02*
X218250000Y-197150000D01*
X223750000Y-189850000D02*
X218250000Y-189850000D01*
X223750000Y-197150000D02*
X223750000Y-189850000D01*
X218250000Y-197150000D02*
X223750000Y-197150000D01*
X218250000Y-157850000D02*
X218250000Y-165150000D01*
X223750000Y-157850000D02*
X218250000Y-157850000D01*
X223750000Y-165150000D02*
X223750000Y-157850000D01*
X218250000Y-165150000D02*
X223750000Y-165150000D01*
X218250000Y-125850000D02*
X218250000Y-133150000D01*
X223750000Y-125850000D02*
X218250000Y-125850000D01*
X223750000Y-133150000D02*
X223750000Y-125850000D01*
X218250000Y-133150000D02*
X223750000Y-133150000D01*
X218250000Y-93850000D02*
X218250000Y-101150000D01*
X223750000Y-93850000D02*
X218250000Y-93850000D01*
X223750000Y-101150000D02*
X223750000Y-93850000D01*
X218250000Y-101150000D02*
X223750000Y-101150000D01*
X221250000Y-178900000D02*
X226750000Y-178900000D01*
X226750000Y-178900000D02*
X226750000Y-171600000D01*
X226750000Y-171600000D02*
X221250000Y-171600000D01*
X221250000Y-171600000D02*
X221250000Y-178900000D01*
X221250000Y-146900000D02*
X226750000Y-146900000D01*
X226750000Y-146900000D02*
X226750000Y-139600000D01*
X226750000Y-139600000D02*
X221250000Y-139600000D01*
X221250000Y-139600000D02*
X221250000Y-146900000D01*
X221250000Y-114900000D02*
X226750000Y-114900000D01*
X226750000Y-114900000D02*
X226750000Y-107600000D01*
X226750000Y-107600000D02*
X221250000Y-107600000D01*
X221250000Y-107600000D02*
X221250000Y-114900000D01*
X221250000Y-82900000D02*
X226750000Y-82900000D01*
X226750000Y-82900000D02*
X226750000Y-75600000D01*
X226750000Y-75600000D02*
X221250000Y-75600000D01*
X221250000Y-75600000D02*
X221250000Y-82900000D01*
X233250000Y-171600000D02*
X233250000Y-178900000D01*
X238750000Y-171600000D02*
X233250000Y-171600000D01*
X238750000Y-178900000D02*
X238750000Y-171600000D01*
X233250000Y-178900000D02*
X238750000Y-178900000D01*
X233250000Y-139600000D02*
X233250000Y-146900000D01*
X238750000Y-139600000D02*
X233250000Y-139600000D01*
X238750000Y-146900000D02*
X238750000Y-139600000D01*
X233250000Y-146900000D02*
X238750000Y-146900000D01*
X233250000Y-107600000D02*
X233250000Y-114900000D01*
X238750000Y-107600000D02*
X233250000Y-107600000D01*
X238750000Y-114900000D02*
X238750000Y-107600000D01*
X233250000Y-114900000D02*
X238750000Y-114900000D01*
X233250000Y-75600000D02*
X233250000Y-82900000D01*
X238750000Y-75600000D02*
X233250000Y-75600000D01*
X238750000Y-82900000D02*
X238750000Y-75600000D01*
X233250000Y-82900000D02*
X238750000Y-82900000D01*
X236250000Y-197150000D02*
X241750000Y-197150000D01*
X241750000Y-197150000D02*
X241750000Y-189850000D01*
X241750000Y-189850000D02*
X236250000Y-189850000D01*
X236250000Y-189850000D02*
X236250000Y-197150000D01*
X236250000Y-165150000D02*
X241750000Y-165150000D01*
X241750000Y-165150000D02*
X241750000Y-157850000D01*
X241750000Y-157850000D02*
X236250000Y-157850000D01*
X236250000Y-157850000D02*
X236250000Y-165150000D01*
X236250000Y-133150000D02*
X241750000Y-133150000D01*
X241750000Y-133150000D02*
X241750000Y-125850000D01*
X241750000Y-125850000D02*
X236250000Y-125850000D01*
X236250000Y-125850000D02*
X236250000Y-133150000D01*
X236250000Y-101150000D02*
X241750000Y-101150000D01*
X241750000Y-101150000D02*
X241750000Y-93850000D01*
X241750000Y-93850000D02*
X236250000Y-93850000D01*
X236250000Y-93850000D02*
X236250000Y-101150000D01*
X206250000Y-197150000D02*
X211750000Y-197150000D01*
X211750000Y-197150000D02*
X211750000Y-189850000D01*
X211750000Y-189850000D02*
X206250000Y-189850000D01*
X206250000Y-189850000D02*
X206250000Y-197150000D01*
X206250000Y-165150000D02*
X211750000Y-165150000D01*
X211750000Y-165150000D02*
X211750000Y-157850000D01*
X211750000Y-157850000D02*
X206250000Y-157850000D01*
X206250000Y-157850000D02*
X206250000Y-165150000D01*
X206250000Y-133150000D02*
X211750000Y-133150000D01*
X211750000Y-133150000D02*
X211750000Y-125850000D01*
X211750000Y-125850000D02*
X206250000Y-125850000D01*
X206250000Y-125850000D02*
X206250000Y-133150000D01*
X206250000Y-101150000D02*
X211750000Y-101150000D01*
X211750000Y-101150000D02*
X211750000Y-93850000D01*
X211750000Y-93850000D02*
X206250000Y-93850000D01*
X206250000Y-93850000D02*
X206250000Y-101150000D01*
X50250000Y-197150000D02*
X55750000Y-197150000D01*
X55750000Y-197150000D02*
X55750000Y-189850000D01*
X55750000Y-189850000D02*
X50250000Y-189850000D01*
X50250000Y-189850000D02*
X50250000Y-197150000D01*
X50250000Y-165150000D02*
X55750000Y-165150000D01*
X55750000Y-165150000D02*
X55750000Y-157850000D01*
X55750000Y-157850000D02*
X50250000Y-157850000D01*
X50250000Y-157850000D02*
X50250000Y-165150000D01*
X50250000Y-133150000D02*
X55750000Y-133150000D01*
X55750000Y-133150000D02*
X55750000Y-125850000D01*
X55750000Y-125850000D02*
X50250000Y-125850000D01*
X50250000Y-125850000D02*
X50250000Y-133150000D01*
X50250000Y-101150000D02*
X55750000Y-101150000D01*
X55750000Y-101150000D02*
X55750000Y-93850000D01*
X55750000Y-93850000D02*
X50250000Y-93850000D01*
X50250000Y-93850000D02*
X50250000Y-101150000D01*
X53250000Y-171600000D02*
X53250000Y-178900000D01*
X58750000Y-171600000D02*
X53250000Y-171600000D01*
X58750000Y-178900000D02*
X58750000Y-171600000D01*
X53250000Y-178900000D02*
X58750000Y-178900000D01*
X53250000Y-139600000D02*
X53250000Y-146900000D01*
X58750000Y-139600000D02*
X53250000Y-139600000D01*
X58750000Y-146900000D02*
X58750000Y-139600000D01*
X53250000Y-146900000D02*
X58750000Y-146900000D01*
X53250000Y-107600000D02*
X53250000Y-114900000D01*
X58750000Y-107600000D02*
X53250000Y-107600000D01*
X58750000Y-114900000D02*
X58750000Y-107600000D01*
X53250000Y-114900000D02*
X58750000Y-114900000D01*
X53250000Y-75600000D02*
X53250000Y-82900000D01*
X58750000Y-75600000D02*
X53250000Y-75600000D01*
X58750000Y-82900000D02*
X58750000Y-75600000D01*
X53250000Y-82900000D02*
X58750000Y-82900000D01*
X56250000Y-197150000D02*
X61750000Y-197150000D01*
X61750000Y-197150000D02*
X61750000Y-189850000D01*
X61750000Y-189850000D02*
X56250000Y-189850000D01*
X56250000Y-189850000D02*
X56250000Y-197150000D01*
X56250000Y-165150000D02*
X61750000Y-165150000D01*
X61750000Y-165150000D02*
X61750000Y-157850000D01*
X61750000Y-157850000D02*
X56250000Y-157850000D01*
X56250000Y-157850000D02*
X56250000Y-165150000D01*
X56250000Y-133150000D02*
X61750000Y-133150000D01*
X61750000Y-133150000D02*
X61750000Y-125850000D01*
X61750000Y-125850000D02*
X56250000Y-125850000D01*
X56250000Y-125850000D02*
X56250000Y-133150000D01*
X56250000Y-101150000D02*
X61750000Y-101150000D01*
X61750000Y-101150000D02*
X61750000Y-93850000D01*
X61750000Y-93850000D02*
X56250000Y-93850000D01*
X56250000Y-93850000D02*
X56250000Y-101150000D01*
X68250000Y-189850000D02*
X68250000Y-197150000D01*
X73750000Y-189850000D02*
X68250000Y-189850000D01*
X73750000Y-197150000D02*
X73750000Y-189850000D01*
X68250000Y-197150000D02*
X73750000Y-197150000D01*
X68250000Y-157850000D02*
X68250000Y-165150000D01*
X73750000Y-157850000D02*
X68250000Y-157850000D01*
X73750000Y-165150000D02*
X73750000Y-157850000D01*
X68250000Y-165150000D02*
X73750000Y-165150000D01*
X68250000Y-125850000D02*
X68250000Y-133150000D01*
X73750000Y-125850000D02*
X68250000Y-125850000D01*
X73750000Y-133150000D02*
X73750000Y-125850000D01*
X68250000Y-133150000D02*
X73750000Y-133150000D01*
X68250000Y-93850000D02*
X68250000Y-101150000D01*
X73750000Y-93850000D02*
X68250000Y-93850000D01*
X73750000Y-101150000D02*
X73750000Y-93850000D01*
X68250000Y-101150000D02*
X73750000Y-101150000D01*
X62250000Y-189850000D02*
X62250000Y-197150000D01*
X67750000Y-189850000D02*
X62250000Y-189850000D01*
X67750000Y-197150000D02*
X67750000Y-189850000D01*
X62250000Y-197150000D02*
X67750000Y-197150000D01*
X62250000Y-157850000D02*
X62250000Y-165150000D01*
X67750000Y-157850000D02*
X62250000Y-157850000D01*
X67750000Y-165150000D02*
X67750000Y-157850000D01*
X62250000Y-165150000D02*
X67750000Y-165150000D01*
X62250000Y-125850000D02*
X62250000Y-133150000D01*
X67750000Y-125850000D02*
X62250000Y-125850000D01*
X67750000Y-133150000D02*
X67750000Y-125850000D01*
X62250000Y-133150000D02*
X67750000Y-133150000D01*
X62250000Y-93850000D02*
X62250000Y-101150000D01*
X67750000Y-93850000D02*
X62250000Y-93850000D01*
X67750000Y-101150000D02*
X67750000Y-93850000D01*
X62250000Y-101150000D02*
X67750000Y-101150000D01*
X65250000Y-178900000D02*
X70750000Y-178900000D01*
X70750000Y-178900000D02*
X70750000Y-171600000D01*
X70750000Y-171600000D02*
X65250000Y-171600000D01*
X65250000Y-171600000D02*
X65250000Y-178900000D01*
X65250000Y-146900000D02*
X70750000Y-146900000D01*
X70750000Y-146900000D02*
X70750000Y-139600000D01*
X70750000Y-139600000D02*
X65250000Y-139600000D01*
X65250000Y-139600000D02*
X65250000Y-146900000D01*
X65250000Y-114900000D02*
X70750000Y-114900000D01*
X70750000Y-114900000D02*
X70750000Y-107600000D01*
X70750000Y-107600000D02*
X65250000Y-107600000D01*
X65250000Y-107600000D02*
X65250000Y-114900000D01*
X65250000Y-82900000D02*
X70750000Y-82900000D01*
X70750000Y-82900000D02*
X70750000Y-75600000D01*
X70750000Y-75600000D02*
X65250000Y-75600000D01*
X65250000Y-75600000D02*
X65250000Y-82900000D01*
X110250000Y-189850000D02*
X110250000Y-197150000D01*
X115750000Y-189850000D02*
X110250000Y-189850000D01*
X115750000Y-197150000D02*
X115750000Y-189850000D01*
X110250000Y-197150000D02*
X115750000Y-197150000D01*
X110250000Y-157850000D02*
X110250000Y-165150000D01*
X115750000Y-157850000D02*
X110250000Y-157850000D01*
X115750000Y-165150000D02*
X115750000Y-157850000D01*
X110250000Y-165150000D02*
X115750000Y-165150000D01*
X110250000Y-125850000D02*
X110250000Y-133150000D01*
X115750000Y-125850000D02*
X110250000Y-125850000D01*
X115750000Y-133150000D02*
X115750000Y-125850000D01*
X110250000Y-133150000D02*
X115750000Y-133150000D01*
X110250000Y-93850000D02*
X110250000Y-101150000D01*
X115750000Y-93850000D02*
X110250000Y-93850000D01*
X115750000Y-101150000D02*
X115750000Y-93850000D01*
X110250000Y-101150000D02*
X115750000Y-101150000D01*
X86250000Y-189850000D02*
X86250000Y-197150000D01*
X91750000Y-189850000D02*
X86250000Y-189850000D01*
X91750000Y-197150000D02*
X91750000Y-189850000D01*
X86250000Y-197150000D02*
X91750000Y-197150000D01*
X86250000Y-157850000D02*
X86250000Y-165150000D01*
X91750000Y-157850000D02*
X86250000Y-157850000D01*
X91750000Y-165150000D02*
X91750000Y-157850000D01*
X86250000Y-165150000D02*
X91750000Y-165150000D01*
X86250000Y-125850000D02*
X86250000Y-133150000D01*
X91750000Y-125850000D02*
X86250000Y-125850000D01*
X91750000Y-133150000D02*
X91750000Y-125850000D01*
X86250000Y-133150000D02*
X91750000Y-133150000D01*
X86250000Y-93850000D02*
X86250000Y-101150000D01*
X91750000Y-93850000D02*
X86250000Y-93850000D01*
X91750000Y-101150000D02*
X91750000Y-93850000D01*
X86250000Y-101150000D02*
X91750000Y-101150000D01*
X116250000Y-189850000D02*
X116250000Y-197150000D01*
X121750000Y-189850000D02*
X116250000Y-189850000D01*
X121750000Y-197150000D02*
X121750000Y-189850000D01*
X116250000Y-197150000D02*
X121750000Y-197150000D01*
X116250000Y-157850000D02*
X116250000Y-165150000D01*
X121750000Y-157850000D02*
X116250000Y-157850000D01*
X121750000Y-165150000D02*
X121750000Y-157850000D01*
X116250000Y-165150000D02*
X121750000Y-165150000D01*
X116250000Y-125850000D02*
X116250000Y-133150000D01*
X121750000Y-125850000D02*
X116250000Y-125850000D01*
X121750000Y-133150000D02*
X121750000Y-125850000D01*
X116250000Y-133150000D02*
X121750000Y-133150000D01*
X116250000Y-93850000D02*
X116250000Y-101150000D01*
X121750000Y-93850000D02*
X116250000Y-93850000D01*
X121750000Y-101150000D02*
X121750000Y-93850000D01*
X116250000Y-101150000D02*
X121750000Y-101150000D01*
X71250000Y-178900000D02*
X76750000Y-178900000D01*
X76750000Y-178900000D02*
X76750000Y-171600000D01*
X76750000Y-171600000D02*
X71250000Y-171600000D01*
X71250000Y-171600000D02*
X71250000Y-178900000D01*
X71250000Y-146900000D02*
X76750000Y-146900000D01*
X76750000Y-146900000D02*
X76750000Y-139600000D01*
X76750000Y-139600000D02*
X71250000Y-139600000D01*
X71250000Y-139600000D02*
X71250000Y-146900000D01*
X71250000Y-114900000D02*
X76750000Y-114900000D01*
X76750000Y-114900000D02*
X76750000Y-107600000D01*
X76750000Y-107600000D02*
X71250000Y-107600000D01*
X71250000Y-107600000D02*
X71250000Y-114900000D01*
X71250000Y-82900000D02*
X76750000Y-82900000D01*
X76750000Y-82900000D02*
X76750000Y-75600000D01*
X76750000Y-75600000D02*
X71250000Y-75600000D01*
X71250000Y-75600000D02*
X71250000Y-82900000D01*
X74250000Y-189850000D02*
X74250000Y-197150000D01*
X79750000Y-189850000D02*
X74250000Y-189850000D01*
X79750000Y-197150000D02*
X79750000Y-189850000D01*
X74250000Y-197150000D02*
X79750000Y-197150000D01*
X74250000Y-157850000D02*
X74250000Y-165150000D01*
X79750000Y-157850000D02*
X74250000Y-157850000D01*
X79750000Y-165150000D02*
X79750000Y-157850000D01*
X74250000Y-165150000D02*
X79750000Y-165150000D01*
X74250000Y-125850000D02*
X74250000Y-133150000D01*
X79750000Y-125850000D02*
X74250000Y-125850000D01*
X79750000Y-133150000D02*
X79750000Y-125850000D01*
X74250000Y-133150000D02*
X79750000Y-133150000D01*
X74250000Y-93850000D02*
X74250000Y-101150000D01*
X79750000Y-93850000D02*
X74250000Y-93850000D01*
X79750000Y-101150000D02*
X79750000Y-93850000D01*
X74250000Y-101150000D02*
X79750000Y-101150000D01*
X80250000Y-197150000D02*
X85750000Y-197150000D01*
X85750000Y-197150000D02*
X85750000Y-189850000D01*
X85750000Y-189850000D02*
X80250000Y-189850000D01*
X80250000Y-189850000D02*
X80250000Y-197150000D01*
X80250000Y-165150000D02*
X85750000Y-165150000D01*
X85750000Y-165150000D02*
X85750000Y-157850000D01*
X85750000Y-157850000D02*
X80250000Y-157850000D01*
X80250000Y-157850000D02*
X80250000Y-165150000D01*
X80250000Y-133150000D02*
X85750000Y-133150000D01*
X85750000Y-133150000D02*
X85750000Y-125850000D01*
X85750000Y-125850000D02*
X80250000Y-125850000D01*
X80250000Y-125850000D02*
X80250000Y-133150000D01*
X80250000Y-101150000D02*
X85750000Y-101150000D01*
X85750000Y-101150000D02*
X85750000Y-93850000D01*
X85750000Y-93850000D02*
X80250000Y-93850000D01*
X80250000Y-93850000D02*
X80250000Y-101150000D01*
X95250000Y-171600000D02*
X95250000Y-178900000D01*
X100750000Y-171600000D02*
X95250000Y-171600000D01*
X100750000Y-178900000D02*
X100750000Y-171600000D01*
X95250000Y-178900000D02*
X100750000Y-178900000D01*
X95250000Y-139600000D02*
X95250000Y-146900000D01*
X100750000Y-139600000D02*
X95250000Y-139600000D01*
X100750000Y-146900000D02*
X100750000Y-139600000D01*
X95250000Y-146900000D02*
X100750000Y-146900000D01*
X95250000Y-107600000D02*
X95250000Y-114900000D01*
X100750000Y-107600000D02*
X95250000Y-107600000D01*
X100750000Y-114900000D02*
X100750000Y-107600000D01*
X95250000Y-114900000D02*
X100750000Y-114900000D01*
X95250000Y-75600000D02*
X95250000Y-82900000D01*
X100750000Y-75600000D02*
X95250000Y-75600000D01*
X100750000Y-82900000D02*
X100750000Y-75600000D01*
X95250000Y-82900000D02*
X100750000Y-82900000D01*
X107250000Y-178900000D02*
X112750000Y-178900000D01*
X112750000Y-178900000D02*
X112750000Y-171600000D01*
X112750000Y-171600000D02*
X107250000Y-171600000D01*
X107250000Y-171600000D02*
X107250000Y-178900000D01*
X107250000Y-146900000D02*
X112750000Y-146900000D01*
X112750000Y-146900000D02*
X112750000Y-139600000D01*
X112750000Y-139600000D02*
X107250000Y-139600000D01*
X107250000Y-139600000D02*
X107250000Y-146900000D01*
X107250000Y-114900000D02*
X112750000Y-114900000D01*
X112750000Y-114900000D02*
X112750000Y-107600000D01*
X112750000Y-107600000D02*
X107250000Y-107600000D01*
X107250000Y-107600000D02*
X107250000Y-114900000D01*
X107250000Y-82900000D02*
X112750000Y-82900000D01*
X112750000Y-82900000D02*
X112750000Y-75600000D01*
X112750000Y-75600000D02*
X107250000Y-75600000D01*
X107250000Y-75600000D02*
X107250000Y-82900000D01*
X98250000Y-197150000D02*
X103750000Y-197150000D01*
X103750000Y-197150000D02*
X103750000Y-189850000D01*
X103750000Y-189850000D02*
X98250000Y-189850000D01*
X98250000Y-189850000D02*
X98250000Y-197150000D01*
X98250000Y-165150000D02*
X103750000Y-165150000D01*
X103750000Y-165150000D02*
X103750000Y-157850000D01*
X103750000Y-157850000D02*
X98250000Y-157850000D01*
X98250000Y-157850000D02*
X98250000Y-165150000D01*
X98250000Y-133150000D02*
X103750000Y-133150000D01*
X103750000Y-133150000D02*
X103750000Y-125850000D01*
X103750000Y-125850000D02*
X98250000Y-125850000D01*
X98250000Y-125850000D02*
X98250000Y-133150000D01*
X98250000Y-101150000D02*
X103750000Y-101150000D01*
X103750000Y-101150000D02*
X103750000Y-93850000D01*
X103750000Y-93850000D02*
X98250000Y-93850000D01*
X98250000Y-93850000D02*
X98250000Y-101150000D01*
X83250000Y-171600000D02*
X83250000Y-178900000D01*
X88750000Y-171600000D02*
X83250000Y-171600000D01*
X88750000Y-178900000D02*
X88750000Y-171600000D01*
X83250000Y-178900000D02*
X88750000Y-178900000D01*
X83250000Y-139600000D02*
X83250000Y-146900000D01*
X88750000Y-139600000D02*
X83250000Y-139600000D01*
X88750000Y-146900000D02*
X88750000Y-139600000D01*
X83250000Y-146900000D02*
X88750000Y-146900000D01*
X83250000Y-107600000D02*
X83250000Y-114900000D01*
X88750000Y-107600000D02*
X83250000Y-107600000D01*
X88750000Y-114900000D02*
X88750000Y-107600000D01*
X83250000Y-114900000D02*
X88750000Y-114900000D01*
X83250000Y-75600000D02*
X83250000Y-82900000D01*
X88750000Y-75600000D02*
X83250000Y-75600000D01*
X88750000Y-82900000D02*
X88750000Y-75600000D01*
X83250000Y-82900000D02*
X88750000Y-82900000D01*
X89250000Y-171600000D02*
X89250000Y-178900000D01*
X94750000Y-171600000D02*
X89250000Y-171600000D01*
X94750000Y-178900000D02*
X94750000Y-171600000D01*
X89250000Y-178900000D02*
X94750000Y-178900000D01*
X89250000Y-139600000D02*
X89250000Y-146900000D01*
X94750000Y-139600000D02*
X89250000Y-139600000D01*
X94750000Y-146900000D02*
X94750000Y-139600000D01*
X89250000Y-146900000D02*
X94750000Y-146900000D01*
X89250000Y-107600000D02*
X89250000Y-114900000D01*
X94750000Y-107600000D02*
X89250000Y-107600000D01*
X94750000Y-114900000D02*
X94750000Y-107600000D01*
X89250000Y-114900000D02*
X94750000Y-114900000D01*
X89250000Y-75600000D02*
X89250000Y-82900000D01*
X94750000Y-75600000D02*
X89250000Y-75600000D01*
X94750000Y-82900000D02*
X94750000Y-75600000D01*
X89250000Y-82900000D02*
X94750000Y-82900000D01*
X104250000Y-189850000D02*
X104250000Y-197150000D01*
X109750000Y-189850000D02*
X104250000Y-189850000D01*
X109750000Y-197150000D02*
X109750000Y-189850000D01*
X104250000Y-197150000D02*
X109750000Y-197150000D01*
X104250000Y-157850000D02*
X104250000Y-165150000D01*
X109750000Y-157850000D02*
X104250000Y-157850000D01*
X109750000Y-165150000D02*
X109750000Y-157850000D01*
X104250000Y-165150000D02*
X109750000Y-165150000D01*
X104250000Y-125850000D02*
X104250000Y-133150000D01*
X109750000Y-125850000D02*
X104250000Y-125850000D01*
X109750000Y-133150000D02*
X109750000Y-125850000D01*
X104250000Y-133150000D02*
X109750000Y-133150000D01*
X104250000Y-93850000D02*
X104250000Y-101150000D01*
X109750000Y-93850000D02*
X104250000Y-93850000D01*
X109750000Y-101150000D02*
X109750000Y-93850000D01*
X104250000Y-101150000D02*
X109750000Y-101150000D01*
X113250000Y-178900000D02*
X118750000Y-178900000D01*
X118750000Y-178900000D02*
X118750000Y-171600000D01*
X118750000Y-171600000D02*
X113250000Y-171600000D01*
X113250000Y-171600000D02*
X113250000Y-178900000D01*
X113250000Y-146900000D02*
X118750000Y-146900000D01*
X118750000Y-146900000D02*
X118750000Y-139600000D01*
X118750000Y-139600000D02*
X113250000Y-139600000D01*
X113250000Y-139600000D02*
X113250000Y-146900000D01*
X113250000Y-114900000D02*
X118750000Y-114900000D01*
X118750000Y-114900000D02*
X118750000Y-107600000D01*
X118750000Y-107600000D02*
X113250000Y-107600000D01*
X113250000Y-107600000D02*
X113250000Y-114900000D01*
X113250000Y-82900000D02*
X118750000Y-82900000D01*
X118750000Y-82900000D02*
X118750000Y-75600000D01*
X118750000Y-75600000D02*
X113250000Y-75600000D01*
X113250000Y-75600000D02*
X113250000Y-82900000D01*
X125250000Y-178900000D02*
X130750000Y-178900000D01*
X130750000Y-178900000D02*
X130750000Y-171600000D01*
X130750000Y-171600000D02*
X125250000Y-171600000D01*
X125250000Y-171600000D02*
X125250000Y-178900000D01*
X125250000Y-146900000D02*
X130750000Y-146900000D01*
X130750000Y-146900000D02*
X130750000Y-139600000D01*
X130750000Y-139600000D02*
X125250000Y-139600000D01*
X125250000Y-139600000D02*
X125250000Y-146900000D01*
X125250000Y-114900000D02*
X130750000Y-114900000D01*
X130750000Y-114900000D02*
X130750000Y-107600000D01*
X130750000Y-107600000D02*
X125250000Y-107600000D01*
X125250000Y-107600000D02*
X125250000Y-114900000D01*
X125250000Y-82900000D02*
X130750000Y-82900000D01*
X130750000Y-82900000D02*
X130750000Y-75600000D01*
X130750000Y-75600000D02*
X125250000Y-75600000D01*
X125250000Y-75600000D02*
X125250000Y-82900000D01*
X128250000Y-189850000D02*
X128250000Y-197150000D01*
X133750000Y-189850000D02*
X128250000Y-189850000D01*
X133750000Y-197150000D02*
X133750000Y-189850000D01*
X128250000Y-197150000D02*
X133750000Y-197150000D01*
X128250000Y-157850000D02*
X128250000Y-165150000D01*
X133750000Y-157850000D02*
X128250000Y-157850000D01*
X133750000Y-165150000D02*
X133750000Y-157850000D01*
X128250000Y-165150000D02*
X133750000Y-165150000D01*
X128250000Y-125850000D02*
X128250000Y-133150000D01*
X133750000Y-125850000D02*
X128250000Y-125850000D01*
X133750000Y-133150000D02*
X133750000Y-125850000D01*
X128250000Y-133150000D02*
X133750000Y-133150000D01*
X128250000Y-93850000D02*
X128250000Y-101150000D01*
X133750000Y-93850000D02*
X128250000Y-93850000D01*
X133750000Y-101150000D02*
X133750000Y-93850000D01*
X128250000Y-101150000D02*
X133750000Y-101150000D01*
X122250000Y-197150000D02*
X127750000Y-197150000D01*
X127750000Y-197150000D02*
X127750000Y-189850000D01*
X127750000Y-189850000D02*
X122250000Y-189850000D01*
X122250000Y-189850000D02*
X122250000Y-197150000D01*
X122250000Y-165150000D02*
X127750000Y-165150000D01*
X127750000Y-165150000D02*
X127750000Y-157850000D01*
X127750000Y-157850000D02*
X122250000Y-157850000D01*
X122250000Y-157850000D02*
X122250000Y-165150000D01*
X122250000Y-133150000D02*
X127750000Y-133150000D01*
X127750000Y-133150000D02*
X127750000Y-125850000D01*
X127750000Y-125850000D02*
X122250000Y-125850000D01*
X122250000Y-125850000D02*
X122250000Y-133150000D01*
X122250000Y-101150000D02*
X127750000Y-101150000D01*
X127750000Y-101150000D02*
X127750000Y-93850000D01*
X127750000Y-93850000D02*
X122250000Y-93850000D01*
X122250000Y-93850000D02*
X122250000Y-101150000D01*
X92250000Y-197150000D02*
X97750000Y-197150000D01*
X97750000Y-197150000D02*
X97750000Y-189850000D01*
X97750000Y-189850000D02*
X92250000Y-189850000D01*
X92250000Y-189850000D02*
X92250000Y-197150000D01*
X92250000Y-165150000D02*
X97750000Y-165150000D01*
X97750000Y-165150000D02*
X97750000Y-157850000D01*
X97750000Y-157850000D02*
X92250000Y-157850000D01*
X92250000Y-157850000D02*
X92250000Y-165150000D01*
X92250000Y-133150000D02*
X97750000Y-133150000D01*
X97750000Y-133150000D02*
X97750000Y-125850000D01*
X97750000Y-125850000D02*
X92250000Y-125850000D01*
X92250000Y-125850000D02*
X92250000Y-133150000D01*
X92250000Y-101150000D02*
X97750000Y-101150000D01*
X97750000Y-101150000D02*
X97750000Y-93850000D01*
X97750000Y-93850000D02*
X92250000Y-93850000D01*
X92250000Y-93850000D02*
X92250000Y-101150000D01*
X131250000Y-178900000D02*
X136750000Y-178900000D01*
X136750000Y-178900000D02*
X136750000Y-171600000D01*
X136750000Y-171600000D02*
X131250000Y-171600000D01*
X131250000Y-171600000D02*
X131250000Y-178900000D01*
X131250000Y-146900000D02*
X136750000Y-146900000D01*
X136750000Y-146900000D02*
X136750000Y-139600000D01*
X136750000Y-139600000D02*
X131250000Y-139600000D01*
X131250000Y-139600000D02*
X131250000Y-146900000D01*
X131250000Y-114900000D02*
X136750000Y-114900000D01*
X136750000Y-114900000D02*
X136750000Y-107600000D01*
X136750000Y-107600000D02*
X131250000Y-107600000D01*
X131250000Y-107600000D02*
X131250000Y-114900000D01*
X131250000Y-82900000D02*
X136750000Y-82900000D01*
X136750000Y-82900000D02*
X136750000Y-75600000D01*
X136750000Y-75600000D02*
X131250000Y-75600000D01*
X131250000Y-75600000D02*
X131250000Y-82900000D01*
X164250000Y-189850000D02*
X164250000Y-197150000D01*
X169750000Y-189850000D02*
X164250000Y-189850000D01*
X169750000Y-197150000D02*
X169750000Y-189850000D01*
X164250000Y-197150000D02*
X169750000Y-197150000D01*
X164250000Y-157850000D02*
X164250000Y-165150000D01*
X169750000Y-157850000D02*
X164250000Y-157850000D01*
X169750000Y-165150000D02*
X169750000Y-157850000D01*
X164250000Y-165150000D02*
X169750000Y-165150000D01*
X164250000Y-125850000D02*
X164250000Y-133150000D01*
X169750000Y-125850000D02*
X164250000Y-125850000D01*
X169750000Y-133150000D02*
X169750000Y-125850000D01*
X164250000Y-133150000D02*
X169750000Y-133150000D01*
X164250000Y-93850000D02*
X164250000Y-101150000D01*
X169750000Y-93850000D02*
X164250000Y-93850000D01*
X169750000Y-101150000D02*
X169750000Y-93850000D01*
X164250000Y-101150000D02*
X169750000Y-101150000D01*
X179250000Y-178900000D02*
X184750000Y-178900000D01*
X184750000Y-178900000D02*
X184750000Y-171600000D01*
X184750000Y-171600000D02*
X179250000Y-171600000D01*
X179250000Y-171600000D02*
X179250000Y-178900000D01*
X179250000Y-146900000D02*
X184750000Y-146900000D01*
X184750000Y-146900000D02*
X184750000Y-139600000D01*
X184750000Y-139600000D02*
X179250000Y-139600000D01*
X179250000Y-139600000D02*
X179250000Y-146900000D01*
X179250000Y-114900000D02*
X184750000Y-114900000D01*
X184750000Y-114900000D02*
X184750000Y-107600000D01*
X184750000Y-107600000D02*
X179250000Y-107600000D01*
X179250000Y-107600000D02*
X179250000Y-114900000D01*
X179250000Y-82900000D02*
X184750000Y-82900000D01*
X184750000Y-82900000D02*
X184750000Y-75600000D01*
X184750000Y-75600000D02*
X179250000Y-75600000D01*
X179250000Y-75600000D02*
X179250000Y-82900000D01*
X167250000Y-178900000D02*
X172750000Y-178900000D01*
X172750000Y-178900000D02*
X172750000Y-171600000D01*
X172750000Y-171600000D02*
X167250000Y-171600000D01*
X167250000Y-171600000D02*
X167250000Y-178900000D01*
X167250000Y-146900000D02*
X172750000Y-146900000D01*
X172750000Y-146900000D02*
X172750000Y-139600000D01*
X172750000Y-139600000D02*
X167250000Y-139600000D01*
X167250000Y-139600000D02*
X167250000Y-146900000D01*
X167250000Y-114900000D02*
X172750000Y-114900000D01*
X172750000Y-114900000D02*
X172750000Y-107600000D01*
X172750000Y-107600000D02*
X167250000Y-107600000D01*
X167250000Y-107600000D02*
X167250000Y-114900000D01*
X167250000Y-82900000D02*
X172750000Y-82900000D01*
X172750000Y-82900000D02*
X172750000Y-75600000D01*
X172750000Y-75600000D02*
X167250000Y-75600000D01*
X167250000Y-75600000D02*
X167250000Y-82900000D01*
X176250000Y-189850000D02*
X176250000Y-197150000D01*
X181750000Y-189850000D02*
X176250000Y-189850000D01*
X181750000Y-197150000D02*
X181750000Y-189850000D01*
X176250000Y-197150000D02*
X181750000Y-197150000D01*
X176250000Y-157850000D02*
X176250000Y-165150000D01*
X181750000Y-157850000D02*
X176250000Y-157850000D01*
X181750000Y-165150000D02*
X181750000Y-157850000D01*
X176250000Y-165150000D02*
X181750000Y-165150000D01*
X176250000Y-125850000D02*
X176250000Y-133150000D01*
X181750000Y-125850000D02*
X176250000Y-125850000D01*
X181750000Y-133150000D02*
X181750000Y-125850000D01*
X176250000Y-133150000D02*
X181750000Y-133150000D01*
X176250000Y-93850000D02*
X176250000Y-101150000D01*
X181750000Y-93850000D02*
X176250000Y-93850000D01*
X181750000Y-101150000D02*
X181750000Y-93850000D01*
X176250000Y-101150000D02*
X181750000Y-101150000D01*
X182250000Y-189850000D02*
X182250000Y-197150000D01*
X187750000Y-189850000D02*
X182250000Y-189850000D01*
X187750000Y-197150000D02*
X187750000Y-189850000D01*
X182250000Y-197150000D02*
X187750000Y-197150000D01*
X182250000Y-157850000D02*
X182250000Y-165150000D01*
X187750000Y-157850000D02*
X182250000Y-157850000D01*
X187750000Y-165150000D02*
X187750000Y-157850000D01*
X182250000Y-165150000D02*
X187750000Y-165150000D01*
X182250000Y-125850000D02*
X182250000Y-133150000D01*
X187750000Y-125850000D02*
X182250000Y-125850000D01*
X187750000Y-133150000D02*
X187750000Y-125850000D01*
X182250000Y-133150000D02*
X187750000Y-133150000D01*
X182250000Y-93850000D02*
X182250000Y-101150000D01*
X187750000Y-93850000D02*
X182250000Y-93850000D01*
X187750000Y-101150000D02*
X187750000Y-93850000D01*
X182250000Y-101150000D02*
X187750000Y-101150000D01*
X188250000Y-197150000D02*
X193750000Y-197150000D01*
X193750000Y-197150000D02*
X193750000Y-189850000D01*
X193750000Y-189850000D02*
X188250000Y-189850000D01*
X188250000Y-189850000D02*
X188250000Y-197150000D01*
X188250000Y-165150000D02*
X193750000Y-165150000D01*
X193750000Y-165150000D02*
X193750000Y-157850000D01*
X193750000Y-157850000D02*
X188250000Y-157850000D01*
X188250000Y-157850000D02*
X188250000Y-165150000D01*
X188250000Y-133150000D02*
X193750000Y-133150000D01*
X193750000Y-133150000D02*
X193750000Y-125850000D01*
X193750000Y-125850000D02*
X188250000Y-125850000D01*
X188250000Y-125850000D02*
X188250000Y-133150000D01*
X188250000Y-101150000D02*
X193750000Y-101150000D01*
X193750000Y-101150000D02*
X193750000Y-93850000D01*
X193750000Y-93850000D02*
X188250000Y-93850000D01*
X188250000Y-93850000D02*
X188250000Y-101150000D01*
X134250000Y-189850000D02*
X134250000Y-197150000D01*
X139750000Y-189850000D02*
X134250000Y-189850000D01*
X139750000Y-197150000D02*
X139750000Y-189850000D01*
X134250000Y-197150000D02*
X139750000Y-197150000D01*
X134250000Y-157850000D02*
X134250000Y-165150000D01*
X139750000Y-157850000D02*
X134250000Y-157850000D01*
X139750000Y-165150000D02*
X139750000Y-157850000D01*
X134250000Y-165150000D02*
X139750000Y-165150000D01*
X134250000Y-125850000D02*
X134250000Y-133150000D01*
X139750000Y-125850000D02*
X134250000Y-125850000D01*
X139750000Y-133150000D02*
X139750000Y-125850000D01*
X134250000Y-133150000D02*
X139750000Y-133150000D01*
X134250000Y-93850000D02*
X134250000Y-101150000D01*
X139750000Y-93850000D02*
X134250000Y-93850000D01*
X139750000Y-101150000D02*
X139750000Y-93850000D01*
X134250000Y-101150000D02*
X139750000Y-101150000D01*
X146250000Y-197150000D02*
X151750000Y-197150000D01*
X151750000Y-197150000D02*
X151750000Y-189850000D01*
X151750000Y-189850000D02*
X146250000Y-189850000D01*
X146250000Y-189850000D02*
X146250000Y-197150000D01*
X146250000Y-165150000D02*
X151750000Y-165150000D01*
X151750000Y-165150000D02*
X151750000Y-157850000D01*
X151750000Y-157850000D02*
X146250000Y-157850000D01*
X146250000Y-157850000D02*
X146250000Y-165150000D01*
X146250000Y-133150000D02*
X151750000Y-133150000D01*
X151750000Y-133150000D02*
X151750000Y-125850000D01*
X151750000Y-125850000D02*
X146250000Y-125850000D01*
X146250000Y-125850000D02*
X146250000Y-133150000D01*
X146250000Y-101150000D02*
X151750000Y-101150000D01*
X151750000Y-101150000D02*
X151750000Y-93850000D01*
X151750000Y-93850000D02*
X146250000Y-93850000D01*
X146250000Y-93850000D02*
X146250000Y-101150000D01*
X173250000Y-178900000D02*
X178750000Y-178900000D01*
X178750000Y-178900000D02*
X178750000Y-171600000D01*
X178750000Y-171600000D02*
X173250000Y-171600000D01*
X173250000Y-171600000D02*
X173250000Y-178900000D01*
X173250000Y-146900000D02*
X178750000Y-146900000D01*
X178750000Y-146900000D02*
X178750000Y-139600000D01*
X178750000Y-139600000D02*
X173250000Y-139600000D01*
X173250000Y-139600000D02*
X173250000Y-146900000D01*
X173250000Y-114900000D02*
X178750000Y-114900000D01*
X178750000Y-114900000D02*
X178750000Y-107600000D01*
X178750000Y-107600000D02*
X173250000Y-107600000D01*
X173250000Y-107600000D02*
X173250000Y-114900000D01*
X173250000Y-82900000D02*
X178750000Y-82900000D01*
X178750000Y-82900000D02*
X178750000Y-75600000D01*
X178750000Y-75600000D02*
X173250000Y-75600000D01*
X173250000Y-75600000D02*
X173250000Y-82900000D01*
X137250000Y-178900000D02*
X142750000Y-178900000D01*
X142750000Y-178900000D02*
X142750000Y-171600000D01*
X142750000Y-171600000D02*
X137250000Y-171600000D01*
X137250000Y-171600000D02*
X137250000Y-178900000D01*
X137250000Y-146900000D02*
X142750000Y-146900000D01*
X142750000Y-146900000D02*
X142750000Y-139600000D01*
X142750000Y-139600000D02*
X137250000Y-139600000D01*
X137250000Y-139600000D02*
X137250000Y-146900000D01*
X137250000Y-114900000D02*
X142750000Y-114900000D01*
X142750000Y-114900000D02*
X142750000Y-107600000D01*
X142750000Y-107600000D02*
X137250000Y-107600000D01*
X137250000Y-107600000D02*
X137250000Y-114900000D01*
X137250000Y-82900000D02*
X142750000Y-82900000D01*
X142750000Y-82900000D02*
X142750000Y-75600000D01*
X142750000Y-75600000D02*
X137250000Y-75600000D01*
X137250000Y-75600000D02*
X137250000Y-82900000D01*
X140250000Y-189850000D02*
X140250000Y-197150000D01*
X145750000Y-189850000D02*
X140250000Y-189850000D01*
X145750000Y-197150000D02*
X145750000Y-189850000D01*
X140250000Y-197150000D02*
X145750000Y-197150000D01*
X140250000Y-157850000D02*
X140250000Y-165150000D01*
X145750000Y-157850000D02*
X140250000Y-157850000D01*
X145750000Y-165150000D02*
X145750000Y-157850000D01*
X140250000Y-165150000D02*
X145750000Y-165150000D01*
X140250000Y-125850000D02*
X140250000Y-133150000D01*
X145750000Y-125850000D02*
X140250000Y-125850000D01*
X145750000Y-133150000D02*
X145750000Y-125850000D01*
X140250000Y-133150000D02*
X145750000Y-133150000D01*
X140250000Y-93850000D02*
X140250000Y-101150000D01*
X145750000Y-93850000D02*
X140250000Y-93850000D01*
X145750000Y-101150000D02*
X145750000Y-93850000D01*
X140250000Y-101150000D02*
X145750000Y-101150000D01*
X149250000Y-171600000D02*
X149250000Y-178900000D01*
X154750000Y-171600000D02*
X149250000Y-171600000D01*
X154750000Y-178900000D02*
X154750000Y-171600000D01*
X149250000Y-178900000D02*
X154750000Y-178900000D01*
X149250000Y-139600000D02*
X149250000Y-146900000D01*
X154750000Y-139600000D02*
X149250000Y-139600000D01*
X154750000Y-146900000D02*
X154750000Y-139600000D01*
X149250000Y-146900000D02*
X154750000Y-146900000D01*
X149250000Y-107600000D02*
X149250000Y-114900000D01*
X154750000Y-107600000D02*
X149250000Y-107600000D01*
X154750000Y-114900000D02*
X154750000Y-107600000D01*
X149250000Y-114900000D02*
X154750000Y-114900000D01*
X149250000Y-75600000D02*
X149250000Y-82900000D01*
X154750000Y-75600000D02*
X149250000Y-75600000D01*
X154750000Y-82900000D02*
X154750000Y-75600000D01*
X149250000Y-82900000D02*
X154750000Y-82900000D01*
X194250000Y-197150000D02*
X199750000Y-197150000D01*
X199750000Y-197150000D02*
X199750000Y-189850000D01*
X199750000Y-189850000D02*
X194250000Y-189850000D01*
X194250000Y-189850000D02*
X194250000Y-197150000D01*
X194250000Y-165150000D02*
X199750000Y-165150000D01*
X199750000Y-165150000D02*
X199750000Y-157850000D01*
X199750000Y-157850000D02*
X194250000Y-157850000D01*
X194250000Y-157850000D02*
X194250000Y-165150000D01*
X194250000Y-133150000D02*
X199750000Y-133150000D01*
X199750000Y-133150000D02*
X199750000Y-125850000D01*
X199750000Y-125850000D02*
X194250000Y-125850000D01*
X194250000Y-125850000D02*
X194250000Y-133150000D01*
X194250000Y-101150000D02*
X199750000Y-101150000D01*
X199750000Y-101150000D02*
X199750000Y-93850000D01*
X199750000Y-93850000D02*
X194250000Y-93850000D01*
X194250000Y-93850000D02*
X194250000Y-101150000D01*
X152250000Y-197150000D02*
X157750000Y-197150000D01*
X157750000Y-197150000D02*
X157750000Y-189850000D01*
X157750000Y-189850000D02*
X152250000Y-189850000D01*
X152250000Y-189850000D02*
X152250000Y-197150000D01*
X152250000Y-165150000D02*
X157750000Y-165150000D01*
X157750000Y-165150000D02*
X157750000Y-157850000D01*
X157750000Y-157850000D02*
X152250000Y-157850000D01*
X152250000Y-157850000D02*
X152250000Y-165150000D01*
X152250000Y-133150000D02*
X157750000Y-133150000D01*
X157750000Y-133150000D02*
X157750000Y-125850000D01*
X157750000Y-125850000D02*
X152250000Y-125850000D01*
X152250000Y-125850000D02*
X152250000Y-133150000D01*
X152250000Y-101150000D02*
X157750000Y-101150000D01*
X157750000Y-101150000D02*
X157750000Y-93850000D01*
X157750000Y-93850000D02*
X152250000Y-93850000D01*
X152250000Y-93850000D02*
X152250000Y-101150000D01*
X155250000Y-171600000D02*
X155250000Y-178900000D01*
X160750000Y-171600000D02*
X155250000Y-171600000D01*
X160750000Y-178900000D02*
X160750000Y-171600000D01*
X155250000Y-178900000D02*
X160750000Y-178900000D01*
X155250000Y-139600000D02*
X155250000Y-146900000D01*
X160750000Y-139600000D02*
X155250000Y-139600000D01*
X160750000Y-146900000D02*
X160750000Y-139600000D01*
X155250000Y-146900000D02*
X160750000Y-146900000D01*
X155250000Y-107600000D02*
X155250000Y-114900000D01*
X160750000Y-107600000D02*
X155250000Y-107600000D01*
X160750000Y-114900000D02*
X160750000Y-107600000D01*
X155250000Y-114900000D02*
X160750000Y-114900000D01*
X155250000Y-75600000D02*
X155250000Y-82900000D01*
X160750000Y-75600000D02*
X155250000Y-75600000D01*
X160750000Y-82900000D02*
X160750000Y-75600000D01*
X155250000Y-82900000D02*
X160750000Y-82900000D01*
X158250000Y-197150000D02*
X163750000Y-197150000D01*
X163750000Y-197150000D02*
X163750000Y-189850000D01*
X163750000Y-189850000D02*
X158250000Y-189850000D01*
X158250000Y-189850000D02*
X158250000Y-197150000D01*
X158250000Y-165150000D02*
X163750000Y-165150000D01*
X163750000Y-165150000D02*
X163750000Y-157850000D01*
X163750000Y-157850000D02*
X158250000Y-157850000D01*
X158250000Y-157850000D02*
X158250000Y-165150000D01*
X158250000Y-133150000D02*
X163750000Y-133150000D01*
X163750000Y-133150000D02*
X163750000Y-125850000D01*
X163750000Y-125850000D02*
X158250000Y-125850000D01*
X158250000Y-125850000D02*
X158250000Y-133150000D01*
X158250000Y-101150000D02*
X163750000Y-101150000D01*
X163750000Y-101150000D02*
X163750000Y-93850000D01*
X163750000Y-93850000D02*
X158250000Y-93850000D01*
X158250000Y-93850000D02*
X158250000Y-101150000D01*
X170250000Y-189850000D02*
X170250000Y-197150000D01*
X175750000Y-189850000D02*
X170250000Y-189850000D01*
X175750000Y-197150000D02*
X175750000Y-189850000D01*
X170250000Y-197150000D02*
X175750000Y-197150000D01*
X170250000Y-157850000D02*
X170250000Y-165150000D01*
X175750000Y-157850000D02*
X170250000Y-157850000D01*
X175750000Y-165150000D02*
X175750000Y-157850000D01*
X170250000Y-165150000D02*
X175750000Y-165150000D01*
X170250000Y-125850000D02*
X170250000Y-133150000D01*
X175750000Y-125850000D02*
X170250000Y-125850000D01*
X175750000Y-133150000D02*
X175750000Y-125850000D01*
X170250000Y-133150000D02*
X175750000Y-133150000D01*
X170250000Y-93850000D02*
X170250000Y-101150000D01*
X175750000Y-93850000D02*
X170250000Y-93850000D01*
X175750000Y-101150000D02*
X175750000Y-93850000D01*
X170250000Y-101150000D02*
X175750000Y-101150000D01*
X191500000Y-171600000D02*
X191500000Y-178900000D01*
X197000000Y-171600000D02*
X191500000Y-171600000D01*
X197000000Y-178900000D02*
X197000000Y-171600000D01*
X191500000Y-178900000D02*
X197000000Y-178900000D01*
X191500000Y-139600000D02*
X191500000Y-146900000D01*
X197000000Y-139600000D02*
X191500000Y-139600000D01*
X197000000Y-146900000D02*
X197000000Y-139600000D01*
X191500000Y-146900000D02*
X197000000Y-146900000D01*
X191500000Y-107600000D02*
X191500000Y-114900000D01*
X197000000Y-107600000D02*
X191500000Y-107600000D01*
X197000000Y-114900000D02*
X197000000Y-107600000D01*
X191500000Y-114900000D02*
X197000000Y-114900000D01*
X191500000Y-75600000D02*
X191500000Y-82900000D01*
X197000000Y-75600000D02*
X191500000Y-75600000D01*
X197000000Y-82900000D02*
X197000000Y-75600000D01*
X191500000Y-82900000D02*
X197000000Y-82900000D01*
X278250000Y-197150000D02*
X283750000Y-197150000D01*
X283750000Y-197150000D02*
X283750000Y-189850000D01*
X283750000Y-189850000D02*
X278250000Y-189850000D01*
X278250000Y-189850000D02*
X278250000Y-197150000D01*
X278250000Y-165150000D02*
X283750000Y-165150000D01*
X283750000Y-165150000D02*
X283750000Y-157850000D01*
X283750000Y-157850000D02*
X278250000Y-157850000D01*
X278250000Y-157850000D02*
X278250000Y-165150000D01*
X278250000Y-133150000D02*
X283750000Y-133150000D01*
X283750000Y-133150000D02*
X283750000Y-125850000D01*
X283750000Y-125850000D02*
X278250000Y-125850000D01*
X278250000Y-125850000D02*
X278250000Y-133150000D01*
X278250000Y-101150000D02*
X283750000Y-101150000D01*
X283750000Y-101150000D02*
X283750000Y-93850000D01*
X283750000Y-93850000D02*
X278250000Y-93850000D01*
X278250000Y-93850000D02*
X278250000Y-101150000D01*
X293250000Y-171850000D02*
X293250000Y-179150000D01*
X298750000Y-171850000D02*
X293250000Y-171850000D01*
X298750000Y-179150000D02*
X298750000Y-171850000D01*
X293250000Y-179150000D02*
X298750000Y-179150000D01*
X293250000Y-139850000D02*
X293250000Y-147150000D01*
X298750000Y-139850000D02*
X293250000Y-139850000D01*
X298750000Y-147150000D02*
X298750000Y-139850000D01*
X293250000Y-147150000D02*
X298750000Y-147150000D01*
X293250000Y-107850000D02*
X293250000Y-115150000D01*
X298750000Y-107850000D02*
X293250000Y-107850000D01*
X298750000Y-115150000D02*
X298750000Y-107850000D01*
X293250000Y-115150000D02*
X298750000Y-115150000D01*
X293250000Y-75850000D02*
X293250000Y-83150000D01*
X298750000Y-75850000D02*
X293250000Y-75850000D01*
X298750000Y-83150000D02*
X298750000Y-75850000D01*
X293250000Y-83150000D02*
X298750000Y-83150000D01*
X266250000Y-189850000D02*
X266250000Y-197150000D01*
X271750000Y-189850000D02*
X266250000Y-189850000D01*
X271750000Y-197150000D02*
X271750000Y-189850000D01*
X266250000Y-197150000D02*
X271750000Y-197150000D01*
X266250000Y-157850000D02*
X266250000Y-165150000D01*
X271750000Y-157850000D02*
X266250000Y-157850000D01*
X271750000Y-165150000D02*
X271750000Y-157850000D01*
X266250000Y-165150000D02*
X271750000Y-165150000D01*
X266250000Y-125850000D02*
X266250000Y-133150000D01*
X271750000Y-125850000D02*
X266250000Y-125850000D01*
X271750000Y-133150000D02*
X271750000Y-125850000D01*
X266250000Y-133150000D02*
X271750000Y-133150000D01*
X266250000Y-93850000D02*
X266250000Y-101150000D01*
X271750000Y-93850000D02*
X266250000Y-93850000D01*
X271750000Y-101150000D02*
X271750000Y-93850000D01*
X266250000Y-101150000D02*
X271750000Y-101150000D01*
X275250000Y-171850000D02*
X275250000Y-179150000D01*
X280750000Y-171850000D02*
X275250000Y-171850000D01*
X280750000Y-179150000D02*
X280750000Y-171850000D01*
X275250000Y-179150000D02*
X280750000Y-179150000D01*
X275250000Y-139850000D02*
X275250000Y-147150000D01*
X280750000Y-139850000D02*
X275250000Y-139850000D01*
X280750000Y-147150000D02*
X280750000Y-139850000D01*
X275250000Y-147150000D02*
X280750000Y-147150000D01*
X275250000Y-107850000D02*
X275250000Y-115150000D01*
X280750000Y-107850000D02*
X275250000Y-107850000D01*
X280750000Y-115150000D02*
X280750000Y-107850000D01*
X275250000Y-115150000D02*
X280750000Y-115150000D01*
X275250000Y-75850000D02*
X275250000Y-83150000D01*
X280750000Y-75850000D02*
X275250000Y-75850000D01*
X280750000Y-83150000D02*
X280750000Y-75850000D01*
X275250000Y-83150000D02*
X280750000Y-83150000D01*
X299250000Y-171850000D02*
X299250000Y-179150000D01*
X304750000Y-171850000D02*
X299250000Y-171850000D01*
X304750000Y-179150000D02*
X304750000Y-171850000D01*
X299250000Y-179150000D02*
X304750000Y-179150000D01*
X299250000Y-139850000D02*
X299250000Y-147150000D01*
X304750000Y-139850000D02*
X299250000Y-139850000D01*
X304750000Y-147150000D02*
X304750000Y-139850000D01*
X299250000Y-147150000D02*
X304750000Y-147150000D01*
X299250000Y-107850000D02*
X299250000Y-115150000D01*
X304750000Y-107850000D02*
X299250000Y-107850000D01*
X304750000Y-115150000D02*
X304750000Y-107850000D01*
X299250000Y-115150000D02*
X304750000Y-115150000D01*
X299250000Y-75850000D02*
X299250000Y-83150000D01*
X304750000Y-75850000D02*
X299250000Y-75850000D01*
X304750000Y-83150000D02*
X304750000Y-75850000D01*
X299250000Y-83150000D02*
X304750000Y-83150000D01*
X308250000Y-197150000D02*
X313750000Y-197150000D01*
X313750000Y-197150000D02*
X313750000Y-189850000D01*
X313750000Y-189850000D02*
X308250000Y-189850000D01*
X308250000Y-189850000D02*
X308250000Y-197150000D01*
X308250000Y-165150000D02*
X313750000Y-165150000D01*
X313750000Y-165150000D02*
X313750000Y-157850000D01*
X313750000Y-157850000D02*
X308250000Y-157850000D01*
X308250000Y-157850000D02*
X308250000Y-165150000D01*
X308250000Y-133150000D02*
X313750000Y-133150000D01*
X313750000Y-133150000D02*
X313750000Y-125850000D01*
X313750000Y-125850000D02*
X308250000Y-125850000D01*
X308250000Y-125850000D02*
X308250000Y-133150000D01*
X308250000Y-101150000D02*
X313750000Y-101150000D01*
X313750000Y-101150000D02*
X313750000Y-93850000D01*
X313750000Y-93850000D02*
X308250000Y-93850000D01*
X308250000Y-93850000D02*
X308250000Y-101150000D01*
X272250000Y-197150000D02*
X277750000Y-197150000D01*
X277750000Y-197150000D02*
X277750000Y-189850000D01*
X277750000Y-189850000D02*
X272250000Y-189850000D01*
X272250000Y-189850000D02*
X272250000Y-197150000D01*
X272250000Y-165150000D02*
X277750000Y-165150000D01*
X277750000Y-165150000D02*
X277750000Y-157850000D01*
X277750000Y-157850000D02*
X272250000Y-157850000D01*
X272250000Y-157850000D02*
X272250000Y-165150000D01*
X272250000Y-133150000D02*
X277750000Y-133150000D01*
X277750000Y-133150000D02*
X277750000Y-125850000D01*
X277750000Y-125850000D02*
X272250000Y-125850000D01*
X272250000Y-125850000D02*
X272250000Y-133150000D01*
X272250000Y-101150000D02*
X277750000Y-101150000D01*
X277750000Y-101150000D02*
X277750000Y-93850000D01*
X277750000Y-93850000D02*
X272250000Y-93850000D01*
X272250000Y-93850000D02*
X272250000Y-101150000D01*
X317250000Y-171850000D02*
X317250000Y-179150000D01*
X322750000Y-171850000D02*
X317250000Y-171850000D01*
X322750000Y-179150000D02*
X322750000Y-171850000D01*
X317250000Y-179150000D02*
X322750000Y-179150000D01*
X317250000Y-139850000D02*
X317250000Y-147150000D01*
X322750000Y-139850000D02*
X317250000Y-139850000D01*
X322750000Y-147150000D02*
X322750000Y-139850000D01*
X317250000Y-147150000D02*
X322750000Y-147150000D01*
X317250000Y-107850000D02*
X317250000Y-115150000D01*
X322750000Y-107850000D02*
X317250000Y-107850000D01*
X322750000Y-115150000D02*
X322750000Y-107850000D01*
X317250000Y-115150000D02*
X322750000Y-115150000D01*
X317250000Y-75850000D02*
X317250000Y-83150000D01*
X322750000Y-75850000D02*
X317250000Y-75850000D01*
X322750000Y-83150000D02*
X322750000Y-75850000D01*
X317250000Y-83150000D02*
X322750000Y-83150000D01*
X260250000Y-189850000D02*
X260250000Y-197150000D01*
X265750000Y-189850000D02*
X260250000Y-189850000D01*
X265750000Y-197150000D02*
X265750000Y-189850000D01*
X260250000Y-197150000D02*
X265750000Y-197150000D01*
X260250000Y-157850000D02*
X260250000Y-165150000D01*
X265750000Y-157850000D02*
X260250000Y-157850000D01*
X265750000Y-165150000D02*
X265750000Y-157850000D01*
X260250000Y-165150000D02*
X265750000Y-165150000D01*
X260250000Y-125850000D02*
X260250000Y-133150000D01*
X265750000Y-125850000D02*
X260250000Y-125850000D01*
X265750000Y-133150000D02*
X265750000Y-125850000D01*
X260250000Y-133150000D02*
X265750000Y-133150000D01*
X260250000Y-93850000D02*
X260250000Y-101150000D01*
X265750000Y-93850000D02*
X260250000Y-93850000D01*
X265750000Y-101150000D02*
X265750000Y-93850000D01*
X260250000Y-101150000D02*
X265750000Y-101150000D01*
X284250000Y-189850000D02*
X284250000Y-197150000D01*
X289750000Y-189850000D02*
X284250000Y-189850000D01*
X289750000Y-197150000D02*
X289750000Y-189850000D01*
X284250000Y-197150000D02*
X289750000Y-197150000D01*
X284250000Y-157850000D02*
X284250000Y-165150000D01*
X289750000Y-157850000D02*
X284250000Y-157850000D01*
X289750000Y-165150000D02*
X289750000Y-157850000D01*
X284250000Y-165150000D02*
X289750000Y-165150000D01*
X284250000Y-125850000D02*
X284250000Y-133150000D01*
X289750000Y-125850000D02*
X284250000Y-125850000D01*
X289750000Y-133150000D02*
X289750000Y-125850000D01*
X284250000Y-133150000D02*
X289750000Y-133150000D01*
X284250000Y-93850000D02*
X284250000Y-101150000D01*
X289750000Y-93850000D02*
X284250000Y-93850000D01*
X289750000Y-101150000D02*
X289750000Y-93850000D01*
X284250000Y-101150000D02*
X289750000Y-101150000D01*
X305250000Y-171850000D02*
X305250000Y-179150000D01*
X310750000Y-171850000D02*
X305250000Y-171850000D01*
X310750000Y-179150000D02*
X310750000Y-171850000D01*
X305250000Y-179150000D02*
X310750000Y-179150000D01*
X305250000Y-139850000D02*
X305250000Y-147150000D01*
X310750000Y-139850000D02*
X305250000Y-139850000D01*
X310750000Y-147150000D02*
X310750000Y-139850000D01*
X305250000Y-147150000D02*
X310750000Y-147150000D01*
X305250000Y-107850000D02*
X305250000Y-115150000D01*
X310750000Y-107850000D02*
X305250000Y-107850000D01*
X310750000Y-115150000D02*
X310750000Y-107850000D01*
X305250000Y-115150000D02*
X310750000Y-115150000D01*
X305250000Y-75850000D02*
X305250000Y-83150000D01*
X310750000Y-75850000D02*
X305250000Y-75850000D01*
X310750000Y-83150000D02*
X310750000Y-75850000D01*
X305250000Y-83150000D02*
X310750000Y-83150000D01*
X314250000Y-189850000D02*
X314250000Y-197150000D01*
X319750000Y-189850000D02*
X314250000Y-189850000D01*
X319750000Y-197150000D02*
X319750000Y-189850000D01*
X314250000Y-197150000D02*
X319750000Y-197150000D01*
X314250000Y-157850000D02*
X314250000Y-165150000D01*
X319750000Y-157850000D02*
X314250000Y-157850000D01*
X319750000Y-165150000D02*
X319750000Y-157850000D01*
X314250000Y-165150000D02*
X319750000Y-165150000D01*
X314250000Y-125850000D02*
X314250000Y-133150000D01*
X319750000Y-125850000D02*
X314250000Y-125850000D01*
X319750000Y-133150000D02*
X319750000Y-125850000D01*
X314250000Y-133150000D02*
X319750000Y-133150000D01*
X314250000Y-93850000D02*
X314250000Y-101150000D01*
X319750000Y-93850000D02*
X314250000Y-93850000D01*
X319750000Y-101150000D02*
X319750000Y-93850000D01*
X314250000Y-101150000D02*
X319750000Y-101150000D01*
X281250000Y-179150000D02*
X286750000Y-179150000D01*
X286750000Y-179150000D02*
X286750000Y-171850000D01*
X286750000Y-171850000D02*
X281250000Y-171850000D01*
X281250000Y-171850000D02*
X281250000Y-179150000D01*
X281250000Y-147150000D02*
X286750000Y-147150000D01*
X286750000Y-147150000D02*
X286750000Y-139850000D01*
X286750000Y-139850000D02*
X281250000Y-139850000D01*
X281250000Y-139850000D02*
X281250000Y-147150000D01*
X281250000Y-115150000D02*
X286750000Y-115150000D01*
X286750000Y-115150000D02*
X286750000Y-107850000D01*
X286750000Y-107850000D02*
X281250000Y-107850000D01*
X281250000Y-107850000D02*
X281250000Y-115150000D01*
X281250000Y-83150000D02*
X286750000Y-83150000D01*
X286750000Y-83150000D02*
X286750000Y-75850000D01*
X286750000Y-75850000D02*
X281250000Y-75850000D01*
X281250000Y-75850000D02*
X281250000Y-83150000D01*
X320250000Y-189850000D02*
X320250000Y-197150000D01*
X325750000Y-189850000D02*
X320250000Y-189850000D01*
X325750000Y-197150000D02*
X325750000Y-189850000D01*
X320250000Y-197150000D02*
X325750000Y-197150000D01*
X320250000Y-157850000D02*
X320250000Y-165150000D01*
X325750000Y-157850000D02*
X320250000Y-157850000D01*
X325750000Y-165150000D02*
X325750000Y-157850000D01*
X320250000Y-165150000D02*
X325750000Y-165150000D01*
X320250000Y-125850000D02*
X320250000Y-133150000D01*
X325750000Y-125850000D02*
X320250000Y-125850000D01*
X325750000Y-133150000D02*
X325750000Y-125850000D01*
X320250000Y-133150000D02*
X325750000Y-133150000D01*
X320250000Y-93850000D02*
X320250000Y-101150000D01*
X325750000Y-93850000D02*
X320250000Y-93850000D01*
X325750000Y-101150000D02*
X325750000Y-93850000D01*
X320250000Y-101150000D02*
X325750000Y-101150000D01*
X296250000Y-197150000D02*
X301750000Y-197150000D01*
X301750000Y-197150000D02*
X301750000Y-189850000D01*
X301750000Y-189850000D02*
X296250000Y-189850000D01*
X296250000Y-189850000D02*
X296250000Y-197150000D01*
X296250000Y-165150000D02*
X301750000Y-165150000D01*
X301750000Y-165150000D02*
X301750000Y-157850000D01*
X301750000Y-157850000D02*
X296250000Y-157850000D01*
X296250000Y-157850000D02*
X296250000Y-165150000D01*
X296250000Y-133150000D02*
X301750000Y-133150000D01*
X301750000Y-133150000D02*
X301750000Y-125850000D01*
X301750000Y-125850000D02*
X296250000Y-125850000D01*
X296250000Y-125850000D02*
X296250000Y-133150000D01*
X296250000Y-101150000D02*
X301750000Y-101150000D01*
X301750000Y-101150000D02*
X301750000Y-93850000D01*
X301750000Y-93850000D02*
X296250000Y-93850000D01*
X296250000Y-93850000D02*
X296250000Y-101150000D01*
X263250000Y-178900000D02*
X268750000Y-178900000D01*
X268750000Y-178900000D02*
X268750000Y-171600000D01*
X268750000Y-171600000D02*
X263250000Y-171600000D01*
X263250000Y-171600000D02*
X263250000Y-178900000D01*
X263250000Y-146900000D02*
X268750000Y-146900000D01*
X268750000Y-146900000D02*
X268750000Y-139600000D01*
X268750000Y-139600000D02*
X263250000Y-139600000D01*
X263250000Y-139600000D02*
X263250000Y-146900000D01*
X263250000Y-114900000D02*
X268750000Y-114900000D01*
X268750000Y-114900000D02*
X268750000Y-107600000D01*
X268750000Y-107600000D02*
X263250000Y-107600000D01*
X263250000Y-107600000D02*
X263250000Y-114900000D01*
X263250000Y-82900000D02*
X268750000Y-82900000D01*
X268750000Y-82900000D02*
X268750000Y-75600000D01*
X268750000Y-75600000D02*
X263250000Y-75600000D01*
X263250000Y-75600000D02*
X263250000Y-82900000D01*
X290250000Y-197150000D02*
X295750000Y-197150000D01*
X295750000Y-197150000D02*
X295750000Y-189850000D01*
X295750000Y-189850000D02*
X290250000Y-189850000D01*
X290250000Y-189850000D02*
X290250000Y-197150000D01*
X290250000Y-165150000D02*
X295750000Y-165150000D01*
X295750000Y-165150000D02*
X295750000Y-157850000D01*
X295750000Y-157850000D02*
X290250000Y-157850000D01*
X290250000Y-157850000D02*
X290250000Y-165150000D01*
X290250000Y-133150000D02*
X295750000Y-133150000D01*
X295750000Y-133150000D02*
X295750000Y-125850000D01*
X295750000Y-125850000D02*
X290250000Y-125850000D01*
X290250000Y-125850000D02*
X290250000Y-133150000D01*
X290250000Y-101150000D02*
X295750000Y-101150000D01*
X295750000Y-101150000D02*
X295750000Y-93850000D01*
X295750000Y-93850000D02*
X290250000Y-93850000D01*
X290250000Y-93850000D02*
X290250000Y-101150000D01*
X302000000Y-197150000D02*
X307500000Y-197150000D01*
X307500000Y-197150000D02*
X307500000Y-189850000D01*
X307500000Y-189850000D02*
X302000000Y-189850000D01*
X302000000Y-189850000D02*
X302000000Y-197150000D01*
X302000000Y-165150000D02*
X307500000Y-165150000D01*
X307500000Y-165150000D02*
X307500000Y-157850000D01*
X307500000Y-157850000D02*
X302000000Y-157850000D01*
X302000000Y-157850000D02*
X302000000Y-165150000D01*
X302000000Y-133150000D02*
X307500000Y-133150000D01*
X307500000Y-133150000D02*
X307500000Y-125850000D01*
X307500000Y-125850000D02*
X302000000Y-125850000D01*
X302000000Y-125850000D02*
X302000000Y-133150000D01*
X302000000Y-101150000D02*
X307500000Y-101150000D01*
X307500000Y-101150000D02*
X307500000Y-93850000D01*
X307500000Y-93850000D02*
X302000000Y-93850000D01*
X302000000Y-93850000D02*
X302000000Y-101150000D01*
X326000000Y-189850000D02*
X326000000Y-197150000D01*
X331500000Y-189850000D02*
X326000000Y-189850000D01*
X331500000Y-197150000D02*
X331500000Y-189850000D01*
X326000000Y-197150000D02*
X331500000Y-197150000D01*
X326000000Y-157850000D02*
X326000000Y-165150000D01*
X331500000Y-157850000D02*
X326000000Y-157850000D01*
X331500000Y-165150000D02*
X331500000Y-157850000D01*
X326000000Y-165150000D02*
X331500000Y-165150000D01*
X326000000Y-125850000D02*
X326000000Y-133150000D01*
X331500000Y-125850000D02*
X326000000Y-125850000D01*
X331500000Y-133150000D02*
X331500000Y-125850000D01*
X326000000Y-133150000D02*
X331500000Y-133150000D01*
X326000000Y-93850000D02*
X326000000Y-101150000D01*
X331500000Y-93850000D02*
X326000000Y-93850000D01*
X331500000Y-101150000D02*
X331500000Y-93850000D01*
X326000000Y-101150000D02*
X331500000Y-101150000D01*
X323250000Y-179150000D02*
X328750000Y-179150000D01*
X328750000Y-179150000D02*
X328750000Y-171850000D01*
X328750000Y-171850000D02*
X323250000Y-171850000D01*
X323250000Y-171850000D02*
X323250000Y-179150000D01*
X323250000Y-147150000D02*
X328750000Y-147150000D01*
X328750000Y-147150000D02*
X328750000Y-139850000D01*
X328750000Y-139850000D02*
X323250000Y-139850000D01*
X323250000Y-139850000D02*
X323250000Y-147150000D01*
X323250000Y-115150000D02*
X328750000Y-115150000D01*
X328750000Y-115150000D02*
X328750000Y-107850000D01*
X328750000Y-107850000D02*
X323250000Y-107850000D01*
X323250000Y-107850000D02*
X323250000Y-115150000D01*
X323250000Y-83150000D02*
X328750000Y-83150000D01*
X328750000Y-83150000D02*
X328750000Y-75850000D01*
X328750000Y-75850000D02*
X323250000Y-75850000D01*
X323250000Y-75850000D02*
X323250000Y-83150000D01*
X332250000Y-197150000D02*
X337750000Y-197150000D01*
X337750000Y-197150000D02*
X337750000Y-189850000D01*
X337750000Y-189850000D02*
X332250000Y-189850000D01*
X332250000Y-189850000D02*
X332250000Y-197150000D01*
X332250000Y-165150000D02*
X337750000Y-165150000D01*
X337750000Y-165150000D02*
X337750000Y-157850000D01*
X337750000Y-157850000D02*
X332250000Y-157850000D01*
X332250000Y-157850000D02*
X332250000Y-165150000D01*
X332250000Y-133150000D02*
X337750000Y-133150000D01*
X337750000Y-133150000D02*
X337750000Y-125850000D01*
X337750000Y-125850000D02*
X332250000Y-125850000D01*
X332250000Y-125850000D02*
X332250000Y-133150000D01*
X332250000Y-101150000D02*
X337750000Y-101150000D01*
X337750000Y-101150000D02*
X337750000Y-93850000D01*
X337750000Y-93850000D02*
X332250000Y-93850000D01*
X332250000Y-93850000D02*
X332250000Y-101150000D01*
X338250000Y-197150000D02*
X343750000Y-197150000D01*
X343750000Y-197150000D02*
X343750000Y-189850000D01*
X343750000Y-189850000D02*
X338250000Y-189850000D01*
X338250000Y-189850000D02*
X338250000Y-197150000D01*
X338250000Y-165150000D02*
X343750000Y-165150000D01*
X343750000Y-165150000D02*
X343750000Y-157850000D01*
X343750000Y-157850000D02*
X338250000Y-157850000D01*
X338250000Y-157850000D02*
X338250000Y-165150000D01*
X338250000Y-133150000D02*
X343750000Y-133150000D01*
X343750000Y-133150000D02*
X343750000Y-125850000D01*
X343750000Y-125850000D02*
X338250000Y-125850000D01*
X338250000Y-125850000D02*
X338250000Y-133150000D01*
X338250000Y-101150000D02*
X343750000Y-101150000D01*
X343750000Y-101150000D02*
X343750000Y-93850000D01*
X343750000Y-93850000D02*
X338250000Y-93850000D01*
X338250000Y-93850000D02*
X338250000Y-101150000D01*
X335250000Y-171850000D02*
X335250000Y-179150000D01*
X340750000Y-171850000D02*
X335250000Y-171850000D01*
X340750000Y-179150000D02*
X340750000Y-171850000D01*
X335250000Y-179150000D02*
X340750000Y-179150000D01*
X335250000Y-139850000D02*
X335250000Y-147150000D01*
X340750000Y-139850000D02*
X335250000Y-139850000D01*
X340750000Y-147150000D02*
X340750000Y-139850000D01*
X335250000Y-147150000D02*
X340750000Y-147150000D01*
X335250000Y-107850000D02*
X335250000Y-115150000D01*
X340750000Y-107850000D02*
X335250000Y-107850000D01*
X340750000Y-115150000D02*
X340750000Y-107850000D01*
X335250000Y-115150000D02*
X340750000Y-115150000D01*
X335250000Y-75850000D02*
X335250000Y-83150000D01*
X340750000Y-75850000D02*
X335250000Y-75850000D01*
X340750000Y-83150000D02*
X340750000Y-75850000D01*
X335250000Y-83150000D02*
X340750000Y-83150000D01*
X361250000Y-169500000D02*
G75*
G03X361250000Y-169500000I-750000J0D01*
G01*
X361250000Y-137500000D02*
G75*
G03X361250000Y-137500000I-750000J0D01*
G01*
X361250000Y-105500000D02*
G75*
G03X361250000Y-105500000I-750000J0D01*
G01*
X361250000Y-73500000D02*
G75*
G03X361250000Y-73500000I-750000J0D01*
G01*
X350000000Y-197150000D02*
X355500000Y-197150000D01*
X355500000Y-197150000D02*
X355500000Y-189850000D01*
X355500000Y-189850000D02*
X350000000Y-189850000D01*
X350000000Y-189850000D02*
X350000000Y-197150000D01*
X350000000Y-165150000D02*
X355500000Y-165150000D01*
X355500000Y-165150000D02*
X355500000Y-157850000D01*
X355500000Y-157850000D02*
X350000000Y-157850000D01*
X350000000Y-157850000D02*
X350000000Y-165150000D01*
X350000000Y-133150000D02*
X355500000Y-133150000D01*
X355500000Y-133150000D02*
X355500000Y-125850000D01*
X355500000Y-125850000D02*
X350000000Y-125850000D01*
X350000000Y-125850000D02*
X350000000Y-133150000D01*
X350000000Y-101150000D02*
X355500000Y-101150000D01*
X355500000Y-101150000D02*
X355500000Y-93850000D01*
X355500000Y-93850000D02*
X350000000Y-93850000D01*
X350000000Y-93850000D02*
X350000000Y-101150000D01*
X341250000Y-171850000D02*
X341250000Y-179150000D01*
X346750000Y-171850000D02*
X341250000Y-171850000D01*
X346750000Y-179150000D02*
X346750000Y-171850000D01*
X341250000Y-179150000D02*
X346750000Y-179150000D01*
X341250000Y-139850000D02*
X341250000Y-147150000D01*
X346750000Y-139850000D02*
X341250000Y-139850000D01*
X346750000Y-147150000D02*
X346750000Y-139850000D01*
X341250000Y-147150000D02*
X346750000Y-147150000D01*
X341250000Y-107850000D02*
X341250000Y-115150000D01*
X346750000Y-107850000D02*
X341250000Y-107850000D01*
X346750000Y-115150000D02*
X346750000Y-107850000D01*
X341250000Y-115150000D02*
X346750000Y-115150000D01*
X341250000Y-75850000D02*
X341250000Y-83150000D01*
X346750000Y-75850000D02*
X341250000Y-75850000D01*
X346750000Y-83150000D02*
X346750000Y-75850000D01*
X341250000Y-83150000D02*
X346750000Y-83150000D01*
X344250000Y-197150000D02*
X349750000Y-197150000D01*
X349750000Y-197150000D02*
X349750000Y-189850000D01*
X349750000Y-189850000D02*
X344250000Y-189850000D01*
X344250000Y-189850000D02*
X344250000Y-197150000D01*
X344250000Y-165150000D02*
X349750000Y-165150000D01*
X349750000Y-165150000D02*
X349750000Y-157850000D01*
X349750000Y-157850000D02*
X344250000Y-157850000D01*
X344250000Y-157850000D02*
X344250000Y-165150000D01*
X344250000Y-133150000D02*
X349750000Y-133150000D01*
X349750000Y-133150000D02*
X349750000Y-125850000D01*
X349750000Y-125850000D02*
X344250000Y-125850000D01*
X344250000Y-125850000D02*
X344250000Y-133150000D01*
X344250000Y-101150000D02*
X349750000Y-101150000D01*
X349750000Y-101150000D02*
X349750000Y-93850000D01*
X349750000Y-93850000D02*
X344250000Y-93850000D01*
X344250000Y-93850000D02*
X344250000Y-101150000D01*
X347250000Y-171850000D02*
X347250000Y-179150000D01*
X352750000Y-171850000D02*
X347250000Y-171850000D01*
X352750000Y-179150000D02*
X352750000Y-171850000D01*
X347250000Y-179150000D02*
X352750000Y-179150000D01*
X347250000Y-139850000D02*
X347250000Y-147150000D01*
X352750000Y-139850000D02*
X347250000Y-139850000D01*
X352750000Y-147150000D02*
X352750000Y-139850000D01*
X347250000Y-147150000D02*
X352750000Y-147150000D01*
X347250000Y-107850000D02*
X347250000Y-115150000D01*
X352750000Y-107850000D02*
X347250000Y-107850000D01*
X352750000Y-115150000D02*
X352750000Y-107850000D01*
X347250000Y-115150000D02*
X352750000Y-115150000D01*
X347250000Y-75850000D02*
X347250000Y-83150000D01*
X352750000Y-75850000D02*
X347250000Y-75850000D01*
X352750000Y-83150000D02*
X352750000Y-75850000D01*
X347250000Y-83150000D02*
X352750000Y-83150000D01*
X360800000Y-181800000D02*
X360800000Y-170600000D01*
X360800000Y-170600000D02*
X357200000Y-170600000D01*
X357200000Y-170600000D02*
X357200000Y-181800000D01*
X357200000Y-181800000D02*
X360800000Y-181800000D01*
X360800000Y-149800000D02*
X360800000Y-138600000D01*
X360800000Y-138600000D02*
X357200000Y-138600000D01*
X357200000Y-138600000D02*
X357200000Y-149800000D01*
X357200000Y-149800000D02*
X360800000Y-149800000D01*
X360800000Y-117800000D02*
X360800000Y-106600000D01*
X360800000Y-106600000D02*
X357200000Y-106600000D01*
X357200000Y-106600000D02*
X357200000Y-117800000D01*
X357200000Y-117800000D02*
X360800000Y-117800000D01*
X360800000Y-85800000D02*
X360800000Y-74600000D01*
X360800000Y-74600000D02*
X357200000Y-74600000D01*
X357200000Y-74600000D02*
X357200000Y-85800000D01*
X357200000Y-85800000D02*
X360800000Y-85800000D01*
X356250000Y-197150000D02*
X361750000Y-197150000D01*
X361750000Y-197150000D02*
X361750000Y-189850000D01*
X361750000Y-189850000D02*
X356250000Y-189850000D01*
X356250000Y-189850000D02*
X356250000Y-197150000D01*
X356250000Y-165150000D02*
X361750000Y-165150000D01*
X361750000Y-165150000D02*
X361750000Y-157850000D01*
X361750000Y-157850000D02*
X356250000Y-157850000D01*
X356250000Y-157850000D02*
X356250000Y-165150000D01*
X356250000Y-133150000D02*
X361750000Y-133150000D01*
X361750000Y-133150000D02*
X361750000Y-125850000D01*
X361750000Y-125850000D02*
X356250000Y-125850000D01*
X356250000Y-125850000D02*
X356250000Y-133150000D01*
X356250000Y-101150000D02*
X361750000Y-101150000D01*
X361750000Y-101150000D02*
X361750000Y-93850000D01*
X361750000Y-93850000D02*
X356250000Y-93850000D01*
X356250000Y-93850000D02*
X356250000Y-101150000D01*
X361250000Y-41500000D02*
G75*
G03X361250000Y-41500000I-750000J0D01*
G01*
X357200000Y-53800000D02*
X360800000Y-53800000D01*
X357200000Y-42600000D02*
X357200000Y-53800000D01*
X360800000Y-42600000D02*
X357200000Y-42600000D01*
X360800000Y-53800000D02*
X360800000Y-42600000D01*
X356250000Y-61850000D02*
X356250000Y-69150000D01*
X361750000Y-61850000D02*
X356250000Y-61850000D01*
X361750000Y-69150000D02*
X361750000Y-61850000D01*
X356250000Y-69150000D02*
X361750000Y-69150000D01*
X350000000Y-61850000D02*
X350000000Y-69150000D01*
X355500000Y-61850000D02*
X350000000Y-61850000D01*
X355500000Y-69150000D02*
X355500000Y-61850000D01*
X350000000Y-69150000D02*
X355500000Y-69150000D01*
X347250000Y-51150000D02*
X352750000Y-51150000D01*
X352750000Y-51150000D02*
X352750000Y-43850000D01*
X352750000Y-43850000D02*
X347250000Y-43850000D01*
X347250000Y-43850000D02*
X347250000Y-51150000D01*
X344250000Y-61850000D02*
X344250000Y-69150000D01*
X349750000Y-61850000D02*
X344250000Y-61850000D01*
X349750000Y-69150000D02*
X349750000Y-61850000D01*
X344250000Y-69150000D02*
X349750000Y-69150000D01*
X341250000Y-51150000D02*
X346750000Y-51150000D01*
X346750000Y-51150000D02*
X346750000Y-43850000D01*
X346750000Y-43850000D02*
X341250000Y-43850000D01*
X341250000Y-43850000D02*
X341250000Y-51150000D01*
X338250000Y-61850000D02*
X338250000Y-69150000D01*
X343750000Y-61850000D02*
X338250000Y-61850000D01*
X343750000Y-69150000D02*
X343750000Y-61850000D01*
X338250000Y-69150000D02*
X343750000Y-69150000D01*
X335250000Y-51150000D02*
X340750000Y-51150000D01*
X340750000Y-51150000D02*
X340750000Y-43850000D01*
X340750000Y-43850000D02*
X335250000Y-43850000D01*
X335250000Y-43850000D02*
X335250000Y-51150000D01*
X332250000Y-61850000D02*
X332250000Y-69150000D01*
X337750000Y-61850000D02*
X332250000Y-61850000D01*
X337750000Y-69150000D02*
X337750000Y-61850000D01*
X332250000Y-69150000D02*
X337750000Y-69150000D01*
X326000000Y-69150000D02*
X331500000Y-69150000D01*
X331500000Y-69150000D02*
X331500000Y-61850000D01*
X331500000Y-61850000D02*
X326000000Y-61850000D01*
X326000000Y-61850000D02*
X326000000Y-69150000D01*
X323250000Y-43850000D02*
X323250000Y-51150000D01*
X328750000Y-43850000D02*
X323250000Y-43850000D01*
X328750000Y-51150000D02*
X328750000Y-43850000D01*
X323250000Y-51150000D02*
X328750000Y-51150000D01*
X320250000Y-69150000D02*
X325750000Y-69150000D01*
X325750000Y-69150000D02*
X325750000Y-61850000D01*
X325750000Y-61850000D02*
X320250000Y-61850000D01*
X320250000Y-61850000D02*
X320250000Y-69150000D01*
X317250000Y-51150000D02*
X322750000Y-51150000D01*
X322750000Y-51150000D02*
X322750000Y-43850000D01*
X322750000Y-43850000D02*
X317250000Y-43850000D01*
X317250000Y-43850000D02*
X317250000Y-51150000D01*
X314250000Y-69150000D02*
X319750000Y-69150000D01*
X319750000Y-69150000D02*
X319750000Y-61850000D01*
X319750000Y-61850000D02*
X314250000Y-61850000D01*
X314250000Y-61850000D02*
X314250000Y-69150000D01*
X308250000Y-61850000D02*
X308250000Y-69150000D01*
X313750000Y-61850000D02*
X308250000Y-61850000D01*
X313750000Y-69150000D02*
X313750000Y-61850000D01*
X308250000Y-69150000D02*
X313750000Y-69150000D01*
X305250000Y-51150000D02*
X310750000Y-51150000D01*
X310750000Y-51150000D02*
X310750000Y-43850000D01*
X310750000Y-43850000D02*
X305250000Y-43850000D01*
X305250000Y-43850000D02*
X305250000Y-51150000D01*
X302000000Y-61850000D02*
X302000000Y-69150000D01*
X307500000Y-61850000D02*
X302000000Y-61850000D01*
X307500000Y-69150000D02*
X307500000Y-61850000D01*
X302000000Y-69150000D02*
X307500000Y-69150000D01*
X299250000Y-51150000D02*
X304750000Y-51150000D01*
X304750000Y-51150000D02*
X304750000Y-43850000D01*
X304750000Y-43850000D02*
X299250000Y-43850000D01*
X299250000Y-43850000D02*
X299250000Y-51150000D01*
X296250000Y-61850000D02*
X296250000Y-69150000D01*
X301750000Y-61850000D02*
X296250000Y-61850000D01*
X301750000Y-69150000D02*
X301750000Y-61850000D01*
X296250000Y-69150000D02*
X301750000Y-69150000D01*
X293250000Y-51150000D02*
X298750000Y-51150000D01*
X298750000Y-51150000D02*
X298750000Y-43850000D01*
X298750000Y-43850000D02*
X293250000Y-43850000D01*
X293250000Y-43850000D02*
X293250000Y-51150000D01*
X290250000Y-61850000D02*
X290250000Y-69150000D01*
X295750000Y-61850000D02*
X290250000Y-61850000D01*
X295750000Y-69150000D02*
X295750000Y-61850000D01*
X290250000Y-69150000D02*
X295750000Y-69150000D01*
X284250000Y-69150000D02*
X289750000Y-69150000D01*
X289750000Y-69150000D02*
X289750000Y-61850000D01*
X289750000Y-61850000D02*
X284250000Y-61850000D01*
X284250000Y-61850000D02*
X284250000Y-69150000D01*
X281250000Y-43850000D02*
X281250000Y-51150000D01*
X286750000Y-43850000D02*
X281250000Y-43850000D01*
X286750000Y-51150000D02*
X286750000Y-43850000D01*
X281250000Y-51150000D02*
X286750000Y-51150000D01*
X278250000Y-61850000D02*
X278250000Y-69150000D01*
X283750000Y-61850000D02*
X278250000Y-61850000D01*
X283750000Y-69150000D02*
X283750000Y-61850000D01*
X278250000Y-69150000D02*
X283750000Y-69150000D01*
X275250000Y-51150000D02*
X280750000Y-51150000D01*
X280750000Y-51150000D02*
X280750000Y-43850000D01*
X280750000Y-43850000D02*
X275250000Y-43850000D01*
X275250000Y-43850000D02*
X275250000Y-51150000D01*
X272250000Y-61850000D02*
X272250000Y-69150000D01*
X277750000Y-61850000D02*
X272250000Y-61850000D01*
X277750000Y-69150000D02*
X277750000Y-61850000D01*
X272250000Y-69150000D02*
X277750000Y-69150000D01*
X266250000Y-69150000D02*
X271750000Y-69150000D01*
X271750000Y-69150000D02*
X271750000Y-61850000D01*
X271750000Y-61850000D02*
X266250000Y-61850000D01*
X266250000Y-61850000D02*
X266250000Y-69150000D01*
X263250000Y-43600000D02*
X263250000Y-50900000D01*
X268750000Y-43600000D02*
X263250000Y-43600000D01*
X268750000Y-50900000D02*
X268750000Y-43600000D01*
X263250000Y-50900000D02*
X268750000Y-50900000D01*
X260250000Y-69150000D02*
X265750000Y-69150000D01*
X265750000Y-69150000D02*
X265750000Y-61850000D01*
X265750000Y-61850000D02*
X260250000Y-61850000D01*
X260250000Y-61850000D02*
X260250000Y-69150000D01*
X257250000Y-43600000D02*
X257250000Y-50900000D01*
X262750000Y-43600000D02*
X257250000Y-43600000D01*
X262750000Y-50900000D02*
X262750000Y-43600000D01*
X257250000Y-50900000D02*
X262750000Y-50900000D01*
X254250000Y-69150000D02*
X259750000Y-69150000D01*
X259750000Y-69150000D02*
X259750000Y-61850000D01*
X259750000Y-61850000D02*
X254250000Y-61850000D01*
X254250000Y-61850000D02*
X254250000Y-69150000D01*
X251250000Y-43600000D02*
X251250000Y-50900000D01*
X256750000Y-43600000D02*
X251250000Y-43600000D01*
X256750000Y-50900000D02*
X256750000Y-43600000D01*
X251250000Y-50900000D02*
X256750000Y-50900000D01*
X248250000Y-69150000D02*
X253750000Y-69150000D01*
X253750000Y-69150000D02*
X253750000Y-61850000D01*
X253750000Y-61850000D02*
X248250000Y-61850000D01*
X248250000Y-61850000D02*
X248250000Y-69150000D01*
X242250000Y-69150000D02*
X247750000Y-69150000D01*
X247750000Y-69150000D02*
X247750000Y-61850000D01*
X247750000Y-61850000D02*
X242250000Y-61850000D01*
X242250000Y-61850000D02*
X242250000Y-69150000D01*
X239250000Y-50900000D02*
X244750000Y-50900000D01*
X244750000Y-50900000D02*
X244750000Y-43600000D01*
X244750000Y-43600000D02*
X239250000Y-43600000D01*
X239250000Y-43600000D02*
X239250000Y-50900000D01*
X236250000Y-61850000D02*
X236250000Y-69150000D01*
X241750000Y-61850000D02*
X236250000Y-61850000D01*
X241750000Y-69150000D02*
X241750000Y-61850000D01*
X236250000Y-69150000D02*
X241750000Y-69150000D01*
X233250000Y-50900000D02*
X238750000Y-50900000D01*
X238750000Y-50900000D02*
X238750000Y-43600000D01*
X238750000Y-43600000D02*
X233250000Y-43600000D01*
X233250000Y-43600000D02*
X233250000Y-50900000D01*
X230250000Y-61850000D02*
X230250000Y-69150000D01*
X235750000Y-61850000D02*
X230250000Y-61850000D01*
X235750000Y-69150000D02*
X235750000Y-61850000D01*
X230250000Y-69150000D02*
X235750000Y-69150000D01*
X224250000Y-69150000D02*
X229750000Y-69150000D01*
X229750000Y-69150000D02*
X229750000Y-61850000D01*
X229750000Y-61850000D02*
X224250000Y-61850000D01*
X224250000Y-61850000D02*
X224250000Y-69150000D01*
X221250000Y-43600000D02*
X221250000Y-50900000D01*
X226750000Y-43600000D02*
X221250000Y-43600000D01*
X226750000Y-50900000D02*
X226750000Y-43600000D01*
X221250000Y-50900000D02*
X226750000Y-50900000D01*
X218250000Y-69150000D02*
X223750000Y-69150000D01*
X223750000Y-69150000D02*
X223750000Y-61850000D01*
X223750000Y-61850000D02*
X218250000Y-61850000D01*
X218250000Y-61850000D02*
X218250000Y-69150000D01*
X215250000Y-43600000D02*
X215250000Y-50900000D01*
X220750000Y-43600000D02*
X215250000Y-43600000D01*
X220750000Y-50900000D02*
X220750000Y-43600000D01*
X215250000Y-50900000D02*
X220750000Y-50900000D01*
X212250000Y-69150000D02*
X217750000Y-69150000D01*
X217750000Y-69150000D02*
X217750000Y-61850000D01*
X217750000Y-61850000D02*
X212250000Y-61850000D01*
X212250000Y-61850000D02*
X212250000Y-69150000D01*
X209250000Y-43600000D02*
X209250000Y-50900000D01*
X214750000Y-43600000D02*
X209250000Y-43600000D01*
X214750000Y-50900000D02*
X214750000Y-43600000D01*
X209250000Y-50900000D02*
X214750000Y-50900000D01*
X206250000Y-61850000D02*
X206250000Y-69150000D01*
X211750000Y-61850000D02*
X206250000Y-61850000D01*
X211750000Y-69150000D02*
X211750000Y-61850000D01*
X206250000Y-69150000D02*
X211750000Y-69150000D01*
X200250000Y-61850000D02*
X200250000Y-69150000D01*
X205750000Y-61850000D02*
X200250000Y-61850000D01*
X205750000Y-69150000D02*
X205750000Y-61850000D01*
X200250000Y-69150000D02*
X205750000Y-69150000D01*
X197250000Y-50900000D02*
X202750000Y-50900000D01*
X202750000Y-50900000D02*
X202750000Y-43600000D01*
X202750000Y-43600000D02*
X197250000Y-43600000D01*
X197250000Y-43600000D02*
X197250000Y-50900000D01*
X194250000Y-61850000D02*
X194250000Y-69150000D01*
X199750000Y-61850000D02*
X194250000Y-61850000D01*
X199750000Y-69150000D02*
X199750000Y-61850000D01*
X194250000Y-69150000D02*
X199750000Y-69150000D01*
X191500000Y-50900000D02*
X197000000Y-50900000D01*
X197000000Y-50900000D02*
X197000000Y-43600000D01*
X197000000Y-43600000D02*
X191500000Y-43600000D01*
X191500000Y-43600000D02*
X191500000Y-50900000D01*
X188250000Y-61850000D02*
X188250000Y-69150000D01*
X193750000Y-61850000D02*
X188250000Y-61850000D01*
X193750000Y-69150000D02*
X193750000Y-61850000D01*
X188250000Y-69150000D02*
X193750000Y-69150000D01*
X182250000Y-69150000D02*
X187750000Y-69150000D01*
X187750000Y-69150000D02*
X187750000Y-61850000D01*
X187750000Y-61850000D02*
X182250000Y-61850000D01*
X182250000Y-61850000D02*
X182250000Y-69150000D01*
X179250000Y-43600000D02*
X179250000Y-50900000D01*
X184750000Y-43600000D02*
X179250000Y-43600000D01*
X184750000Y-50900000D02*
X184750000Y-43600000D01*
X179250000Y-50900000D02*
X184750000Y-50900000D01*
X176250000Y-69150000D02*
X181750000Y-69150000D01*
X181750000Y-69150000D02*
X181750000Y-61850000D01*
X181750000Y-61850000D02*
X176250000Y-61850000D01*
X176250000Y-61850000D02*
X176250000Y-69150000D01*
X173250000Y-43600000D02*
X173250000Y-50900000D01*
X178750000Y-43600000D02*
X173250000Y-43600000D01*
X178750000Y-50900000D02*
X178750000Y-43600000D01*
X173250000Y-50900000D02*
X178750000Y-50900000D01*
X170250000Y-69150000D02*
X175750000Y-69150000D01*
X175750000Y-69150000D02*
X175750000Y-61850000D01*
X175750000Y-61850000D02*
X170250000Y-61850000D01*
X170250000Y-61850000D02*
X170250000Y-69150000D01*
X167250000Y-43600000D02*
X167250000Y-50900000D01*
X172750000Y-43600000D02*
X167250000Y-43600000D01*
X172750000Y-50900000D02*
X172750000Y-43600000D01*
X167250000Y-50900000D02*
X172750000Y-50900000D01*
X164250000Y-69150000D02*
X169750000Y-69150000D01*
X169750000Y-69150000D02*
X169750000Y-61850000D01*
X169750000Y-61850000D02*
X164250000Y-61850000D01*
X164250000Y-61850000D02*
X164250000Y-69150000D01*
X158250000Y-61850000D02*
X158250000Y-69150000D01*
X163750000Y-61850000D02*
X158250000Y-61850000D01*
X163750000Y-69150000D02*
X163750000Y-61850000D01*
X158250000Y-69150000D02*
X163750000Y-69150000D01*
X155250000Y-50900000D02*
X160750000Y-50900000D01*
X160750000Y-50900000D02*
X160750000Y-43600000D01*
X160750000Y-43600000D02*
X155250000Y-43600000D01*
X155250000Y-43600000D02*
X155250000Y-50900000D01*
X152250000Y-61850000D02*
X152250000Y-69150000D01*
X157750000Y-61850000D02*
X152250000Y-61850000D01*
X157750000Y-69150000D02*
X157750000Y-61850000D01*
X152250000Y-69150000D02*
X157750000Y-69150000D01*
X149250000Y-50900000D02*
X154750000Y-50900000D01*
X154750000Y-50900000D02*
X154750000Y-43600000D01*
X154750000Y-43600000D02*
X149250000Y-43600000D01*
X149250000Y-43600000D02*
X149250000Y-50900000D01*
X146250000Y-61850000D02*
X146250000Y-69150000D01*
X151750000Y-61850000D02*
X146250000Y-61850000D01*
X151750000Y-69150000D02*
X151750000Y-61850000D01*
X146250000Y-69150000D02*
X151750000Y-69150000D01*
X140250000Y-69150000D02*
X145750000Y-69150000D01*
X145750000Y-69150000D02*
X145750000Y-61850000D01*
X145750000Y-61850000D02*
X140250000Y-61850000D01*
X140250000Y-61850000D02*
X140250000Y-69150000D01*
X137250000Y-43600000D02*
X137250000Y-50900000D01*
X142750000Y-43600000D02*
X137250000Y-43600000D01*
X142750000Y-50900000D02*
X142750000Y-43600000D01*
X137250000Y-50900000D02*
X142750000Y-50900000D01*
X134250000Y-69150000D02*
X139750000Y-69150000D01*
X139750000Y-69150000D02*
X139750000Y-61850000D01*
X139750000Y-61850000D02*
X134250000Y-61850000D01*
X134250000Y-61850000D02*
X134250000Y-69150000D01*
X131250000Y-43600000D02*
X131250000Y-50900000D01*
X136750000Y-43600000D02*
X131250000Y-43600000D01*
X136750000Y-50900000D02*
X136750000Y-43600000D01*
X131250000Y-50900000D02*
X136750000Y-50900000D01*
X128250000Y-69150000D02*
X133750000Y-69150000D01*
X133750000Y-69150000D02*
X133750000Y-61850000D01*
X133750000Y-61850000D02*
X128250000Y-61850000D01*
X128250000Y-61850000D02*
X128250000Y-69150000D01*
X125250000Y-43600000D02*
X125250000Y-50900000D01*
X130750000Y-43600000D02*
X125250000Y-43600000D01*
X130750000Y-50900000D02*
X130750000Y-43600000D01*
X125250000Y-50900000D02*
X130750000Y-50900000D01*
X122250000Y-61850000D02*
X122250000Y-69150000D01*
X127750000Y-61850000D02*
X122250000Y-61850000D01*
X127750000Y-69150000D02*
X127750000Y-61850000D01*
X122250000Y-69150000D02*
X127750000Y-69150000D01*
X116250000Y-69150000D02*
X121750000Y-69150000D01*
X121750000Y-69150000D02*
X121750000Y-61850000D01*
X121750000Y-61850000D02*
X116250000Y-61850000D01*
X116250000Y-61850000D02*
X116250000Y-69150000D01*
X113250000Y-43600000D02*
X113250000Y-50900000D01*
X118750000Y-43600000D02*
X113250000Y-43600000D01*
X118750000Y-50900000D02*
X118750000Y-43600000D01*
X113250000Y-50900000D02*
X118750000Y-50900000D01*
X110250000Y-69150000D02*
X115750000Y-69150000D01*
X115750000Y-69150000D02*
X115750000Y-61850000D01*
X115750000Y-61850000D02*
X110250000Y-61850000D01*
X110250000Y-61850000D02*
X110250000Y-69150000D01*
X107250000Y-43600000D02*
X107250000Y-50900000D01*
X112750000Y-43600000D02*
X107250000Y-43600000D01*
X112750000Y-50900000D02*
X112750000Y-43600000D01*
X107250000Y-50900000D02*
X112750000Y-50900000D01*
X104250000Y-69150000D02*
X109750000Y-69150000D01*
X109750000Y-69150000D02*
X109750000Y-61850000D01*
X109750000Y-61850000D02*
X104250000Y-61850000D01*
X104250000Y-61850000D02*
X104250000Y-69150000D01*
X98250000Y-61850000D02*
X98250000Y-69150000D01*
X103750000Y-61850000D02*
X98250000Y-61850000D01*
X103750000Y-69150000D02*
X103750000Y-61850000D01*
X98250000Y-69150000D02*
X103750000Y-69150000D01*
X95250000Y-50900000D02*
X100750000Y-50900000D01*
X100750000Y-50900000D02*
X100750000Y-43600000D01*
X100750000Y-43600000D02*
X95250000Y-43600000D01*
X95250000Y-43600000D02*
X95250000Y-50900000D01*
X92250000Y-61850000D02*
X92250000Y-69150000D01*
X97750000Y-61850000D02*
X92250000Y-61850000D01*
X97750000Y-69150000D02*
X97750000Y-61850000D01*
X92250000Y-69150000D02*
X97750000Y-69150000D01*
X89250000Y-50900000D02*
X94750000Y-50900000D01*
X94750000Y-50900000D02*
X94750000Y-43600000D01*
X94750000Y-43600000D02*
X89250000Y-43600000D01*
X89250000Y-43600000D02*
X89250000Y-50900000D01*
X86250000Y-69150000D02*
X91750000Y-69150000D01*
X91750000Y-69150000D02*
X91750000Y-61850000D01*
X91750000Y-61850000D02*
X86250000Y-61850000D01*
X86250000Y-61850000D02*
X86250000Y-69150000D01*
X83250000Y-50900000D02*
X88750000Y-50900000D01*
X88750000Y-50900000D02*
X88750000Y-43600000D01*
X88750000Y-43600000D02*
X83250000Y-43600000D01*
X83250000Y-43600000D02*
X83250000Y-50900000D01*
X80250000Y-61850000D02*
X80250000Y-69150000D01*
X85750000Y-61850000D02*
X80250000Y-61850000D01*
X85750000Y-69150000D02*
X85750000Y-61850000D01*
X80250000Y-69150000D02*
X85750000Y-69150000D01*
X74250000Y-69150000D02*
X79750000Y-69150000D01*
X79750000Y-69150000D02*
X79750000Y-61850000D01*
X79750000Y-61850000D02*
X74250000Y-61850000D01*
X74250000Y-61850000D02*
X74250000Y-69150000D01*
X71250000Y-43600000D02*
X71250000Y-50900000D01*
X76750000Y-43600000D02*
X71250000Y-43600000D01*
X76750000Y-50900000D02*
X76750000Y-43600000D01*
X71250000Y-50900000D02*
X76750000Y-50900000D01*
X68250000Y-69150000D02*
X73750000Y-69150000D01*
X73750000Y-69150000D02*
X73750000Y-61850000D01*
X73750000Y-61850000D02*
X68250000Y-61850000D01*
X68250000Y-61850000D02*
X68250000Y-69150000D01*
X65250000Y-43600000D02*
X65250000Y-50900000D01*
X70750000Y-43600000D02*
X65250000Y-43600000D01*
X70750000Y-50900000D02*
X70750000Y-43600000D01*
X65250000Y-50900000D02*
X70750000Y-50900000D01*
X62250000Y-69150000D02*
X67750000Y-69150000D01*
X67750000Y-69150000D02*
X67750000Y-61850000D01*
X67750000Y-61850000D02*
X62250000Y-61850000D01*
X62250000Y-61850000D02*
X62250000Y-69150000D01*
X56250000Y-61850000D02*
X56250000Y-69150000D01*
X61750000Y-61850000D02*
X56250000Y-61850000D01*
X61750000Y-69150000D02*
X61750000Y-61850000D01*
X56250000Y-69150000D02*
X61750000Y-69150000D01*
X53250000Y-50900000D02*
X58750000Y-50900000D01*
X58750000Y-50900000D02*
X58750000Y-43600000D01*
X58750000Y-43600000D02*
X53250000Y-43600000D01*
X53250000Y-43600000D02*
X53250000Y-50900000D01*
X50250000Y-61850000D02*
X50250000Y-69150000D01*
X55750000Y-61850000D02*
X50250000Y-61850000D01*
X55750000Y-69150000D02*
X55750000Y-61850000D01*
X50250000Y-69150000D02*
X55750000Y-69150000D01*
M02*
