G04 #@! TF.GenerationSoftware,KiCad,Pcbnew,(5.1.0)-1*
G04 #@! TF.CreationDate,2019-08-05T10:11:54+09:00*
G04 #@! TF.ProjectId,APA102,41504131-3032-42e6-9b69-6361645f7063,rev?*
G04 #@! TF.SameCoordinates,Original*
G04 #@! TF.FileFunction,Copper,L1,Top*
G04 #@! TF.FilePolarity,Positive*
%FSLAX46Y46*%
G04 Gerber Fmt 4.6, Leading zero omitted, Abs format (unit mm)*
G04 Created by KiCad (PCBNEW (5.1.0)-1) date 2019-08-05 10:11:54*
%MOMM*%
%LPD*%
G04 APERTURE LIST*
%ADD10C,0.100000*%
%ADD11C,1.700000*%
%ADD12O,1.950000X1.700000*%
%ADD13R,1.100000X2.000000*%
%ADD14C,1.500000*%
%ADD15C,0.800000*%
%ADD16C,1.000000*%
%ADD17C,0.300000*%
G04 APERTURE END LIST*
D10*
G36*
X109949504Y-32851204D02*
G01*
X109973773Y-32854804D01*
X109997571Y-32860765D01*
X110020671Y-32869030D01*
X110042849Y-32879520D01*
X110063893Y-32892133D01*
X110083598Y-32906747D01*
X110101777Y-32923223D01*
X110118253Y-32941402D01*
X110132867Y-32961107D01*
X110145480Y-32982151D01*
X110155970Y-33004329D01*
X110164235Y-33027429D01*
X110170196Y-33051227D01*
X110173796Y-33075496D01*
X110175000Y-33100000D01*
X110175000Y-34300000D01*
X110173796Y-34324504D01*
X110170196Y-34348773D01*
X110164235Y-34372571D01*
X110155970Y-34395671D01*
X110145480Y-34417849D01*
X110132867Y-34438893D01*
X110118253Y-34458598D01*
X110101777Y-34476777D01*
X110083598Y-34493253D01*
X110063893Y-34507867D01*
X110042849Y-34520480D01*
X110020671Y-34530970D01*
X109997571Y-34539235D01*
X109973773Y-34545196D01*
X109949504Y-34548796D01*
X109925000Y-34550000D01*
X108475000Y-34550000D01*
X108450496Y-34548796D01*
X108426227Y-34545196D01*
X108402429Y-34539235D01*
X108379329Y-34530970D01*
X108357151Y-34520480D01*
X108336107Y-34507867D01*
X108316402Y-34493253D01*
X108298223Y-34476777D01*
X108281747Y-34458598D01*
X108267133Y-34438893D01*
X108254520Y-34417849D01*
X108244030Y-34395671D01*
X108235765Y-34372571D01*
X108229804Y-34348773D01*
X108226204Y-34324504D01*
X108225000Y-34300000D01*
X108225000Y-33100000D01*
X108226204Y-33075496D01*
X108229804Y-33051227D01*
X108235765Y-33027429D01*
X108244030Y-33004329D01*
X108254520Y-32982151D01*
X108267133Y-32961107D01*
X108281747Y-32941402D01*
X108298223Y-32923223D01*
X108316402Y-32906747D01*
X108336107Y-32892133D01*
X108357151Y-32879520D01*
X108379329Y-32869030D01*
X108402429Y-32860765D01*
X108426227Y-32854804D01*
X108450496Y-32851204D01*
X108475000Y-32850000D01*
X109925000Y-32850000D01*
X109949504Y-32851204D01*
X109949504Y-32851204D01*
G37*
D11*
X109200000Y-33700000D03*
D12*
X109200000Y-36200000D03*
X109200000Y-38700000D03*
X109200000Y-41200000D03*
D13*
X103300000Y-90400000D03*
X105000000Y-90400000D03*
X106700000Y-90400000D03*
X106700000Y-85600000D03*
X105000000Y-85600000D03*
X103300000Y-85600000D03*
X108300000Y-59100000D03*
X110000000Y-59100000D03*
X111700000Y-59100000D03*
X111700000Y-63900000D03*
X110000000Y-63900000D03*
X108300000Y-63900000D03*
X113300000Y-90400000D03*
X115000000Y-90400000D03*
X116700000Y-90400000D03*
X116700000Y-85600000D03*
X115000000Y-85600000D03*
X113300000Y-85600000D03*
X118300000Y-59100000D03*
X120000000Y-59100000D03*
X121700000Y-59100000D03*
X121700000Y-63900000D03*
X120000000Y-63900000D03*
X118300000Y-63900000D03*
X123300000Y-90400000D03*
X125000000Y-90400000D03*
X126700000Y-90400000D03*
X126700000Y-85600000D03*
X125000000Y-85600000D03*
X123300000Y-85600000D03*
X133300000Y-85600000D03*
X135000000Y-85600000D03*
X136700000Y-85600000D03*
X136700000Y-90400000D03*
X135000000Y-90400000D03*
X133300000Y-90400000D03*
X138300000Y-63900000D03*
X140000000Y-63900000D03*
X141700000Y-63900000D03*
X141700000Y-59100000D03*
X140000000Y-59100000D03*
X138300000Y-59100000D03*
X143300000Y-85600000D03*
X145000000Y-85600000D03*
X146700000Y-85600000D03*
X146700000Y-90400000D03*
X145000000Y-90400000D03*
X143300000Y-90400000D03*
X148300000Y-63900000D03*
X150000000Y-63900000D03*
X151700000Y-63900000D03*
X151700000Y-59100000D03*
X150000000Y-59100000D03*
X148300000Y-59100000D03*
X153300000Y-85600000D03*
X155000000Y-85600000D03*
X156700000Y-85600000D03*
X156700000Y-90400000D03*
X155000000Y-90400000D03*
X153300000Y-90400000D03*
X158300000Y-63900000D03*
X160000000Y-63900000D03*
X161700000Y-63900000D03*
X161700000Y-59100000D03*
X160000000Y-59100000D03*
X158300000Y-59100000D03*
X163300000Y-85600000D03*
X165000000Y-85600000D03*
X166700000Y-85600000D03*
X166700000Y-90400000D03*
X165000000Y-90400000D03*
X163300000Y-90400000D03*
D14*
X167400000Y-41200000D03*
X167400000Y-38700000D03*
X167400000Y-36200000D03*
X167400000Y-33700000D03*
D15*
X105000000Y-88746000D03*
X110000000Y-60756900D03*
X106700000Y-88710400D03*
X111681100Y-60757800D03*
X106700000Y-83933500D03*
X105070800Y-83932300D03*
X116700000Y-83940200D03*
X111700000Y-65554800D03*
X115000000Y-83921000D03*
X110000000Y-65570700D03*
X115000000Y-88746000D03*
X120000000Y-60784600D03*
X116700000Y-88739700D03*
X121762100Y-60794400D03*
X126700000Y-83939200D03*
X121700000Y-62247800D03*
X125000000Y-83945700D03*
X120554600Y-65854900D03*
X125000000Y-88699500D03*
X134647700Y-87264600D03*
X126700000Y-88730400D03*
X136700000Y-87264800D03*
X141700000Y-60779200D03*
X137761700Y-88949800D03*
X140225000Y-57423500D03*
X134741100Y-88667900D03*
X140000000Y-65557900D03*
X144964000Y-83943700D03*
X141700000Y-65559000D03*
X146700000Y-83919200D03*
X151700000Y-57423500D03*
X146700000Y-88746100D03*
X150000000Y-57423500D03*
X145075000Y-88696000D03*
X150000000Y-65553700D03*
X155162500Y-82752200D03*
X151700000Y-65555200D03*
X155975000Y-83474700D03*
X161700000Y-60751600D03*
X156700000Y-88719100D03*
X160000000Y-57425500D03*
X155000000Y-88734900D03*
X160000000Y-65576700D03*
X165025000Y-83904900D03*
X161700000Y-65550600D03*
X166700000Y-83921100D03*
X166700000Y-88746000D03*
X166750000Y-87500000D03*
D16*
X163300000Y-90400000D02*
X163300000Y-92400000D01*
X163300000Y-92400000D02*
X162200000Y-93500000D01*
X162200000Y-93500000D02*
X153500000Y-93500000D01*
X158300000Y-63900000D02*
X158300000Y-64350000D01*
X158300000Y-64350000D02*
X156500000Y-66150000D01*
X156500000Y-66150000D02*
X156500000Y-75000000D01*
X156500000Y-75000000D02*
X146500000Y-75000000D01*
X146500000Y-75000000D02*
X136500000Y-75000000D01*
X148300000Y-63900000D02*
X148300000Y-64350000D01*
X148300000Y-64350000D02*
X146500000Y-66150000D01*
X146500000Y-66150000D02*
X146500000Y-75000000D01*
X136500000Y-75000000D02*
X116500000Y-75000000D01*
X138300000Y-63900000D02*
X138300000Y-64350000D01*
X138300000Y-64350000D02*
X136500000Y-66150000D01*
X136500000Y-66150000D02*
X136500000Y-75000000D01*
X116500000Y-75000000D02*
X106500000Y-75000000D01*
X118300000Y-63900000D02*
X118300000Y-64350000D01*
X118300000Y-64350000D02*
X116500000Y-66150000D01*
X116500000Y-66150000D02*
X116500000Y-75000000D01*
X106500000Y-75000000D02*
X101750000Y-75000000D01*
X108300000Y-63900000D02*
X108300000Y-64350000D01*
X108300000Y-64350000D02*
X106500000Y-66150000D01*
X106500000Y-66150000D02*
X106500000Y-75000000D01*
X133250000Y-93500000D02*
X133300000Y-93450000D01*
X133300000Y-93450000D02*
X133300000Y-90400000D01*
X153500000Y-93500000D02*
X143000000Y-93500000D01*
X153300000Y-90400000D02*
X153300000Y-93300000D01*
X153300000Y-93300000D02*
X153500000Y-93500000D01*
X143000000Y-93500000D02*
X133250000Y-93500000D01*
X143300000Y-90400000D02*
X143300000Y-93200000D01*
X143300000Y-93200000D02*
X143000000Y-93500000D01*
X133250000Y-93500000D02*
X123250000Y-93500000D01*
X123250000Y-93500000D02*
X113250000Y-93500000D01*
X123300000Y-90400000D02*
X123300000Y-93450000D01*
X123300000Y-93450000D02*
X123250000Y-93500000D01*
X113250000Y-93500000D02*
X104400000Y-93500000D01*
X104400000Y-93500000D02*
X103300000Y-92400000D01*
X103300000Y-92400000D02*
X103300000Y-90400000D01*
X113300000Y-90400000D02*
X113300000Y-93450000D01*
X113300000Y-93450000D02*
X113250000Y-93500000D01*
X101750000Y-75000000D02*
X101750000Y-36250000D01*
X101750000Y-36250000D02*
X104300000Y-33700000D01*
X104300000Y-33700000D02*
X109200000Y-33700000D01*
X103300000Y-90400000D02*
X103300000Y-89950000D01*
X103300000Y-89950000D02*
X101750000Y-88400000D01*
X101750000Y-88400000D02*
X101750000Y-75000000D01*
X109200000Y-33700000D02*
X112300000Y-33700000D01*
X112300000Y-33700000D02*
X114000000Y-32000000D01*
X114000000Y-32000000D02*
X165700000Y-32000000D01*
X165700000Y-32000000D02*
X167400000Y-33700000D01*
D17*
X110000000Y-60500300D02*
X110000000Y-60756900D01*
X110000000Y-59100000D02*
X110000000Y-60500300D01*
X105000000Y-88746000D02*
X105000000Y-90400000D01*
X111700000Y-59100000D02*
X111700000Y-60500300D01*
X111700000Y-60500300D02*
X111681100Y-60519200D01*
X111681100Y-60519200D02*
X111681100Y-60757800D01*
X106700000Y-88710400D02*
X106700000Y-90400000D01*
X106700000Y-84199700D02*
X106700000Y-83933500D01*
X106700000Y-85600000D02*
X106700000Y-84199700D01*
X105000000Y-85600000D02*
X105000000Y-84199700D01*
X105000000Y-84199700D02*
X105070800Y-84128900D01*
X105070800Y-84128900D02*
X105070800Y-83932300D01*
D16*
X146500000Y-45000000D02*
X156500000Y-45000000D01*
X148300000Y-59100000D02*
X148300000Y-58650000D01*
X148300000Y-58650000D02*
X146500000Y-56850000D01*
X146500000Y-56850000D02*
X146500000Y-45000000D01*
X157250000Y-45000000D02*
X163600000Y-45000000D01*
X156500000Y-45000000D02*
X157250000Y-45000000D01*
X156500000Y-45000000D02*
X157250000Y-45000000D01*
X106500000Y-45000000D02*
X106500000Y-43775000D01*
X106500000Y-43775000D02*
X109075000Y-41200000D01*
X109075000Y-41200000D02*
X109200000Y-41200000D01*
X108300000Y-59100000D02*
X108300000Y-58650000D01*
X108300000Y-58650000D02*
X106500000Y-56850000D01*
X106500000Y-56850000D02*
X106500000Y-45000000D01*
X163300000Y-85600000D02*
X163300000Y-83600000D01*
X163300000Y-83600000D02*
X163500000Y-83400000D01*
X163500000Y-83400000D02*
X163500000Y-75250000D01*
X143071000Y-80821300D02*
X133071000Y-80821300D01*
X153300000Y-80821300D02*
X143071000Y-80821300D01*
X136500000Y-45000000D02*
X146500000Y-45000000D01*
X116500000Y-45000000D02*
X106500000Y-45000000D01*
X116500000Y-45000000D02*
X136500000Y-45000000D01*
X143300000Y-85600000D02*
X143300000Y-81050000D01*
X143300000Y-81050000D02*
X143071000Y-80821300D01*
X133071000Y-80821300D02*
X123071000Y-80821300D01*
X133300000Y-85600000D02*
X133300000Y-81050000D01*
X133300000Y-81050000D02*
X133071000Y-80821300D01*
X123071000Y-80821300D02*
X113179000Y-80821300D01*
X123300000Y-85600000D02*
X123300000Y-81050000D01*
X123300000Y-81050000D02*
X123071000Y-80821300D01*
X113179000Y-80821300D02*
X104179000Y-80821300D01*
X104179000Y-80821300D02*
X103300000Y-81700000D01*
X103300000Y-81700000D02*
X103300000Y-85600000D01*
X113300000Y-85600000D02*
X113300000Y-80942600D01*
X113300000Y-80942600D02*
X113179000Y-80821300D01*
X153300000Y-80821300D02*
X158500000Y-75621300D01*
X158500000Y-75621300D02*
X159379000Y-75621300D01*
X159379000Y-75621300D02*
X160000000Y-75000000D01*
X160000000Y-75000000D02*
X163250000Y-75000000D01*
X163250000Y-75000000D02*
X163500000Y-75250000D01*
X153300000Y-85600000D02*
X153300000Y-80821300D01*
X163500000Y-75250000D02*
X163500000Y-45100000D01*
X163500000Y-45100000D02*
X163600000Y-45000000D01*
X163600000Y-45000000D02*
X167400000Y-41200000D01*
X158300000Y-59100000D02*
X158300000Y-58650000D01*
X158300000Y-58650000D02*
X156500000Y-56850000D01*
X156500000Y-56850000D02*
X156500000Y-45000000D01*
X138300000Y-59100000D02*
X138300000Y-58650000D01*
X138300000Y-58650000D02*
X136500000Y-56850000D01*
X136500000Y-56850000D02*
X136500000Y-45000000D01*
X118300000Y-59100000D02*
X118300000Y-58650000D01*
X118300000Y-58650000D02*
X116500000Y-56850000D01*
X116500000Y-56850000D02*
X116500000Y-45000000D01*
X109325000Y-41200000D02*
X109200000Y-41200000D01*
D17*
X111700000Y-65300300D02*
X111700000Y-65554800D01*
X111700000Y-63900000D02*
X111700000Y-65300300D01*
X116700000Y-83940200D02*
X116700000Y-85600000D01*
X110000000Y-65300300D02*
X110000000Y-65570700D01*
X110000000Y-63900000D02*
X110000000Y-65300300D01*
X115000000Y-83921000D02*
X115000000Y-85600000D01*
X120000000Y-60500300D02*
X120000000Y-60784600D01*
X120000000Y-59100000D02*
X120000000Y-60500300D01*
X115000000Y-88746000D02*
X115000000Y-90400000D01*
X121700000Y-59100000D02*
X121700000Y-60500300D01*
X121700000Y-60500300D02*
X121762100Y-60562400D01*
X121762100Y-60562400D02*
X121762100Y-60794400D01*
X116700000Y-88739700D02*
X116700000Y-90400000D01*
X121700000Y-62499700D02*
X121700000Y-62247800D01*
X121700000Y-63900000D02*
X121700000Y-62499700D01*
X126700000Y-84199700D02*
X126700000Y-83939200D01*
X126700000Y-85600000D02*
X126700000Y-84199700D01*
X120000000Y-65300300D02*
X120554600Y-65854900D01*
X120000000Y-63900000D02*
X120000000Y-65300300D01*
X125000000Y-83945700D02*
X125000000Y-85600000D01*
X135000000Y-87000300D02*
X134912000Y-87000300D01*
X134912000Y-87000300D02*
X134647700Y-87264600D01*
X135000000Y-85600000D02*
X135000000Y-87000300D01*
X125000000Y-88699500D02*
X125000000Y-90400000D01*
X136700000Y-85600000D02*
X136700000Y-87264800D01*
X126700000Y-88730400D02*
X126700000Y-90400000D01*
X136700000Y-88999700D02*
X137711800Y-88999700D01*
X137711800Y-88999700D02*
X137761700Y-88949800D01*
X136700000Y-90400000D02*
X136700000Y-88999700D01*
X141700000Y-60779200D02*
X141700000Y-59100000D01*
X135000000Y-90400000D02*
X135000000Y-88999700D01*
X135000000Y-88999700D02*
X134741100Y-88740800D01*
X134741100Y-88740800D02*
X134741100Y-88667900D01*
X140225000Y-57423500D02*
X140000000Y-57648500D01*
X140000000Y-57648500D02*
X140000000Y-59100000D01*
X145000000Y-85600000D02*
X145000000Y-84199700D01*
X145000000Y-84199700D02*
X144964000Y-84163700D01*
X144964000Y-84163700D02*
X144964000Y-83943700D01*
X140000000Y-65557900D02*
X140000000Y-63900000D01*
X146700000Y-84199700D02*
X146700000Y-83919200D01*
X146700000Y-85600000D02*
X146700000Y-84199700D01*
X141700000Y-65300300D02*
X141700000Y-65559000D01*
X141700000Y-63900000D02*
X141700000Y-65300300D01*
X146700000Y-88999700D02*
X146700000Y-88746100D01*
X146700000Y-90400000D02*
X146700000Y-88999700D01*
X151700000Y-59100000D02*
X151700000Y-57423500D01*
X145000000Y-90400000D02*
X145000000Y-88999700D01*
X145000000Y-88999700D02*
X145075000Y-88924700D01*
X145075000Y-88924700D02*
X145075000Y-88696000D01*
X150000000Y-59100000D02*
X150000000Y-57423500D01*
X155000000Y-85600000D02*
X155000000Y-84199700D01*
X155000000Y-84199700D02*
X155162500Y-84037200D01*
X155162500Y-84037200D02*
X155162500Y-82752200D01*
X150000000Y-65553700D02*
X150000000Y-63900000D01*
X156700000Y-84199700D02*
X155975000Y-83474700D01*
X156700000Y-85600000D02*
X156700000Y-84199700D01*
X151700000Y-65555200D02*
X151700000Y-63900000D01*
X156700000Y-88999700D02*
X156700000Y-88719100D01*
X156700000Y-90400000D02*
X156700000Y-88999700D01*
X161700000Y-60751600D02*
X161700000Y-59100000D01*
X155000000Y-90400000D02*
X155000000Y-88734900D01*
X160000000Y-57425500D02*
X160000000Y-59100000D01*
X165000000Y-85600000D02*
X165000000Y-84199700D01*
X165000000Y-84199700D02*
X165025000Y-84174700D01*
X165025000Y-84174700D02*
X165025000Y-83904900D01*
X160000000Y-65576700D02*
X160000000Y-63900000D01*
X166700000Y-84199700D02*
X166700000Y-83921100D01*
X166700000Y-85600000D02*
X166700000Y-84199700D01*
X161700000Y-65550600D02*
X161700000Y-63900000D01*
X166700000Y-88746000D02*
X166700000Y-90400000D01*
X166700000Y-88746000D02*
X167754000Y-88746000D01*
X168149999Y-36949999D02*
X167400000Y-36200000D01*
X168800001Y-37600001D02*
X168149999Y-36949999D01*
X168800001Y-87699999D02*
X168800001Y-37600001D01*
X167754000Y-88746000D02*
X168800001Y-87699999D01*
X166600000Y-87500000D02*
X166750000Y-87500000D01*
X165000000Y-90400000D02*
X165000000Y-89100000D01*
X165000000Y-89100000D02*
X166600000Y-87500000D01*
M02*
