G04 #@! TF.GenerationSoftware,KiCad,Pcbnew,(5.1.0)-1*
G04 #@! TF.CreationDate,2019-08-05T10:11:54+09:00*
G04 #@! TF.ProjectId,APA102,41504131-3032-42e6-9b69-6361645f7063,rev?*
G04 #@! TF.SameCoordinates,Original*
G04 #@! TF.FileFunction,Other,Fab,Top*
%FSLAX46Y46*%
G04 Gerber Fmt 4.6, Leading zero omitted, Abs format (unit mm)*
G04 Created by KiCad (PCBNEW (5.1.0)-1) date 2019-08-05 10:11:54*
%MOMM*%
%LPD*%
G04 APERTURE LIST*
%ADD10C,0.150000*%
%ADD11C,0.100000*%
%ADD12C,0.200000*%
%ADD13C,0.060000*%
%ADD14C,0.254000*%
G04 APERTURE END LIST*
D10*
X180752380Y-66166666D02*
X180752380Y-66357142D01*
X180800000Y-66452380D01*
X180847619Y-66500000D01*
X180990476Y-66595238D01*
X181180952Y-66642857D01*
X181561904Y-66642857D01*
X181657142Y-66595238D01*
X181704761Y-66547619D01*
X181752380Y-66452380D01*
X181752380Y-66261904D01*
X181704761Y-66166666D01*
X181657142Y-66119047D01*
X181561904Y-66071428D01*
X181323809Y-66071428D01*
X181228571Y-66119047D01*
X181180952Y-66166666D01*
X181133333Y-66261904D01*
X181133333Y-66452380D01*
X181180952Y-66547619D01*
X181228571Y-66595238D01*
X181323809Y-66642857D01*
X180752380Y-65166666D02*
X180752380Y-65642857D01*
X181228571Y-65690476D01*
X181180952Y-65642857D01*
X181133333Y-65547619D01*
X181133333Y-65309523D01*
X181180952Y-65214285D01*
X181228571Y-65166666D01*
X181323809Y-65119047D01*
X181561904Y-65119047D01*
X181657142Y-65166666D01*
X181704761Y-65214285D01*
X181752380Y-65309523D01*
X181752380Y-65547619D01*
X181704761Y-65642857D01*
X181657142Y-65690476D01*
X181657142Y-64690476D02*
X181704761Y-64642857D01*
X181752380Y-64690476D01*
X181704761Y-64738095D01*
X181657142Y-64690476D01*
X181752380Y-64690476D01*
X180752380Y-64023809D02*
X180752380Y-63928571D01*
X180800000Y-63833333D01*
X180847619Y-63785714D01*
X180942857Y-63738095D01*
X181133333Y-63690476D01*
X181371428Y-63690476D01*
X181561904Y-63738095D01*
X181657142Y-63785714D01*
X181704761Y-63833333D01*
X181752380Y-63928571D01*
X181752380Y-64023809D01*
X181704761Y-64119047D01*
X181657142Y-64166666D01*
X181561904Y-64214285D01*
X181371428Y-64261904D01*
X181133333Y-64261904D01*
X180942857Y-64214285D01*
X180847619Y-64166666D01*
X180800000Y-64119047D01*
X180752380Y-64023809D01*
X180752380Y-63071428D02*
X180752380Y-62976190D01*
X180800000Y-62880952D01*
X180847619Y-62833333D01*
X180942857Y-62785714D01*
X181133333Y-62738095D01*
X181371428Y-62738095D01*
X181561904Y-62785714D01*
X181657142Y-62833333D01*
X181704761Y-62880952D01*
X181752380Y-62976190D01*
X181752380Y-63071428D01*
X181704761Y-63166666D01*
X181657142Y-63214285D01*
X181561904Y-63261904D01*
X181371428Y-63309523D01*
X181133333Y-63309523D01*
X180942857Y-63261904D01*
X180847619Y-63214285D01*
X180800000Y-63166666D01*
X180752380Y-63071428D01*
X180752380Y-62119047D02*
X180752380Y-62023809D01*
X180800000Y-61928571D01*
X180847619Y-61880952D01*
X180942857Y-61833333D01*
X181133333Y-61785714D01*
X181371428Y-61785714D01*
X181561904Y-61833333D01*
X181657142Y-61880952D01*
X181704761Y-61928571D01*
X181752380Y-62023809D01*
X181752380Y-62119047D01*
X181704761Y-62214285D01*
X181657142Y-62261904D01*
X181561904Y-62309523D01*
X181371428Y-62357142D01*
X181133333Y-62357142D01*
X180942857Y-62309523D01*
X180847619Y-62261904D01*
X180800000Y-62214285D01*
X180752380Y-62119047D01*
X181752380Y-60595238D02*
X181085714Y-60595238D01*
X181180952Y-60595238D02*
X181133333Y-60547619D01*
X181085714Y-60452380D01*
X181085714Y-60309523D01*
X181133333Y-60214285D01*
X181228571Y-60166666D01*
X181752380Y-60166666D01*
X181228571Y-60166666D02*
X181133333Y-60119047D01*
X181085714Y-60023809D01*
X181085714Y-59880952D01*
X181133333Y-59785714D01*
X181228571Y-59738095D01*
X181752380Y-59738095D01*
X181752380Y-59261904D02*
X181085714Y-59261904D01*
X181180952Y-59261904D02*
X181133333Y-59214285D01*
X181085714Y-59119047D01*
X181085714Y-58976190D01*
X181133333Y-58880952D01*
X181228571Y-58833333D01*
X181752380Y-58833333D01*
X181228571Y-58833333D02*
X181133333Y-58785714D01*
X181085714Y-58690476D01*
X181085714Y-58547619D01*
X181133333Y-58452380D01*
X181228571Y-58404761D01*
X181752380Y-58404761D01*
X180000000Y-95000000D02*
X180000000Y-30000000D01*
X169000000Y-95000000D02*
X180586421Y-95000000D01*
X169000000Y-30000000D02*
X180586421Y-30000000D01*
X180000000Y-30000000D02*
X180586421Y-31126504D01*
X180000000Y-30000000D02*
X179413579Y-31126504D01*
X180000000Y-95000000D02*
X180586421Y-93873496D01*
X180000000Y-95000000D02*
X179413579Y-93873496D01*
X130809523Y-100752379D02*
X131476190Y-100752379D01*
X131047619Y-101752379D01*
X132047619Y-100752379D02*
X132142857Y-100752379D01*
X132238095Y-100799999D01*
X132285714Y-100847618D01*
X132333333Y-100942856D01*
X132380952Y-101133332D01*
X132380952Y-101371427D01*
X132333333Y-101561903D01*
X132285714Y-101657141D01*
X132238095Y-101704760D01*
X132142857Y-101752379D01*
X132047619Y-101752379D01*
X131952380Y-101704760D01*
X131904761Y-101657141D01*
X131857142Y-101561903D01*
X131809523Y-101371427D01*
X131809523Y-101133332D01*
X131857142Y-100942856D01*
X131904761Y-100847618D01*
X131952380Y-100799999D01*
X132047619Y-100752379D01*
X132809523Y-101657141D02*
X132857142Y-101704760D01*
X132809523Y-101752379D01*
X132761904Y-101704760D01*
X132809523Y-101657141D01*
X132809523Y-101752379D01*
X133476190Y-100752379D02*
X133571428Y-100752379D01*
X133666666Y-100799999D01*
X133714285Y-100847618D01*
X133761904Y-100942856D01*
X133809523Y-101133332D01*
X133809523Y-101371427D01*
X133761904Y-101561903D01*
X133714285Y-101657141D01*
X133666666Y-101704760D01*
X133571428Y-101752379D01*
X133476190Y-101752379D01*
X133380952Y-101704760D01*
X133333333Y-101657141D01*
X133285714Y-101561903D01*
X133238095Y-101371427D01*
X133238095Y-101133332D01*
X133285714Y-100942856D01*
X133333333Y-100847618D01*
X133380952Y-100799999D01*
X133476190Y-100752379D01*
X134428571Y-100752379D02*
X134523809Y-100752379D01*
X134619047Y-100799999D01*
X134666666Y-100847618D01*
X134714285Y-100942856D01*
X134761904Y-101133332D01*
X134761904Y-101371427D01*
X134714285Y-101561903D01*
X134666666Y-101657141D01*
X134619047Y-101704760D01*
X134523809Y-101752379D01*
X134428571Y-101752379D01*
X134333333Y-101704760D01*
X134285714Y-101657141D01*
X134238095Y-101561903D01*
X134190476Y-101371427D01*
X134190476Y-101133332D01*
X134238095Y-100942856D01*
X134285714Y-100847618D01*
X134333333Y-100799999D01*
X134428571Y-100752379D01*
X135380952Y-100752379D02*
X135476190Y-100752379D01*
X135571428Y-100799999D01*
X135619047Y-100847618D01*
X135666666Y-100942856D01*
X135714285Y-101133332D01*
X135714285Y-101371427D01*
X135666666Y-101561903D01*
X135619047Y-101657141D01*
X135571428Y-101704760D01*
X135476190Y-101752379D01*
X135380952Y-101752379D01*
X135285714Y-101704760D01*
X135238095Y-101657141D01*
X135190476Y-101561903D01*
X135142857Y-101371427D01*
X135142857Y-101133332D01*
X135190476Y-100942856D01*
X135238095Y-100847618D01*
X135285714Y-100799999D01*
X135380952Y-100752379D01*
X136904761Y-101752379D02*
X136904761Y-101085713D01*
X136904761Y-101180951D02*
X136952380Y-101133332D01*
X137047619Y-101085713D01*
X137190476Y-101085713D01*
X137285714Y-101133332D01*
X137333333Y-101228570D01*
X137333333Y-101752379D01*
X137333333Y-101228570D02*
X137380952Y-101133332D01*
X137476190Y-101085713D01*
X137619047Y-101085713D01*
X137714285Y-101133332D01*
X137761904Y-101228570D01*
X137761904Y-101752379D01*
X138238095Y-101752379D02*
X138238095Y-101085713D01*
X138238095Y-101180951D02*
X138285714Y-101133332D01*
X138380952Y-101085713D01*
X138523809Y-101085713D01*
X138619047Y-101133332D01*
X138666666Y-101228570D01*
X138666666Y-101752379D01*
X138666666Y-101228570D02*
X138714285Y-101133332D01*
X138809523Y-101085713D01*
X138952380Y-101085713D01*
X139047619Y-101133332D01*
X139095238Y-101228570D01*
X139095238Y-101752379D01*
X100000000Y-99999999D02*
X170000000Y-99999999D01*
X100000000Y-95000000D02*
X100000000Y-100586420D01*
X170000000Y-95000000D02*
X170000000Y-100586420D01*
X170000000Y-99999999D02*
X168873496Y-100586420D01*
X170000000Y-99999999D02*
X168873496Y-99413578D01*
X100000000Y-99999999D02*
X101126504Y-100586420D01*
X100000000Y-99999999D02*
X101126504Y-99413578D01*
D11*
X100000000Y-37450000D02*
X100000000Y-31250000D01*
X100000000Y-31250000D02*
X111500000Y-31250000D01*
X111500000Y-31250000D02*
X111500000Y-32450000D01*
X111500000Y-32450000D02*
X107000000Y-32450000D01*
X107000000Y-32450000D02*
X107000000Y-37450000D01*
X100000000Y-37450000D02*
X100000000Y-43650000D01*
X100000000Y-43650000D02*
X111500000Y-43650000D01*
X111500000Y-43650000D02*
X111500000Y-42450000D01*
X111500000Y-42450000D02*
X107000000Y-42450000D01*
X107000000Y-42450000D02*
X107000000Y-37450000D01*
X107000000Y-33075000D02*
X108000000Y-33700000D01*
X108000000Y-33700000D02*
X107000000Y-34325000D01*
X103100000Y-90500000D02*
X102500000Y-89900000D01*
X102500000Y-85500000D02*
X102500000Y-90500000D01*
X107500000Y-85500000D02*
X102500000Y-85500000D01*
X107500000Y-90500000D02*
X107500000Y-85500000D01*
X102500000Y-90500000D02*
X107500000Y-90500000D01*
X106900000Y-88000000D02*
G75*
G03X106900000Y-88000000I-1900000J0D01*
G01*
X111900000Y-61500000D02*
G75*
G03X111900000Y-61500000I-1900000J0D01*
G01*
X107500000Y-64000000D02*
X112500000Y-64000000D01*
X112500000Y-64000000D02*
X112500000Y-59000000D01*
X112500000Y-59000000D02*
X107500000Y-59000000D01*
X107500000Y-59000000D02*
X107500000Y-64000000D01*
X108100000Y-64000000D02*
X107500000Y-63400000D01*
X113100000Y-90500000D02*
X112500000Y-89900000D01*
X112500000Y-85500000D02*
X112500000Y-90500000D01*
X117500000Y-85500000D02*
X112500000Y-85500000D01*
X117500000Y-90500000D02*
X117500000Y-85500000D01*
X112500000Y-90500000D02*
X117500000Y-90500000D01*
X116900000Y-88000000D02*
G75*
G03X116900000Y-88000000I-1900000J0D01*
G01*
X121900000Y-61500000D02*
G75*
G03X121900000Y-61500000I-1900000J0D01*
G01*
X117500000Y-64000000D02*
X122500000Y-64000000D01*
X122500000Y-64000000D02*
X122500000Y-59000000D01*
X122500000Y-59000000D02*
X117500000Y-59000000D01*
X117500000Y-59000000D02*
X117500000Y-64000000D01*
X118100000Y-64000000D02*
X117500000Y-63400000D01*
X123100000Y-90500000D02*
X122500000Y-89900000D01*
X122500000Y-85500000D02*
X122500000Y-90500000D01*
X127500000Y-85500000D02*
X122500000Y-85500000D01*
X127500000Y-90500000D02*
X127500000Y-85500000D01*
X122500000Y-90500000D02*
X127500000Y-90500000D01*
X126900000Y-88000000D02*
G75*
G03X126900000Y-88000000I-1900000J0D01*
G01*
X136900000Y-88000000D02*
G75*
G03X136900000Y-88000000I-1900000J0D01*
G01*
X132500000Y-90500000D02*
X137500000Y-90500000D01*
X137500000Y-90500000D02*
X137500000Y-85500000D01*
X137500000Y-85500000D02*
X132500000Y-85500000D01*
X132500000Y-85500000D02*
X132500000Y-90500000D01*
X133100000Y-90500000D02*
X132500000Y-89900000D01*
X138100000Y-64000000D02*
X137500000Y-63400000D01*
X137500000Y-59000000D02*
X137500000Y-64000000D01*
X142500000Y-59000000D02*
X137500000Y-59000000D01*
X142500000Y-64000000D02*
X142500000Y-59000000D01*
X137500000Y-64000000D02*
X142500000Y-64000000D01*
X141900000Y-61500000D02*
G75*
G03X141900000Y-61500000I-1900000J0D01*
G01*
X146900000Y-88000000D02*
G75*
G03X146900000Y-88000000I-1900000J0D01*
G01*
X142500000Y-90500000D02*
X147500000Y-90500000D01*
X147500000Y-90500000D02*
X147500000Y-85500000D01*
X147500000Y-85500000D02*
X142500000Y-85500000D01*
X142500000Y-85500000D02*
X142500000Y-90500000D01*
X143100000Y-90500000D02*
X142500000Y-89900000D01*
X148100000Y-64000000D02*
X147500000Y-63400000D01*
X147500000Y-59000000D02*
X147500000Y-64000000D01*
X152500000Y-59000000D02*
X147500000Y-59000000D01*
X152500000Y-64000000D02*
X152500000Y-59000000D01*
X147500000Y-64000000D02*
X152500000Y-64000000D01*
X151900000Y-61500000D02*
G75*
G03X151900000Y-61500000I-1900000J0D01*
G01*
X156900000Y-88000000D02*
G75*
G03X156900000Y-88000000I-1900000J0D01*
G01*
X152500000Y-90500000D02*
X157500000Y-90500000D01*
X157500000Y-90500000D02*
X157500000Y-85500000D01*
X157500000Y-85500000D02*
X152500000Y-85500000D01*
X152500000Y-85500000D02*
X152500000Y-90500000D01*
X153100000Y-90500000D02*
X152500000Y-89900000D01*
X158100000Y-64000000D02*
X157500000Y-63400000D01*
X157500000Y-59000000D02*
X157500000Y-64000000D01*
X162500000Y-59000000D02*
X157500000Y-59000000D01*
X162500000Y-64000000D02*
X162500000Y-59000000D01*
X157500000Y-64000000D02*
X162500000Y-64000000D01*
X161900000Y-61500000D02*
G75*
G03X161900000Y-61500000I-1900000J0D01*
G01*
X166900000Y-88000000D02*
G75*
G03X166900000Y-88000000I-1900000J0D01*
G01*
X162500000Y-90500000D02*
X167500000Y-90500000D01*
X167500000Y-90500000D02*
X167500000Y-85500000D01*
X167500000Y-85500000D02*
X162500000Y-85500000D01*
X162500000Y-85500000D02*
X162500000Y-90500000D01*
X163100000Y-90500000D02*
X162500000Y-89900000D01*
D12*
X165200000Y-43700000D02*
X165200000Y-31200000D01*
X165200000Y-31200000D02*
X170000000Y-31200000D01*
X170000000Y-31200000D02*
X170000000Y-43700000D01*
X170000000Y-43700000D02*
X165200000Y-43700000D01*
X170000000Y-42800000D02*
X174700000Y-42800000D01*
X174700000Y-42800000D02*
X174700000Y-32100000D01*
X174700000Y-32100000D02*
X170000000Y-32100000D01*
D10*
X126880952Y-25952380D02*
X126880952Y-24952380D01*
X127214285Y-25666666D01*
X127547619Y-24952380D01*
X127547619Y-25952380D01*
X128166666Y-25952380D02*
X128071428Y-25904761D01*
X128023809Y-25857142D01*
X127976190Y-25761904D01*
X127976190Y-25476190D01*
X128023809Y-25380952D01*
X128071428Y-25333333D01*
X128166666Y-25285714D01*
X128309523Y-25285714D01*
X128404761Y-25333333D01*
X128452380Y-25380952D01*
X128499999Y-25476190D01*
X128499999Y-25761904D01*
X128452380Y-25857142D01*
X128404761Y-25904761D01*
X128309523Y-25952380D01*
X128166666Y-25952380D01*
X129357142Y-25285714D02*
X129357142Y-25952380D01*
X128928571Y-25285714D02*
X128928571Y-25809523D01*
X128976190Y-25904761D01*
X129071428Y-25952380D01*
X129214285Y-25952380D01*
X129309523Y-25904761D01*
X129357142Y-25857142D01*
X129833333Y-25285714D02*
X129833333Y-25952380D01*
X129833333Y-25380952D02*
X129880952Y-25333333D01*
X129976190Y-25285714D01*
X130119047Y-25285714D01*
X130214285Y-25333333D01*
X130261904Y-25428571D01*
X130261904Y-25952380D01*
X130595238Y-25285714D02*
X130976190Y-25285714D01*
X130738095Y-24952380D02*
X130738095Y-25809523D01*
X130785714Y-25904761D01*
X130880952Y-25952380D01*
X130976190Y-25952380D01*
X131309523Y-25952380D02*
X131309523Y-25285714D01*
X131309523Y-24952380D02*
X131261904Y-25000000D01*
X131309523Y-25047619D01*
X131357142Y-25000000D01*
X131309523Y-24952380D01*
X131309523Y-25047619D01*
X131785714Y-25285714D02*
X131785714Y-25952380D01*
X131785714Y-25380952D02*
X131833333Y-25333333D01*
X131928571Y-25285714D01*
X132071428Y-25285714D01*
X132166666Y-25333333D01*
X132214285Y-25428571D01*
X132214285Y-25952380D01*
X133119047Y-25285714D02*
X133119047Y-26095238D01*
X133071428Y-26190476D01*
X133023809Y-26238095D01*
X132928571Y-26285714D01*
X132785714Y-26285714D01*
X132690476Y-26238095D01*
X133119047Y-25904761D02*
X133023809Y-25952380D01*
X132833333Y-25952380D01*
X132738095Y-25904761D01*
X132690476Y-25857142D01*
X132642857Y-25761904D01*
X132642857Y-25476190D01*
X132690476Y-25380952D01*
X132738095Y-25333333D01*
X132833333Y-25285714D01*
X133023809Y-25285714D01*
X133119047Y-25333333D01*
X133595238Y-25952380D02*
X133595238Y-24952380D01*
X133595238Y-25428571D02*
X134166666Y-25428571D01*
X134166666Y-25952380D02*
X134166666Y-24952380D01*
X134785714Y-25952380D02*
X134690476Y-25904761D01*
X134642857Y-25857142D01*
X134595238Y-25761904D01*
X134595238Y-25476190D01*
X134642857Y-25380952D01*
X134690476Y-25333333D01*
X134785714Y-25285714D01*
X134928571Y-25285714D01*
X135023809Y-25333333D01*
X135071428Y-25380952D01*
X135119047Y-25476190D01*
X135119047Y-25761904D01*
X135071428Y-25857142D01*
X135023809Y-25904761D01*
X134928571Y-25952380D01*
X134785714Y-25952380D01*
X135690476Y-25952380D02*
X135595238Y-25904761D01*
X135547619Y-25809523D01*
X135547619Y-24952380D01*
X136452380Y-25904761D02*
X136357142Y-25952380D01*
X136166666Y-25952380D01*
X136071428Y-25904761D01*
X136023809Y-25809523D01*
X136023809Y-25428571D01*
X136071428Y-25333333D01*
X136166666Y-25285714D01*
X136357142Y-25285714D01*
X136452380Y-25333333D01*
X136500000Y-25428571D01*
X136500000Y-25523809D01*
X136023809Y-25619047D01*
X136690476Y-26047619D02*
X137452380Y-26047619D01*
X137595238Y-24952380D02*
X138214285Y-24952380D01*
X137880952Y-25333333D01*
X138023809Y-25333333D01*
X138119047Y-25380952D01*
X138166666Y-25428571D01*
X138214285Y-25523809D01*
X138214285Y-25761904D01*
X138166666Y-25857142D01*
X138119047Y-25904761D01*
X138023809Y-25952380D01*
X137738095Y-25952380D01*
X137642857Y-25904761D01*
X137595238Y-25857142D01*
X138642857Y-25857142D02*
X138690476Y-25904761D01*
X138642857Y-25952380D01*
X138595238Y-25904761D01*
X138642857Y-25857142D01*
X138642857Y-25952380D01*
X139071428Y-25047619D02*
X139119047Y-25000000D01*
X139214285Y-24952380D01*
X139452380Y-24952380D01*
X139547619Y-25000000D01*
X139595238Y-25047619D01*
X139642857Y-25142857D01*
X139642857Y-25238095D01*
X139595238Y-25380952D01*
X139023809Y-25952380D01*
X139642857Y-25952380D01*
X140071428Y-25952380D02*
X140071428Y-25285714D01*
X140071428Y-25380952D02*
X140119047Y-25333333D01*
X140214285Y-25285714D01*
X140357142Y-25285714D01*
X140452380Y-25333333D01*
X140500000Y-25428571D01*
X140500000Y-25952380D01*
X140500000Y-25428571D02*
X140547619Y-25333333D01*
X140642857Y-25285714D01*
X140785714Y-25285714D01*
X140880952Y-25333333D01*
X140928571Y-25428571D01*
X140928571Y-25952380D01*
X141404761Y-25952380D02*
X141404761Y-25285714D01*
X141404761Y-25380952D02*
X141452380Y-25333333D01*
X141547619Y-25285714D01*
X141690476Y-25285714D01*
X141785714Y-25333333D01*
X141833333Y-25428571D01*
X141833333Y-25952380D01*
X141833333Y-25428571D02*
X141880952Y-25333333D01*
X141976190Y-25285714D01*
X142119047Y-25285714D01*
X142214285Y-25333333D01*
X142261904Y-25428571D01*
X142261904Y-25952380D01*
X142500000Y-26047619D02*
X143261904Y-26047619D01*
X143500000Y-25952380D02*
X143500000Y-24952380D01*
X143833333Y-25666666D01*
X144166666Y-24952380D01*
X144166666Y-25952380D01*
X144547619Y-24952380D02*
X145166666Y-24952380D01*
X144833333Y-25333333D01*
X144976190Y-25333333D01*
X145071428Y-25380952D01*
X145119047Y-25428571D01*
X145166666Y-25523809D01*
X145166666Y-25761904D01*
X145119047Y-25857142D01*
X145071428Y-25904761D01*
X144976190Y-25952380D01*
X144690476Y-25952380D01*
X144595238Y-25904761D01*
X144547619Y-25857142D01*
X133738095Y-27952380D02*
X133738095Y-26952380D01*
X134071428Y-27666666D01*
X134404761Y-26952380D01*
X134404761Y-27952380D01*
X134785714Y-26952380D02*
X135404761Y-26952380D01*
X135071428Y-27333333D01*
X135214285Y-27333333D01*
X135309523Y-27380952D01*
X135357142Y-27428571D01*
X135404761Y-27523809D01*
X135404761Y-27761904D01*
X135357142Y-27857142D01*
X135309523Y-27904761D01*
X135214285Y-27952380D01*
X134928571Y-27952380D01*
X134833333Y-27904761D01*
X134785714Y-27857142D01*
X135833333Y-27952380D02*
X135833333Y-26952380D01*
X135833333Y-27333333D02*
X135928571Y-27285714D01*
X136119047Y-27285714D01*
X136214285Y-27333333D01*
X136261904Y-27380952D01*
X136309523Y-27476190D01*
X136309523Y-27761904D01*
X136261904Y-27857142D01*
X136214285Y-27904761D01*
X136119047Y-27952380D01*
X135928571Y-27952380D01*
X135833333Y-27904761D01*
X116880952Y-25952380D02*
X116880952Y-24952380D01*
X117214285Y-25666666D01*
X117547619Y-24952380D01*
X117547619Y-25952380D01*
X118166666Y-25952380D02*
X118071428Y-25904761D01*
X118023809Y-25857142D01*
X117976190Y-25761904D01*
X117976190Y-25476190D01*
X118023809Y-25380952D01*
X118071428Y-25333333D01*
X118166666Y-25285714D01*
X118309523Y-25285714D01*
X118404761Y-25333333D01*
X118452380Y-25380952D01*
X118499999Y-25476190D01*
X118499999Y-25761904D01*
X118452380Y-25857142D01*
X118404761Y-25904761D01*
X118309523Y-25952380D01*
X118166666Y-25952380D01*
X119357142Y-25285714D02*
X119357142Y-25952380D01*
X118928571Y-25285714D02*
X118928571Y-25809523D01*
X118976190Y-25904761D01*
X119071428Y-25952380D01*
X119214285Y-25952380D01*
X119309523Y-25904761D01*
X119357142Y-25857142D01*
X119833333Y-25285714D02*
X119833333Y-25952380D01*
X119833333Y-25380952D02*
X119880952Y-25333333D01*
X119976190Y-25285714D01*
X120119047Y-25285714D01*
X120214285Y-25333333D01*
X120261904Y-25428571D01*
X120261904Y-25952380D01*
X120595238Y-25285714D02*
X120976190Y-25285714D01*
X120738095Y-24952380D02*
X120738095Y-25809523D01*
X120785714Y-25904761D01*
X120880952Y-25952380D01*
X120976190Y-25952380D01*
X121309523Y-25952380D02*
X121309523Y-25285714D01*
X121309523Y-24952380D02*
X121261904Y-25000000D01*
X121309523Y-25047619D01*
X121357142Y-25000000D01*
X121309523Y-24952380D01*
X121309523Y-25047619D01*
X121785714Y-25285714D02*
X121785714Y-25952380D01*
X121785714Y-25380952D02*
X121833333Y-25333333D01*
X121928571Y-25285714D01*
X122071428Y-25285714D01*
X122166666Y-25333333D01*
X122214285Y-25428571D01*
X122214285Y-25952380D01*
X123119047Y-25285714D02*
X123119047Y-26095238D01*
X123071428Y-26190476D01*
X123023809Y-26238095D01*
X122928571Y-26285714D01*
X122785714Y-26285714D01*
X122690476Y-26238095D01*
X123119047Y-25904761D02*
X123023809Y-25952380D01*
X122833333Y-25952380D01*
X122738095Y-25904761D01*
X122690476Y-25857142D01*
X122642857Y-25761904D01*
X122642857Y-25476190D01*
X122690476Y-25380952D01*
X122738095Y-25333333D01*
X122833333Y-25285714D01*
X123023809Y-25285714D01*
X123119047Y-25333333D01*
X123595238Y-25952380D02*
X123595238Y-24952380D01*
X123595238Y-25428571D02*
X124166666Y-25428571D01*
X124166666Y-25952380D02*
X124166666Y-24952380D01*
X124785714Y-25952380D02*
X124690476Y-25904761D01*
X124642857Y-25857142D01*
X124595238Y-25761904D01*
X124595238Y-25476190D01*
X124642857Y-25380952D01*
X124690476Y-25333333D01*
X124785714Y-25285714D01*
X124928571Y-25285714D01*
X125023809Y-25333333D01*
X125071428Y-25380952D01*
X125119047Y-25476190D01*
X125119047Y-25761904D01*
X125071428Y-25857142D01*
X125023809Y-25904761D01*
X124928571Y-25952380D01*
X124785714Y-25952380D01*
X125690476Y-25952380D02*
X125595238Y-25904761D01*
X125547619Y-25809523D01*
X125547619Y-24952380D01*
X126452380Y-25904761D02*
X126357142Y-25952380D01*
X126166666Y-25952380D01*
X126071428Y-25904761D01*
X126023809Y-25809523D01*
X126023809Y-25428571D01*
X126071428Y-25333333D01*
X126166666Y-25285714D01*
X126357142Y-25285714D01*
X126452380Y-25333333D01*
X126499999Y-25428571D01*
X126499999Y-25523809D01*
X126023809Y-25619047D01*
X126690476Y-26047619D02*
X127452380Y-26047619D01*
X127595238Y-24952380D02*
X128214285Y-24952380D01*
X127880952Y-25333333D01*
X128023809Y-25333333D01*
X128119047Y-25380952D01*
X128166666Y-25428571D01*
X128214285Y-25523809D01*
X128214285Y-25761904D01*
X128166666Y-25857142D01*
X128119047Y-25904761D01*
X128023809Y-25952380D01*
X127738095Y-25952380D01*
X127642857Y-25904761D01*
X127595238Y-25857142D01*
X128642857Y-25857142D02*
X128690476Y-25904761D01*
X128642857Y-25952380D01*
X128595238Y-25904761D01*
X128642857Y-25857142D01*
X128642857Y-25952380D01*
X129071428Y-25047619D02*
X129119047Y-25000000D01*
X129214285Y-24952380D01*
X129452380Y-24952380D01*
X129547619Y-25000000D01*
X129595238Y-25047619D01*
X129642857Y-25142857D01*
X129642857Y-25238095D01*
X129595238Y-25380952D01*
X129023809Y-25952380D01*
X129642857Y-25952380D01*
X130071428Y-25952380D02*
X130071428Y-25285714D01*
X130071428Y-25380952D02*
X130119047Y-25333333D01*
X130214285Y-25285714D01*
X130357142Y-25285714D01*
X130452380Y-25333333D01*
X130499999Y-25428571D01*
X130499999Y-25952380D01*
X130499999Y-25428571D02*
X130547619Y-25333333D01*
X130642857Y-25285714D01*
X130785714Y-25285714D01*
X130880952Y-25333333D01*
X130928571Y-25428571D01*
X130928571Y-25952380D01*
X131404761Y-25952380D02*
X131404761Y-25285714D01*
X131404761Y-25380952D02*
X131452380Y-25333333D01*
X131547619Y-25285714D01*
X131690476Y-25285714D01*
X131785714Y-25333333D01*
X131833333Y-25428571D01*
X131833333Y-25952380D01*
X131833333Y-25428571D02*
X131880952Y-25333333D01*
X131976190Y-25285714D01*
X132119047Y-25285714D01*
X132214285Y-25333333D01*
X132261904Y-25428571D01*
X132261904Y-25952380D01*
X132499999Y-26047619D02*
X133261904Y-26047619D01*
X133499999Y-25952380D02*
X133499999Y-24952380D01*
X133833333Y-25666666D01*
X134166666Y-24952380D01*
X134166666Y-25952380D01*
X134547619Y-24952380D02*
X135166666Y-24952380D01*
X134833333Y-25333333D01*
X134976190Y-25333333D01*
X135071428Y-25380952D01*
X135119047Y-25428571D01*
X135166666Y-25523809D01*
X135166666Y-25761904D01*
X135119047Y-25857142D01*
X135071428Y-25904761D01*
X134976190Y-25952380D01*
X134690476Y-25952380D01*
X134595238Y-25904761D01*
X134547619Y-25857142D01*
X123738095Y-27952380D02*
X123738095Y-26952380D01*
X124071428Y-27666666D01*
X124404761Y-26952380D01*
X124404761Y-27952380D01*
X124785714Y-26952380D02*
X125404761Y-26952380D01*
X125071428Y-27333333D01*
X125214285Y-27333333D01*
X125309523Y-27380952D01*
X125357142Y-27428571D01*
X125404761Y-27523809D01*
X125404761Y-27761904D01*
X125357142Y-27857142D01*
X125309523Y-27904761D01*
X125214285Y-27952380D01*
X124928571Y-27952380D01*
X124833333Y-27904761D01*
X124785714Y-27857142D01*
X126261904Y-27952380D02*
X126261904Y-27428571D01*
X126214285Y-27333333D01*
X126119047Y-27285714D01*
X125928571Y-27285714D01*
X125833333Y-27333333D01*
X126261904Y-27904761D02*
X126166666Y-27952380D01*
X125928571Y-27952380D01*
X125833333Y-27904761D01*
X125785714Y-27809523D01*
X125785714Y-27714285D01*
X125833333Y-27619047D01*
X125928571Y-27571428D01*
X126166666Y-27571428D01*
X126261904Y-27523809D01*
X135880952Y-25952380D02*
X135880952Y-24952380D01*
X136214285Y-25666666D01*
X136547619Y-24952380D01*
X136547619Y-25952380D01*
X137166666Y-25952380D02*
X137071428Y-25904761D01*
X137023809Y-25857142D01*
X136976190Y-25761904D01*
X136976190Y-25476190D01*
X137023809Y-25380952D01*
X137071428Y-25333333D01*
X137166666Y-25285714D01*
X137309523Y-25285714D01*
X137404761Y-25333333D01*
X137452380Y-25380952D01*
X137500000Y-25476190D01*
X137500000Y-25761904D01*
X137452380Y-25857142D01*
X137404761Y-25904761D01*
X137309523Y-25952380D01*
X137166666Y-25952380D01*
X138357142Y-25285714D02*
X138357142Y-25952380D01*
X137928571Y-25285714D02*
X137928571Y-25809523D01*
X137976190Y-25904761D01*
X138071428Y-25952380D01*
X138214285Y-25952380D01*
X138309523Y-25904761D01*
X138357142Y-25857142D01*
X138833333Y-25285714D02*
X138833333Y-25952380D01*
X138833333Y-25380952D02*
X138880952Y-25333333D01*
X138976190Y-25285714D01*
X139119047Y-25285714D01*
X139214285Y-25333333D01*
X139261904Y-25428571D01*
X139261904Y-25952380D01*
X139595238Y-25285714D02*
X139976190Y-25285714D01*
X139738095Y-24952380D02*
X139738095Y-25809523D01*
X139785714Y-25904761D01*
X139880952Y-25952380D01*
X139976190Y-25952380D01*
X140309523Y-25952380D02*
X140309523Y-25285714D01*
X140309523Y-24952380D02*
X140261904Y-25000000D01*
X140309523Y-25047619D01*
X140357142Y-25000000D01*
X140309523Y-24952380D01*
X140309523Y-25047619D01*
X140785714Y-25285714D02*
X140785714Y-25952380D01*
X140785714Y-25380952D02*
X140833333Y-25333333D01*
X140928571Y-25285714D01*
X141071428Y-25285714D01*
X141166666Y-25333333D01*
X141214285Y-25428571D01*
X141214285Y-25952380D01*
X142119047Y-25285714D02*
X142119047Y-26095238D01*
X142071428Y-26190476D01*
X142023809Y-26238095D01*
X141928571Y-26285714D01*
X141785714Y-26285714D01*
X141690476Y-26238095D01*
X142119047Y-25904761D02*
X142023809Y-25952380D01*
X141833333Y-25952380D01*
X141738095Y-25904761D01*
X141690476Y-25857142D01*
X141642857Y-25761904D01*
X141642857Y-25476190D01*
X141690476Y-25380952D01*
X141738095Y-25333333D01*
X141833333Y-25285714D01*
X142023809Y-25285714D01*
X142119047Y-25333333D01*
X142595238Y-25952380D02*
X142595238Y-24952380D01*
X142595238Y-25428571D02*
X143166666Y-25428571D01*
X143166666Y-25952380D02*
X143166666Y-24952380D01*
X143785714Y-25952380D02*
X143690476Y-25904761D01*
X143642857Y-25857142D01*
X143595238Y-25761904D01*
X143595238Y-25476190D01*
X143642857Y-25380952D01*
X143690476Y-25333333D01*
X143785714Y-25285714D01*
X143928571Y-25285714D01*
X144023809Y-25333333D01*
X144071428Y-25380952D01*
X144119047Y-25476190D01*
X144119047Y-25761904D01*
X144071428Y-25857142D01*
X144023809Y-25904761D01*
X143928571Y-25952380D01*
X143785714Y-25952380D01*
X144690476Y-25952380D02*
X144595238Y-25904761D01*
X144547619Y-25809523D01*
X144547619Y-24952380D01*
X145452380Y-25904761D02*
X145357142Y-25952380D01*
X145166666Y-25952380D01*
X145071428Y-25904761D01*
X145023809Y-25809523D01*
X145023809Y-25428571D01*
X145071428Y-25333333D01*
X145166666Y-25285714D01*
X145357142Y-25285714D01*
X145452380Y-25333333D01*
X145500000Y-25428571D01*
X145500000Y-25523809D01*
X145023809Y-25619047D01*
X145690476Y-26047619D02*
X146452380Y-26047619D01*
X146595238Y-24952380D02*
X147214285Y-24952380D01*
X146880952Y-25333333D01*
X147023809Y-25333333D01*
X147119047Y-25380952D01*
X147166666Y-25428571D01*
X147214285Y-25523809D01*
X147214285Y-25761904D01*
X147166666Y-25857142D01*
X147119047Y-25904761D01*
X147023809Y-25952380D01*
X146738095Y-25952380D01*
X146642857Y-25904761D01*
X146595238Y-25857142D01*
X147642857Y-25857142D02*
X147690476Y-25904761D01*
X147642857Y-25952380D01*
X147595238Y-25904761D01*
X147642857Y-25857142D01*
X147642857Y-25952380D01*
X148071428Y-25047619D02*
X148119047Y-25000000D01*
X148214285Y-24952380D01*
X148452380Y-24952380D01*
X148547619Y-25000000D01*
X148595238Y-25047619D01*
X148642857Y-25142857D01*
X148642857Y-25238095D01*
X148595238Y-25380952D01*
X148023809Y-25952380D01*
X148642857Y-25952380D01*
X149071428Y-25952380D02*
X149071428Y-25285714D01*
X149071428Y-25380952D02*
X149119047Y-25333333D01*
X149214285Y-25285714D01*
X149357142Y-25285714D01*
X149452380Y-25333333D01*
X149500000Y-25428571D01*
X149500000Y-25952380D01*
X149500000Y-25428571D02*
X149547619Y-25333333D01*
X149642857Y-25285714D01*
X149785714Y-25285714D01*
X149880952Y-25333333D01*
X149928571Y-25428571D01*
X149928571Y-25952380D01*
X150404761Y-25952380D02*
X150404761Y-25285714D01*
X150404761Y-25380952D02*
X150452380Y-25333333D01*
X150547619Y-25285714D01*
X150690476Y-25285714D01*
X150785714Y-25333333D01*
X150833333Y-25428571D01*
X150833333Y-25952380D01*
X150833333Y-25428571D02*
X150880952Y-25333333D01*
X150976190Y-25285714D01*
X151119047Y-25285714D01*
X151214285Y-25333333D01*
X151261904Y-25428571D01*
X151261904Y-25952380D01*
X151500000Y-26047619D02*
X152261904Y-26047619D01*
X152500000Y-25952380D02*
X152500000Y-24952380D01*
X152833333Y-25666666D01*
X153166666Y-24952380D01*
X153166666Y-25952380D01*
X153547619Y-24952380D02*
X154166666Y-24952380D01*
X153833333Y-25333333D01*
X153976190Y-25333333D01*
X154071428Y-25380952D01*
X154119047Y-25428571D01*
X154166666Y-25523809D01*
X154166666Y-25761904D01*
X154119047Y-25857142D01*
X154071428Y-25904761D01*
X153976190Y-25952380D01*
X153690476Y-25952380D01*
X153595238Y-25904761D01*
X153547619Y-25857142D01*
X143761904Y-27952380D02*
X143761904Y-26952380D01*
X144095238Y-27666666D01*
X144428571Y-26952380D01*
X144428571Y-27952380D01*
X144809523Y-26952380D02*
X145428571Y-26952380D01*
X145095238Y-27333333D01*
X145238095Y-27333333D01*
X145333333Y-27380952D01*
X145380952Y-27428571D01*
X145428571Y-27523809D01*
X145428571Y-27761904D01*
X145380952Y-27857142D01*
X145333333Y-27904761D01*
X145238095Y-27952380D01*
X144952380Y-27952380D01*
X144857142Y-27904761D01*
X144809523Y-27857142D01*
X146285714Y-27904761D02*
X146190476Y-27952380D01*
X146000000Y-27952380D01*
X145904761Y-27904761D01*
X145857142Y-27857142D01*
X145809523Y-27761904D01*
X145809523Y-27476190D01*
X145857142Y-27380952D01*
X145904761Y-27333333D01*
X146000000Y-27285714D01*
X146190476Y-27285714D01*
X146285714Y-27333333D01*
X99157142Y-44235714D02*
X99204761Y-44283333D01*
X99252380Y-44426190D01*
X99252380Y-44521428D01*
X99204761Y-44664285D01*
X99109523Y-44759523D01*
X99014285Y-44807142D01*
X98823809Y-44854761D01*
X98680952Y-44854761D01*
X98490476Y-44807142D01*
X98395238Y-44759523D01*
X98300000Y-44664285D01*
X98252380Y-44521428D01*
X98252380Y-44426190D01*
X98300000Y-44283333D01*
X98347619Y-44235714D01*
X99252380Y-43664285D02*
X99204761Y-43759523D01*
X99157142Y-43807142D01*
X99061904Y-43854761D01*
X98776190Y-43854761D01*
X98680952Y-43807142D01*
X98633333Y-43759523D01*
X98585714Y-43664285D01*
X98585714Y-43521428D01*
X98633333Y-43426190D01*
X98680952Y-43378571D01*
X98776190Y-43330952D01*
X99061904Y-43330952D01*
X99157142Y-43378571D01*
X99204761Y-43426190D01*
X99252380Y-43521428D01*
X99252380Y-43664285D01*
X98585714Y-42902380D02*
X99252380Y-42902380D01*
X98680952Y-42902380D02*
X98633333Y-42854761D01*
X98585714Y-42759523D01*
X98585714Y-42616666D01*
X98633333Y-42521428D01*
X98728571Y-42473809D01*
X99252380Y-42473809D01*
X98585714Y-41997619D02*
X99252380Y-41997619D01*
X98680952Y-41997619D02*
X98633333Y-41950000D01*
X98585714Y-41854761D01*
X98585714Y-41711904D01*
X98633333Y-41616666D01*
X98728571Y-41569047D01*
X99252380Y-41569047D01*
X99347619Y-41330952D02*
X99347619Y-40569047D01*
X98252380Y-40140476D02*
X98252380Y-40045238D01*
X98300000Y-39950000D01*
X98347619Y-39902380D01*
X98442857Y-39854761D01*
X98633333Y-39807142D01*
X98871428Y-39807142D01*
X99061904Y-39854761D01*
X99157142Y-39902380D01*
X99204761Y-39950000D01*
X99252380Y-40045238D01*
X99252380Y-40140476D01*
X99204761Y-40235714D01*
X99157142Y-40283333D01*
X99061904Y-40330952D01*
X98871428Y-40378571D01*
X98633333Y-40378571D01*
X98442857Y-40330952D01*
X98347619Y-40283333D01*
X98300000Y-40235714D01*
X98252380Y-40140476D01*
X99252380Y-38854761D02*
X99252380Y-39426190D01*
X99252380Y-39140476D02*
X98252380Y-39140476D01*
X98395238Y-39235714D01*
X98490476Y-39330952D01*
X98538095Y-39426190D01*
X99252380Y-38521428D02*
X98585714Y-37997619D01*
X98585714Y-38521428D02*
X99252380Y-37997619D01*
X98252380Y-37426190D02*
X98252380Y-37330952D01*
X98300000Y-37235714D01*
X98347619Y-37188095D01*
X98442857Y-37140476D01*
X98633333Y-37092857D01*
X98871428Y-37092857D01*
X99061904Y-37140476D01*
X99157142Y-37188095D01*
X99204761Y-37235714D01*
X99252380Y-37330952D01*
X99252380Y-37426190D01*
X99204761Y-37521428D01*
X99157142Y-37569047D01*
X99061904Y-37616666D01*
X98871428Y-37664285D01*
X98633333Y-37664285D01*
X98442857Y-37616666D01*
X98347619Y-37569047D01*
X98300000Y-37521428D01*
X98252380Y-37426190D01*
X98585714Y-36235714D02*
X99252380Y-36235714D01*
X98204761Y-36473809D02*
X98919047Y-36711904D01*
X98919047Y-36092857D01*
X99347619Y-35950000D02*
X99347619Y-35188095D01*
X98728571Y-34616666D02*
X98728571Y-34950000D01*
X99252380Y-34950000D02*
X98252380Y-34950000D01*
X98252380Y-34473809D01*
X99204761Y-33711904D02*
X99252380Y-33807142D01*
X99252380Y-33997619D01*
X99204761Y-34092857D01*
X99109523Y-34140476D01*
X98728571Y-34140476D01*
X98633333Y-34092857D01*
X98585714Y-33997619D01*
X98585714Y-33807142D01*
X98633333Y-33711904D01*
X98728571Y-33664285D01*
X98823809Y-33664285D01*
X98919047Y-34140476D01*
X99252380Y-33235714D02*
X98585714Y-33235714D01*
X98680952Y-33235714D02*
X98633333Y-33188095D01*
X98585714Y-33092857D01*
X98585714Y-32950000D01*
X98633333Y-32854761D01*
X98728571Y-32807142D01*
X99252380Y-32807142D01*
X98728571Y-32807142D02*
X98633333Y-32759523D01*
X98585714Y-32664285D01*
X98585714Y-32521428D01*
X98633333Y-32426190D01*
X98728571Y-32378571D01*
X99252380Y-32378571D01*
X99252380Y-31473809D02*
X98728571Y-31473809D01*
X98633333Y-31521428D01*
X98585714Y-31616666D01*
X98585714Y-31807142D01*
X98633333Y-31902380D01*
X99204761Y-31473809D02*
X99252380Y-31569047D01*
X99252380Y-31807142D01*
X99204761Y-31902380D01*
X99109523Y-31950000D01*
X99014285Y-31950000D01*
X98919047Y-31902380D01*
X98871428Y-31807142D01*
X98871428Y-31569047D01*
X98823809Y-31473809D01*
X99252380Y-30854761D02*
X99204761Y-30950000D01*
X99109523Y-30997619D01*
X98252380Y-30997619D01*
X99204761Y-30092857D02*
X99252380Y-30188095D01*
X99252380Y-30378571D01*
X99204761Y-30473809D01*
X99109523Y-30521428D01*
X98728571Y-30521428D01*
X98633333Y-30473809D01*
X98585714Y-30378571D01*
X98585714Y-30188095D01*
X98633333Y-30092857D01*
X98728571Y-30045238D01*
X98823809Y-30045238D01*
X98919047Y-30521428D01*
X103666666Y-42202380D02*
X103666666Y-42916666D01*
X103619047Y-43059523D01*
X103523809Y-43154761D01*
X103380952Y-43202380D01*
X103285714Y-43202380D01*
X104666666Y-43202380D02*
X104095238Y-43202380D01*
X104380952Y-43202380D02*
X104380952Y-42202380D01*
X104285714Y-42345238D01*
X104190476Y-42440476D01*
X104095238Y-42488095D01*
X108466666Y-91095238D02*
X108466666Y-90619047D01*
X108752380Y-91190476D02*
X107752380Y-90857142D01*
X108752380Y-90523809D01*
X108752380Y-90190476D02*
X107752380Y-90190476D01*
X107752380Y-89809523D01*
X107800000Y-89714285D01*
X107847619Y-89666666D01*
X107942857Y-89619047D01*
X108085714Y-89619047D01*
X108180952Y-89666666D01*
X108228571Y-89714285D01*
X108276190Y-89809523D01*
X108276190Y-90190476D01*
X108466666Y-89238095D02*
X108466666Y-88761904D01*
X108752380Y-89333333D02*
X107752380Y-89000000D01*
X108752380Y-88666666D01*
X108752380Y-87809523D02*
X108752380Y-88380952D01*
X108752380Y-88095238D02*
X107752380Y-88095238D01*
X107895238Y-88190476D01*
X107990476Y-88285714D01*
X108038095Y-88380952D01*
X107752380Y-87190476D02*
X107752380Y-87095238D01*
X107800000Y-87000000D01*
X107847619Y-86952380D01*
X107942857Y-86904761D01*
X108133333Y-86857142D01*
X108371428Y-86857142D01*
X108561904Y-86904761D01*
X108657142Y-86952380D01*
X108704761Y-87000000D01*
X108752380Y-87095238D01*
X108752380Y-87190476D01*
X108704761Y-87285714D01*
X108657142Y-87333333D01*
X108561904Y-87380952D01*
X108371428Y-87428571D01*
X108133333Y-87428571D01*
X107942857Y-87380952D01*
X107847619Y-87333333D01*
X107800000Y-87285714D01*
X107752380Y-87190476D01*
X107847619Y-86476190D02*
X107800000Y-86428571D01*
X107752380Y-86333333D01*
X107752380Y-86095238D01*
X107800000Y-86000000D01*
X107847619Y-85952380D01*
X107942857Y-85904761D01*
X108038095Y-85904761D01*
X108180952Y-85952380D01*
X108752380Y-86523809D01*
X108752380Y-85904761D01*
X108657142Y-84904761D02*
X108704761Y-84952380D01*
X108752380Y-85095238D01*
X108752380Y-85190476D01*
X108704761Y-85333333D01*
X108609523Y-85428571D01*
X108514285Y-85476190D01*
X108323809Y-85523809D01*
X108180952Y-85523809D01*
X107990476Y-85476190D01*
X107895238Y-85428571D01*
X107800000Y-85333333D01*
X107752380Y-85190476D01*
X107752380Y-85095238D01*
X107800000Y-84952380D01*
X107847619Y-84904761D01*
D13*
X105271428Y-88442857D02*
X104671428Y-88442857D01*
X104671428Y-88300000D01*
X104700000Y-88214285D01*
X104757142Y-88157142D01*
X104814285Y-88128571D01*
X104928571Y-88100000D01*
X105014285Y-88100000D01*
X105128571Y-88128571D01*
X105185714Y-88157142D01*
X105242857Y-88214285D01*
X105271428Y-88300000D01*
X105271428Y-88442857D01*
X105271428Y-87528571D02*
X105271428Y-87871428D01*
X105271428Y-87700000D02*
X104671428Y-87700000D01*
X104757142Y-87757142D01*
X104814285Y-87814285D01*
X104842857Y-87871428D01*
D10*
X113466666Y-64595238D02*
X113466666Y-64119047D01*
X113752380Y-64690476D02*
X112752380Y-64357142D01*
X113752380Y-64023809D01*
X113752380Y-63690476D02*
X112752380Y-63690476D01*
X112752380Y-63309523D01*
X112800000Y-63214285D01*
X112847619Y-63166666D01*
X112942857Y-63119047D01*
X113085714Y-63119047D01*
X113180952Y-63166666D01*
X113228571Y-63214285D01*
X113276190Y-63309523D01*
X113276190Y-63690476D01*
X113466666Y-62738095D02*
X113466666Y-62261904D01*
X113752380Y-62833333D02*
X112752380Y-62500000D01*
X113752380Y-62166666D01*
X113752380Y-61309523D02*
X113752380Y-61880952D01*
X113752380Y-61595238D02*
X112752380Y-61595238D01*
X112895238Y-61690476D01*
X112990476Y-61785714D01*
X113038095Y-61880952D01*
X112752380Y-60690476D02*
X112752380Y-60595238D01*
X112800000Y-60500000D01*
X112847619Y-60452380D01*
X112942857Y-60404761D01*
X113133333Y-60357142D01*
X113371428Y-60357142D01*
X113561904Y-60404761D01*
X113657142Y-60452380D01*
X113704761Y-60500000D01*
X113752380Y-60595238D01*
X113752380Y-60690476D01*
X113704761Y-60785714D01*
X113657142Y-60833333D01*
X113561904Y-60880952D01*
X113371428Y-60928571D01*
X113133333Y-60928571D01*
X112942857Y-60880952D01*
X112847619Y-60833333D01*
X112800000Y-60785714D01*
X112752380Y-60690476D01*
X112847619Y-59976190D02*
X112800000Y-59928571D01*
X112752380Y-59833333D01*
X112752380Y-59595238D01*
X112800000Y-59500000D01*
X112847619Y-59452380D01*
X112942857Y-59404761D01*
X113038095Y-59404761D01*
X113180952Y-59452380D01*
X113752380Y-60023809D01*
X113752380Y-59404761D01*
X113657142Y-58404761D02*
X113704761Y-58452380D01*
X113752380Y-58595238D01*
X113752380Y-58690476D01*
X113704761Y-58833333D01*
X113609523Y-58928571D01*
X113514285Y-58976190D01*
X113323809Y-59023809D01*
X113180952Y-59023809D01*
X112990476Y-58976190D01*
X112895238Y-58928571D01*
X112800000Y-58833333D01*
X112752380Y-58690476D01*
X112752380Y-58595238D01*
X112800000Y-58452380D01*
X112847619Y-58404761D01*
D13*
X110271428Y-61942857D02*
X109671428Y-61942857D01*
X109671428Y-61800000D01*
X109700000Y-61714285D01*
X109757142Y-61657142D01*
X109814285Y-61628571D01*
X109928571Y-61600000D01*
X110014285Y-61600000D01*
X110128571Y-61628571D01*
X110185714Y-61657142D01*
X110242857Y-61714285D01*
X110271428Y-61800000D01*
X110271428Y-61942857D01*
X109728571Y-61371428D02*
X109700000Y-61342857D01*
X109671428Y-61285714D01*
X109671428Y-61142857D01*
X109700000Y-61085714D01*
X109728571Y-61057142D01*
X109785714Y-61028571D01*
X109842857Y-61028571D01*
X109928571Y-61057142D01*
X110271428Y-61400000D01*
X110271428Y-61028571D01*
D10*
X118466666Y-91095238D02*
X118466666Y-90619047D01*
X118752380Y-91190476D02*
X117752380Y-90857142D01*
X118752380Y-90523809D01*
X118752380Y-90190476D02*
X117752380Y-90190476D01*
X117752380Y-89809523D01*
X117800000Y-89714285D01*
X117847619Y-89666666D01*
X117942857Y-89619047D01*
X118085714Y-89619047D01*
X118180952Y-89666666D01*
X118228571Y-89714285D01*
X118276190Y-89809523D01*
X118276190Y-90190476D01*
X118466666Y-89238095D02*
X118466666Y-88761904D01*
X118752380Y-89333333D02*
X117752380Y-89000000D01*
X118752380Y-88666666D01*
X118752380Y-87809523D02*
X118752380Y-88380952D01*
X118752380Y-88095238D02*
X117752380Y-88095238D01*
X117895238Y-88190476D01*
X117990476Y-88285714D01*
X118038095Y-88380952D01*
X117752380Y-87190476D02*
X117752380Y-87095238D01*
X117800000Y-87000000D01*
X117847619Y-86952380D01*
X117942857Y-86904761D01*
X118133333Y-86857142D01*
X118371428Y-86857142D01*
X118561904Y-86904761D01*
X118657142Y-86952380D01*
X118704761Y-87000000D01*
X118752380Y-87095238D01*
X118752380Y-87190476D01*
X118704761Y-87285714D01*
X118657142Y-87333333D01*
X118561904Y-87380952D01*
X118371428Y-87428571D01*
X118133333Y-87428571D01*
X117942857Y-87380952D01*
X117847619Y-87333333D01*
X117800000Y-87285714D01*
X117752380Y-87190476D01*
X117847619Y-86476190D02*
X117800000Y-86428571D01*
X117752380Y-86333333D01*
X117752380Y-86095238D01*
X117800000Y-86000000D01*
X117847619Y-85952380D01*
X117942857Y-85904761D01*
X118038095Y-85904761D01*
X118180952Y-85952380D01*
X118752380Y-86523809D01*
X118752380Y-85904761D01*
X118657142Y-84904761D02*
X118704761Y-84952380D01*
X118752380Y-85095238D01*
X118752380Y-85190476D01*
X118704761Y-85333333D01*
X118609523Y-85428571D01*
X118514285Y-85476190D01*
X118323809Y-85523809D01*
X118180952Y-85523809D01*
X117990476Y-85476190D01*
X117895238Y-85428571D01*
X117800000Y-85333333D01*
X117752380Y-85190476D01*
X117752380Y-85095238D01*
X117800000Y-84952380D01*
X117847619Y-84904761D01*
D13*
X115271428Y-88442857D02*
X114671428Y-88442857D01*
X114671428Y-88300000D01*
X114700000Y-88214285D01*
X114757142Y-88157142D01*
X114814285Y-88128571D01*
X114928571Y-88100000D01*
X115014285Y-88100000D01*
X115128571Y-88128571D01*
X115185714Y-88157142D01*
X115242857Y-88214285D01*
X115271428Y-88300000D01*
X115271428Y-88442857D01*
X114671428Y-87900000D02*
X114671428Y-87528571D01*
X114900000Y-87728571D01*
X114900000Y-87642857D01*
X114928571Y-87585714D01*
X114957142Y-87557142D01*
X115014285Y-87528571D01*
X115157142Y-87528571D01*
X115214285Y-87557142D01*
X115242857Y-87585714D01*
X115271428Y-87642857D01*
X115271428Y-87814285D01*
X115242857Y-87871428D01*
X115214285Y-87900000D01*
D10*
X123466666Y-64595238D02*
X123466666Y-64119047D01*
X123752380Y-64690476D02*
X122752380Y-64357142D01*
X123752380Y-64023809D01*
X123752380Y-63690476D02*
X122752380Y-63690476D01*
X122752380Y-63309523D01*
X122800000Y-63214285D01*
X122847619Y-63166666D01*
X122942857Y-63119047D01*
X123085714Y-63119047D01*
X123180952Y-63166666D01*
X123228571Y-63214285D01*
X123276190Y-63309523D01*
X123276190Y-63690476D01*
X123466666Y-62738095D02*
X123466666Y-62261904D01*
X123752380Y-62833333D02*
X122752380Y-62500000D01*
X123752380Y-62166666D01*
X123752380Y-61309523D02*
X123752380Y-61880952D01*
X123752380Y-61595238D02*
X122752380Y-61595238D01*
X122895238Y-61690476D01*
X122990476Y-61785714D01*
X123038095Y-61880952D01*
X122752380Y-60690476D02*
X122752380Y-60595238D01*
X122800000Y-60500000D01*
X122847619Y-60452380D01*
X122942857Y-60404761D01*
X123133333Y-60357142D01*
X123371428Y-60357142D01*
X123561904Y-60404761D01*
X123657142Y-60452380D01*
X123704761Y-60500000D01*
X123752380Y-60595238D01*
X123752380Y-60690476D01*
X123704761Y-60785714D01*
X123657142Y-60833333D01*
X123561904Y-60880952D01*
X123371428Y-60928571D01*
X123133333Y-60928571D01*
X122942857Y-60880952D01*
X122847619Y-60833333D01*
X122800000Y-60785714D01*
X122752380Y-60690476D01*
X122847619Y-59976190D02*
X122800000Y-59928571D01*
X122752380Y-59833333D01*
X122752380Y-59595238D01*
X122800000Y-59500000D01*
X122847619Y-59452380D01*
X122942857Y-59404761D01*
X123038095Y-59404761D01*
X123180952Y-59452380D01*
X123752380Y-60023809D01*
X123752380Y-59404761D01*
X123657142Y-58404761D02*
X123704761Y-58452380D01*
X123752380Y-58595238D01*
X123752380Y-58690476D01*
X123704761Y-58833333D01*
X123609523Y-58928571D01*
X123514285Y-58976190D01*
X123323809Y-59023809D01*
X123180952Y-59023809D01*
X122990476Y-58976190D01*
X122895238Y-58928571D01*
X122800000Y-58833333D01*
X122752380Y-58690476D01*
X122752380Y-58595238D01*
X122800000Y-58452380D01*
X122847619Y-58404761D01*
D13*
X120271428Y-61942857D02*
X119671428Y-61942857D01*
X119671428Y-61800000D01*
X119700000Y-61714285D01*
X119757142Y-61657142D01*
X119814285Y-61628571D01*
X119928571Y-61600000D01*
X120014285Y-61600000D01*
X120128571Y-61628571D01*
X120185714Y-61657142D01*
X120242857Y-61714285D01*
X120271428Y-61800000D01*
X120271428Y-61942857D01*
X119871428Y-61085714D02*
X120271428Y-61085714D01*
X119642857Y-61228571D02*
X120071428Y-61371428D01*
X120071428Y-61000000D01*
D10*
X128466666Y-91095238D02*
X128466666Y-90619047D01*
X128752380Y-91190476D02*
X127752380Y-90857142D01*
X128752380Y-90523809D01*
X128752380Y-90190476D02*
X127752380Y-90190476D01*
X127752380Y-89809523D01*
X127800000Y-89714285D01*
X127847619Y-89666666D01*
X127942857Y-89619047D01*
X128085714Y-89619047D01*
X128180952Y-89666666D01*
X128228571Y-89714285D01*
X128276190Y-89809523D01*
X128276190Y-90190476D01*
X128466666Y-89238095D02*
X128466666Y-88761904D01*
X128752380Y-89333333D02*
X127752380Y-89000000D01*
X128752380Y-88666666D01*
X128752380Y-87809523D02*
X128752380Y-88380952D01*
X128752380Y-88095238D02*
X127752380Y-88095238D01*
X127895238Y-88190476D01*
X127990476Y-88285714D01*
X128038095Y-88380952D01*
X127752380Y-87190476D02*
X127752380Y-87095238D01*
X127800000Y-87000000D01*
X127847619Y-86952380D01*
X127942857Y-86904761D01*
X128133333Y-86857142D01*
X128371428Y-86857142D01*
X128561904Y-86904761D01*
X128657142Y-86952380D01*
X128704761Y-87000000D01*
X128752380Y-87095238D01*
X128752380Y-87190476D01*
X128704761Y-87285714D01*
X128657142Y-87333333D01*
X128561904Y-87380952D01*
X128371428Y-87428571D01*
X128133333Y-87428571D01*
X127942857Y-87380952D01*
X127847619Y-87333333D01*
X127800000Y-87285714D01*
X127752380Y-87190476D01*
X127847619Y-86476190D02*
X127800000Y-86428571D01*
X127752380Y-86333333D01*
X127752380Y-86095238D01*
X127800000Y-86000000D01*
X127847619Y-85952380D01*
X127942857Y-85904761D01*
X128038095Y-85904761D01*
X128180952Y-85952380D01*
X128752380Y-86523809D01*
X128752380Y-85904761D01*
X128657142Y-84904761D02*
X128704761Y-84952380D01*
X128752380Y-85095238D01*
X128752380Y-85190476D01*
X128704761Y-85333333D01*
X128609523Y-85428571D01*
X128514285Y-85476190D01*
X128323809Y-85523809D01*
X128180952Y-85523809D01*
X127990476Y-85476190D01*
X127895238Y-85428571D01*
X127800000Y-85333333D01*
X127752380Y-85190476D01*
X127752380Y-85095238D01*
X127800000Y-84952380D01*
X127847619Y-84904761D01*
D13*
X125271428Y-88442857D02*
X124671428Y-88442857D01*
X124671428Y-88300000D01*
X124700000Y-88214285D01*
X124757142Y-88157142D01*
X124814285Y-88128571D01*
X124928571Y-88100000D01*
X125014285Y-88100000D01*
X125128571Y-88128571D01*
X125185714Y-88157142D01*
X125242857Y-88214285D01*
X125271428Y-88300000D01*
X125271428Y-88442857D01*
X124671428Y-87557142D02*
X124671428Y-87842857D01*
X124957142Y-87871428D01*
X124928571Y-87842857D01*
X124900000Y-87785714D01*
X124900000Y-87642857D01*
X124928571Y-87585714D01*
X124957142Y-87557142D01*
X125014285Y-87528571D01*
X125157142Y-87528571D01*
X125214285Y-87557142D01*
X125242857Y-87585714D01*
X125271428Y-87642857D01*
X125271428Y-87785714D01*
X125242857Y-87842857D01*
X125214285Y-87871428D01*
D10*
X138466666Y-91095238D02*
X138466666Y-90619047D01*
X138752380Y-91190476D02*
X137752380Y-90857142D01*
X138752380Y-90523809D01*
X138752380Y-90190476D02*
X137752380Y-90190476D01*
X137752380Y-89809523D01*
X137800000Y-89714285D01*
X137847619Y-89666666D01*
X137942857Y-89619047D01*
X138085714Y-89619047D01*
X138180952Y-89666666D01*
X138228571Y-89714285D01*
X138276190Y-89809523D01*
X138276190Y-90190476D01*
X138466666Y-89238095D02*
X138466666Y-88761904D01*
X138752380Y-89333333D02*
X137752380Y-89000000D01*
X138752380Y-88666666D01*
X138752380Y-87809523D02*
X138752380Y-88380952D01*
X138752380Y-88095238D02*
X137752380Y-88095238D01*
X137895238Y-88190476D01*
X137990476Y-88285714D01*
X138038095Y-88380952D01*
X137752380Y-87190476D02*
X137752380Y-87095238D01*
X137800000Y-87000000D01*
X137847619Y-86952380D01*
X137942857Y-86904761D01*
X138133333Y-86857142D01*
X138371428Y-86857142D01*
X138561904Y-86904761D01*
X138657142Y-86952380D01*
X138704761Y-87000000D01*
X138752380Y-87095238D01*
X138752380Y-87190476D01*
X138704761Y-87285714D01*
X138657142Y-87333333D01*
X138561904Y-87380952D01*
X138371428Y-87428571D01*
X138133333Y-87428571D01*
X137942857Y-87380952D01*
X137847619Y-87333333D01*
X137800000Y-87285714D01*
X137752380Y-87190476D01*
X137847619Y-86476190D02*
X137800000Y-86428571D01*
X137752380Y-86333333D01*
X137752380Y-86095238D01*
X137800000Y-86000000D01*
X137847619Y-85952380D01*
X137942857Y-85904761D01*
X138038095Y-85904761D01*
X138180952Y-85952380D01*
X138752380Y-86523809D01*
X138752380Y-85904761D01*
X138657142Y-84904761D02*
X138704761Y-84952380D01*
X138752380Y-85095238D01*
X138752380Y-85190476D01*
X138704761Y-85333333D01*
X138609523Y-85428571D01*
X138514285Y-85476190D01*
X138323809Y-85523809D01*
X138180952Y-85523809D01*
X137990476Y-85476190D01*
X137895238Y-85428571D01*
X137800000Y-85333333D01*
X137752380Y-85190476D01*
X137752380Y-85095238D01*
X137800000Y-84952380D01*
X137847619Y-84904761D01*
D13*
X135271428Y-88442857D02*
X134671428Y-88442857D01*
X134671428Y-88300000D01*
X134700000Y-88214285D01*
X134757142Y-88157142D01*
X134814285Y-88128571D01*
X134928571Y-88100000D01*
X135014285Y-88100000D01*
X135128571Y-88128571D01*
X135185714Y-88157142D01*
X135242857Y-88214285D01*
X135271428Y-88300000D01*
X135271428Y-88442857D01*
X134671428Y-87585714D02*
X134671428Y-87700000D01*
X134700000Y-87757142D01*
X134728571Y-87785714D01*
X134814285Y-87842857D01*
X134928571Y-87871428D01*
X135157142Y-87871428D01*
X135214285Y-87842857D01*
X135242857Y-87814285D01*
X135271428Y-87757142D01*
X135271428Y-87642857D01*
X135242857Y-87585714D01*
X135214285Y-87557142D01*
X135157142Y-87528571D01*
X135014285Y-87528571D01*
X134957142Y-87557142D01*
X134928571Y-87585714D01*
X134900000Y-87642857D01*
X134900000Y-87757142D01*
X134928571Y-87814285D01*
X134957142Y-87842857D01*
X135014285Y-87871428D01*
D10*
X143466666Y-64595238D02*
X143466666Y-64119047D01*
X143752380Y-64690476D02*
X142752380Y-64357142D01*
X143752380Y-64023809D01*
X143752380Y-63690476D02*
X142752380Y-63690476D01*
X142752380Y-63309523D01*
X142800000Y-63214285D01*
X142847619Y-63166666D01*
X142942857Y-63119047D01*
X143085714Y-63119047D01*
X143180952Y-63166666D01*
X143228571Y-63214285D01*
X143276190Y-63309523D01*
X143276190Y-63690476D01*
X143466666Y-62738095D02*
X143466666Y-62261904D01*
X143752380Y-62833333D02*
X142752380Y-62500000D01*
X143752380Y-62166666D01*
X143752380Y-61309523D02*
X143752380Y-61880952D01*
X143752380Y-61595238D02*
X142752380Y-61595238D01*
X142895238Y-61690476D01*
X142990476Y-61785714D01*
X143038095Y-61880952D01*
X142752380Y-60690476D02*
X142752380Y-60595238D01*
X142800000Y-60500000D01*
X142847619Y-60452380D01*
X142942857Y-60404761D01*
X143133333Y-60357142D01*
X143371428Y-60357142D01*
X143561904Y-60404761D01*
X143657142Y-60452380D01*
X143704761Y-60500000D01*
X143752380Y-60595238D01*
X143752380Y-60690476D01*
X143704761Y-60785714D01*
X143657142Y-60833333D01*
X143561904Y-60880952D01*
X143371428Y-60928571D01*
X143133333Y-60928571D01*
X142942857Y-60880952D01*
X142847619Y-60833333D01*
X142800000Y-60785714D01*
X142752380Y-60690476D01*
X142847619Y-59976190D02*
X142800000Y-59928571D01*
X142752380Y-59833333D01*
X142752380Y-59595238D01*
X142800000Y-59500000D01*
X142847619Y-59452380D01*
X142942857Y-59404761D01*
X143038095Y-59404761D01*
X143180952Y-59452380D01*
X143752380Y-60023809D01*
X143752380Y-59404761D01*
X143657142Y-58404761D02*
X143704761Y-58452380D01*
X143752380Y-58595238D01*
X143752380Y-58690476D01*
X143704761Y-58833333D01*
X143609523Y-58928571D01*
X143514285Y-58976190D01*
X143323809Y-59023809D01*
X143180952Y-59023809D01*
X142990476Y-58976190D01*
X142895238Y-58928571D01*
X142800000Y-58833333D01*
X142752380Y-58690476D01*
X142752380Y-58595238D01*
X142800000Y-58452380D01*
X142847619Y-58404761D01*
D13*
X140271428Y-61942857D02*
X139671428Y-61942857D01*
X139671428Y-61800000D01*
X139700000Y-61714285D01*
X139757142Y-61657142D01*
X139814285Y-61628571D01*
X139928571Y-61600000D01*
X140014285Y-61600000D01*
X140128571Y-61628571D01*
X140185714Y-61657142D01*
X140242857Y-61714285D01*
X140271428Y-61800000D01*
X140271428Y-61942857D01*
X139671428Y-61400000D02*
X139671428Y-61000000D01*
X140271428Y-61257142D01*
D10*
X148466666Y-91095238D02*
X148466666Y-90619047D01*
X148752380Y-91190476D02*
X147752380Y-90857142D01*
X148752380Y-90523809D01*
X148752380Y-90190476D02*
X147752380Y-90190476D01*
X147752380Y-89809523D01*
X147800000Y-89714285D01*
X147847619Y-89666666D01*
X147942857Y-89619047D01*
X148085714Y-89619047D01*
X148180952Y-89666666D01*
X148228571Y-89714285D01*
X148276190Y-89809523D01*
X148276190Y-90190476D01*
X148466666Y-89238095D02*
X148466666Y-88761904D01*
X148752380Y-89333333D02*
X147752380Y-89000000D01*
X148752380Y-88666666D01*
X148752380Y-87809523D02*
X148752380Y-88380952D01*
X148752380Y-88095238D02*
X147752380Y-88095238D01*
X147895238Y-88190476D01*
X147990476Y-88285714D01*
X148038095Y-88380952D01*
X147752380Y-87190476D02*
X147752380Y-87095238D01*
X147800000Y-87000000D01*
X147847619Y-86952380D01*
X147942857Y-86904761D01*
X148133333Y-86857142D01*
X148371428Y-86857142D01*
X148561904Y-86904761D01*
X148657142Y-86952380D01*
X148704761Y-87000000D01*
X148752380Y-87095238D01*
X148752380Y-87190476D01*
X148704761Y-87285714D01*
X148657142Y-87333333D01*
X148561904Y-87380952D01*
X148371428Y-87428571D01*
X148133333Y-87428571D01*
X147942857Y-87380952D01*
X147847619Y-87333333D01*
X147800000Y-87285714D01*
X147752380Y-87190476D01*
X147847619Y-86476190D02*
X147800000Y-86428571D01*
X147752380Y-86333333D01*
X147752380Y-86095238D01*
X147800000Y-86000000D01*
X147847619Y-85952380D01*
X147942857Y-85904761D01*
X148038095Y-85904761D01*
X148180952Y-85952380D01*
X148752380Y-86523809D01*
X148752380Y-85904761D01*
X148657142Y-84904761D02*
X148704761Y-84952380D01*
X148752380Y-85095238D01*
X148752380Y-85190476D01*
X148704761Y-85333333D01*
X148609523Y-85428571D01*
X148514285Y-85476190D01*
X148323809Y-85523809D01*
X148180952Y-85523809D01*
X147990476Y-85476190D01*
X147895238Y-85428571D01*
X147800000Y-85333333D01*
X147752380Y-85190476D01*
X147752380Y-85095238D01*
X147800000Y-84952380D01*
X147847619Y-84904761D01*
D13*
X145271428Y-88442857D02*
X144671428Y-88442857D01*
X144671428Y-88300000D01*
X144700000Y-88214285D01*
X144757142Y-88157142D01*
X144814285Y-88128571D01*
X144928571Y-88100000D01*
X145014285Y-88100000D01*
X145128571Y-88128571D01*
X145185714Y-88157142D01*
X145242857Y-88214285D01*
X145271428Y-88300000D01*
X145271428Y-88442857D01*
X144928571Y-87757142D02*
X144900000Y-87814285D01*
X144871428Y-87842857D01*
X144814285Y-87871428D01*
X144785714Y-87871428D01*
X144728571Y-87842857D01*
X144700000Y-87814285D01*
X144671428Y-87757142D01*
X144671428Y-87642857D01*
X144700000Y-87585714D01*
X144728571Y-87557142D01*
X144785714Y-87528571D01*
X144814285Y-87528571D01*
X144871428Y-87557142D01*
X144900000Y-87585714D01*
X144928571Y-87642857D01*
X144928571Y-87757142D01*
X144957142Y-87814285D01*
X144985714Y-87842857D01*
X145042857Y-87871428D01*
X145157142Y-87871428D01*
X145214285Y-87842857D01*
X145242857Y-87814285D01*
X145271428Y-87757142D01*
X145271428Y-87642857D01*
X145242857Y-87585714D01*
X145214285Y-87557142D01*
X145157142Y-87528571D01*
X145042857Y-87528571D01*
X144985714Y-87557142D01*
X144957142Y-87585714D01*
X144928571Y-87642857D01*
D10*
X153466666Y-64595238D02*
X153466666Y-64119047D01*
X153752380Y-64690476D02*
X152752380Y-64357142D01*
X153752380Y-64023809D01*
X153752380Y-63690476D02*
X152752380Y-63690476D01*
X152752380Y-63309523D01*
X152800000Y-63214285D01*
X152847619Y-63166666D01*
X152942857Y-63119047D01*
X153085714Y-63119047D01*
X153180952Y-63166666D01*
X153228571Y-63214285D01*
X153276190Y-63309523D01*
X153276190Y-63690476D01*
X153466666Y-62738095D02*
X153466666Y-62261904D01*
X153752380Y-62833333D02*
X152752380Y-62500000D01*
X153752380Y-62166666D01*
X153752380Y-61309523D02*
X153752380Y-61880952D01*
X153752380Y-61595238D02*
X152752380Y-61595238D01*
X152895238Y-61690476D01*
X152990476Y-61785714D01*
X153038095Y-61880952D01*
X152752380Y-60690476D02*
X152752380Y-60595238D01*
X152800000Y-60500000D01*
X152847619Y-60452380D01*
X152942857Y-60404761D01*
X153133333Y-60357142D01*
X153371428Y-60357142D01*
X153561904Y-60404761D01*
X153657142Y-60452380D01*
X153704761Y-60500000D01*
X153752380Y-60595238D01*
X153752380Y-60690476D01*
X153704761Y-60785714D01*
X153657142Y-60833333D01*
X153561904Y-60880952D01*
X153371428Y-60928571D01*
X153133333Y-60928571D01*
X152942857Y-60880952D01*
X152847619Y-60833333D01*
X152800000Y-60785714D01*
X152752380Y-60690476D01*
X152847619Y-59976190D02*
X152800000Y-59928571D01*
X152752380Y-59833333D01*
X152752380Y-59595238D01*
X152800000Y-59500000D01*
X152847619Y-59452380D01*
X152942857Y-59404761D01*
X153038095Y-59404761D01*
X153180952Y-59452380D01*
X153752380Y-60023809D01*
X153752380Y-59404761D01*
X153657142Y-58404761D02*
X153704761Y-58452380D01*
X153752380Y-58595238D01*
X153752380Y-58690476D01*
X153704761Y-58833333D01*
X153609523Y-58928571D01*
X153514285Y-58976190D01*
X153323809Y-59023809D01*
X153180952Y-59023809D01*
X152990476Y-58976190D01*
X152895238Y-58928571D01*
X152800000Y-58833333D01*
X152752380Y-58690476D01*
X152752380Y-58595238D01*
X152800000Y-58452380D01*
X152847619Y-58404761D01*
D13*
X150271428Y-61942857D02*
X149671428Y-61942857D01*
X149671428Y-61800000D01*
X149700000Y-61714285D01*
X149757142Y-61657142D01*
X149814285Y-61628571D01*
X149928571Y-61600000D01*
X150014285Y-61600000D01*
X150128571Y-61628571D01*
X150185714Y-61657142D01*
X150242857Y-61714285D01*
X150271428Y-61800000D01*
X150271428Y-61942857D01*
X150271428Y-61314285D02*
X150271428Y-61200000D01*
X150242857Y-61142857D01*
X150214285Y-61114285D01*
X150128571Y-61057142D01*
X150014285Y-61028571D01*
X149785714Y-61028571D01*
X149728571Y-61057142D01*
X149700000Y-61085714D01*
X149671428Y-61142857D01*
X149671428Y-61257142D01*
X149700000Y-61314285D01*
X149728571Y-61342857D01*
X149785714Y-61371428D01*
X149928571Y-61371428D01*
X149985714Y-61342857D01*
X150014285Y-61314285D01*
X150042857Y-61257142D01*
X150042857Y-61142857D01*
X150014285Y-61085714D01*
X149985714Y-61057142D01*
X149928571Y-61028571D01*
D10*
X158466666Y-91095238D02*
X158466666Y-90619047D01*
X158752380Y-91190476D02*
X157752380Y-90857142D01*
X158752380Y-90523809D01*
X158752380Y-90190476D02*
X157752380Y-90190476D01*
X157752380Y-89809523D01*
X157800000Y-89714285D01*
X157847619Y-89666666D01*
X157942857Y-89619047D01*
X158085714Y-89619047D01*
X158180952Y-89666666D01*
X158228571Y-89714285D01*
X158276190Y-89809523D01*
X158276190Y-90190476D01*
X158466666Y-89238095D02*
X158466666Y-88761904D01*
X158752380Y-89333333D02*
X157752380Y-89000000D01*
X158752380Y-88666666D01*
X158752380Y-87809523D02*
X158752380Y-88380952D01*
X158752380Y-88095238D02*
X157752380Y-88095238D01*
X157895238Y-88190476D01*
X157990476Y-88285714D01*
X158038095Y-88380952D01*
X157752380Y-87190476D02*
X157752380Y-87095238D01*
X157800000Y-87000000D01*
X157847619Y-86952380D01*
X157942857Y-86904761D01*
X158133333Y-86857142D01*
X158371428Y-86857142D01*
X158561904Y-86904761D01*
X158657142Y-86952380D01*
X158704761Y-87000000D01*
X158752380Y-87095238D01*
X158752380Y-87190476D01*
X158704761Y-87285714D01*
X158657142Y-87333333D01*
X158561904Y-87380952D01*
X158371428Y-87428571D01*
X158133333Y-87428571D01*
X157942857Y-87380952D01*
X157847619Y-87333333D01*
X157800000Y-87285714D01*
X157752380Y-87190476D01*
X157847619Y-86476190D02*
X157800000Y-86428571D01*
X157752380Y-86333333D01*
X157752380Y-86095238D01*
X157800000Y-86000000D01*
X157847619Y-85952380D01*
X157942857Y-85904761D01*
X158038095Y-85904761D01*
X158180952Y-85952380D01*
X158752380Y-86523809D01*
X158752380Y-85904761D01*
X158657142Y-84904761D02*
X158704761Y-84952380D01*
X158752380Y-85095238D01*
X158752380Y-85190476D01*
X158704761Y-85333333D01*
X158609523Y-85428571D01*
X158514285Y-85476190D01*
X158323809Y-85523809D01*
X158180952Y-85523809D01*
X157990476Y-85476190D01*
X157895238Y-85428571D01*
X157800000Y-85333333D01*
X157752380Y-85190476D01*
X157752380Y-85095238D01*
X157800000Y-84952380D01*
X157847619Y-84904761D01*
D13*
X155271428Y-88728571D02*
X154671428Y-88728571D01*
X154671428Y-88585714D01*
X154700000Y-88500000D01*
X154757142Y-88442857D01*
X154814285Y-88414285D01*
X154928571Y-88385714D01*
X155014285Y-88385714D01*
X155128571Y-88414285D01*
X155185714Y-88442857D01*
X155242857Y-88500000D01*
X155271428Y-88585714D01*
X155271428Y-88728571D01*
X155271428Y-87814285D02*
X155271428Y-88157142D01*
X155271428Y-87985714D02*
X154671428Y-87985714D01*
X154757142Y-88042857D01*
X154814285Y-88100000D01*
X154842857Y-88157142D01*
X154671428Y-87442857D02*
X154671428Y-87385714D01*
X154700000Y-87328571D01*
X154728571Y-87300000D01*
X154785714Y-87271428D01*
X154900000Y-87242857D01*
X155042857Y-87242857D01*
X155157142Y-87271428D01*
X155214285Y-87300000D01*
X155242857Y-87328571D01*
X155271428Y-87385714D01*
X155271428Y-87442857D01*
X155242857Y-87500000D01*
X155214285Y-87528571D01*
X155157142Y-87557142D01*
X155042857Y-87585714D01*
X154900000Y-87585714D01*
X154785714Y-87557142D01*
X154728571Y-87528571D01*
X154700000Y-87500000D01*
X154671428Y-87442857D01*
D10*
X163466666Y-64595238D02*
X163466666Y-64119047D01*
X163752380Y-64690476D02*
X162752380Y-64357142D01*
X163752380Y-64023809D01*
X163752380Y-63690476D02*
X162752380Y-63690476D01*
X162752380Y-63309523D01*
X162800000Y-63214285D01*
X162847619Y-63166666D01*
X162942857Y-63119047D01*
X163085714Y-63119047D01*
X163180952Y-63166666D01*
X163228571Y-63214285D01*
X163276190Y-63309523D01*
X163276190Y-63690476D01*
X163466666Y-62738095D02*
X163466666Y-62261904D01*
X163752380Y-62833333D02*
X162752380Y-62500000D01*
X163752380Y-62166666D01*
X163752380Y-61309523D02*
X163752380Y-61880952D01*
X163752380Y-61595238D02*
X162752380Y-61595238D01*
X162895238Y-61690476D01*
X162990476Y-61785714D01*
X163038095Y-61880952D01*
X162752380Y-60690476D02*
X162752380Y-60595238D01*
X162800000Y-60500000D01*
X162847619Y-60452380D01*
X162942857Y-60404761D01*
X163133333Y-60357142D01*
X163371428Y-60357142D01*
X163561904Y-60404761D01*
X163657142Y-60452380D01*
X163704761Y-60500000D01*
X163752380Y-60595238D01*
X163752380Y-60690476D01*
X163704761Y-60785714D01*
X163657142Y-60833333D01*
X163561904Y-60880952D01*
X163371428Y-60928571D01*
X163133333Y-60928571D01*
X162942857Y-60880952D01*
X162847619Y-60833333D01*
X162800000Y-60785714D01*
X162752380Y-60690476D01*
X162847619Y-59976190D02*
X162800000Y-59928571D01*
X162752380Y-59833333D01*
X162752380Y-59595238D01*
X162800000Y-59500000D01*
X162847619Y-59452380D01*
X162942857Y-59404761D01*
X163038095Y-59404761D01*
X163180952Y-59452380D01*
X163752380Y-60023809D01*
X163752380Y-59404761D01*
X163657142Y-58404761D02*
X163704761Y-58452380D01*
X163752380Y-58595238D01*
X163752380Y-58690476D01*
X163704761Y-58833333D01*
X163609523Y-58928571D01*
X163514285Y-58976190D01*
X163323809Y-59023809D01*
X163180952Y-59023809D01*
X162990476Y-58976190D01*
X162895238Y-58928571D01*
X162800000Y-58833333D01*
X162752380Y-58690476D01*
X162752380Y-58595238D01*
X162800000Y-58452380D01*
X162847619Y-58404761D01*
D13*
X160271428Y-62228571D02*
X159671428Y-62228571D01*
X159671428Y-62085714D01*
X159700000Y-62000000D01*
X159757142Y-61942857D01*
X159814285Y-61914285D01*
X159928571Y-61885714D01*
X160014285Y-61885714D01*
X160128571Y-61914285D01*
X160185714Y-61942857D01*
X160242857Y-62000000D01*
X160271428Y-62085714D01*
X160271428Y-62228571D01*
X160271428Y-61314285D02*
X160271428Y-61657142D01*
X160271428Y-61485714D02*
X159671428Y-61485714D01*
X159757142Y-61542857D01*
X159814285Y-61600000D01*
X159842857Y-61657142D01*
X160271428Y-60742857D02*
X160271428Y-61085714D01*
X160271428Y-60914285D02*
X159671428Y-60914285D01*
X159757142Y-60971428D01*
X159814285Y-61028571D01*
X159842857Y-61085714D01*
D10*
X168466666Y-91095238D02*
X168466666Y-90619047D01*
X168752380Y-91190476D02*
X167752380Y-90857142D01*
X168752380Y-90523809D01*
X168752380Y-90190476D02*
X167752380Y-90190476D01*
X167752380Y-89809523D01*
X167800000Y-89714285D01*
X167847619Y-89666666D01*
X167942857Y-89619047D01*
X168085714Y-89619047D01*
X168180952Y-89666666D01*
X168228571Y-89714285D01*
X168276190Y-89809523D01*
X168276190Y-90190476D01*
X168466666Y-89238095D02*
X168466666Y-88761904D01*
X168752380Y-89333333D02*
X167752380Y-89000000D01*
X168752380Y-88666666D01*
X168752380Y-87809523D02*
X168752380Y-88380952D01*
X168752380Y-88095238D02*
X167752380Y-88095238D01*
X167895238Y-88190476D01*
X167990476Y-88285714D01*
X168038095Y-88380952D01*
X167752380Y-87190476D02*
X167752380Y-87095238D01*
X167800000Y-87000000D01*
X167847619Y-86952380D01*
X167942857Y-86904761D01*
X168133333Y-86857142D01*
X168371428Y-86857142D01*
X168561904Y-86904761D01*
X168657142Y-86952380D01*
X168704761Y-87000000D01*
X168752380Y-87095238D01*
X168752380Y-87190476D01*
X168704761Y-87285714D01*
X168657142Y-87333333D01*
X168561904Y-87380952D01*
X168371428Y-87428571D01*
X168133333Y-87428571D01*
X167942857Y-87380952D01*
X167847619Y-87333333D01*
X167800000Y-87285714D01*
X167752380Y-87190476D01*
X167847619Y-86476190D02*
X167800000Y-86428571D01*
X167752380Y-86333333D01*
X167752380Y-86095238D01*
X167800000Y-86000000D01*
X167847619Y-85952380D01*
X167942857Y-85904761D01*
X168038095Y-85904761D01*
X168180952Y-85952380D01*
X168752380Y-86523809D01*
X168752380Y-85904761D01*
X168657142Y-84904761D02*
X168704761Y-84952380D01*
X168752380Y-85095238D01*
X168752380Y-85190476D01*
X168704761Y-85333333D01*
X168609523Y-85428571D01*
X168514285Y-85476190D01*
X168323809Y-85523809D01*
X168180952Y-85523809D01*
X167990476Y-85476190D01*
X167895238Y-85428571D01*
X167800000Y-85333333D01*
X167752380Y-85190476D01*
X167752380Y-85095238D01*
X167800000Y-84952380D01*
X167847619Y-84904761D01*
D13*
X165271428Y-88728571D02*
X164671428Y-88728571D01*
X164671428Y-88585714D01*
X164700000Y-88500000D01*
X164757142Y-88442857D01*
X164814285Y-88414285D01*
X164928571Y-88385714D01*
X165014285Y-88385714D01*
X165128571Y-88414285D01*
X165185714Y-88442857D01*
X165242857Y-88500000D01*
X165271428Y-88585714D01*
X165271428Y-88728571D01*
X165271428Y-87814285D02*
X165271428Y-88157142D01*
X165271428Y-87985714D02*
X164671428Y-87985714D01*
X164757142Y-88042857D01*
X164814285Y-88100000D01*
X164842857Y-88157142D01*
X164728571Y-87585714D02*
X164700000Y-87557142D01*
X164671428Y-87500000D01*
X164671428Y-87357142D01*
X164700000Y-87300000D01*
X164728571Y-87271428D01*
X164785714Y-87242857D01*
X164842857Y-87242857D01*
X164928571Y-87271428D01*
X165271428Y-87614285D01*
X165271428Y-87242857D01*
D14*
X165076666Y-36554523D02*
X165076666Y-37461666D01*
X165016190Y-37643095D01*
X164895238Y-37764047D01*
X164713809Y-37824523D01*
X164592857Y-37824523D01*
X165620952Y-36675476D02*
X165681428Y-36615000D01*
X165802380Y-36554523D01*
X166104761Y-36554523D01*
X166225714Y-36615000D01*
X166286190Y-36675476D01*
X166346666Y-36796428D01*
X166346666Y-36917380D01*
X166286190Y-37098809D01*
X165560476Y-37824523D01*
X166346666Y-37824523D01*
M02*
